<svg viewBox="0 0 330 200" xmlns="http://www.w3.org/2000/svg"><g><g><g><g><g><line x1="50" y1="177" x2="45" y2="177" style="visibility: inherit;" fill="rgb(0, 0, 0)" stroke="rgb(204, 204, 204)" stroke-width="1px"></line><line x1="50" y1="163.3846153846154" x2="45" y2="163.3846153846154" style="visibility: inherit;" fill="rgb(0, 0, 0)" stroke="rgb(204, 204, 204)" stroke-width="1px"></line><line x1="50" y1="149.76923076923077" x2="45" y2="149.76923076923077" style="visibility: inherit;" fill="rgb(0, 0, 0)" stroke="rgb(204, 204, 204)" stroke-width="1px"></line><line x1="50" y1="136.15384615384613" x2="45" y2="136.15384615384613" style="visibility: inherit;" fill="rgb(0, 0, 0)" stroke="rgb(204, 204, 204)" stroke-width="1px"></line><line x1="50" y1="122.53846153846153" x2="45" y2="122.53846153846153" style="visibility: inherit;" fill="rgb(0, 0, 0)" stroke="rgb(204, 204, 204)" stroke-width="1px"></line><line x1="50" y1="108.92307692307693" x2="45" y2="108.92307692307693" style="visibility: inherit;" fill="rgb(0, 0, 0)" stroke="rgb(204, 204, 204)" stroke-width="1px"></line><line x1="50" y1="95.30769230769228" x2="45" y2="95.30769230769228" style="visibility: inherit;" fill="rgb(0, 0, 0)" stroke="rgb(204, 204, 204)" stroke-width="1px"></line><line x1="50" y1="81.6923076923077" x2="45" y2="81.6923076923077" style="visibility: inherit;" fill="rgb(0, 0, 0)" stroke="rgb(204, 204, 204)" stroke-width="1px"></line><line x1="50" y1="68.07692307692307" x2="45" y2="68.07692307692307" style="visibility: inherit;" fill="rgb(0, 0, 0)" stroke="rgb(204, 204, 204)" stroke-width="1px"></line><line x1="50" y1="54.461538461538446" x2="45" y2="54.461538461538446" style="visibility: inherit;" fill="rgb(0, 0, 0)" stroke="rgb(204, 204, 204)" stroke-width="1px"></line><line x1="50" y1="40.84615384615386" x2="45" y2="40.84615384615386" style="visibility: inherit;" fill="rgb(0, 0, 0)" stroke="rgb(204, 204, 204)" stroke-width="1px"></line><line x1="50" y1="27.230769230769234" x2="45" y2="27.230769230769234" style="visibility: inherit;" fill="rgb(0, 0, 0)" stroke="rgb(204, 204, 204)" stroke-width="1px"></line><line x1="50" y1="13.615384615384606" x2="45" y2="13.615384615384606" style="visibility: inherit;" fill="rgb(0, 0, 0)" stroke="rgb(204, 204, 204)" stroke-width="1px"></line><line x1="50" y1="0" x2="45" y2="0" style="visibility: inherit;" fill="rgb(0, 0, 0)" stroke="rgb(204, 204, 204)" stroke-width="1px"></line></g><g transform="translate(40, 0)"><text x="0" y="177" dx="0em" dy="0.3em" style="text-anchor: end; visibility: hidden; font-family: Roboto, sans-serif; font-size: 12px; font-weight: 200;" fill="rgb(33, 33, 33)" stroke="none" stroke-width="1px">0.22</text><text x="0" y="163.3846153846154" dx="0em" dy="0.3em" style="text-anchor: end; visibility: inherit; font-family: Roboto, sans-serif; font-size: 12px; font-weight: 200;" fill="rgb(33, 33, 33)" stroke="none" stroke-width="1px">0.24</text><text x="0" y="149.76923076923077" dx="0em" dy="0.3em" style="text-anchor: end; visibility: hidden; font-family: Roboto, sans-serif; font-size: 12px; font-weight: 200;" fill="rgb(33, 33, 33)" stroke="none" stroke-width="1px">0.26</text><text x="0" y="136.15384615384613" dx="0em" dy="0.3em" style="text-anchor: end; visibility: inherit; font-family: Roboto, sans-serif; font-size: 12px; font-weight: 200;" fill="rgb(33, 33, 33)" stroke="none" stroke-width="1px">0.28</text><text x="0" y="122.53846153846153" dx="0em" dy="0.3em" style="text-anchor: end; visibility: hidden; font-family: Roboto, sans-serif; font-size: 12px; font-weight: 200;" fill="rgb(33, 33, 33)" stroke="none" stroke-width="1px">0.3</text><text x="0" y="108.92307692307693" dx="0em" dy="0.3em" style="text-anchor: end; visibility: inherit; font-family: Roboto, sans-serif; font-size: 12px; font-weight: 200;" fill="rgb(33, 33, 33)" stroke="none" stroke-width="1px">0.32</text><text x="0" y="95.30769230769228" dx="0em" dy="0.3em" style="text-anchor: end; visibility: hidden; font-family: Roboto, sans-serif; font-size: 12px; font-weight: 200;" fill="rgb(33, 33, 33)" stroke="none" stroke-width="1px">0.34</text><text x="0" y="81.6923076923077" dx="0em" dy="0.3em" style="text-anchor: end; visibility: inherit; font-family: Roboto, sans-serif; font-size: 12px; font-weight: 200;" fill="rgb(33, 33, 33)" stroke="none" stroke-width="1px">0.36</text><text x="0" y="68.07692307692307" dx="0em" dy="0.3em" style="text-anchor: end; visibility: hidden; font-family: Roboto, sans-serif; font-size: 12px; font-weight: 200;" fill="rgb(33, 33, 33)" stroke="none" stroke-width="1px">0.38</text><text x="0" y="54.461538461538446" dx="0em" dy="0.3em" style="text-anchor: end; visibility: inherit; font-family: Roboto, sans-serif; font-size: 12px; font-weight: 200;" fill="rgb(33, 33, 33)" stroke="none" stroke-width="1px">0.4</text><text x="0" y="40.84615384615386" dx="0em" dy="0.3em" style="text-anchor: end; visibility: hidden; font-family: Roboto, sans-serif; font-size: 12px; font-weight: 200;" fill="rgb(33, 33, 33)" stroke="none" stroke-width="1px">0.42</text><text x="0" y="27.230769230769234" dx="0em" dy="0.3em" style="text-anchor: end; visibility: inherit; font-family: Roboto, sans-serif; font-size: 12px; font-weight: 200;" fill="rgb(33, 33, 33)" stroke="none" stroke-width="1px">0.44</text><text x="0" y="13.615384615384606" dx="0em" dy="0.3em" style="text-anchor: end; visibility: hidden; font-family: Roboto, sans-serif; font-size: 12px; font-weight: 200;" fill="rgb(33, 33, 33)" stroke="none" stroke-width="1px">0.46</text><text x="0" y="0" dx="0em" dy="0.3em" style="text-anchor: end; visibility: hidden; font-family: Roboto, sans-serif; font-size: 12px; font-weight: 200;" fill="rgb(33, 33, 33)" stroke="none" stroke-width="1px">0.48</text></g><line x1="50" y1="0" x2="50" y2="177" fill="rgb(0, 0, 0)" stroke="rgb(204, 204, 204)" stroke-width="1px"></line></g></g><g transform="translate(50, 0)" clip-path="url(#clip_0)"><clipPath id="clip_0"><rect width="280" height="177"></rect></clipPath><g><g><g><line x1="0" y1="0" x2="0" y2="177" fill="rgb(0, 0, 0)" stroke="rgb(66, 66, 66)" stroke-width="1px" opacity="0.25"></line><line x1="35" y1="0" x2="35" y2="177" fill="rgb(0, 0, 0)" stroke="rgb(66, 66, 66)" stroke-width="1px" opacity="0.25"></line><line x1="70" y1="0" x2="70" y2="177" fill="rgb(0, 0, 0)" stroke="rgb(66, 66, 66)" stroke-width="1px" opacity="0.25"></line><line x1="105" y1="0" x2="105" y2="177" fill="rgb(0, 0, 0)" stroke="rgb(66, 66, 66)" stroke-width="1px" opacity="0.25"></line><line x1="140" y1="0" x2="140" y2="177" fill="rgb(0, 0, 0)" stroke="rgb(66, 66, 66)" stroke-width="1px" opacity="0.25"></line><line x1="175" y1="0" x2="175" y2="177" fill="rgb(0, 0, 0)" stroke="rgb(66, 66, 66)" stroke-width="1px" opacity="0.25"></line><line x1="210" y1="0" x2="210" y2="177" fill="rgb(0, 0, 0)" stroke="rgb(66, 66, 66)" stroke-width="1px" opacity="0.25"></line><line x1="245" y1="0" x2="245" y2="177" fill="rgb(0, 0, 0)" stroke="rgb(66, 66, 66)" stroke-width="1px" opacity="0.25"></line><line x1="280" y1="0" x2="280" y2="177" fill="rgb(0, 0, 0)" stroke="rgb(66, 66, 66)" stroke-width="1px" opacity="0.25"></line></g><g><line x1="0" y1="177" x2="280" y2="177" fill="rgb(0, 0, 0)" stroke="rgb(66, 66, 66)" stroke-width="1px" opacity="0.25"></line><line x1="0" y1="163.3846153846154" x2="280" y2="163.3846153846154" fill="rgb(0, 0, 0)" stroke="rgb(66, 66, 66)" stroke-width="1px" opacity="0.25"></line><line x1="0" y1="149.76923076923077" x2="280" y2="149.76923076923077" fill="rgb(0, 0, 0)" stroke="rgb(66, 66, 66)" stroke-width="1px" opacity="0.25"></line><line x1="0" y1="136.15384615384613" x2="280" y2="136.15384615384613" fill="rgb(0, 0, 0)" stroke="rgb(66, 66, 66)" stroke-width="1px" opacity="0.25"></line><line x1="0" y1="122.53846153846153" x2="280" y2="122.53846153846153" fill="rgb(0, 0, 0)" stroke="rgb(66, 66, 66)" stroke-width="1px" opacity="0.25"></line><line x1="0" y1="108.92307692307693" x2="280" y2="108.92307692307693" fill="rgb(0, 0, 0)" stroke="rgb(66, 66, 66)" stroke-width="1px" opacity="0.25"></line><line x1="0" y1="95.30769230769228" x2="280" y2="95.30769230769228" fill="rgb(0, 0, 0)" stroke="rgb(66, 66, 66)" stroke-width="1px" opacity="0.25"></line><line x1="0" y1="81.6923076923077" x2="280" y2="81.6923076923077" fill="rgb(0, 0, 0)" stroke="rgb(66, 66, 66)" stroke-width="1px" opacity="0.25"></line><line x1="0" y1="68.07692307692307" x2="280" y2="68.07692307692307" fill="rgb(0, 0, 0)" stroke="rgb(66, 66, 66)" stroke-width="1px" opacity="0.25"></line><line x1="0" y1="54.461538461538446" x2="280" y2="54.461538461538446" fill="rgb(0, 0, 0)" stroke="rgb(66, 66, 66)" stroke-width="1px" opacity="0.25"></line><line x1="0" y1="40.84615384615386" x2="280" y2="40.84615384615386" fill="rgb(0, 0, 0)" stroke="rgb(66, 66, 66)" stroke-width="1px" opacity="0.25"></line><line x1="0" y1="27.230769230769234" x2="280" y2="27.230769230769234" fill="rgb(0, 0, 0)" stroke="rgb(66, 66, 66)" stroke-width="1px" opacity="0.25"></line><line x1="0" y1="13.615384615384606" x2="280" y2="13.615384615384606" fill="rgb(0, 0, 0)" stroke="rgb(66, 66, 66)" stroke-width="1px" opacity="0.25"></line><line x1="0" y1="0" x2="280" y2="0" fill="rgb(0, 0, 0)" stroke="rgb(66, 66, 66)" stroke-width="1px" opacity="0.25"></line></g></g></g><g><g><line x1="0" y1="326.7692307692308" x2="280" y2="326.7692307692308" fill="rgb(0, 0, 0)" stroke="rgb(153, 153, 153)" stroke-width="1.5px"></line></g></g><g><g><line x1="35" y1="0" x2="35" y2="177" fill="rgb(0, 0, 0)" stroke="rgb(153, 153, 153)" stroke-width="1.5px"></line></g></g><g><g><g><g><g><path stroke="rgb(0, 119, 187)" stroke-width="2px" d="M42.42,-0.7208527766360107L42.91,0.8967274886849887L43.26,1.8812117510627262L43.82,2.0751159143662576L44.03,1.1382167497860665L44.1,2.0847816379636077L44.730000000000004,4.352288080745181L44.870000000000005,5.770780681900332L44.94,5.607110703174494L45.01,5.552263664569637L45.5,7.503138375323626L45.85,7.529454804265304L45.99,8.23233088533749L46.06,10.905045190632226L46.34,10.877610636088038L46.690000000000005,11.895442725750042L46.760000000000005,13.069736696139566L46.970000000000006,13.913534501315175L47.39,15.861674527052704L47.46,17.118433492772578L47.6,17.23732640492743L47.81,17.707908379079438L47.95,18.375665333729703L48.02,19.415702978936842L48.16,20.169399674387048L48.3,20.93790268780659L48.37,21.934974617215534L48.86,22.43866932886347L49.419999999999995,22.432645240372057L49.489999999999995,23.164995970197477L49.559999999999995,23.727152927789884L49.839999999999996,24.276066654028504L50.61,25.072602413311486L50.75,26.19012543991817L51.03,26.37457927873409L51.24,26.639953331230057L51.379999999999995,26.64427837417423L51.589999999999996,27.23420303847771L52.43,27.083172208569202L52.85,26.809761919525492L53.06,27.646237932013083L53.2,27.631451554297872L53.27,27.951795878032982L53.410000000000004,27.886597752806875L53.69,28.198010642583625L53.97,28.684954271954908L54.11,29.173160659567824L54.46,29.572458499361876L55.440000000000005,28.822097168258978L55.790000000000006,29.317957217281112L55.86,29.21442454212082L56.14,29.799708729216267L56.21,30.40208299232469L56.49,30.057123798177766L56.56,29.53954202495089L56.7,29.912645447366913L56.91,30.244253698770088L57.26,30.71026750293775L57.33,30.768661353790705L57.75,31.087502068699692L57.82,31.364219883239123L57.89,31.433581658092006L58.099999999999994,31.667821948464788L58.73,31.825972244682685L59.29,32.01841532391288L60.199999999999996,32.45582065098837L60.41,33.17993857022281L60.69,33.23228801201954L61.11,33.58851770557218L61.39,33.69636866027467L61.46,33.47394856573072L61.53,33.69492488047851L62.02,33.32131411995031L62.370000000000005,33.462837775087586L62.44,33.716388141714425L63.56,34.34395385959877L64.05,34.854296432035945L64.47,35.259926814125635L64.54,35.8133910084175L64.68,36.35749297245739L65.10000000000001,36.62047377804033L65.72999999999999,36.87078379711678L65.86999999999999,36.937413657697775L65.94,36.26836889150587L66.14999999999999,36.249259174995785L66.57,36.23225060297956L67.2,36.06667129185532L67.41,36.33346142068748L67.48,36.34440937073422L68.11,36.917533035466015L68.17999999999999,36.92807906906039L68.95,37.013595574815206L69.16,37.14733318681371L69.23,37.508435224268105L69.37,37.365842532718055L69.51,37.96515482862175L70.49,38.0774234766593L70.84,38.36460974954768L70.98,38.28354460991251L71.19,38.284342092412466L71.75,38.4627804017964L72.16999999999999,38.9998930274178L72.30999999999999,39.22711390122243L72.52,39.266006399641235L72.58999999999999,39.28680371295151L72.8,39.50294287935674L72.94,39.83349082166673L73.28999999999999,40.17639245241144L73.36,40.09172474905649L73.99,40.09477798523011L74.13,40.557514546575796L74.41,40.89055467408338L74.48,40.96129681524299L74.83,40.98573524408824L75.11,41.12134392299415L75.18,41.41501054272997L75.53,41.26147555192907L75.67,41.67659419387235L75.74000000000001,41.828352899638396L75.81,41.56571439763608L75.88000000000001,41.646234306672916L76.02000000000001,41.39007627781299L76.09,41.32465877303285L76.44000000000001,41.52489453810696L76.50999999999999,41.8440698906283L77,42.13668051055741L77.14,42.208530712860565L77.56,42.34234048054963L77.7,42.60042116952445L78.05,42.83438541725334L78.4,43.11633708784755L78.54,43.199561514570874L79.38,43.43598474470569L79.87,43.29284461456588L79.94,43.65275529863626L80.08,43.78078600773975L80.15,43.977422387607895L80.22,44.04305781703614L80.29,44.045524740132315L80.43,44.10755186189478L80.64,44.08636344860931L80.91999999999999,44.15045944611473L81.27,44.243491165256785L81.47999999999999,44.19701526093769L81.75999999999999,44.2150512319615L81.97,44.22971991518239L82.03999999999999,44.240840549521465L82.17999999999999,44.577750298547656L82.25,44.425518164172786L82.46,44.38849293735748L82.53,44.744401087408065L82.74,45.04027902292117L82.81,45.18405158157882L83.16,45.361010807539L83.23,45.470129440259655L83.72,45.77004069975822L83.93,45.66679092523821L84.21000000000001,45.859594677359325L84.42,46.19894300307473L84.56,46.63753727677143L84.7,46.92181728248793L84.98,47.02417281423166L85.25999999999999,47.00912854205186L85.47,47.1818424325425L85.53999999999999,47.11183172950561L85.61,47.30278752194986L85.67999999999999,47.42868612263817L86.1,47.572097855186605L86.52,47.73427571863629L86.66,47.97473549989668L86.73,48.16674233985646L87.01,48.079443737528976L87.22,48.212359527394746L87.29,48.054863933992664L87.5,48.452977903704856L87.57,48.521865191296975L87.64,48.50092275263098L87.78,48.32244943752634L87.92,48.5883447895962L88.34,48.83467640994351L88.55,48.96440454359876L88.62,48.874374084396834L88.83,48.95110864908779L88.9,49.237573090436776L88.97,49.2176057455823L89.11,49.28520803678272L89.18,49.385400940751374L89.60000000000001,49.27680437204631L89.88,49.482720887085094L89.94999999999999,49.61630148381896L90.08999999999999,49.720404171123924L90.22999999999999,49.80911604350522L90.36999999999999,50.01640478750886L90.44,50.207727832262016L90.50999999999999,50.31940255125416L90.58,50.371308832881425L90.64999999999999,50.27068876493295L90.86,50.22814508360579L91.14,50.30426813677781L91.35,50.22081819623196L91.49,50.40790225714384L91.56,50.566507852186554L91.63,50.86154848335705L92.05,50.77235705123971L92.12,51.02853231327325L92.26,50.739842531235624L92.47,50.691913749272636L92.75,50.746246538430526L92.96000000000001,50.80745587594565L93.17,50.858986326320775L93.24000000000001,51.069530780278264L93.38000000000001,50.979660057888246L93.52000000000001,51.00741281472668L93.66000000000001,51.29455968246476L94.00999999999999,51.1048292497964L94.22,51.237109846883016L95.69,51.10970698210487L95.83,51.32506110738825L95.9,51.39326679577623L96.18,51.43145528667937L96.32,51.58322584795897L96.6,51.89148705987206L96.74,52.06113013766085L96.88,51.919662129890376L97.09,52.00046957967788L97.23,52.05248887207155L97.3,51.93883953333784L97.72,51.95729530710256L98,52.04836248564453L98.49000000000001,52.25538106413851L98.55999999999999,52.32553989209796L98.63,52.49628794647163L98.69999999999999,52.62766532375646L99.05,52.75485094533586L99.19,52.99051236650637L99.39999999999999,53.06274713916052L99.47,53.17705949081564L99.53999999999999,53.419368157356864L99.61,53.53321313453648L100.17,53.57140325931609L100.24,53.283870313179534L100.45,53.35092090704741L100.94,53.54580710038563L101.15,53.61667092908339L101.71000000000001,53.54522005216452L101.78,53.69549715108103L101.92,53.75465527125904L101.99000000000001,53.84516343915035L102.06,53.907955554930375L102.27000000000001,53.91966642158699L102.34,53.84095925972696L102.62,53.73942146249224L102.97,53.839734174577686L103.03999999999999,53.98658848065671L103.32,54.19683479069439L103.39,54.37423493836719L103.46,54.626240060675855L103.53,54.672319447658005L103.74,54.94519584294327L103.81,54.98278803158681L103.88,55.14617739843681L104.09,55.297000489308324L104.16,55.23109086210291L104.72,55.439028750129324L105,55.47600179218382L105.14,55.56907376609349L105.28,55.57802374415428L105.35,55.536833562272754L105.56,55.700652251129604L105.84,55.75699145804229L105.91,55.743295851601445L105.98,55.73990840958015L106.19,55.744789375417014L106.75,55.56383720025292L106.89,55.6387861720302L107.16999999999999,55.703966288768164L107.24000000000001,55.833670297941026L107.44999999999999,55.8071453964735L107.58999999999999,55.88335389916514L107.72999999999999,55.579827997983514L108.08,55.66524825382192L108.85,55.77961659744134L108.99,55.884369369516826L109.41,56.006646760222516L109.48,56.07289655314488L109.62,56.25455403936915L109.76,56.39082369848542L110.04,56.40055314499283L110.32000000000001,56.40643530236791L110.46000000000001,56.550010721086885L110.81,56.680876297797624L110.88000000000001,56.545619396381305L110.95,56.70036250712819L111.44000000000001,56.8125155884997L111.50999999999999,56.94987079411356L111.92999999999999,57.071856994068604L112.21,57.00938210066038L112.28,57.00235681712721L112.35,57.114534140704144L112.98,57.25884698223293L113.12,57.24282221133484L113.33,57.14556633422592L113.75,57.2055035019119L113.82,57.30302029411986L114.31,57.22818640774039L114.45,57.36151232703216L115.43,57.483451805841085L115.64,57.55854015161031L115.85000000000001,57.68990444427377L115.91999999999999,57.730986081169206L115.99000000000001,57.842102723530616L116.19999999999999,57.77897464167126L116.27,57.8658021817757L116.33999999999999,58.096517359615035L117.6,58.30993641303144L117.81,58.46769265625506L117.95,58.60308813720123L118.02,58.769775555250504L118.44,58.90717373550105L118.51,59.03042410040273L118.65,59.03514736185693L118.79,59.1448259419058L118.93,59.191944984565374L119.07000000000001,59.23522109706688L119.28,59.300802118076255L119.42,59.33721959180329L119.56,59.47307037461569L119.7,59.54436245116743L119.98,59.61829280267923L120.67999999999999,59.64716457631372L120.96,59.783502927061264L121.24,59.82909697001673L121.31,60.0663071075919L121.38,60.254203894865945L121.52,60.372336052547055L121.73,60.32175331088301L121.94,60.42612495701046L122.08,60.55771816676278L122.29,60.72340029713504L122.71,60.687701742420124L122.85,60.704487697259644L122.99,60.76564668765914L123.06,60.7501957028915L123.27,60.893567432540706L123.34,60.990241851874636L123.41,60.97947619620761L123.62,60.945548621128744L124.18,60.960250397994955L124.53,60.95618510406688L124.66999999999999,60.934621845016096L125.08999999999999,60.88803430172027L125.36999999999999,60.93771490211061L125.44,60.85191480429944L125.50999999999999,60.84829943571293L125.58,60.99544814639002L126,61.12620993533462L126.21,61.12625003728805L126.7,61.20240333320615L126.84,61.37809893687086L127.05,61.51277496717666L127.12,61.39866376043441L127.33,61.53381369274461L127.75,61.713207295514536L127.89,61.82438359961089L128.1,61.99984718585417L128.31,61.993524429488055L128.38,62.017356005206274L128.45,62.056093665220246L128.52,62.183873559409506L128.59,62.323508646587364L129.01,62.41425284537709L129.85,62.43300850567556L130.27,62.55299288790272L130.62,62.67750467565323L130.9,62.82628909254627L131.39,62.951137755697864L131.53,62.97796777549725L131.88,63.03461821509158L131.95,63.10185753521879L132.16,63.190479095410296L132.23,63.17467452613094L132.37,63.294772056406615L132.44,63.35095057650712L132.65,63.2786348038198L133.84,63.29703366025281L133.91,63.432627494601334L133.98,63.4212205089317L134.33,63.45465459758261L134.54,63.65622079235475L134.82,63.62502147010276L134.89000000000001,63.821641411755934L134.96,63.944914867150906L135.24,64.02596493514291L135.31,64.00966781900028L135.38,63.92750260624246L135.51999999999998,63.94108065707136L135.79999999999998,64.00594476131161L135.94,64.11742314902823L136.85,64.09736045970729L136.92,64.2401226741544L137.55,64.37248114065032L137.62,64.41257647376469L138.39000000000001,64.53273075052269L138.95000000000002,64.6507128301888L139.02,64.71968920380255L139.23000000000002,64.83391450255313L139.37,64.9151972735491L139.44,64.96421869499487L140,64.93807750776409L140.07,65.0387772974948L140.14,65.06963188564798L140.42,65.23945029466041L140.56,65.30402369819562L140.7,65.30807057873945L141.26,65.37601184030174L141.61,65.4457448633466L141.68,65.59036623745655L141.89000000000001,65.60863135725191L142.38,65.6597907189069L142.52,65.74755013997834L143.22,65.8018067890171L143.57000000000002,65.91865217119313L143.64000000000001,65.98287361470372L143.78,66.02598268029038L143.85000000000002,66.046264163961L144.26999999999998,66.03847187023543L144.76,66.05742193367274L144.82999999999998,66.11043225255656L145.45999999999998,66.20440207907185L145.73999999999998,66.2775384825787L145.88,66.47299447239352L146.16,66.52870758308075L146.79,66.56247206808281L146.93,66.66067732106771L147.14,66.69020874526201L147.28,66.77677310840748L147.35,66.87564833626213L147.7,67.02414446508375L148.26,67.0447350255527L148.4,67.12593532265838L148.89,67.15875158601953L148.96,67.35050804794892L149.24,67.42111949998342L149.59,67.51180321953788L149.8,67.5443187375164L149.94,67.58344015736218L150.15,67.68449229384387L150.36,67.85550383561325L150.64000000000001,67.8369552530719L151.13,67.85645253001657L151.20000000000002,67.97443418667245L151.76000000000002,67.88373407672475L151.9,67.92540742763344L152.04000000000002,68.03531592599856L152.25,68.17049475075534L152.32000000000002,68.13525043355315L152.74,68.26055824004253L152.81,68.27402130355924L153.36999999999998,68.33165419024391L153.57999999999998,68.34355696050669L153.64999999999998,68.43339356590019L153.72,68.35014321014098L153.79,68.42471932282035L153.92999999999998,68.57514352345844L154.14,68.52034260417764L154.63,68.57512755355735L154.7,68.7009873509239L155.04999999999998,68.80679088515332L155.19,68.89150105543781L155.26,69.06420298877943L155.32999999999998,69.18771850291162L155.96,69.22304318989063L156.24,69.35167825132787L156.38,69.53429683799493L156.45,69.46344831966618L156.59,69.51519022017013L156.94,69.59286627313573L157.01,69.7090863582975L157.15,69.88480455991821L157.22,69.95751584941036L157.29,69.98320471250723L157.5,70.03815574922066L157.64,70.01594189182607L157.78,70.08299242459232L158.41,70.21484995480499L158.62,70.27455920872181L159.25,70.32613899220009L159.67000000000002,70.29170934272135L159.74,70.3752178621259L160.16,70.49456066509566L160.23000000000002,70.59403656364624L160.3,70.65323024642345L160.86,70.77246430856835L161.28,70.87764260297102L161.35000000000002,70.9259634203176L161.91000000000003,70.93508360840251L161.98000000000002,71.00258449273281L162.19,71.02264137701592L162.67999999999998,71.11030218776416L162.82,71.1984020097086L163.1,71.37575109021874L163.51999999999998,71.37595013407103L163.79999999999998,71.38489940063207L163.87,71.39565894477441L164.07999999999998,71.50437171241683L164.43,71.56066918167306L164.71,71.62258476944623L164.99,71.78085530477132L165.62,71.81283192406221L165.76,71.92585826616553L165.83,71.95524737691618L166.25,72.04176459512114L166.32,72.12508661612338L166.39,72.24301048559823L166.53,72.34668236066655L166.67,72.41513309409291L167.51,72.48265593203931L168.14000000000001,72.5895441174516L168.42000000000002,72.5931758489648L168.77,72.6655787957728L168.84,72.69530127585756L169.19,72.74592352795305L169.26000000000002,72.81741718105117L169.33,72.88335934975227L169.61,72.87003819254917L169.68,72.92585645345068L170.10000000000002,73.05622245744375L170.38000000000002,73.06347460971003L170.45000000000002,73.1360705874406L170.51999999999998,73.15578773598355L170.66000000000003,73.25045582677986L171.07999999999998,73.28610472859762L171.29,73.32015820171905L171.42999999999998,73.41981855691793L171.64,73.57842758350657L171.85,73.68279133282383L172.06,73.53925407603883L172.2,73.64555732968664L172.69,73.7025987767652L172.82999999999998,73.7515613575995L173.67,73.73849998955318L173.74,73.79334510298298L173.81,73.81207274126305L174.79,73.76223160404471L175.07,73.84718782491706L175.35,73.90551145600725L175.42,73.87741140188326L175.63,73.92982539426649L175.7,74.04275850357389L175.91,74.13249932661743L176.05,74.24439390712503L176.19,74.36741060034022L176.54,74.4094786965848L176.75,74.52981496632479L176.89000000000001,74.61460214423359L177.1,74.73182914215145L177.31,74.6345363884703L177.52,74.70996372356701L177.66,74.8071104361804L177.87,74.85256831220345L178.08,74.93989658474274L178.15,75.0006214826473L178.36,75.0965702974226L178.57000000000002,75.1532295857643L179.20000000000002,75.2255884835432L179.33999999999997,75.28877532222316L179.69,75.35585438278049L180.04,75.45751335294342L180.10999999999999,75.58686246963605L180.17999999999998,75.57279252781996L180.32,75.67535822579586L180.39,75.78349497696686L180.53,75.8200273290564L180.67,75.90477220580732L180.88,75.9552991725345L180.95,76.01400621413241L181.23,76.07441742815871L181.57999999999998,76.18684432236145L181.72,76.20407543978385L182.21,76.37551496716274L182.35,76.47855478226239L182.42,76.56979326291784L182.63,76.58643339895616L182.77,76.70526621174686L183.05,76.7832933795604L183.26,76.79505845825942L183.4,76.78267713104914L183.54,76.84763982493956L183.61,76.8696847328069L183.96,76.97664478417985L184.24,77.1543624410112L184.31,77.1501494049562L184.38,77.28707606668803L184.66,77.35287772543319L184.73,77.4432538298713L184.87,77.53334179771662L184.94,77.64420714500504L185.08,77.71730207443206L185.15,77.823182708294L185.22,77.90686056239366L185.36,77.91489153053212L185.43,77.94988909979409L185.57,78.04968215564864L185.92000000000002,78.10007753267443L185.99,78.11373010158574L186.41,78.13733728466218L186.48000000000002,78.27218609327879L186.55,78.37164683023877L186.83,78.31368204527708L186.97,78.37101013298374L187.11,78.37045310048254L187.39000000000001,78.4143567699039L188.08999999999997,78.49270101424318L188.23000000000002,78.57388114331992L188.36999999999998,78.67154865772524L188.44,78.80543724817332L188.72,78.87088363499183L188.85999999999999,78.99016756595513L188.92999999999998,79.0128809413384L189,79.03560253920286L189.20999999999998,79.10899866779914L189.48999999999998,79.1640250289676L189.76999999999998,79.28730934004926L189.98,79.36364736625507L190.68,79.43282531358312L190.75,79.51085423059135L191.03,79.53591475347451L191.17,79.5637294325043L191.38,79.73252699994887L191.52,79.89008678013528L191.59,79.99972919364407L191.73,80.12239954445715L191.8,80.24229458822383L191.87,80.34157541917232L191.94,80.4056113535353L192.08,80.36412539223636L192.22,80.41772367813499L192.29,80.47051467787908L192.57,80.47910116623486L192.64,80.61161082821356L192.78,80.69213586421698L192.99,80.77827866076746L193.34,80.83007255051105L194.18,80.94580522125702L194.46,81.06514892779035L194.67000000000002,81.02920069849695L195.02,81.17432601241609L195.16,81.26331560761474L195.37,81.37742064881934L195.79000000000002,81.43416720708976L195.86,81.38716440827297L196,81.42026068830977L196.21,81.46954791199458L196.42000000000002,81.57916211833057L196.49,81.62786268902134L196.56,81.73283784266707L197.19,81.79572083709871L197.26,81.88838438881838L197.32999999999998,81.965222476008L197.39999999999998,82.06283443145827L197.54,82.13870180921317L197.67999999999998,82.23934248725719L197.89,82.34999076449634L198.23999999999998,82.32571352602673L198.38,82.41826841184138L198.45,82.46257027719868L198.51999999999998,82.57020779330233L198.59,82.65445797410726L199.15,82.72418494435524L199.78,82.86811465131652L200.13,82.93481589370471L200.69,82.97868873886532L200.76,83.08882307003786L200.97,83.1020369755271L201.25,83.18741904244274L201.74,83.23115243314615L201.95,83.32674797001796L202.16,83.30193564985326L202.23,83.41500974200592L202.3,83.5164108024057L202.44,83.61385334187489L203,83.74124563149086L203.14000000000001,83.83432890248378L203.28,83.95926980795109L203.42000000000002,84.01438581706215L204.12,84.10212088022746L204.68,84.14064366487429L204.75,84.22815828715424L204.82000000000002,84.283025037803L205.10000000000002,84.41569215138561L205.51999999999998,84.52508539626152L206.07999999999998,84.57563663747767L206.5,84.65889922163957L206.57,84.78853845875943L206.64,84.864204043965L206.70999999999998,84.9320186835543L206.85,85.04203233121545L206.98999999999998,85.1494691929057L207.2,85.1991655443128L207.76,85.29090726568772L208.25,85.3987646886887L208.53,85.44489783423127L208.67,85.5833168274197L208.95,85.67257286698961L209.02,85.69787319162806L209.16,85.79167190766302L209.51,85.86988930399464L209.72,85.97178798368057L209.86,86.03815399552826L210.07,86.11419350835358L210.14,86.16999613000112L210.21,86.20040155172038L210.91,86.28455607608848L210.98,86.26222311549488L211.12,86.34693193314234L211.19,86.4156067789304L211.26,86.45266568470134L211.33,86.57656421770506L211.61,86.66141568679927L211.75,86.75455986503717L211.96,86.83499589735277L212.1,86.97568891327172L212.24,87.10666203602823L212.38,87.20864500784673L213.01000000000002,87.34115252640369L213.29000000000002,87.43261154745686L213.43,87.52048610958568L213.57000000000002,87.62913695972445L213.71,87.74086893128397L213.92000000000002,87.86597136464658L214.13000000000002,87.9899203756193L214.54999999999998,88.09606797326344L214.61999999999998,88.15216957085572L214.89999999999998,88.27284304525165L215.10999999999999,88.2795335571824L215.32,88.38720990005429L215.45999999999998,88.430090324412L215.81,88.43872354789143L216.09,88.50513148747011L216.29999999999998,88.57263531627434L216.37,88.70145185474396L216.44,88.78486243785582L216.51,88.89353359556321L216.72,88.98318903501968L217,89.08535147814915L217.42,89.17026257234903L217.49,89.28297162226852L217.7,89.3348376430551L218.05,89.4529056458882L218.26,89.52689897659157L218.33,89.62260286875548L218.47,89.73780201087432L218.61,89.81041111825913L218.75,89.90808154953652L218.82,89.970579949534L219.03,90.0635890198897L219.1,90.16356313497057L219.24,90.27783036858123L219.45,90.39228805138335L219.52,90.47337030437586L219.66,90.57206577576898L220.08,90.65876520950953L220.29,90.75587843805832L220.5,90.82976321069691L220.57,90.93295722505896L220.85,90.97373262310961L221.27,91.05152522616126L222.18,91.13300682955277L222.46,91.2148929222762L222.60000000000002,91.31743870610026L222.95000000000002,91.42938756510176L223.16000000000003,91.51049582841564L223.29999999999998,91.63401710926085L223.57999999999998,91.69936767873692L223.92999999999998,91.77870124518509L224.20999999999998,91.78636878744776L224.48999999999998,91.88182339519925L224.7,92.03832480925443L225.75,92.12672455749895L226.45,92.2694348924299L226.52,92.2997996222092L226.59,92.40773370010012L226.8,92.49497435939617L226.87,92.53802564360281L227.22,92.5790173420111L227.64,92.71518105371445L227.71,92.8163568844075L227.78,92.87327190978982L227.85,92.96251156705031L227.92,92.99982403079987L227.99,93.12153412435715L228.06,93.19728330414532L228.62,93.2933677663138L230.23000000000002,93.4025661746851L230.3,93.50602615366813L230.37,93.54505236469683L230.86,93.60557279595567L231.63000000000002,93.67854680141127L231.70000000000002,93.77539940978761L231.76999999999998,93.88454048929356L232.04999999999998,93.9555571763974L232.60999999999999,94.01524751677279L232.67999999999998,94.05827836989228L232.89,94.16197513786135L233.03,94.20541106419557L233.1,94.30459222063251L233.23999999999998,94.40649323676297L234.07999999999998,94.49837571413777L234.22,94.58072328630611L234.43,94.68931594976995L234.57,94.78928893278402L234.92,94.89035460242943L235.13,95.00684050116013L235.34,95.1138840144866L235.97,95.21829534328324L236.04,95.33662429445477L236.46,95.41010369347688L236.6,95.52364258936585L236.67,95.64606462769258L237.09,95.71171207223394L237.3,95.82637064512282L237.37,95.88707810959451L237.72,95.96725937950538L237.86,96.03247366749835L238,96.13409209763964L238.21,96.18192909598224L238.28,96.24043269279686L238.84,96.27485358669203L239.19,96.34611559587792L239.33,96.4756362850901L239.4,96.58602405366707L239.47,96.72069196567165L239.75,96.8107235075635L240.24,96.91290038053056L240.51999999999998,97.03648294048632L240.73000000000002,97.19195145574669L240.79999999999998,97.29141044160863L240.94,97.35428574494767L241.5,97.4797982788153L241.85,97.57315780424295L242.69,97.65945782834628L243.04,97.75974395159099L243.18,97.88814751249332L243.25,97.95670685566886L243.46,98.06843469562959L244.16,98.14997388431692L244.58,98.2559859510915L244.86,98.33503970377618L245.21,98.46027018492514L245.35,98.55405542111573L245.49,98.6825028511794L245.63,98.74929645917877L245.77,98.86610069583925L245.98,98.93579355242804L246.05,99.05865920768471L246.12,99.17865286232181L246.33,99.25429430353222L246.4,99.32316452199301L246.47,99.43434076045686L246.75,99.49579603216532L246.82,99.56029745031731L246.89000000000001,99.65466747833882L247.1,99.78830127985788L247.17000000000002,99.87035743709423L247.31,99.9743835977657L247.38,100.05875396371509L247.66,100.17372805510502L247.8,100.27793439984801L247.87,100.37906695164098L247.94,100.50923598995895L248.22,100.53407456453382L248.36,100.5897806981453L248.5,100.72646050328278L248.71,100.79558687064565L249.33999999999997,100.89967355925405L249.54999999999998,101.02463154923576L249.69,101.07539476780214L249.82999999999998,101.15770604598004L249.97,101.2240294214254L250.10999999999999,101.30546620231871L250.73999999999998,101.42257140935843L251.01999999999998,101.50701211379052L251.16,101.59521056292112L251.37,101.70408069089434L251.93,101.81626758160274L252.21,101.89820948986647L252.49,101.98640409194053L252.91,102.0670840020652L253.12,102.18729951516835L253.4,102.28600259688073L253.54,102.38047675574279L253.82,102.45623851763146L253.89,102.57784625700803L254.38,102.69894485508335L254.59,102.79534515168092L254.66,102.89519512369009L255.01,102.95846485756256L255.08,103.06157038785996L255.15,103.09491501207557L255.29,103.21271415539279L255.5,103.28485645391082L255.85,103.34101102178009L256.06,103.40890552458794L256.13,103.52493339564708L256.27,103.61386706258709L256.69,103.6669085971053L257.39,103.72940165602584L257.88,103.82473766434124L258.09,103.93786490790556L258.16,104.06281814177478L258.65,104.14012331702325L258.72,104.22588375194086L258.79,104.29128947386285L258.86,104.3415238047811L259.21,104.47078461503779L259.42,104.56356804903642L260.19,104.67200679038062L261.03000000000003,104.73620078512768L261.1,104.86321425875315L261.17,104.98515255770236L261.31,105.05251085427197L261.45,105.16033783517959L261.8,105.24227346258328L262.01,105.3525823700947L262.08000000000004,105.35092101592346L262.22,105.45515120979589L262.28999999999996,105.55013360961306L262.78,105.65768938703688L262.91999999999996,105.76347046128039L263.06,105.86030368439624L263.62,105.9686511351559L263.69,106.0686503936679L264.03999999999996,106.14856152606491L264.11,106.21890077218484L264.53,106.30483147959114L264.67,106.4296374516232L264.81,106.51244292079612L264.95,106.57809359143549L265.23,106.67578539800252L265.44,106.75501702742011L265.71999999999997,106.83166181619715L266.14,106.89501112863972L266.35,106.98744666861063L266.42,107.06563154911765L266.49,107.17381809715538L266.91,107.29662273953056L267.4,107.38529509099334L267.47,107.47316849438019L267.75,107.58374940438775L267.89,107.60852458576858L267.96,107.69824157766415L268.03000000000003,107.76874996525433L268.31,107.87198680265755L268.66,107.93390180778242L269.15000000000003,108.02427215820546L269.43,108.09365894719514L269.71000000000004,108.16831206992744L269.78000000000003,108.24237283279957L269.99,108.31600809292316L270.27000000000004,108.42539547681491L270.41,108.5063196117365L270.83000000000004,108.62481501271225L271.03999999999996,108.69985057247672L271.18,108.77086958623602L271.32,108.86176592881367L271.46000000000004,108.96014841513338L271.66999999999996,109.05082064375031L271.81,109.16198241806661L272.02,109.19334692129168L272.09,109.2850790574061L272.3,109.37715238899708L272.44,109.48783243855502L272.86,109.58796751495962L273.21,109.69077909773198L273.28,109.75871769172728" style="fill: none;" fill="none"></path></g><g><path stroke="rgb(255, 112, 67)" stroke-width="2px" d="M41.16,-0.16326276665335748L41.23,0.8061950311834616L41.3,0.7085846129011948L41.37,0.8651162496021302L41.44,1.6040082239292897L41.51,1.6916208819005583L41.58,1.9153276256964253L41.65,2.9936104587077286L41.72,3.8987089024931567L41.79,3.9487802121983187L41.86,3.8576916324251727L41.93,4.601738766823097L42,5.715630638369099L42.07,6.149064299065507L42.14,6.342097389817353L42.21,6.983736885809441L42.28,7.379457700164634L42.35,7.920411670067173L42.42,7.266652294485786L42.49,7.408896063863989L42.56,7.697419690881711L42.629999999999995,8.067038647882438L42.699999999999996,8.721637245224493L42.769999999999996,9.03371650208344L42.839999999999996,9.23824515927571L42.91,9.783016379550386L42.98,9.621315674346311L43.05,10.121853838694738L43.12,9.361568907822141L43.19,9.164462553672115L43.26,9.355328973514162L43.33,9.641274384004335L43.4,10.057107434021429L43.47,10.185661287778196L43.54,9.674573796932542L43.61,10.073824265029L43.68,9.742638551622854L43.75,10.405177542699844L43.82,10.741998778067392L43.89,11.080082828121782L43.96,11.519879767216992L44.03,11.613399906195927L44.1,11.36584598728413L44.17,11.812195021895157L44.24,11.697780163784778L44.31,12.278938757005315L44.38,12.12934430698284L44.45,12.24255521925176L44.52,12.761136419344467L44.59,13.001902489291831L44.660000000000004,13.273160451248634L44.730000000000004,13.09908654723493L44.800000000000004,13.250316621435879L44.870000000000005,13.571840157042251L44.94,13.404067114780602L45.01,13.637631238799246L45.08,13.892706355436568L45.15,13.707240071326687L45.22,14.006608084712944L45.29,14.272155426791677L45.36,14.251245978584716L45.43,14.034540358153402L45.5,14.17153716548421L45.57,14.408526976747662L45.64,15.010577861711518L45.71,15.257083268169344L45.78,15.279015431304774L45.85,14.960067689004784L45.92,15.397176131091467L45.99,15.548267074910584L46.06,15.500046933431419L46.13,15.184931892552909L46.2,15.449477449609264L46.27,15.78570416336757L46.34,15.413372216403609L46.410000000000004,15.610098685778095L46.480000000000004,15.605272451350622L46.550000000000004,15.862251776454851L46.620000000000005,15.833647508157364L46.690000000000005,15.855374217837246L46.760000000000005,16.048608140080255L46.830000000000005,16.10280050370645L46.900000000000006,15.880897337127516L46.970000000000006,16.003621934705567L47.040000000000006,16.32511968450088L47.11,16.220111655529948L47.18,16.54706643204455L47.25,17.02749196064633L47.32,17.011416282689197L47.39,17.093692387558825L47.46,16.86307615417228L47.53,17.065122863032705L47.6,17.299787782596653" style="fill: none;" fill="none"></path></g></g></g></g><g opacity="0.2"><g><g><g><path stroke="rgb(0, 119, 187)" stroke-width="2px" d="M35.77,-28.530032047858633L36.050000000000004,47.18991136550903L36.26,29.123302803589745L36.68,31.530980160603168L37.52,-21.278880110153796L37.800000000000004,22.315637276722832L37.940000000000005,3.0218379680926937L38.080000000000005,12.694199695036962L38.150000000000006,-11.193951652600234L38.78,-1.9307887645868427L38.85,28.45889487174842L38.92,21.939184083388405L39.55,-49.95286639837119L40.11,-7.026043680997998L40.18,16.433086959215313L40.529999999999994,-37.72774422168732L41.089999999999996,44.68594476809868L41.58,40.22283906203051L42.14,3.6173664285586296L42.35,49.40742457371493L42.42,3.48839240807752L42.91,42.390746877743645L43.26,28.093356893612786L43.82,7.4264113398698735L44.03,-25.6280861542775L44.1,30.045800795921924L44.730000000000004,73.53147035837173L44.870000000000005,50.42126141144679L44.94,0.29684840715847727L45.01,3.7197422201816703L45.5,74.56851724477916L45.85,8.459522256484407L45.99,33.750501930713654L46.06,110.51191512437967L46.34,9.828793397316577L46.690000000000005,51.7848517711346L46.760000000000005,60.218072822460776L46.970000000000006,48.601402883346275L47.39,97.81429397601349L47.46,71.18928429255119L47.6,22.466238842560692L47.81,38.85352734419017L47.95,49.01843308485473L48.02,68.13336894145378L48.16,56.191859763402206L48.3,58.39902583452373L48.37,71.48529356718063L48.86,47.94835651379366L49.419999999999995,22.121841485683742L49.489999999999995,61.64336052307716L49.559999999999995,53.795442526157096L49.839999999999996,54.15501568409114L50.61,69.18271066133792L50.75,89.13020557165146L51.03,36.937095536635475L51.24,42.08617585438949L51.379999999999995,26.900088525735427L51.589999999999996,62.68048856350093L52.43,17.866510349970614L52.85,9.868437134302589L53.06,80.26061937442192L53.2,26.68754615691993L53.27,48.70091799589305L53.410000000000004,23.602719687498542L53.69,48.950202845610114L53.97,61.588317811489105L54.11,62.61657977562685L54.46,57.29695429251744L55.440000000000005,-23.975344034341664L55.790000000000006,64.66847792497047L55.86,21.737394621739032L56.14,72.6107983314074L56.21,75.02095088591942L56.49,4.186357525678765L56.56,-9.755577866847693L56.7,58.58328602864192L56.91,56.032047216708854L57.26,67.37952928359692L57.33,35.417243118469536L57.75,56.76271740289836L57.82,53.901571691036224L57.89,37.14641203330115L58.099999999999994,51.17522280032818L58.73,45.14146226186019L59.29,48.397239666718704L60.199999999999996,70.08311447271934L60.41,96.13245814121687L60.69,37.831128757733566L61.11,65.20748261305003L61.39,43.367394887484046L61.46,13.327221311055707L61.53,53.9116145005593L62.02,-1.1986578061030522L62.370000000000005,46.667299788731796L62.44,57.60282378013317L63.56,94.03338921987094L64.05,83.85562056761523L64.47,74.5734270627682L64.54,89.95414201112894L64.68,90.07274860602158L65.10000000000001,62.819424239488754L65.72999999999999,62.032554896978226L65.86999999999999,43.695074516993316L65.94,-32.18727837159086L66.14999999999999,34.27684659224291L66.57,34.461471979434684L67.2,18.679876478818745L67.41,64.58649207995488L67.48,37.51357309176372L68.11,98.63443646522668L68.17999999999999,38.073130034483405L68.95,46.3748207138135L69.16,51.906136448566734L69.23,77.67925213391965L69.37,21.376522999543415L69.51,105.69923849289233L70.49,50.86545791992775L70.84,71.33093862808668L70.98,28.90633754088329L71.19,38.377295287755814L71.75,59.41870576143265L72.16999999999999,102.55228862395653L72.30999999999999,66.31251627665301L72.52,43.93632511909191L72.58999999999999,41.80248170174087L72.8,65.83727835691893L72.94,80.3973030264561L73.28999999999999,82.55668967045271L73.36,29.55325678220162L73.99,40.477480076826545L74.13,98.96262330733813L74.41,83.2164718233622L74.48,50.01356392181838L74.83,44.13419889945251L75.11,58.71015004469798L75.18,79.75963534300143L75.53,21.0807774754671L75.67,96.60008787191832L75.74000000000001,62.03876317922886L75.81,6.361528625855072L75.88000000000001,52.508806462471306L76.02000000000001,6.611625015735607L76.09,32.386485512440025L76.44000000000001,69.05633356937996L76.50999999999999,86.00409199641301L77,82.87312946869777L77.14,52.27309462198845L77.56,61.20094940295586L77.7,79.19472223520279L78.05,76.2096746288813L78.4,83.57854046729895L78.54,55.214095885937034L79.38,77.76882587946379L79.87,22.384151555024673L79.94,96.53242571078815L80.08,62.700716202075675L80.15,73.20304005421126L80.22,53.85411687997672L80.29,44.416371414294616L80.43,53.48458206653595L80.64,40.86521367843334L80.91999999999999,53.94888448256713L81.27,58.54406835024174L81.47999999999999,37.013583197043495L81.75999999999999,47.01796629337165L81.97,46.52170948340343L82.03999999999999,45.987817498353806L82.17999999999999,97.78765517014725L82.25,20.254670166052314L82.46,38.47865665417452L82.53,101.8519497513771L82.74,92.76373463410599L82.81,68.49419998664123L83.16,74.19987512551822L83.23,63.344308128723746L83.72,95.1474918448008L83.93,28.581579455962554L84.21000000000001,77.92441841730705L84.42,102.91788746760443L84.56,120.30937576752441L84.7,94.90932509532341L84.98,64.38713723879596L85.25999999999999,44.444633300487816L85.47,76.76631002701247L85.53999999999999,35.061626218832465L85.61,80.32789605397446L85.67999999999999,69.30638938225233L86.1,72.61144756353819L86.52,76.18384736317856L86.66,90.35471823582283L86.73,82.16508096456528L87.01,32.5498688358527L87.22,71.96592822900185L87.29,19.77941195781414L87.5,120.25329834222794L87.57,61.00216263991137L87.64,44.68965756434661L87.78,15.696695414873274L87.92,97.41227726752943L88.34,94.26715336396144L88.55,72.99664510213412L88.62,32.122897267341614L88.83,63.291071093999435L88.9,103.00397159044559L88.97,45.45374291676742L89.11,62.08309356065898L89.18,68.43418659155185L89.60000000000001,28.54246322008281L89.88,88.96475282082191L89.94999999999999,75.33661972100919L90.08999999999999,69.84884311602666L90.22999999999999,67.0331842303276L90.36999999999999,90.4298871434652L90.44,87.66233230095645L90.50999999999999,72.27124992700725L90.58,60.616153561151954L90.64999999999999,30.330448508262634L90.86,41.763040849795715L91.14,65.51170873183472L91.35,33.48295742731829L91.49,88.08141164137767L91.56,82.63175713557465L91.63,110.74492859381897L92.05,32.598480091645165L92.12,103.43118662100571L92.26,-8.543258593632643L92.47,40.811591162131386L92.75,61.98980701886691L92.96000000000001,63.52252234862401L93.17,61.604223998693314L93.24000000000001,95.13913298111694L93.38000000000001,32.0976177912492L93.52000000000001,56.86022395354052L93.66000000000001,112.07759927327817L94.00999999999999,10.793450901141542L94.22,79.44636055139395L95.69,23.84054153240645L95.83,97.58825975198013L95.9,66.09895948263316L96.18,59.695116341114044L96.32,84.5438472032547L96.6,119.07881712913513L96.74,89.16832767083095L96.88,20.865009234501763L97.09,69.80207811410611L97.23,63.55267106569732L97.3,26.72536392853812L97.72,56.066111615070945L98,72.39338672161102L98.49000000000001,98.66529527994302L98.55999999999999,68.10827206189816L98.63,91.03945524875934L98.69999999999999,82.3852315224134L99.05,81.66121596556445L99.19,106.73279575659679L99.39999999999999,69.59148344168297L99.47,79.42201434648955L99.53999999999999,109.23741158613792L99.61,79.84596292789166L100.17,62.427531494544105L100.24,-13.614370190180274L100.45,69.00248787953304L100.94,99.18713589356497L101.15,70.26680658872311L101.71000000000001,36.70256042938967L101.78,89.23406242407286L101.92,67.78988456726074L101.99000000000001,75.38711780768176L102.06,68.90096420508166L102.27000000000001,56.72479818875973L102.34,34.928269881468566L102.62,29.263678963367763L102.97,78.09620118141174L103.03999999999999,89.60840561298224L103.32,105.35441507742956L103.39,97.67367435418643L103.46,116.32534250846275L103.53,65.98881319394478L103.74,122.16565216046112L103.81,64.27155363101227L103.88,95.64139518829492L104.09,92.791022672103L104.16,38.796760109754715L104.72,107.44348176626059L105,64.75050434699425L105.14,78.98534487302487L105.28,57.83646619319916L105.35,45.11212508495037L105.56,97.28326267004013L105.84,70.0997307575666L105.91,52.24649639313038L105.98,54.872498342624084L106.19,56.99826693534851L106.75,8.959329554667848L106.89,74.9975785292112L107.16999999999999,72.58781145627682L107.24000000000001,89.52735303915465L107.44999999999999,48.89706725340624L107.58999999999999,75.79292846643008L107.72999999999999,-23.940650692352893L108.08,78.1073801471637L108.85,85.9113735327354L108.99,83.55983446653073L109.41,88.40192942894423L109.48,73.67326671343585L109.62,104.64813167315262L109.76,92.7929095029831L110.04,59.006727397441864L110.32000000000001,57.98635766139397L110.46000000000001,95.21862334012985L110.81,92.02188548216454L110.88000000000001,19.920112733657557L110.95,98.71512384598071L111.44000000000001,87.34512153955608L111.50999999999999,94.44333873345302L111.92999999999999,90.45865624226057L112.21,39.86511215796837L112.28,55.069398274788504L112.35,88.06055505917622L112.98,97.17435398010107L113.12,52.7989523594196L113.33,30.10510409336825L113.75,73.91330000528923L113.82,84.55656809531726L114.31,36.2601087322602L114.45,94.8145980697412L115.43,91.8254927626023L115.64,78.75967584206508L115.85000000000001,94.87465204183871L115.91999999999999,69.3892070559355L115.99000000000001,89.45445644397003L116.19999999999999,39.77411821713814L116.27,82.69199370420897L116.33999999999999,124.22834379397905L117.6,119.6360611823889L117.81,103.91133435872885L117.95,97.7016927783306L118.02,107.02304309606552L118.44,98.77917465338341L118.51,94.88418763875961L118.65,60.41249755712657L118.79,91.20578040526465L118.93,72.99895799160004L119.07000000000001,71.94671501563145L119.28,78.61016985544792L119.42,70.08546793919345L119.56,99.66367227756061L119.7,80.68580555457336L119.98,81.59404072853236L120.67999999999999,68.249540915856L120.96,100.50124259178455L121.24,73.47778697655751L121.31,131.24171446378415L121.38,116.76436544840152L121.52,95.98319561664874L121.73,45.03833579558593L121.94,92.03442377769031L122.08,100.50150634233768L122.29,111.12976093934134L122.71,49.802137420727654L122.85,65.8346814283958L122.99,79.49971931714279L123.06,56.00658514407966L123.27,105.00936848842181L123.34,90.80400715882963L123.41,57.651982825535995L123.62,50.435666249348564L124.18,65.52461222043404L124.53,59.69126152533752L124.66999999999999,54.210342434736404L125.08999999999999,46.32817744291747L125.36999999999999,76.49833946503126L125.44,33.91934286172573L125.50999999999999,59.71096166280601L125.58,107.38681597434558L126,102.440701851478L126.21,61.13894773446597L126.7,85.36719527611366L126.84,117.24919983056876L127.05,104.43138958399112L127.12,24.956023775614234L127.33,104.78724994567725L127.75,119.24820584975757L127.89,97.55618362701857L128.1,118.5123215180177L128.31,59.952841208531304L128.38,69.72516439511226L128.45,74.61112310336186L128.52,103.68408282445029L128.59,107.76817898566907L129.01,92.0083530499385L129.85,68.56234907186949L130.27,101.84448358187309L130.62,103.53520578145981L130.9,111.74870233352368L131.39,104.08680963057739L131.53,71.83600064882866L131.88,81.77586630216011L131.95,85.39107484542407L132.16,92.62686838553503L132.23,57.91451606842189L132.37,103.34625894289749L132.44,82.12338808866649L132.65,39.06574509694026L133.84,69.46959010912822L133.91,109.01241207581299L133.98,59.57920811726497L134.33,74.73780452288115L134.54,131.81299816186612L134.82,53.05479039595677L134.89000000000001,130.56566093059686L134.96,105.87225885574634L135.24,91.64583805891183L135.31,58.44528362384209L135.38,35.81950328900264L135.51999999999998,68.59493240943321L135.79999999999998,86.28056344160667L135.94,102.47267653391913L136.85,57.18145183875011L136.92,113.54579716003859L137.55,110.17153489131195L137.62,78.31265923151604L138.39000000000001,106.2656935270016L138.95000000000002,105.70609600727374L139.02,88.76698048298175L139.23000000000002,104.73066530777858L139.37,93.35855299692886L139.44,82.15014862555725L140,55.75654961971137L140.07,100.47263580102188L140.14,75.94659359638507L140.42,125.21418249607086L140.56,88.15110265291655L140.7,66.74253112077713L141.26,89.50231702511127L141.61,90.25321484987552L141.68,117.13233804702759L141.89000000000001,72.12992020753714L142.38,83.95832097530365L142.52,97.19336430843062L143.22,85.27772297308995L143.57000000000002,107.9361475110054L143.64000000000001,89.11791073817474L143.78,81.58306464782127L143.85000000000002,73.37833272952301L144.26999999999998,63.2164702644715L144.76,72.93231025567421L144.82999999999998,85.37575702483838L145.45999999999998,100.41519904595154L145.73999999999998,92.95012512115332L145.88,137.8790782873447L146.16,86.91772391245915L146.79,78.94044641348033L146.93,102.7245786006634L147.14,77.55368658212515L147.28,98.67511491592116L147.35,103.37279630624332L147.7,121.93105618770306L148.26,74.67111620994716L148.4,97.25214010477066L148.89,79.35455507040024L148.96,138.7349894092633L149.24,93.75164276361465L149.59,101.38391425059393L149.8,79.70982706546783L149.94,82.24495680515582L150.15,105.61883515119553L150.36,132.15881571402917L150.64000000000001,60.85081039942229L151.13,75.21204830591495L151.20000000000002,112.55786874202582L151.76000000000002,33.553236805475684L151.9,83.72486115877444L152.04000000000002,109.77262232395319L152.25,119.58781511966998L152.32000000000002,54.70773540093349L152.74,116.0782488171871L152.81,73.4198632973891L153.36999999999998,90.39559957155815L153.57999999999998,72.90770030021667L153.64999999999998,102.93673548790125L153.72,36.32517396486724L153.79,97.1586709664418L153.92999999999998,126.62545084036314L154.14,47.33848408093819L154.63,89.78436780892886L154.7,117.5028872856727L155.04999999999998,109.8965850839248L155.19,101.84121713271507L155.26,136.3454296863996L155.32999999999998,117.38217068635501L155.96,83.02786988936938L156.24,119.70027429782428L156.38,141.1233521103859L156.45,41.64682829838534L156.59,89.86152498997176L156.94,100.18427529243323L157.01,115.5507477109249L157.15,139.30103867329086L157.22,98.72551156007327L157.29,80.16242301464081L157.5,91.8456392471607L157.64,61.18693004663174L157.78,96.77290534973145L158.41,122.78086046989148L158.62,94.11395486960045L159.25,90.95071333188278L159.67000000000002,56.504120129805344L159.74,103.8667605152497L160.16,118.42899663173236L160.23000000000002,110.60828551879295L160.3,94.49925385071681L160.86,118.87668276291626L161.28,113.37379122238892L161.35000000000002,90.47821436020044L161.91000000000003,74.63084352933444L161.98000000000002,98.39594509968391L162.19,79.17406853804222L162.67999999999998,106.78895433590964L162.82,107.1078896201574L163.1,143.7681209261601L163.51999999999998,71.45731572004466L163.79999999999998,75.0484823859655L163.87,75.80666378369698L164.07999999999998,116.13651740092499L164.43,94.70678495902283L164.71,97.11492895163023L164.99,137.03811979293823L165.62,85.01602155887164L165.76,118.6608333679346L165.83,84.12448382377625L166.25,107.91681256661049L166.32,106.72390939180667L166.39,121.27882135831393L166.53,115.51660215854645L166.67,100.95852518540161L167.51,100.67842209797638L168.14000000000001,117.28539452185997L168.42000000000002,74.11391273370155L168.77,103.02531509674513L168.84,85.17565150902821L169.19,94.03131979245407L169.26000000000002,102.92007862604582L169.33,100.68665923063571L169.61,67.2457265991431L169.68,96.5250204067964L170.10000000000002,128.24822683976248L170.38000000000002,76.13793447842964L170.45000000000002,103.95398079431975L170.51999999999998,81.537293782601L170.66000000000003,113.54697389327563L171.07999999999998,88.48089228685086L171.29,87.85442385765224L171.42999999999998,116.01259521796153L171.64,141.4553126142575L171.85,118.40495475438925L172.06,11.948495727318988L172.2,119.32006773123375L172.69,98.24363929950275L172.82999999999998,94.84466563279814L173.67,68.10423464958484L173.74,97.48294212726447L173.81,81.91183985655124L174.79,52.17753576773864L175.07,110.6872483766996L175.35,99.2297011751395L175.42,61.66046373202251L175.63,96.74722010355728L175.7,123.26961053334749L175.91,113.30050914562666L176.05,123.144511617147L176.19,128.19724182899182L176.54,92.8413178737347L176.75,127.32179287763742L176.89000000000001,111.85856458315483L177.1,126.29105571600107L177.31,31.788461565971375L177.52,107.96901488762634L177.66,117.69735259734668L177.87,94.94754863702335L178.08,113.59262302747139L178.15,101.91210516599509L178.36,117.67158619715617L178.57000000000002,100.32590933946463L179.20000000000002,107.41345478021182L179.33999999999997,103.43159239108746L179.69,105.26936566829681L180.04,120.84795439701813L180.10999999999999,133.41234093904495L180.17999999999998,69.27506393194199L180.32,121.64048423216894L180.39,124.30487203139526L180.53,92.23233813505905L180.67,114.02334796923859L180.88,98.71027489350394L180.95,102.48511338692444L181.23,103.34705019455689L181.57999999999998,127.00350682552045L181.72,84.00192097058662L182.21,154.05319547653198L182.35,123.2212021625959L182.42,118.0086796925618L182.63,84.15315148005119L182.77,130.8064246085974L183.05,112.34924205449911L183.26,82.16414769337727L183.4,71.12563925523025L183.54,106.56436059566644L183.61,86.9659091096658L183.96,126.02054909100899L184.24,158.738480590857L184.31,75.21381340577052L184.38,140.29322767716187L184.66,107.66665531121768L184.73,119.12673857578865L184.87,119.13237877992484L184.94,128.89697204644864L185.08,111.54813018211952L185.15,126.88512340417275L185.22,116.7255129630749L185.36,81.64480256575806L185.43,94.22290413654768L185.57,124.50430802657054L185.92000000000002,101.5864949639027L185.99,84.48369178863673L186.41,89.16445256655032L186.48000000000002,141.33293235760468L186.55,124.93635172110336L186.83,51.14543927632846L186.97,105.27123221067282L187.11,78.1087800539457L187.39000000000001,99.06189495783585L188.08999999999997,115.37878235028342L188.23000000000002,116.83803300674145L188.36999999999998,124.75854327128485L188.44,142.05487848703677L188.72,109.82245088999088L188.85999999999999,135.46588245721964L188.92999999999998,89.77860587376816L189,89.81715403153346L189.20999999999998,113.97445267438889L189.48999999999998,105.33209772293384L189.76999999999998,137.98033821124298L189.98,115.74647090985225L190.68,112.43928243563727L190.75,116.78104259876105L191.03,91.51903490836806L191.17,92.87828352818123L191.38,160.62173054997737L191.52,155.4759471141375L191.59,132.655214543526L191.73,139.09815363242078L191.8,137.9459086198073L191.87,128.17528966756967L191.94,111.29137916289844L192.08,60.333210083154526L192.22,106.3245707658621L192.29,106.01437982687584L192.57,84.63824961277156L192.64,144.86522178466504L192.78,119.77992696486987L192.99,122.63723814945953L193.34,106.0246052329357L194.18,137.3019312115816L194.46,139.24078181615243L194.67000000000002,63.48738265954532L195.02,152.06593650120956L195.16,124.77887235238002L195.37,137.23252423909994L195.79000000000002,109.24086063183272L195.86,58.33114049984859L196,97.67162521527365L196.21,105.69623579428747L196.42000000000002,135.5146560210448L196.49,105.61558899054161L196.56,133.4920747601069L197.19,112.8327373953966L197.26,127.67095803297484L197.32999999999998,119.96765649318695L197.39999999999998,130.38880604047043L197.54,119.73754427983211L197.67999999999998,132.16616015250867L197.89,137.29712283611298L198.23999999999998,70.25761589637169L198.38,128.47330750410373L198.45,104.52926132770685L198.51999999999998,136.23820494229977L198.59,124.70370344473766L199.15,117.55975596262859L199.78,154.84722666098523L200.13,116.32532221995868L200.69,104.96321214162387L200.76,138.33157279399725L200.97,89.73662895881213L201.25,126.09947137190746L201.74,105.23276520692386L201.95,131.46683570513358L202.16,70.79463231105072L202.23,140.46894641105945L202.3,134.7306067806024L202.44,132.87686645067657L203,148.20850350765082L203.14000000000001,130.98528806062845L203.28,147.30911412147375L203.42000000000002,111.9874371611155L204.12,128.67345359692206L204.68,103.7299754206951L204.75,128.77339476805466L204.82000000000002,112.23726980044292L205.10000000000002,152.0736461327626L205.51999999999998,140.36726042857538L206.07999999999998,110.40531932390654L206.5,127.24341838634932L206.57,151.15553045731323L206.64,123.63699476535504L206.70999999999998,119.71480086675056L206.85,141.52256900530594L206.98999999999998,140.3592667579651L207.2,110.76130141661719L207.76,132.5242319611403L208.25,140.98149488980954L208.53,109.24124611341037L208.67,157.04933075033702L208.95,131.79873534349295L209.02,98.78489601153595L209.16,134.35583753310718L209.51,126.40448874235153L209.72,138.82772816144504L209.86,120.49479240637558L210.07,125.62971134827689L210.14,115.19573946641043L210.21,102.03034656781418L210.91,130.13810099546725L210.98,74.61367945487683L211.12,130.57024613252054L211.19,122.3009359057133L211.26,105.83507002775485L211.33,151.43646537340607L211.61,131.12083555643375L211.75,135.60333707240912L211.96,129.057251228736L212.1,160.89457035293947L212.24,155.9808265383427L212.38,140.88615920910468L213.01000000000002,157.14752711011815L213.29000000000002,135.6573856472969L213.43,133.8966883971141L213.57000000000002,145.02132153511047L213.71,146.81318192757095L213.92000000000002,154.06603809961905L214.13000000000002,153.63786950936685L214.54999999999998,144.3655565060102L214.61999999999998,117.9182741183501L214.89999999999998,152.3556969165802L215.10999999999999,91.83561672614172L215.32,145.66874798903098L215.45999999999998,111.2615956388987L215.81,93.0394756931525L216.09,123.92570017851317L216.29999999999998,124.6091590156922L216.37,157.52932632427948L216.44,133.39067281668002L216.51,147.05849023048694L216.72,137.0117853146333L217,143.8613060254317L217.42,134.73594265717728L217.49,149.8179296713609L217.7,117.21554120228842L218.05,152.97512523486066L218.26,129.37044486632715L218.33,141.20081361899008L218.47,151.87569119838568L218.61,129.00880228097623L218.75,142.68079912662506L218.82,123.76801792474893L219.03,140.4029884842726L219.1,144.31842631101608L219.24,152.22737212822986L219.45,152.49737154061978L219.52,134.5058507323265L219.66,144.2145694585947L220.08,137.82072854959048L220.29,143.62683178369815L220.5,131.0881304878455L220.57,147.20821939064908L220.85,113.22846466761368L221.27,133.54506833278217L222.18,135.67852626855557L222.46,136.0185818855579L222.60000000000002,147.47134100015347L222.95000000000002,152.7829322356444L223.16000000000003,135.9984354009995L223.29999999999998,159.44117292991052L223.57999999999998,127.60305240979561L223.92999999999998,135.40033030051453L224.20999999999998,96.00581729870575L224.48999999999998,144.45332457469058L224.7,178.30142719470535L225.75,140.89198200977768L226.45,171.05868484194463L226.52,109.07749759692413L226.59,152.09371146330466L226.8,140.77670272955527L226.87,116.38314445660666L227.22,115.30162516924051L227.64,168.2542962202659L227.71,148.9903007241396L227.78,124.49838378337714L227.85,142.58852701003735L227.92,113.76574483284584L227.99,160.91205904346245L228.06,135.42181582634265L228.62,146.895735850701L230.23000000000002,154.3689454656381L230.3,151.31418655927365L230.37,115.36809030862955L230.86,127.4745653134126L231.63000000000002,134.5489840920155L231.70000000000002,148.06200021963852L231.76999999999998,155.1067774937703L232.04999999999998,133.82318314680685L232.60999999999999,127.55056604972252L232.67999999999998,118.25275039672852L232.89,152.51167493600113L233.03,118.66556058938687L233.1,150.19988104930292L233.23999999999998,151.8789779360478L234.07999999999998,146.3603425163489L234.22,141.0966118619992L234.43,156.0774809718132L234.57,151.34804807259488L234.92,152.11107842280316L235.13,161.0085105918921L235.34,155.8117218567775L235.97,154.46868375172983L236.04,162.53592047783044L236.46,137.17090805218768L236.6,160.10049859147804L236.67,165.3280041217804L237.09,133.10608596985156L237.3,161.1879015450294L237.37,130.51962631482346L237.72,141.743632545838L237.86,133.29194895579266L238,154.23613691788452L238.21,123.55397420663101L238.28,129.74081150843548L238.84,115.99965115235403L239.19,137.21296612116006L239.33,170.80739143032295L239.4,159.98434690557994L239.47,174.12086934080492L239.75,148.5944111438898L240.24,155.72555657991995L240.51999999999998,168.22250413436157L240.73000000000002,186.81067941509758L240.79999999999998,154.66586772295145L240.94,133.65142067120624L241.5,169.98956183057564L241.85,151.54715945170474L242.69,147.58846653424777L243.04,155.8225964949681L243.18,172.28414092155603L243.25,137.70820850592392L243.46,162.89636604144025L244.16,145.4956667606647L244.58,159.85619456951434L244.86,144.30367656854483L245.21,171.33230575231406L245.35,153.16711534903598L245.49,173.53358815725034L245.63,137.70021483531366L245.77,167.02945894002914L245.98,139.63535264363657L246.05,170.86130812993417L246.12,169.35265496602426L246.33,143.5218184865438L246.4,139.65647297639114L246.47,164.58979675632256L246.75,135.53737914562225L246.82,137.41495846785034L246.89000000000001,155.07754175938095L247.1,178.3255400818128L247.17000000000002,148.1289117061175L247.31,161.1965951690307L247.38,149.7476300046994L247.66,167.93343352812988L247.8,161.73438254686502L247.87,160.064111159398L247.94,177.38385930886636L248.22,115.21326873394159L248.36,133.5339299440384L248.5,181.61348490990127L248.71,141.732676753631L249.33999999999997,162.58283764353166L249.54999999999998,175.12718928777255L249.69,131.19959552929953L249.82999999999998,150.03672089943518L249.97,140.635799068671L250.10999999999999,149.73113545087668L250.73999999999998,171.10551070937743L251.01999999999998,151.78719274355817L251.16,154.14853115723682L251.37,166.61857615525906L251.93,168.7535861615951L252.21,150.82255552823727L252.49,154.67944073218567L252.91,150.30276405352814L253.12,174.10814844874236L253.4,161.37624987272116L253.54,158.97682993687118L253.82,147.8729113615476L253.89,175.52625401891194L254.38,175.39027032026877L254.59,160.69956739590717L254.66,162.9112882361962L255.01,141.01271889759946L255.08,165.11647617816925L255.15,123.17689206966988L255.29,174.20461014142404L255.5,146.79015447543216L255.85,137.227168074021L256.06,144.406316110721L256.13,173.63304240428485L256.27,157.38581559062004L256.69,135.75832095512976L257.39,141.56383582261893L257.88,161.58041308934872L258.09,172.51616025429504L258.16,179.8591683942538L258.65,151.063603245295L258.72,156.31524195120883L258.79,144.04317217606766L258.86,134.89228586967175L259.21,183.1332054527906L259.42,161.06369532300877L260.19,170.74767221854282L261.03000000000003,143.8769484620828L261.1,182.3560745922419L261.17,179.42899124209697L261.31,146.2011994902904L261.45,171.07289693905759L261.8,155.35971427422302L262.01,172.86779046287904L262.08000000000004,104.33343668625906L262.22,169.3304694868051L262.28999999999996,163.79481201217723L262.78,171.65405099437785L262.91999999999996,170.7116398352843L263.06,165.35189383534285L263.62,172.5759301873354L263.69,167.58224966663582L264.03999999999996,155.33581441640854L264.11,149.54139736065497L264.53,159.26315145079906L264.67,183.39419676936592L264.81,157.60805586438912L264.95,147.11330976853003L265.23,167.0316906754787L265.44,155.73606602503705L265.71999999999997,154.24271039320874L266.14,146.1058232325774L266.35,164.2366550541841L266.42,155.51849210720795L266.49,174.26039338341127L266.91,183.49442197955574L267.4,162.43826176340764L267.47,162.06333020787972L267.75,176.32241549629433L267.89,123.01847942975851L267.96,163.53528146789623L268.03000000000003,151.67751309046378L268.31,172.20107978582382L268.66,146.5377451960857L269.15000000000003,164.40388304912128L269.43,151.40822377571692L269.71000000000004,154.79835165463962L269.78000000000003,154.53013763060937L269.99,154.36537468891876L270.27000000000004,176.8739787684037L270.41,159.17437910116638L270.83000000000004,182.86110618022772L271.03999999999996,155.7368978537046L271.18,153.31651989313272L271.32,165.90897558056392L271.46000000000004,170.7422551879516L271.66999999999996,166.02469106362415L271.81,179.05165549883475L272.02,128.92446296948654L272.09,167.02684172300192L272.3,167.36770888016773L272.44,179.23831988068727L272.86,172.7299503661119L273.21,174.55836049868512L273.28,152.64866291559662" style="fill: none;" fill="none"></path></g><g><path stroke="rgb(255, 112, 67)" stroke-width="2px" d="M35.56,-8.644579383043139L35.63,11.47149270772934L35.7,-20.188170130436244L35.77,10.100273870504829L35.84,-43.3752116423387L35.910000000000004,41.54907828569412L35.980000000000004,35.594625509702254L36.050000000000004,25.746889953429896L36.120000000000005,14.100213316770704L36.19,-35.24954402446747L36.26,65.60732845159679L36.33,42.88274310185359L36.4,53.33923522325664L36.47,9.966795802116394L36.54,21.63471450255469L36.61,37.197599929112656L36.68,52.57285726987399L36.75,19.787851975514336L36.82,39.233165832666245L36.89,-89.63243288260239L36.96,-11.736730002439948L37.03,55.24130276991771L37.1,1.6714351360614437L37.17,24.005243608584777L37.24,-1.758701672920826L37.31,-34.339726347189696L37.38,26.886941575087043L37.45,7.6547178763609685L37.52,12.925346622100252L37.59,1.2232417922753342L37.660000000000004,0.5322559200800352L37.730000000000004,-13.288902007616493L37.800000000000004,52.80254342464301L37.870000000000005,29.22028185312565L37.940000000000005,3.251706719398479L38.010000000000005,-24.87051341166863L38.080000000000005,56.64400936548527L38.150000000000006,64.27832999137732L38.220000000000006,29.582451939582825L38.290000000000006,17.216304370990173L38.36,22.81029129486819L38.43,1.1154489700610775L38.5,41.67651037986462L38.57,37.71085850550578L38.64,46.03494769334793L38.71,59.53767754939887L38.78,38.236188741830674L38.85,-39.376550371830284L38.92,50.90106424460045L38.99,33.02948907246956L39.06,19.9942063505833L39.13,-6.520778775215149L39.2,41.40265615169819L39.27,10.666221692011908L39.34,48.66322195529938L39.41,62.07096103521495L39.48,71.63565167096945L39.55,53.846447825431824L39.62,-57.77546434219069L39.69,42.69186885540302L39.76,5.891180235605969L39.83,16.765047463086933L39.9,-18.633259177207947L39.97,67.98294997215271L40.04,54.08205822339424L40.11,32.62520005152777L40.18,32.21387091966777L40.25,64.51738943503453L40.32,32.64467701545128L40.39,74.54120891827804L40.459999999999994,24.136449364515453L40.529999999999994,39.513999306238624L40.599999999999994,50.07156875500313L40.669999999999995,4.418965225036322L40.739999999999995,-71.3046098305629L40.809999999999995,68.336517732877L40.879999999999995,61.77592560878166L40.949999999999996,88.46932783952126L41.019999999999996,74.09865577862813L41.089999999999996,53.07280658758605L41.16,11.891160414769098L41.23,83.31671732205612L41.3,-7.688240165893854L41.37,14.473481214963483L41.44,66.51485352791273L41.51,9.468124660161822L41.58,21.975175889638752L41.65,100.6640578370828L41.72,86.70439029198428L41.79,8.57514644127627L41.86,-4.641069160057967L41.93,74.6968217446254L42,111.66083282232285L42.07,47.76586141953102L42.14,25.05077108970055L42.21,69.7499366586025L42.28,46.446114517175246L42.35,61.81189712652794L42.42,-58.450828066239005L42.49,21.835388096479267L42.56,37.21872026186724L42.629999999999995,46.217321056586044L42.699999999999996,76.87252034590794L42.769999999999996,41.80386132001877L42.839999999999996,30.897796236551734L42.91,67.96073406017744L42.98,-7.79144778618446L43.05,64.46851442868893L43.12,-73.86445096822885L43.19,-12.587487844320448L43.26,30.588274818200336L43.33,41.70513745913139L43.4,57.05442551466136L43.47,24.828672835460083L43.54,-48.99354477112112L43.61,56.257107592546035L43.68,-28.859801393288855L43.75,88.21424047763531L43.82,50.59545850753784L43.89,51.380704769721405L43.96,64.33191193067111L44.03,22.925753171627345L44.1,-18.796054134002127L44.17,66.5867559863971L44.24,-2.4431140697919433L44.31,84.61491783307149L44.38,-6.621288024462196L44.45,26.531669580019447L44.52,78.6673834369733L44.59,43.81067841328109L44.660000000000004,48.2199992950146L44.730000000000004,-9.478761517084571L44.800000000000004,32.996723138369056L44.870000000000005,55.833016991615295L44.94,-8.793639022570405L45.01,44.742448251981L45.08,48.08309246943547L45.15,-11.313166902615492L45.22,54.65165797563701L45.29,50.55461774881069L45.36,11.376299046553108L45.43,-15.948116238300623L45.5,33.2438574066529L45.57,47.60535906369869L45.64,99.86120115335171L45.71,50.21007837240513L45.78,18.407665619483367L45.85,-30.81135260141814L45.92,78.49949606565329L45.99,37.489348617883834L46.06,8.456458692367274L46.13,-31.113164388216468L46.2,54.54309419026741L46.27,65.7583154990123L46.34,-40.24209853319022L46.410000000000004,45.18352033083256L46.480000000000004,14.875660231480243L46.550000000000004,54.92930615406771L46.620000000000005,11.460881820091846L46.690000000000005,19.1951436171165L46.760000000000005,45.91532667325093L46.830000000000005,24.524669890220363L46.900000000000006,-18.791590663102955L46.970000000000006,35.28283177889312L47.040000000000006,67.10092754547412L47.11,-0.45266979932785034L47.18,68.73443616353549L47.25,94.11458381322714L47.32,14.418499368887696L47.39,30.43329093547969L47.46,-20.720215861613926L47.53,50.16138596259631L47.6,55.93506816717296" style="fill: none;" fill="none"></path></g></g></g></g></g></g><g transform="translate(50, 177)" clip-path="url(#clip_1)"><clipPath id="clip_1"><rect width="280" height="23"></rect></clipPath><g><g><line x1="0" y1="0" x2="0" y2="5" style="visibility: inherit;" fill="rgb(0, 0, 0)" stroke="rgb(204, 204, 204)" stroke-width="1px"></line><line x1="35" y1="0" x2="35" y2="5" style="visibility: inherit;" fill="rgb(0, 0, 0)" stroke="rgb(204, 204, 204)" stroke-width="1px"></line><line x1="70" y1="0" x2="70" y2="5" style="visibility: inherit;" fill="rgb(0, 0, 0)" stroke="rgb(204, 204, 204)" stroke-width="1px"></line><line x1="105" y1="0" x2="105" y2="5" style="visibility: inherit;" fill="rgb(0, 0, 0)" stroke="rgb(204, 204, 204)" stroke-width="1px"></line><line x1="140" y1="0" x2="140" y2="5" style="visibility: inherit;" fill="rgb(0, 0, 0)" stroke="rgb(204, 204, 204)" stroke-width="1px"></line><line x1="175" y1="0" x2="175" y2="5" style="visibility: inherit;" fill="rgb(0, 0, 0)" stroke="rgb(204, 204, 204)" stroke-width="1px"></line><line x1="210" y1="0" x2="210" y2="5" style="visibility: inherit;" fill="rgb(0, 0, 0)" stroke="rgb(204, 204, 204)" stroke-width="1px"></line><line x1="245" y1="0" x2="245" y2="5" style="visibility: inherit;" fill="rgb(0, 0, 0)" stroke="rgb(204, 204, 204)" stroke-width="1px"></line><line x1="280" y1="0" x2="280" y2="5" style="visibility: inherit;" fill="rgb(0, 0, 0)" stroke="rgb(204, 204, 204)" stroke-width="1px"></line></g><g transform="translate(0, 8)"><text x="0" y="0" dx="0em" dy="0.95em" style="text-anchor: middle; visibility: hidden; font-family: Roboto, sans-serif; font-size: 12px; font-weight: 200;" fill="rgb(33, 33, 33)" stroke="none" stroke-width="1px">-10k</text><text x="35" y="0" dx="0em" dy="0.95em" style="text-anchor: middle; visibility: inherit; font-family: Roboto, sans-serif; font-size: 12px; font-weight: 200;" fill="rgb(33, 33, 33)" stroke="none" stroke-width="1px">0</text><text x="70" y="0" dx="0em" dy="0.95em" style="text-anchor: middle; visibility: inherit; font-family: Roboto, sans-serif; font-size: 12px; font-weight: 200;" fill="rgb(33, 33, 33)" stroke="none" stroke-width="1px">10k</text><text x="105" y="0" dx="0em" dy="0.95em" style="text-anchor: middle; visibility: inherit; font-family: Roboto, sans-serif; font-size: 12px; font-weight: 200;" fill="rgb(33, 33, 33)" stroke="none" stroke-width="1px">20k</text><text x="140" y="0" dx="0em" dy="0.95em" style="text-anchor: middle; visibility: inherit; font-family: Roboto, sans-serif; font-size: 12px; font-weight: 200;" fill="rgb(33, 33, 33)" stroke="none" stroke-width="1px">30k</text><text x="175" y="0" dx="0em" dy="0.95em" style="text-anchor: middle; visibility: inherit; font-family: Roboto, sans-serif; font-size: 12px; font-weight: 200;" fill="rgb(33, 33, 33)" stroke="none" stroke-width="1px">40k</text><text x="210" y="0" dx="0em" dy="0.95em" style="text-anchor: middle; visibility: inherit; font-family: Roboto, sans-serif; font-size: 12px; font-weight: 200;" fill="rgb(33, 33, 33)" stroke="none" stroke-width="1px">50k</text><text x="245" y="0" dx="0em" dy="0.95em" style="text-anchor: middle; visibility: inherit; font-family: Roboto, sans-serif; font-size: 12px; font-weight: 200;" fill="rgb(33, 33, 33)" stroke="none" stroke-width="1px">60k</text><text x="280" y="0" dx="0em" dy="0.95em" style="text-anchor: middle; visibility: hidden; font-family: Roboto, sans-serif; font-size: 12px; font-weight: 200;" fill="rgb(33, 33, 33)" stroke="none" stroke-width="1px">70k</text></g><line x1="0" y1="0" x2="280" y2="0" fill="rgb(0, 0, 0)" stroke="rgb(204, 204, 204)" stroke-width="1px"></line></g></g></g></g></svg>