<svg viewBox="0 0 330 200" xmlns="http://www.w3.org/2000/svg"><g><g><g><g><g><line x1="60" y1="177" x2="55" y2="177" style="visibility: inherit;" fill="rgb(0, 0, 0)" stroke="rgb(204, 204, 204)" stroke-width="1px"></line><line x1="60" y1="154.875" x2="55" y2="154.875" style="visibility: inherit;" fill="rgb(0, 0, 0)" stroke="rgb(204, 204, 204)" stroke-width="1px"></line><line x1="60" y1="132.75" x2="55" y2="132.75" style="visibility: inherit;" fill="rgb(0, 0, 0)" stroke="rgb(204, 204, 204)" stroke-width="1px"></line><line x1="60" y1="110.625" x2="55" y2="110.625" style="visibility: inherit;" fill="rgb(0, 0, 0)" stroke="rgb(204, 204, 204)" stroke-width="1px"></line><line x1="60" y1="88.49999999999999" x2="55" y2="88.49999999999999" style="visibility: inherit;" fill="rgb(0, 0, 0)" stroke="rgb(204, 204, 204)" stroke-width="1px"></line><line x1="60" y1="66.375" x2="55" y2="66.375" style="visibility: inherit;" fill="rgb(0, 0, 0)" stroke="rgb(204, 204, 204)" stroke-width="1px"></line><line x1="60" y1="44.25" x2="55" y2="44.25" style="visibility: inherit;" fill="rgb(0, 0, 0)" stroke="rgb(204, 204, 204)" stroke-width="1px"></line><line x1="60" y1="22.12499999999998" x2="55" y2="22.12499999999998" style="visibility: inherit;" fill="rgb(0, 0, 0)" stroke="rgb(204, 204, 204)" stroke-width="1px"></line><line x1="60" y1="0" x2="55" y2="0" style="visibility: inherit;" fill="rgb(0, 0, 0)" stroke="rgb(204, 204, 204)" stroke-width="1px"></line></g><g transform="translate(50, 0)"><text x="0" y="177" dx="0em" dy="0.3em" style="text-anchor: end; visibility: hidden; font-family: Roboto, sans-serif; font-size: 12px; font-weight: 200;" fill="rgb(33, 33, 33)" stroke="none" stroke-width="1px">0.015</text><text x="0" y="154.875" dx="0em" dy="0.3em" style="text-anchor: end; visibility: inherit; font-family: Roboto, sans-serif; font-size: 12px; font-weight: 200;" fill="rgb(33, 33, 33)" stroke="none" stroke-width="1px">0.02</text><text x="0" y="132.75" dx="0em" dy="0.3em" style="text-anchor: end; visibility: hidden; font-family: Roboto, sans-serif; font-size: 12px; font-weight: 200;" fill="rgb(33, 33, 33)" stroke="none" stroke-width="1px">0.025</text><text x="0" y="110.625" dx="0em" dy="0.3em" style="text-anchor: end; visibility: inherit; font-family: Roboto, sans-serif; font-size: 12px; font-weight: 200;" fill="rgb(33, 33, 33)" stroke="none" stroke-width="1px">0.03</text><text x="0" y="88.49999999999999" dx="0em" dy="0.3em" style="text-anchor: end; visibility: hidden; font-family: Roboto, sans-serif; font-size: 12px; font-weight: 200;" fill="rgb(33, 33, 33)" stroke="none" stroke-width="1px">0.035</text><text x="0" y="66.375" dx="0em" dy="0.3em" style="text-anchor: end; visibility: inherit; font-family: Roboto, sans-serif; font-size: 12px; font-weight: 200;" fill="rgb(33, 33, 33)" stroke="none" stroke-width="1px">0.04</text><text x="0" y="44.25" dx="0em" dy="0.3em" style="text-anchor: end; visibility: hidden; font-family: Roboto, sans-serif; font-size: 12px; font-weight: 200;" fill="rgb(33, 33, 33)" stroke="none" stroke-width="1px">0.045</text><text x="0" y="22.12499999999998" dx="0em" dy="0.3em" style="text-anchor: end; visibility: inherit; font-family: Roboto, sans-serif; font-size: 12px; font-weight: 200;" fill="rgb(33, 33, 33)" stroke="none" stroke-width="1px">0.05</text><text x="0" y="0" dx="0em" dy="0.3em" style="text-anchor: end; visibility: hidden; font-family: Roboto, sans-serif; font-size: 12px; font-weight: 200;" fill="rgb(33, 33, 33)" stroke="none" stroke-width="1px">0.055</text></g><line x1="60" y1="0" x2="60" y2="177" fill="rgb(0, 0, 0)" stroke="rgb(204, 204, 204)" stroke-width="1px"></line></g></g><g transform="translate(60, 0)" clip-path="url(#clip_0)"><clipPath id="clip_0"><rect width="270" height="177"></rect></clipPath><g><g><g><line x1="0" y1="0" x2="0" y2="177" fill="rgb(0, 0, 0)" stroke="rgb(66, 66, 66)" stroke-width="1px" opacity="0.25"></line><line x1="33.75" y1="0" x2="33.75" y2="177" fill="rgb(0, 0, 0)" stroke="rgb(66, 66, 66)" stroke-width="1px" opacity="0.25"></line><line x1="67.5" y1="0" x2="67.5" y2="177" fill="rgb(0, 0, 0)" stroke="rgb(66, 66, 66)" stroke-width="1px" opacity="0.25"></line><line x1="101.25" y1="0" x2="101.25" y2="177" fill="rgb(0, 0, 0)" stroke="rgb(66, 66, 66)" stroke-width="1px" opacity="0.25"></line><line x1="135" y1="0" x2="135" y2="177" fill="rgb(0, 0, 0)" stroke="rgb(66, 66, 66)" stroke-width="1px" opacity="0.25"></line><line x1="168.75" y1="0" x2="168.75" y2="177" fill="rgb(0, 0, 0)" stroke="rgb(66, 66, 66)" stroke-width="1px" opacity="0.25"></line><line x1="202.5" y1="0" x2="202.5" y2="177" fill="rgb(0, 0, 0)" stroke="rgb(66, 66, 66)" stroke-width="1px" opacity="0.25"></line><line x1="236.25" y1="0" x2="236.25" y2="177" fill="rgb(0, 0, 0)" stroke="rgb(66, 66, 66)" stroke-width="1px" opacity="0.25"></line><line x1="270" y1="0" x2="270" y2="177" fill="rgb(0, 0, 0)" stroke="rgb(66, 66, 66)" stroke-width="1px" opacity="0.25"></line></g><g><line x1="0" y1="177" x2="270" y2="177" fill="rgb(0, 0, 0)" stroke="rgb(66, 66, 66)" stroke-width="1px" opacity="0.25"></line><line x1="0" y1="154.875" x2="270" y2="154.875" fill="rgb(0, 0, 0)" stroke="rgb(66, 66, 66)" stroke-width="1px" opacity="0.25"></line><line x1="0" y1="132.75" x2="270" y2="132.75" fill="rgb(0, 0, 0)" stroke="rgb(66, 66, 66)" stroke-width="1px" opacity="0.25"></line><line x1="0" y1="110.625" x2="270" y2="110.625" fill="rgb(0, 0, 0)" stroke="rgb(66, 66, 66)" stroke-width="1px" opacity="0.25"></line><line x1="0" y1="88.49999999999999" x2="270" y2="88.49999999999999" fill="rgb(0, 0, 0)" stroke="rgb(66, 66, 66)" stroke-width="1px" opacity="0.25"></line><line x1="0" y1="66.375" x2="270" y2="66.375" fill="rgb(0, 0, 0)" stroke="rgb(66, 66, 66)" stroke-width="1px" opacity="0.25"></line><line x1="0" y1="44.25" x2="270" y2="44.25" fill="rgb(0, 0, 0)" stroke="rgb(66, 66, 66)" stroke-width="1px" opacity="0.25"></line><line x1="0" y1="22.12499999999998" x2="270" y2="22.12499999999998" fill="rgb(0, 0, 0)" stroke="rgb(66, 66, 66)" stroke-width="1px" opacity="0.25"></line><line x1="0" y1="0" x2="270" y2="0" fill="rgb(0, 0, 0)" stroke="rgb(66, 66, 66)" stroke-width="1px" opacity="0.25"></line></g></g></g><g><g><line x1="0" y1="243.375" x2="270" y2="243.375" fill="rgb(0, 0, 0)" stroke="rgb(153, 153, 153)" stroke-width="1.5px"></line></g></g><g><g><line x1="33.75" y1="0" x2="33.75" y2="177" fill="rgb(0, 0, 0)" stroke="rgb(153, 153, 153)" stroke-width="1.5px"></line></g></g><g><g><g><g><g><path stroke="rgb(0, 119, 187)" stroke-width="2px" d="M44.685,-1.0564617758861221L45.0225,0.5783040278274112L45.09,1.4558805395015604L45.292500000000004,3.264074710350879L45.697500000000005,4.961486240291917L45.765,5.53062227479137L45.900000000000006,5.391906588668135L46.102500000000006,7.46407492660277L46.237500000000004,8.75376297341553L46.30500000000001,9.787129550022804L46.44,10.673021376025075L46.574999999999996,12.02677500825173L46.6425,13.00475716446641L47.114999999999995,14.151652369166916L47.654999999999994,14.931463013481439L47.7225,15.09804329821512L47.79,16.152396245808532L48.059999999999995,16.60974196767434L48.802499999999995,17.895708357351044L48.9375,18.4516551976491L49.207499999999996,19.29358931619586L49.41,18.81072645621631L49.545,19.20218814232205L49.7475,19.88625804736365L50.5575,21.189609309801913L50.9625,21.98889862642846L51.165,21.576306333986597L51.3,22.098327567253865L51.3675,22.775098417946808L51.5025,23.83290868644424L51.7725,24.2432155552242L52.042500000000004,24.962089794662713L52.1775,25.65585641897203L52.515,26.088725855326498L53.46,26.448116744607553L53.7975,26.721308479617917L53.865,27.398633739512643L54.135000000000005,27.876471227640202L54.2025,27.47892980733094L54.472500000000004,28.376141178832743L54.540000000000006,28.917802903276908L54.675000000000004,29.206281550917772L54.8775,29.691852347991055L55.214999999999996,30.15932839958483L55.2825,30.911799192759062L55.6875,31.030293857174524L55.754999999999995,30.966345174765365L55.8225,31.66969933857541L56.025,32.05374834439421L56.6325,32.23862924250919L57.1725,32.98388522735355L58.05,33.48045597745682L58.2525,33.415120976731025L58.5225,33.330452381106696L58.9275,33.56515402792272L59.1975,33.53317059178255L59.265,34.64424964883824L59.3325,34.8917772998154L59.805,34.739433790547324L60.1425,35.207067729954794L60.21,35.37564472167073L61.29,35.1304237791048L61.7625,35.250917674144176L62.167500000000004,35.998716741767L62.235,36.26393317084464L62.370000000000005,36.42579663009021L62.775000000000006,35.994419521647764L63.38249999999999,36.41405281925876L63.5175,37.03322918198291L63.584999999999994,37.26422908895066L63.787499999999994,37.58157200975445L64.1925,38.076309168824935L64.8,38.4361869943081L65.0025,38.49521855278612L65.07,38.74944499615198L65.6775,38.839950372381814L65.745,39.0459526433894L66.4875,39.220142965479674L66.69,39.69681186434905L66.7575,39.9170774032345L66.8925,40.329876397598305L67.0275,40.27716162720825L67.9725,40.68864578033016L68.31,41.018460279552706L68.44500000000001,41.33554633498228L68.6475,41.71213197444175L69.1875,42.294334539672704L69.5925,42.389496441568L69.72749999999999,42.60946379389706L69.93,42.90693932888875L69.99749999999999,43.03703638816551L70.2,43.14355914240103L70.33500000000001,43.40348067520204L70.6725,43.72760870872495L70.74000000000001,43.78166806414965L71.3475,43.963097034146585L71.4825,44.07449986230404L71.7525,43.86397753043802L71.82000000000001,44.25052759043383L72.1575,44.60396030405224L72.4275,44.713682955559804L72.495,44.751877548513754L72.8325,45.26608526393863L72.9675,45.633847883724776L73.03500000000001,45.654161649547234L73.10249999999999,45.640406214541684L73.17,45.966455290470904L73.305,46.53264512757031L73.3725,46.71721515727409L73.71000000000001,47.0933731300724L73.7775,47.48184944007933L74.25,47.79573316788791L74.385,47.755725312628336L74.79,47.98741059586544L74.92500000000001,48.185035132221444L75.2625,48.41133170861425L75.60000000000001,48.827699258920134L75.73500000000001,49.071534509634056L76.54499999999999,49.483726549684434L77.0175,49.62460410347749L77.085,49.92765485247289L77.22,50.059666277632054L77.2875,50.269105800925075L77.35499999999999,50.41007954434369L77.4225,50.71507154951632L77.5575,50.85775089878112L77.75999999999999,51.03144689848546L78.03,51.183845243409905L78.3675,51.457488806466564L78.57,51.58178736061489L78.83999999999999,51.56829830705208L79.0425,51.94473619421694L79.11,52.22781147747755L79.24499999999999,52.54827300859402L79.3125,52.7581296039212L79.515,52.65979762842856L79.58250000000001,52.69368819836189L79.785,52.68985428362931L79.8525,52.95543015973249L80.19,53.10197299015168L80.25750000000001,53.25311301880034L80.72999999999999,53.384180159974214L80.9325,53.49650320351065L81.2025,53.69205445487577L81.405,54.04554271788706L81.53999999999999,54.048135949109316L81.675,54.16288063713701L81.945,54.344646304530414L82.215,54.526637367241555L82.4175,54.76079270324809L82.485,55.02652827550299L82.55250000000001,55.323753749802876L82.62,55.41994529526851L83.025,55.6650576711544L83.42999999999999,55.75451250053249L83.565,55.93800761862502L83.63250000000001,55.98780562401802L83.9025,56.14806714817555L84.105,56.386161070766484L84.17250000000001,56.41486593174399L84.375,56.46395185410799L84.4425,56.623576324273124L84.51,56.80053827542724L84.645,56.96689273075319L84.78,56.918662692495374L85.185,57.10232479024625L85.38749999999999,57.40416967726825L85.455,57.468867616094755L85.6575,57.63879103493366L85.725,57.70906524423258L85.79249999999999,57.89279594152162L85.9275,58.02927038461231L85.995,58.146284382871755L86.4,58.19880860835974L86.67,58.35002150621968L86.7375,58.416362538466025L86.87249999999999,58.38131294773537L87.0075,58.53359973083912L87.1425,58.63588433553075L87.21000000000001,58.56334973910828L87.27749999999999,58.69471873294607L87.345,58.971005078265094L87.4125,58.9948424931687L87.61500000000001,59.0679294166798L87.885,59.25552082105173L88.08749999999999,59.37736019331877L88.2225,59.675924909424815L88.29,59.813998338082826L88.3575,59.867089409021354L88.7625,60.02542871950752L88.83,60.06259366927114L88.965,60.198517747905726L89.16749999999999,60.348481924265755L89.4375,60.41115374663855L89.64,60.56662270340541L89.8425,60.66205390923556L89.91000000000001,60.821848738797144L90.045,60.97794709566568L90.18,61.073410489122715L90.31500000000001,61.17168230494059L90.6525,61.38671242294461L90.855,61.40112067347703L92.2725,61.55088601279072L92.4075,61.743118547972294L92.47500000000001,61.69302543820284L92.745,61.734265439029585L92.88,61.77754110235239L93.14999999999999,61.84595244985459L93.285,61.80590345090536L93.41999999999999,61.88446645570081L93.6225,61.92970185371827L93.75750000000001,62.01955068242814L93.82499999999999,62.21316362702151L94.22999999999999,62.378415891854615L94.5,62.466800700295934L94.9725,62.51485716325424L95.03999999999999,62.61787401122292L95.1075,62.81780975682697L95.175,62.93209723893487L95.5125,63.05357830766524L95.64750000000001,63.22735575808757L95.85,63.352130841294795L95.9175,63.37504001131983L95.985,63.53788478323357L96.05250000000001,63.72775776297781L96.5925,63.80442588089277L96.66,63.910611162928774L96.8625,63.9810912630329L97.335,64.19635340383505L97.53750000000001,64.20423425279486L98.0775,64.05606981397585L98.145,64.18626644655893L98.28,64.18102534034216L98.34750000000001,64.28462075015106L98.41499999999999,64.47256640612355L98.6175,64.29908804786909L98.685,64.4289757205443L98.955,64.53489811949063L99.2925,64.51939992544689L99.36,64.55557234236629L99.63,64.6467642202575L99.6975,64.75124211944265L99.765,64.88233050296483L99.83250000000001,64.9016724768504L100.035,64.92800779529854L100.1025,65.15526362454904L100.17,65.22073192986L100.3725,65.23321022139606L100.44,65.38632889806638L100.98,65.54342857889203L101.25,65.51307592473724L101.385,65.69840108207637L101.52,65.89259456842217L101.58749999999999,66.07486886339014L101.79,65.98038408993115L102.06,66.11039636722296L102.1275,66.22619207074446L102.19500000000001,66.29816983552371L102.3975,66.33895288746969L102.9375,66.2850353803014L103.07249999999999,66.19058413211796L103.3425,66.19322304129686L103.41,66.08199806488769L103.6125,66.21340239509927L103.74749999999999,66.17350469151266L103.8825,66.3206107394113L104.22,66.5068876981957L104.96249999999999,66.58121506435963L105.0975,66.81029790734091L105.5025,66.87255001871581L105.57000000000001,67.02902955134066L105.705,67.10814633212657L105.84,67.16689861602886L106.11,67.29132882700716L106.38000000000001,67.32633751252263L106.515,67.3630738180245L106.85249999999999,67.34603003619392L106.92,67.42659596824589L106.9875,67.52188933989079L107.46000000000001,67.57161547972167L107.5275,67.57804164892002L107.9325,67.68346547003142L108.2025,67.72611126613403L108.27000000000001,67.87470624316362L108.3375,67.86766872182984L108.94500000000001,67.90288633305852L109.08000000000001,67.99362927519164L109.2825,68.10989017330674L109.6875,68.17877539812908L109.755,68.14436475712317L110.2275,68.08354877526006L110.3625,68.1663000320867L111.3075,68.12633683822544L111.50999999999999,68.16496155579232L111.7125,68.29859370786109L111.78,68.37584098342458L111.8475,68.49451706396906L112.05,68.6841837360968L112.1175,68.76587021487235L112.18499999999999,68.8760943597628L113.39999999999999,68.99704327172853L113.6025,69.03806549229245L113.7375,69.19746714631012L113.80499999999999,69.20462620237068L114.21,69.34881163583074L114.2775,69.40603937456747L114.41250000000001,69.47080439571046L114.5475,69.40750347597069L114.6825,69.54180237244438L114.81750000000001,69.60704223115769L115.02,69.71536788521297L115.155,69.85011576092376L115.28999999999999,69.96824813914634L115.425,70.07972483780469L115.695,70.14447762793755L116.37,70.19379828297147L116.64,70.28507516271692L116.91,70.33159790714927L116.9775,70.40221171373919L117.045,70.51079870456549L117.17999999999999,70.58675380642077L117.38250000000001,70.60129759465792L117.585,70.60639393725407L117.72,70.66340707451246L117.92250000000001,70.67066709607424L118.32749999999999,70.84130818233636L118.46249999999999,70.92761058725816L118.5975,71.00047687444855L118.665,71.098765065717L118.86749999999999,71.19646573494886L118.935,71.10832136082911L119.0025,71.16266878858173L119.205,71.1741011119853L119.745,71.33030854324443L120.0825,71.49613236849545L120.2175,71.56634942369088L120.62249999999999,71.72557813830119L120.8925,71.81020668520493L120.96000000000001,71.94682387779879L121.02749999999999,72.01782580764876L121.095,72.0912245394411L121.5,71.99358526951212L121.7025,72.03709853025637L122.175,72.08407887173763L122.31,72.08679773038712L122.5125,72.20835071535181L122.58,72.28377810967069L122.7825,72.38045957928563L123.1875,72.38394158046154L123.32249999999999,72.50265965694112L123.525,72.54434910865922L123.72749999999999,72.58690679386167L123.795,72.53390145417482L123.8625,72.5815087937426L123.93,72.69661826757859L123.9975,72.86163554403257L124.4025,72.97656475201745L125.2125,73.10196809998129L125.61749999999999,73.1061672750176L125.95500000000001,73.06301774564072L126.22500000000001,73.07345988189832L126.6975,73.14806787931361L126.8325,73.23370339554063L127.16999999999999,73.32077215495532L127.2375,73.42055465577472L127.44,73.47391773611307L127.50750000000001,73.5508468129407L127.6425,73.64181310138852L127.71,73.72383457023011L127.9125,73.7548494750812L129.06,73.8053505489183L129.1275,73.92440756396219L129.195,74.04643011473695L129.5325,74.15595390846914L129.73499999999999,74.27275134808895L130.005,74.32622716447963L130.0725,74.47550519140535L130.14,74.58249704211671L130.41,74.74322918131043L130.4775,74.78416918256033L130.545,74.89477173490084L130.68,74.98532421836661L130.95,75.07479612738918L131.085,75.17223287254497L131.9625,75.06622907774612L132.03,75.17903098077208L132.63750000000002,75.25962859140911L132.70499999999998,75.31337177042688L133.44750000000002,75.43625182942979L133.9875,75.54354050998438L134.055,75.64546776724627L134.2575,75.80422619703232L134.3925,75.86127660395543L134.46,75.85445443829688L135,75.86132886967034L135.0675,75.9647313254185L135.135,76.07751589320705L135.40499999999997,76.18495234432513L135.54,76.20007874328418L135.67499999999998,76.36951874878393L136.21499999999997,76.46776828745445L136.5525,76.58247827270864L136.62,76.65011014828198L136.82250000000002,76.7643639621131L137.295,76.80322453890408L137.43,76.8917982398527L138.105,76.9723067967086L138.44250000000002,77.13095176998843L138.51,77.28594320294113L138.64499999999998,77.32451957894204L138.7125,77.36319192463891L139.1175,77.48766719883366L139.59,77.43611758457199L139.6575,77.57843732417506L140.265,77.68753167910137L140.535,77.81970523950055L140.67000000000002,77.81651954438507L140.94,77.88165836627336L141.54749999999999,77.97374146902014L141.6825,77.98920728200392L141.885,78.04821921305933L142.02,78.2069939884304L142.0875,78.27790752061946L142.42499999999998,78.36374406327421L142.965,78.41182575905815L143.1,78.52905804357229L143.5725,78.66879793838356L143.64000000000001,78.75731149005702L143.91,78.84303565546504L144.2475,78.9077451572079L144.45000000000002,78.95624224128086L144.58499999999998,79.06013926919451L144.7875,79.15783255102143L144.99,79.21571462066744L145.26000000000002,79.35479436346961L145.7325,79.4597376906519L145.8,79.54230309780934L146.34,79.62197338669208L146.475,79.71649699374451L146.61,79.7579999163212L146.8125,79.82126853278862L146.88000000000002,79.97374087143352L147.285,80.09844843171048L147.3525,80.20036821841722L147.89249999999998,80.33079531607301L148.095,80.4383111518329L148.1625,80.54887257600235L148.23000000000002,80.59304996722317L148.2975,80.72029862173096L148.43249999999998,80.7827626649847L148.635,80.89021107336536L149.10750000000002,80.94064689112184L149.175,80.97715068982365L149.5125,81.01978356806023L149.6475,81.01715943593017L149.715,81.10282280853181L149.7825,81.13101564715605L150.39000000000001,81.23238709060605L150.66000000000003,81.35545465880598L150.795,81.45770468128832L150.86249999999998,81.50971923206495L150.9975,81.59195526188307L151.335,81.66230801551878L151.4025,81.75512336708195L151.5375,81.84657626037078L151.605,81.89192871665831L151.67249999999999,81.89322157071925L151.875,81.9631377489855L152.01,82.01189332908791L152.145,82.09877972495462L152.7525,82.1713895175479L152.955,82.23740729962894L153.5625,82.28876701863996L153.9675,82.35687235028598L154.035,82.4641454791377L154.44,82.52604052681592L154.50750000000002,82.61897059930338L154.575,82.74214280172336L155.115,82.84937465897264L155.51999999999998,82.8859416440419L155.5875,82.96094806513749L156.1275,83.04935059588199L156.195,83.06608227945397L156.3975,83.13177699321987L156.86999999999998,83.20902887462401L157.005,83.3002039841858L157.275,83.4003454587537L157.67999999999998,83.5093839716571L157.95,83.63396310815027L158.0175,83.75613183145964L158.22,83.7870603963662L158.5575,83.86615024479929L158.82750000000001,83.94109091379133L159.09750000000003,83.97028219088064L159.705,84.0332589779584L159.84,84.1526556915074L159.90750000000003,84.17154074589158L160.3125,84.28252548837027L160.38,84.35400998147792L160.4475,84.44909471992503L160.5825,84.47797610427449L160.71749999999997,84.50685607810593L161.52749999999997,84.58860432207584L162.13500000000002,84.65761886701772L162.405,84.76941556089366L162.7425,84.86767254980163L162.81,84.89581894735186L163.14749999999998,84.93583633667724L163.215,85.01710802337126L163.2825,85.11252056420935L163.5525,85.18598174991459L163.62,85.24875815325811L164.025,85.33746329305536L164.29500000000002,85.36941500929908L164.3625,85.45813548829503L164.43,85.51736413404302L164.565,85.59080479801612L164.97,85.6813351057184L165.1725,85.75655017957011L165.30749999999998,85.7951122016903L165.51,85.90129402777909L165.7125,85.91948678863108L165.91500000000002,85.93463583142571L166.05,85.98334681188679L166.5225,86.08620444909181L166.6575,86.16794354610738L167.4675,86.26305279397498L167.53500000000003,86.39098979605897L167.60250000000002,86.49077622445536L168.54749999999999,86.53782915868858L168.8175,86.58720897651078L169.0875,86.68703867274522L169.15499999999997,86.71648460504437L169.3575,86.8130669226821L169.42499999999998,86.92128245519082L169.6275,87.02834101302938L169.76250000000002,87.0933627958685L169.89749999999998,87.1590343744622L170.23499999999999,87.24330497654076L170.4375,87.30883143254643L170.57250000000002,87.40847586387956L170.77499999999998,87.45825212653278L170.9775,87.48711163212705L171.18,87.55741337525787L171.315,87.63358762501278L171.51749999999998,87.69108366550563L171.72,87.79805321162343L171.7875,87.85962222483576L171.99,87.94845035937021L172.19250000000002,88.03670143167406L172.8,88.16603411216117L172.935,88.28471868259766L173.2725,88.31925933933813L173.61,88.38257255732789L173.6775,88.47675031830681L173.74499999999998,88.54593938734772L173.88,88.65144191614455L173.9475,88.69222860287547L174.0825,88.75589555511921L174.2175,88.80501141149308L174.42000000000002,88.84706725628247L174.4875,88.97264857939005L174.7575,89.10844527772842L175.095,89.25004331927619L175.23000000000002,89.3156299207181L175.70250000000001,89.39723373444815L175.8375,89.51606041080507L175.905,89.51344798198146L176.1075,89.54531804677681L176.2425,89.63944447083578L176.51250000000002,89.74398650586708L176.715,89.80986000768874L176.85,89.89263210472657L176.98499999999999,89.96710567653116L177.0525,90.02667206048578L177.39000000000001,90.0876885811901L177.66,90.21388796398053L177.7275,90.3131215160725L177.795,90.34445025629415L178.065,90.41756480446587L178.1325,90.48911406911263L178.2675,90.58442723408211L178.33499999999998,90.66602119350377L178.47,90.75485243065098L178.5375,90.89009299670344L178.605,90.98704089735352L178.74,91.10069060637021L178.8075,91.15369450263331L178.9425,91.25016427740502L179.28,91.37528770919825L179.3475,91.47199959307851L179.7525,91.57993030269517L179.82000000000002,91.67109493553211L179.8875,91.80591922004092L180.1575,91.88410802136846L180.2925,91.95616942914558L180.4275,92.05610651807919L180.6975,92.09256971492546L181.3725,92.22158003386653L181.5075,92.27658987239714L181.64249999999998,92.37733610767732L181.71,92.43699156021074L181.98000000000002,92.55968343450775L182.115,92.62899805181819L182.18249999999998,92.68957454799667L182.25,92.76811877488673L182.4525,92.82015672541931L182.7225,92.8988181553607L182.99249999999998,93.01220487991807L183.195,93.09045208136423L183.87,93.17507839051353L183.9375,93.26375296748246L184.2075,93.35692885589017L184.3425,93.42934200435616L184.545,93.51958268835342L184.68,93.58928988321576L184.7475,93.68247884739864L184.8825,93.76399288721828L184.95000000000002,93.87715147043424L185.0175,93.96232019221328L185.085,94.02765066047978L185.22000000000003,94.12493719819828L185.355,94.20619639071404L185.42249999999999,94.2740153817314L185.6925,94.38781689791422L185.76,94.49956961500347L185.895,94.57205962073601L186.0975,94.64016689371478L186.435,94.72479561540486L187.245,94.83104938783958L187.51500000000001,94.91995034940088L187.7175,94.98636069030314L188.055,95.08032536391794L188.19,95.16885796797162L188.39249999999998,95.24586892562122L188.7975,95.37060896813352L188.865,95.3941758073964L189,95.43887990301856L189.2025,95.54311263995307L189.405,95.61696951997072L189.4725,95.65141194515232L189.54,95.71989794094195L190.1475,95.81262731412882L190.215,95.88941211013984L190.2825,95.95089019267367L190.35,96.05193766316549L190.485,96.14716317180961L190.61999999999998,96.23730018735563L190.8225,96.34225422509478L191.16,96.42504652333137L191.29500000000002,96.51869765951939L191.3625,96.60556355396376L191.42999999999998,96.66059281567587L191.4975,96.7282194806644L192.03750000000002,96.76684534478017L192.645,96.84886078688233L192.9825,96.93502864976672L193.5225,96.9746994057616L193.59,97.06827616309715L193.7925,97.13239782097052L194.0625,97.1810620247161L194.535,97.244993430199L194.73749999999998,97.31766929962332L194.94,97.37178050908956L195.0075,97.46624012032659L195.07500000000002,97.55251711728363L195.20999999999998,97.64395662431475L195.75,97.64797432405935L195.88500000000002,97.7399546078902L196.01999999999998,97.80943634471946L196.155,97.8916245444397L196.82999999999998,97.93459292983795L197.37,97.98239755077707L197.4375,98.03626775138127L197.50500000000002,98.10739515023364L197.775,98.20439913457926L198.18,98.30377472404436L198.72,98.39972777816041L199.125,98.46809999000612L199.1925,98.56137911014292L199.26,98.63595969278597L199.3275,98.7264375452594L199.4625,98.78800125987244L199.5975,98.85182207480685L199.8,98.91099947030506L200.34,98.9977047913063L200.8125,99.07676076092176L201.0825,99.140660818664L201.2175,99.23190580191877L201.48749999999998,99.33349489480557L201.555,99.4238661938077L201.69,99.45314342928158L202.0275,99.56038723691748L202.23,99.67048828677046L202.365,99.73129731388399L202.5675,99.80833843082951L202.635,99.89544706172404L202.70250000000001,99.98164318493575L203.3775,100.06334820446332L203.445,100.14822788138636L203.58,100.22904806293344L203.64749999999998,100.30379494206277L203.71499999999997,100.34804292427816L203.7825,100.41955416221968L204.0525,100.5026214516375L204.1875,100.59842463135499L204.39000000000001,100.69055173383764L204.52499999999998,100.75506595023153L204.66,100.81141859806065L204.795,100.89444200867457L205.4025,100.96537496662782L205.6725,101.04554143186598L205.8075,101.1476747389404L205.94250000000002,101.23124609635802L206.0775,101.3320109897204L206.28,101.4157160943301L206.48250000000002,101.51832826061126L206.8875,101.55832290763128L206.95499999999998,101.62216332085147L207.225,101.72751074314634L207.4275,101.8078268898317L207.63,101.86868730683805L207.765,101.96379760575684L208.10250000000002,102.03393219465163L208.3725,102.10678939259869L208.575,102.20134735979231L208.6425,102.27452759525703L208.71,102.3447979422823L208.7775,102.37563183484271L208.98000000000002,102.48451236344167L209.25,102.57907786616563L209.655,102.65739598148626L209.72250000000003,102.69382942171194L209.92499999999998,102.8091427582031L210.26250000000002,102.89050133806658L210.465,102.97436309294868L210.53250000000003,103.03093149723327L210.6675,103.08747853619586L210.8025,103.16129021863402L210.9375,103.25852295839711L211.005,103.34794850265608L211.2075,103.4322097192839L211.275,103.52527334232462L211.41,103.6066542322456L211.61249999999998,103.67208541458335L211.68,103.73455235283156L211.815,103.79150432251372L212.22,103.85494047008336L212.42249999999999,103.95056711744226L212.625,104.05391752537423L212.6925,104.12738288534541L212.96249999999998,104.21296481899353L213.3675,104.29371665846509L214.245,104.38479271459384L214.515,104.45666492102482L214.65,104.53388629544621L214.9875,104.61465848909015L215.19,104.73175480416758L215.325,104.81954954779997L215.595,104.89621138470478L215.93249999999998,104.99322106069692L216.2025,105.0710718296609L216.4725,105.14400006710699L216.675,105.2230104294041L217.6875,105.26576156602907L218.36249999999998,105.33808575256307L218.43,105.42502820606728L218.4975,105.4852963421476L218.70000000000002,105.55390395229233L218.7675,105.61002683433341L219.105,105.68963203911493L219.51,105.74084355722614L219.57750000000001,105.83753920193547L219.645,105.88950730133358L219.7125,105.95510552282198L219.77999999999997,106.04132063005788L219.8475,106.1334077510853L219.915,106.22562680748482L220.455,106.31322532349452L222.00750000000002,106.38749456040478L222.075,106.46292949009047L222.14249999999998,106.56304887559891L222.615,106.65834051996997L223.35750000000002,106.73405810848584L223.425,106.83227358450519L223.4925,106.9217230079793L223.7625,107.02312231935753L224.3025,107.1017944712144L224.36999999999998,107.1952317880688L224.5725,107.2838773501775L224.7075,107.35319388137951L224.775,107.45398873078321L224.91,107.53962522553525L225.72,107.62935202737133L225.85500000000002,107.72214939180093L226.0575,107.8282025094185L226.1925,107.92262916734614L226.53,108.01030958880696L226.7325,108.08465871119358L226.935,108.17816113007896L227.5425,108.25028600708367L227.60999999999999,108.34292192233767L228.01500000000001,108.42491915106089L228.15,108.49646504775201L228.21749999999997,108.6132483856282L228.6225,108.6859878937864L228.82500000000002,108.78609252480379L228.8925,108.83323069532095L229.23,108.88834854847377L229.365,108.94829047600554L229.5,109.03179919770933L229.70250000000001,109.11478007199415L229.76999999999998,109.18967060525421L230.31,109.2544488798578L230.64749999999998,109.34298150817253L230.7825,109.42806199223017L230.85,109.47931303264929L230.9175,109.54544809825602L231.1875,109.63110343492721L231.66,109.69312077303182L231.93,109.79077399774299L232.1325,109.86163379304116L232.2,109.93048621575653L232.335,110.00567965628265L232.875,110.09198675859373L233.2125,110.16609318461403L234.0225,110.25380622926467L234.35999999999999,110.33422129665462L234.495,110.43589027761263L234.5625,110.49767870880666L234.76500000000001,110.57287934069606L235.44,110.65453217028534L235.84500000000003,110.76233335865486L236.115,110.83362665751743L236.45250000000001,110.9116266293281L236.5875,111.00860101391832L236.7225,111.10477404695054L236.8575,111.18146959268981L236.9925,111.27978781346489L237.195,111.32680702177194L237.26250000000002,111.41167442704781L237.33,111.49609072123317L237.5325,111.54806602347027L237.6,111.61852024879724L237.6675,111.70603809243546L237.9375,111.7878924312867L238.005,111.83107487718141L238.07250000000002,111.9342875895835L238.27499999999998,112.01988488055585L238.3425,112.12471263851084L238.4775,112.19540849525713L238.545,112.26271393168341L238.815,112.3413819221063L238.95,112.4228158205391L239.01749999999998,112.49936051968521L239.08499999999998,112.56723381370662L239.355,112.65696438933654L239.49,112.72823154828002L239.625,112.81577351860037L239.8275,112.88162935036945L240.435,112.9585629308071L240.6375,113.02211115319922L240.7725,113.08945756892764L240.9075,113.12715626710384L241.04250000000002,113.20229996062815L241.1775,113.29467644383811L241.785,113.38103752260598L242.05499999999998,113.4458199212671L242.19,113.52138923372625L242.3925,113.58878766587047L242.9325,113.66758862572104L243.20250000000001,113.76279282182429L243.47250000000003,113.83349639731057L243.8775,113.91072838184085L244.08,113.98829272687423L244.35,114.07214291252332L244.48499999999999,114.1389430216487L244.755,114.20895698576139L244.8225,114.26359654356047L245.295,114.32624768371994L245.4975,114.39425812038397L245.565,114.46748197060798L245.90249999999997,114.53884458485109L245.97,114.59651908789834L246.0375,114.70254186409274L246.17249999999999,114.77585341345029L246.375,114.84694198320479L246.71249999999998,114.92708225408616L246.915,114.97584876206264L246.9825,115.0284288430445L247.1175,115.12143183402371L247.52249999999998,115.20593661179275L248.1975,115.25446263477963L248.67000000000002,115.31016520355973L248.8725,115.3754840275894L248.94,115.4511860633221L249.4125,115.51509606796962L249.48000000000002,115.55592851445053L249.5475,115.60420388994795L249.615,115.67401961438041L249.9525,115.74744115778991L250.155,115.81667289962591L250.8975,115.88725911602097L251.7075,115.96532478343762L251.775,116.03078667404097L251.8425,116.07680767554862L251.97750000000002,116.15268268400254L252.11249999999998,116.22902566117435L252.45000000000002,116.26851840138718L252.6525,116.34355768482682L252.72000000000003,116.42567162833922L252.855,116.48903097014232L252.92249999999999,116.52407643895047L253.395,116.58492193631025L253.52999999999997,116.65000047691987L253.665,116.72970478589065L254.205,116.79934886622189L254.27249999999998,116.86591806902484L254.60999999999999,116.94814013079336L254.6775,117.03979350854486L255.08249999999998,117.09255766530777L255.2175,117.18043332604208L255.3525,117.25065207817104L255.4875,117.32903689115906L255.75750000000002,117.39664985132268L255.95999999999998,117.45774045310151L256.22999999999996,117.51167278189203L256.635,117.58332864541251L256.83750000000003,117.65041427118236L256.90500000000003,117.71756827518803L256.97249999999997,117.76704598314035L257.3775,117.83876688921677L257.84999999999997,117.90455268636092L257.9175,117.9551140979354L258.1875,118.02553506504434L258.3225,118.09860736802709L258.39,118.17225627041161L258.45750000000004,118.25243796432835L258.7275,118.33235508134698L259.065,118.40232150397716L259.5375,118.47394715792166L259.8075,118.54112685813826L260.0775,118.60840516630955L260.145,118.65031034230694L260.3475,118.73058323961811L260.6175,118.80099742935579L260.7525,118.89326530812012L261.1575,118.96213529963443L261.36,119.01413105674926L261.495,119.07046338132956L261.63,119.12379776683198L261.765,119.18205816821265L261.9675,119.26130482675111L262.1025,119.3281678792122L262.305,119.42589641741316L262.3725,119.49062581483278L262.575,119.55769183957617L262.71,119.61434623453351L263.115,119.66208480785886L263.4525,119.74385294354717L263.52,119.79787186219865" style="fill: none;" fill="none"></path></g><g><path style="fill: none;" fill="none" stroke="none" stroke-width="1px"></path></g></g></g></g><g opacity="0.2"><g><g><g><path stroke="rgb(0, 119, 187)" stroke-width="2px" d="M35.370000000000005,-73.55748935043812L36.18,14.343086086213589L36.45,7.7036604434251785L36.585,44.09230222553015L36.720000000000006,60.66182080283761L36.7875,57.56997197493911L36.9225,18.126043785363436L37.3275,4.318125374615192L37.395,23.092977717518806L37.462500000000006,61.60774567723274L37.53,45.40943951904774L38.137499999999996,34.72084944695234L38.5425,15.53769476339221L38.61,37.63250719383359L38.677499999999995,32.49766306579113L38.745,49.97952777519822L39.082499999999996,103.86740883439779L39.622499999999995,46.111065443605185L40.095,21.500666175037622L40.635,70.55047193169594L40.8375,35.06334602460265L40.905,33.20411892235279L41.3775,26.031834740191698L41.714999999999996,68.70418509095907L42.255,51.514852713793516L42.4575,54.42779624462128L42.525,53.80852643027902L43.1325,55.671033930033445L43.2675,6.894968278706074L43.335,64.03303091973066L43.4025,78.87603837624192L43.875,53.01785172522068L44.2125,55.542488504201174L44.347500000000004,29.717369578778744L44.415,95.97081618010998L44.685,46.22052192315459L45.0225,64.64569048583508L45.09,36.69090123474598L45.292500000000004,77.59752405434847L45.697500000000005,76.36668264493346L45.765,30.017155051231384L45.900000000000006,-0.7088118083775043L46.102500000000006,100.57703826203942L46.237500000000004,67.93639074638486L46.30500000000001,58.19230788946152L46.44,53.013664685189724L46.574999999999996,78.01627751067281L46.6425,61.606393955647945L47.114999999999995,72.23631601408124L47.654999999999994,55.164616383612156L47.7225,23.8503209464252L47.79,72.5469482280314L48.059999999999995,41.50438179820776L48.802499999999995,89.10923014953732L48.9375,49.76316989958286L49.207499999999996,67.50588390603662L49.41,-9.29453520476818L49.545,42.35568616166711L49.7475,60.9893660210073L50.5575,100.72666724771261L50.9625,71.51527145504951L51.165,-4.375768717378378L51.3,55.42215231433511L51.3675,66.61043429374695L51.5025,93.33690425008535L51.7725,51.585587315261364L52.042500000000004,73.53728210180998L52.1775,73.18069135397673L52.515,56.144202422350645L53.46,51.73582622408867L53.7975,46.197509687393904L53.865,76.31441058218479L54.135000000000005,62.828284330666065L54.2025,-1.9676272608339787L54.472500000000004,95.66394241154194L54.540000000000006,70.04108719155192L54.675000000000004,51.37404288724065L54.8775,67.45267223194242L55.214999999999996,66.94365014880896L55.2825,90.81403130292892L55.6875,40.57228734344244L55.754999999999995,25.75802869722247L55.8225,89.59992156922817L56.025,64.03713553771377L56.6325,47.804706651717424L57.1725,96.41259835660458L58.05,76.19738775864244L58.2525,27.735102843493223L58.5225,25.89240960404277L58.9275,54.39728360250592L59.1975,30.665206644684076L59.265,135.28536648117006L59.3325,57.537596594542265L59.805,20.663571372628212L60.1425,78.83832204714417L60.21,51.25692115724087L61.29,11.806811314076185L61.7625,46.82032364979386L62.167500000000004,108.47504033334553L62.235,62.207827638834715L62.370000000000005,52.40540645644069L62.775000000000006,-6.980684570968151L63.38249999999999,78.59661114960909L63.5175,99.83065716549754L63.584999999999994,60.89978973940015L63.787499999999994,70.33617460727692L64.1925,89.58386575430632L64.8,76.22546070814133L65.0025,44.746650863438845L65.07,65.89903311431408L65.6775,48.58603469654918L65.745,61.41294940933585L66.4875,58.288214184343815L66.69,92.30028215423226L66.7575,64.42052993550897L66.8925,86.6181885972619L67.0275,34.31935516744852L67.9725,87.5590197890997L68.31,78.87811541184783L68.44500000000001,78.01446422562003L68.6475,85.60630960017443L69.1875,110.66862895712256L69.5925,53.64927054941654L69.72749999999999,68.8302248865366L69.93,78.62862387299538L69.99749999999999,58.77379543706775L70.2,56.12226167321205L70.33500000000001,75.30024025216699L70.6725,83.7876176610589L70.74000000000001,50.51035873219371L71.3475,66.70396683365107L71.4825,58.13540370762348L71.7525,17.10879087075591L71.82000000000001,93.71403457224369L72.1575,90.13757707178593L72.4275,58.945002514868975L72.495,49.739020239561796L72.8325,112.85374459438026L72.9675,94.2917636744678L73.03500000000001,48.35944000259042L73.10249999999999,43.79662137106061L73.17,89.95224285498261L73.305,123.40396453253925L73.3725,71.93552499264479L73.71000000000001,98.81325589120388L73.7775,101.23011760041118L74.25,91.49376593157649L74.385,42.151543233543634L74.79,80.64019988849759L74.92500000000001,76.20701465383172L75.2625,80.69281812384725L75.60000000000001,108.57960094325244L75.73500000000001,84.27234172448516L76.54499999999999,109.34131254069507L77.0175,70.20279924944043L77.085,94.45321198180318L77.22,69.56785276159644L77.2875,81.39762553945184L77.35499999999999,71.48256638646126L77.4225,96.56379336118698L77.5575,72.42748571187258L77.75999999999999,77.43742746859789L78.03,74.48114642500877L78.3675,93.52121643349528L78.57,70.79368291050196L78.83999999999999,49.472005773335695L79.0425,110.76335661672056L79.11,96.6970368437469L79.24499999999999,103.16042547672987L79.3125,86.07837363705039L79.515,36.96439407393336L79.58250000000001,58.13162877783179L79.785,52.07146528735757L79.8525,96.01380752027035L80.19,76.98390839248896L80.25750000000001,78.01060687378049L80.72999999999999,74.96310110762715L80.9325,72.08310991153121L81.2025,86.21380954608321L81.405,113.12784735672176L81.53999999999999,54.48372784629464L81.675,73.5322049036622L81.945,85.17825893685222L82.215,85.54942190274596L82.4175,94.86967410519719L82.485,100.76479568704963L82.55250000000001,106.72781655192375L82.62,72.13538197427988L83.025,98.46109944954515L83.42999999999999,71.44686115533113L83.565,88.2782180942595L83.63250000000001,64.80545738339424L83.9025,84.65703839063644L84.105,98.9362625554204L84.17250000000001,61.56829848513007L84.375,65.31665540859103L84.4425,85.54271274805069L84.51,89.00542782247066L84.645,87.37726268917322L84.78,48.0626217238605L85.185,90.9762708619237L85.38749999999999,113.32117651216686L85.455,69.50686044618487L85.6575,89.39365215227008L85.725,70.89880399033427L85.79249999999999,92.52620098739862L85.9275,83.86544055864215L85.995,80.39311507344246L86.4,68.22725815325975L86.67,87.34328832104802L86.7375,71.19001756981015L86.87249999999999,51.6044125109911L87.0075,88.10120850428939L87.1425,78.57752220332623L87.21000000000001,44.363520216196775L87.27749999999999,84.51786052063107L87.345,113.50218357145786L87.4125,63.718788620084524L87.61500000000001,73.61035748943686L87.885,96.73148925974965L88.08749999999999,83.81513014063239L88.2225,119.7985274400562L88.29,87.72826522216201L88.3575,70.6428011097014L88.7625,92.28905627131462L88.83,67.66497494280338L88.965,88.11083539947867L89.16749999999999,91.26298419758677L89.4375,73.38038349151611L89.64,92.86231809854507L89.8425,80.56156925484538L89.91000000000001,94.26891628280282L90.045,93.77456532418728L90.18,81.20579646527767L90.31500000000001,81.97378862276673L90.6525,107.07342868298292L90.855,64.4737251251936L92.2725,93.60649028420448L92.4075,103.0392485819757L92.47500000000001,50.89254976809025L92.745,70.65824700146914L92.88,71.17589043080807L93.14999999999999,76.75660486891866L93.285,53.04571037739515L93.41999999999999,79.13039281591773L93.6225,71.8949074074626L93.75750000000001,81.8829100728035L93.82499999999999,105.16682538762689L94.22999999999999,99.16859382390976L94.5,82.21256529539824L94.9725,73.28826861083508L95.03999999999999,85.79225374013186L95.1075,107.94955032505095L95.175,88.81872539967299L95.5125,90.66342973709106L95.64750000000001,102.85707937180996L95.85,91.90312327444553L95.9175,68.63475275784731L95.985,101.05068480223417L96.05250000000001,107.6126996576786L96.5925,81.5834378041327L96.66,88.61598364636302L96.8625,80.43320515751839L97.335,114.60962269082665L97.53750000000001,66.05591524019837L98.0775,29.130211394280195L98.145,94.97606448456645L98.28,62.937575966119766L98.34750000000001,88.94148479774594L98.41499999999999,109.34875525161624L98.6175,22.745403941720724L98.685,95.63992462679744L98.955,90.06755129992962L99.2925,60.77180478349328L99.36,73.32975986972451L99.63,86.8357663191855L99.6975,90.25197887420654L99.765,96.97705750912428L99.83250000000001,69.65180785953999L100.035,71.41545835509896L100.1025,121.30858177877963L100.17,81.44671611115336L100.3725,68.33526400476694L100.44,103.56592546775937L100.98,104.83344468846917L101.25,57.89926454052329L101.385,112.32494121976197L101.52,114.89548707939684L101.58749999999999,112.20616280660033L101.79,41.99701837822795L102.06,99.20870039239526L102.1275,95.79146580398083L102.19500000000001,84.72925658896565L102.3975,76.81242107972503L102.9375,52.398499488830566L103.07249999999999,41.7944909222424L103.3425,66.87678938359022L103.41,37.188680950552225L103.6125,100.44592126831412L103.74749999999999,55.75017558038235L103.8825,104.86079232394695L104.22,115.44670925103128L104.96249999999999,86.16368045657873L105.0975,127.33350984379649L105.5025,83.36517169699073L105.57000000000001,108.60044547915459L105.705,88.18486688286066L105.84,82.86155650019646L106.11,100.62177694961429L106.38000000000001,76.72952098399401L106.515,77.25712099671364L106.85249999999999,62.743257746100426L106.92,89.24262199178338L106.9875,93.39527554437518L107.46000000000001,81.10908243432641L107.5275,69.33217515796423L107.9325,96.53725346177816L108.2025,79.42890898883343L108.27000000000001,108.75959421135485L108.3375,65.9262488745153L108.94500000000001,77.64372985437512L109.08000000000001,93.1577846556902L109.2825,100.43439866602421L109.6875,87.38088925927877L109.755,58.527435936033726L110.2275,51.04321727156639L110.3625,91.41226701065898L111.3075,56.87142863497138L111.50999999999999,79.0706203468144L111.7125,106.12529489770532L111.78,90.29721209406853L111.8475,102.25750842690468L112.05,122.77930431626737L112.1175,92.12210217118263L112.18499999999999,100.47056546062231L113.39999999999999,103.75180367007852L113.6025,80.85502471402287L113.7375,115.22841445729136L113.80499999999999,71.27705525234342L114.21,111.19042645767331L114.2775,86.05369647592306L114.41250000000001,88.35693114995956L114.5475,50.9035448692739L114.6825,108.89460976794362L114.81750000000001,88.7699480317533L115.02,101.61026456952095L115.155,109.61958585865796L115.28999999999999,104.91697119176388L115.425,103.1377923823893L115.695,89.39220152422786L116.37,84.88894106447697L116.64,97.5451102629304L116.91,84.25829700753093L116.9775,91.59003488346934L117.045,103.1684533841908L117.17999999999999,93.48336822912097L117.38250000000001,74.99565781652927L117.585,72.14978934824467L117.72,87.96916838362813L117.92250000000001,72.87942228466272L118.32749999999999,122.8749138917774L118.46249999999999,97.30371256917715L118.5975,93.32070007547736L118.665,101.27424636483192L118.86749999999999,101.25917961448431L118.935,43.92516679689288L119.0025,87.96059649065137L119.205,74.71553824469447L119.745,119.82697953097522L120.0825,123.09251634031534L120.2175,93.46281217038631L120.62249999999999,121.4888223130256L120.8925,98.31699274107814L120.96000000000001,114.83083522506058L121.02749999999999,94.35390989854932L121.095,95.23153986409307L121.5,41.14423041790724L121.7025,85.81493628770113L122.175,86.99177477136254L122.31,72.95139321684837L122.5125,110.9449076615274L122.58,96.37232694402337L122.7825,103.32243425399065L123.1875,73.50068671256304L123.32249999999999,110.65836741216481L123.525,85.97148872539401L123.72749999999999,86.3224912583828L123.795,55.390469279140234L123.8625,88.01123659685254L123.93,110.08174276538193L123.9975,126.56701776757836L124.4025,110.45804062485695L125.2125,114.0837205722928L125.61749999999999,74.48127830028534L125.95500000000001,58.90379149094224L126.22500000000001,76.50698145478964L126.6975,97.73023018240929L126.8325,101.50659411773086L127.16999999999999,102.1250891648233L127.2375,106.49753759242594L127.44,91.19890929758549L127.50750000000001,99.15477988868952L127.6425,103.97828297317028L127.71,101.13187051936984L127.9125,84.13931253924966L129.06,90.74774749204516L129.1275,113.9453504383564L129.195,115.14511873573065L129.5325,111.11743349209428L129.73499999999999,113.76616490632296L130.005,92.44366354867816L130.0725,125.14897940307856L130.14,110.97219760157168L130.41,129.51679571159184L130.4775,88.7624641098082L130.545,112.73093574307859L130.68,106.02202007174492L130.95,105.7998431995511L131.085,108.69631880521774L131.9625,38.52513797208667L132.03,114.13733611442149L132.63750000000002,103.14824349805713L132.70499999999998,93.94483279064298L133.44750000000002,118.11595551297069L133.9875,112.87783655896783L134.055,111.18045338988304L134.2575,131.25556299090385L134.3925,95.82497860863805L134.46,73.4627396017313L135,78.27582453936338L135.0675,112.34959365427494L135.135,115.83670565485954L135.40499999999997,114.12826144695282L135.54,81.55203500390053L135.67499999999998,136.42935977876186L136.21499999999997,111.3567046970129L136.5525,117.39046840555966L136.62,100.75360277295113L136.82250000000002,117.55698566883802L137.295,90.70276153832674L137.43,108.62938386015594L138.105,105.87158335000277L138.44250000000002,134.1795428339392L138.51,133.11982608027756L138.64499999999998,91.24585689604282L138.7125,91.34384022653103L139.1175,122.56674609705806L139.59,58.7344471514225L139.6575,129.30112193897367L140.265,117.40458730235696L140.535,126.02293334528804L140.67000000000002,76.652687150985L140.94,101.7201496437192L141.54749999999999,111.73117278702557L141.6825,83.66871561482549L141.885,99.75644435361028L142.02,136.7143504936248L142.0875,104.4537427984178L142.42499999999998,110.10207628458738L142.965,96.220439594239L143.1,122.0235271062702L143.5725,130.60159349441528L143.64000000000001,111.70792976953089L143.91,110.80898546241224L144.2475,103.07798694446683L144.45000000000002,97.10116862878203L144.58499999999998,117.99758096784353L144.7875,115.83128228411078L144.99,100.98037879541516L145.26000000000002,131.73783911950886L145.7325,119.05094298161566L145.8,110.74248735420406L146.34,109.7776218932122L146.475,115.55286060646176L146.61,95.51856640353799L146.8125,103.88644832745194L146.88000000000002,138.06323675997555L147.285,127.6870839446783L147.3525,119.15607230365276L147.89249999999998,130.26298723742366L148.095,121.6654939725995L148.1625,123.01194878853858L148.23000000000002,97.58732683584094L148.2975,129.74882201850414L148.43249999999998,104.88830480352044L148.635,122.42157614417374L149.10750000000002,100.4661806076765L149.175,95.13143004477024L149.5125,97.5766614228487L149.6475,79.99645072594285L149.715,114.47556322999299L149.7825,92.13156422227621L150.39000000000001,120.84817221947014L150.66000000000003,129.52489779889584L150.795,121.54115207120776L150.86249999999998,101.93172704055905L150.9975,113.92941825650632L151.335,109.36955857649446L151.4025,118.36505966819823L151.5375,117.97439564578235L151.605,99.83548709750175L151.67249999999999,82.40551530942321L151.875,109.70958249270916L152.01,101.39004934206605L152.145,116.68449059687555L152.7525,111.11783736012876L152.955,108.59553312510252L153.5625,102.82534688338637L153.9675,109.63011939637363L154.035,125.48661307990551L154.44,107.38639344088733L154.50750000000002,120.00015649572015L154.575,132.36174929514527L155.115,126.1113804448396L155.51999999999998,97.66043519228697L155.5875,113.31110453791916L156.1275,118.87257342785597L156.195,89.85617171600461L156.3975,109.83112204447389L156.86999999999998,114.6511634029448L157.005,120.46317883394659L157.275,124.27723437175155L157.67999999999998,128.08238832838833L157.95,134.63322675414383L158.0175,133.84067282639444L158.22,96.48481655493379L158.5575,116.38311437889934L158.82750000000001,114.79621796496212L159.09750000000003,96.00627414509654L159.705,110.03646009229124L159.84,133.5216995012015L159.90750000000003,91.99133135005832L160.3125,130.30322568118572L160.38,114.03739113919437L160.4475,123.9878011085093L160.5825,96.50444948673248L160.71749999999997,96.54956731572747L161.52749999999997,118.72452694550157L162.13500000000002,113.51640961691737L162.405,131.58272082544863L162.7425,126.06843031570315L162.81,96.71437844261527L163.14749999999998,101.76215191930532L163.215,119.23684591054916L163.2825,125.34145961143076L163.5525,116.20195071771741L163.62,111.78972540982068L164.025,122.8918433804065L164.29500000000002,98.91494821384549L164.3625,123.12110030651093L164.43,110.69469905085862L164.565,116.8516342677176L164.97,124.26846466585994L165.1725,117.85888114571571L165.30749999999998,102.2757236994803L165.51,131.34190832823515L165.7125,93.71548520028591L165.91500000000002,92.4349762648344L166.05,106.9126232676208L166.5225,130.33882376365364L166.6575,121.38118736073375L167.4675,127.29020529985428L167.53500000000003,141.6516289729625L167.60250000000002,129.64874516800046L168.54749999999999,106.91503823362291L168.8175,108.00006679818034L169.0875,130.03321105241776L169.15499999999997,99.51857432350516L169.3575,128.85826827585697L169.42499999999998,134.09177159518003L169.6275,133.7547972947359L169.76250000000002,115.50915219448507L169.89749999999998,115.89570335671306L170.23499999999999,124.16587394289672L170.4375,116.0555361919105L170.57250000000002,131.1786961890757L170.77499999999998,109.35103834234178L170.9775,100.19634730741382L171.18,118.5563777256757L171.315,121.2644942253828L171.51749999999998,113.10762098617852L171.72,135.14428466185927L171.7875,115.14519291557372L171.99,127.36383291520178L172.19250000000002,127.24502977542579L172.8,145.6979086305946L172.935,141.14569771662354L173.2725,103.72246142104268L173.61,116.65174431726336L173.6775,130.57888622023165L173.74499999999998,119.51507801748812L173.88,135.932717487216L173.9475,106.99337214790285L174.0825,117.35853810422122L174.2175,110.89751498401165L174.42000000000002,107.78704701550305L174.4875,145.59748560748994L174.7575,150.4138427004218L175.095,153.25198822282255L175.23000000000002,118.99647849239409L175.70250000000001,126.37117473967373L175.8375,143.4202083069831L175.905,88.3269295245409L176.1075,104.03749497234821L176.2425,132.49249538965523L176.51250000000002,137.3958077430725L176.715,119.8717676717788L176.85,127.71126657351851L176.98499999999999,124.03450968302786L177.0525,117.30714795738459L177.39000000000001,118.06531540676951L177.66,148.14772267453372L177.7275,135.92144215106964L177.795,104.76022094115615L178.065,124.10027423501015L178.1325,123.48923838324845L178.2675,134.59625222347677L178.33499999999998,128.38669877126813L178.47,131.86898083984852L178.5375,153.5565541740507L178.605,135.96174653247L178.74,143.8842774052173L178.8075,115.799211865291L178.9425,136.1577708888799L179.28,149.68819899111986L179.3475,136.5954484473914L179.7525,141.99527945928276L179.82000000000002,134.30335723422468L179.8875,154.9268372040242L180.1575,128.53139891847968L180.2925,125.76974929869175L180.4275,139.00281513668597L180.6975,109.24091424420476L181.3725,152.96229120902717L181.5075,118.20540816150606L181.64249999999998,139.91710642911494L181.71,120.61843724548817L181.98000000000002,150.58436567522585L182.115,125.44643233157694L182.18249999999998,121.40172693505883L182.25,130.03788438253105L182.4525,117.53980891406536L182.7225,130.306670922786L182.99249999999998,146.99320408143103L183.195,130.38319155201316L183.87,133.55231929197907L183.9375,135.61879663355649L184.2075,137.91058288514614L184.3425,128.0926498733461L184.545,136.76367184706032L184.68,127.02979283966124L184.7475,138.43623773753643L184.8825,132.95318518392742L184.95000000000002,148.33861213736236L185.0175,134.9967904072255L185.085,125.53779717162251L185.22000000000003,141.09837921895087L185.355,133.4830023497343L185.42249999999999,127.0894416756928L185.6925,149.5113295186311L185.76,148.68818876892328L185.895,129.75955336913466L186.0975,127.73521017841995L186.435,135.89144876785576L187.245,146.57141749374568L187.51500000000001,138.25587357021868L187.7175,127.39291141368449L188.055,140.98070526123047L188.19,138.4609478674829L188.39249999999998,132.94319563172758L188.7975,156.49516393058002L188.865,106.95428761281073L189,117.39006453752518L189.2025,146.77776933275163L189.405,131.95812852680683L189.4725,112.61621249467134L189.54,129.48772545531392L190.1475,141.58085316047072L190.215,133.82671877369285L190.2825,126.35660252161324L190.35,146.0787726715207L190.485,143.33963251300156L190.61999999999998,140.9533576257527L190.8225,148.4616682548076L191.16,137.5806968808174L191.29500000000002,143.1192277148366L191.3625,139.87333207949996L191.42999999999998,124.09814774617553L191.4975,130.48067210800946L192.03750000000002,116.0643141400069L192.645,137.8647067733109L192.9825,140.07048561796546L193.5225,116.85357118584216L193.59,144.00584168359637L193.7925,129.32734863460064L194.0625,121.63913540169597L194.535,129.4079244285822L194.73749999999998,133.9158499762416L194.94,124.64796050079167L195.0075,145.12784477882087L195.07500000000002,141.1280676405877L195.20999999999998,143.87207894213498L195.75,99.68114357069135L195.88500000000002,144.33220002427697L196.01999999999998,133.03934919275343L196.155,139.60463620349765L196.82999999999998,119.76347334310412L197.37,122.2916625123471L197.4375,125.45638067275286L197.50500000000002,134.34633208997548L197.775,147.67476847954094L198.18,149.03221839666367L198.72,147.42793917283416L199.125,133.43696139380336L199.1925,146.31431839987636L199.26,136.85277008078992L199.3275,145.1334000248462L199.4625,130.39454931020737L199.5975,131.64814744703472L199.8,129.3498663380742L200.34,143.63803329505026L200.8125,139.81708727404475L201.0825,132.1015181634575L201.2175,146.34188033267856L201.48749999999998,151.8331915754825L201.555,146.169956183061L201.69,114.6113947648555L202.0275,155.13734311424196L202.23,156.7810860145837L202.365,131.30279906652868L202.5675,139.84436072967947L202.635,145.20501654222608L202.70250000000001,144.85784663446248L203.3775,142.6404380388558L203.445,144.4202185291797L203.58,142.42225039377809L203.64749999999998,139.3620021790266L203.71499999999997,123.4904499873519L203.7825,137.85512108914554L204.0525,144.02718899399042L204.1875,150.84169555082917L204.39000000000001,149.04965065978467L204.52499999999998,134.65027163363993L204.66,130.44529656507075L204.795,144.59281853958964L205.4025,138.33361404575408L205.6725,143.31594441644847L205.8075,155.04899492114782L205.94250000000002,145.37579502537847L206.0775,154.60606707818806L206.28,145.70968674123287L206.48250000000002,155.86550069600344L206.8875,122.75972907990217L206.95499999999998,135.49428988806903L207.225,157.6715655773878L207.4275,144.496772127226L207.63,134.24514254182577L207.765,152.60488448292017L208.10250000000002,139.40952673181891L208.3725,140.96725398302078L208.575,152.68056440725923L208.6425,141.37540796399117L208.71,139.92355183325708L208.7775,118.87910949625075L208.98000000000002,160.8120269291103L209.25,153.28181676194072L209.655,144.6850982643664L209.72250000000003,122.26188342645764L209.92499999999998,164.7961026672274L210.26250000000002,146.66254330985248L210.465,148.13180697709322L210.53250000000003,133.51764433644712L210.6675,133.5886921416968L210.8025,143.00889756157994L210.9375,155.79474961012602L211.005,151.7068550605327L211.2075,149.03699887543917L211.275,153.9368000496179L211.41,147.7269910890609L211.61249999999998,139.17524206079543L211.68,137.65781094878912L211.815,134.74577406048775L212.22,138.36235461384058L212.42249999999999,156.01218721456826L212.625,160.3675330672413L212.6925,144.19058246165514L212.96249999999998,150.92257630638778L213.3675,148.40371731296182L214.245,154.17554375343025L214.515,143.78129105642438L214.65,146.82018371857703L214.9875,148.881839370355L215.19,168.95916612446308L215.325,153.0145797561854L215.595,147.0143206100911L215.93249999999998,158.334073998034L216.2025,147.91235003247857L216.4725,145.30913207307458L216.675,148.7732812911272L217.6875,128.8492018505931L218.36249999999998,145.26769850961864L218.43,153.4641260895878L218.4975,138.81270044110715L218.70000000000002,143.52351610176265L218.7675,136.69520385190845L219.105,149.81656308844686L219.51,134.1512967981398L219.57750000000001,159.5240340717137L219.645,134.76583558693528L219.7125,142.4341603796929L219.77999999999997,154.02357398159802L219.8475,157.42442306689918L219.915,157.63089029677212L220.455,155.18156254291534L222.00750000000002,147.85262701660395L222.075,148.61212146095932L222.14249999999998,162.54873365722597L222.615,159.98631461150944L223.35750000000002,149.1410896796733L223.425,161.88277175277472L223.4925,157.09800703078508L223.7625,163.947064910084L224.3025,151.30150342918932L224.36999999999998,159.73117716237903L224.5725,157.16433205269277L224.7075,146.3875339049846L224.775,164.25870267301798L224.91,155.83887013234198L225.72,158.27457352168858L225.85500000000002,160.14083946682513L226.0575,167.78074513748288L226.1925,161.34360792674124L226.53,157.65265795961022L226.7325,150.2113564554602L226.935,161.1976714488119L227.5425,149.17905327491462L227.60999999999999,160.95108116604388L228.01500000000001,155.02669151499867L228.15,149.18920767121017L228.21749999999997,175.08567112125456L228.6225,150.1201729439199L228.82500000000002,165.85109663754702L228.8925,135.72473369166255L229.23,140.35574008338153L229.365,143.19545986689627L229.5,156.77931394055486L229.70250000000001,156.59594136849046L229.76999999999998,152.07355075143278L230.31,146.37545907497406L230.64749999999998,160.11406878568232L230.7825,158.25564117729664L230.85,138.91400538012385L230.9175,147.55647635646164L231.1875,158.89771717227995L231.66,145.39008700847626L231.93,166.04098055139184L232.1325,150.7082624975592L232.2,149.64907324500382L232.335,153.41392282024026L232.875,159.95240618102252L233.2125,153.00928826071322L234.0225,161.00032009743154L234.35999999999999,156.8922898415476L234.495,169.34208247438073L234.5625,146.32332712970674L234.76500000000001,154.20660038106143L235.44,158.066210584715L235.84500000000003,173.40214309841394L236.115,152.28966960310936L236.45250000000001,156.30007094331086L236.5875,167.47876723855734L236.7225,167.14837021753192L236.8575,155.90673644654453L236.9925,168.65527603402734L237.195,138.78530335240066L237.26250000000002,161.0081584341824L237.33,160.8639445770532L237.5325,141.9654921311885L237.6,152.87949001975358L237.6675,162.99635955691338L237.9375,159.79288654960692L238.005,137.17403473891318L238.07250000000002,172.55041014030576L238.27499999999998,162.32583147101104L238.3425,173.7756138816476L238.4775,153.80183394625783L238.545,151.9014123044908L238.815,158.70417371951044L238.95,160.4490484725684L239.01749999999998,157.673477768898L239.08499999999998,152.65152711980045L239.355,165.68627726845443L239.49,154.87504318915308L239.625,164.62305757775903L239.8275,151.88188652135432L240.435,158.55043187364936L240.6375,150.707463003695L240.7725,153.05455444939435L240.9075,135.5138239134103L241.04250000000002,157.85542443953454L241.1775,168.22554396092892L241.785,164.76981827616692L242.05499999999998,152.02047095261514L242.19,158.54959941096604L242.3925,153.775524828583L242.9325,160.6848909202963L243.20250000000001,170.60553828813136L243.47250000000003,156.0762868411839L243.8775,160.08501501381397L244.08,160.3923997990787L244.35,164.27045605704188L244.48499999999999,154.15668558888137L244.755,156.1800149884075L244.8225,147.04003628902137L245.295,151.93357338756323L245.4975,155.24570338055491L245.565,158.47960660792887L245.90249999999997,157.46064755693078L245.97,149.3083899524063L246.0375,178.5553220110014L246.17249999999999,158.9572094064206L246.375,157.716790555045L246.71249999999998,163.28727641701698L246.915,144.42301263660192L246.9825,146.7991578541696L247.1175,171.35381509177387L247.52249999999998,166.33337276615202L248.1975,144.6329992879182L248.67000000000002,149.055436687544L248.8725,154.97207866609097L248.94,161.3718704469502L249.4125,154.30783938243985L249.48000000000002,140.3568280544132L249.5475,144.94471123069525L249.615,158.13349994458258L249.9525,160.42855010926723L250.155,157.9750847686082L250.8975,158.89800564944744L251.7075,163.56399195827544L251.775,155.9700860325247L251.8425,144.17282051034272L251.97750000000002,162.5041680559516L252.11249999999998,162.89601895585656L252.45000000000002,140.42498284578323L252.6525,162.27178733423352L252.72000000000003,166.7157616149634L252.855,155.3174929842353L252.92249999999999,138.0145006030798L253.395,153.91979638114572L253.52999999999997,156.60735682211816L253.665,165.69777514413L254.205,159.61348672024906L254.27249999999998,157.81533435545862L254.60999999999999,167.5578264668584L254.6775,173.48983191512525L255.08249999999998,149.61063160188496L255.2175,171.37104129977524L255.3525,160.57955554313958L255.4875,165.7267959471792L255.75750000000002,159.1692566089332L255.95999999999998,155.2239934131503L256.22999999999996,150.87321374192834L256.635,161.93557955883443L256.83750000000003,159.1993571408093L256.90500000000003,159.3343562129885L256.97249999999997,148.4482169765979L257.3775,162.3401399385184L257.84999999999997,158.74821181967854L257.9175,149.3657062444836L258.1875,161.8002095874399L258.3225,163.54896641895175L258.39,164.00902156345546L258.45750000000004,168.18520661070943L258.7275,168.130428917706L259.065,162.02620260044932L259.5375,163.1592502500862L259.8075,160.47792091593146L260.0775,160.6319677233696L260.145,144.84092538803816L260.3475,168.93093657307327L260.6175,162.8623083382845L260.7525,176.66384728252888L261.1575,162.1085587106645L261.36,151.60836895555258L261.495,154.40410009212792L261.63,152.59684833325446L261.765,155.76834982819855L261.9675,169.05592136643827L262.1025,161.36633168533444L262.305,180.90600705798715L262.3725,160.23522919602692L262.575,161.7978935278952L262.71,155.31790509447455L263.115,149.7645053230226L263.4525,171.33435524627566L263.52,153.90026235580444" style="fill: none;" fill="none"></path></g><g><path stroke="rgb(255, 112, 67)" stroke-width="2px" d="M35.775,-5.629869628697634L35.8425,14.264323577284813L35.910000000000004,-53.26923633366823L35.9775,-19.25449788942933L36.045,28.30371606722474L36.112500000000004,-3.2854568995535374L36.315000000000005,-19.12049612402916L36.3825,24.833418164402246L36.45,-23.064902130514383L36.517500000000005,5.527784317731857L36.585,14.72959603741765L36.6525,21.710974272340536L36.720000000000006,13.095232766121626L36.7875,11.026225067675114L36.855000000000004,-22.757599767297506L36.9225,27.70679911226034L36.99,31.81878562644124L37.057500000000005,-26.95929443836212L37.125,25.536016669124365L37.1925,40.03520879521966L37.260000000000005,34.88270986452699L37.3275,27.170594237744808L37.395,-39.58322013169527L37.462500000000006,18.25772124901414L37.53,-2.1413564532995224L37.597500000000004,25.739846393465996L37.665000000000006,28.876071251928806L37.7325,39.90132242068648L37.800000000000004,41.555071357637644L37.86750000000001,13.37513804063201L37.935,-13.008241899311543L38.0025,-3.105513084679842L38.06999999999999,11.030725311487913L38.137499999999996,59.683306250721216L38.205,56.981544490903616L38.272499999999994,35.961795799434185L38.339999999999996,35.66504345834255L38.4075,2.822461925446987L38.474999999999994,49.094347950071096L38.5425,50.20805114507675L38.61,-14.12507713213563L38.677499999999995,39.85238020867109L38.745,9.331166200339794L38.8125,36.61141341179609L38.879999999999995,20.93002536892891L38.9475,50.591956559568644L39.015,66.08540584892035L39.082499999999996,75.55787508934736L39.15,45.39912027865648L39.217499999999994,48.40811846405268L39.285,73.45542052388191L39.3525,13.060071520507336L39.419999999999995,67.56811255216599L39.4875,52.61990159377456L39.555,29.301995426416397L39.622499999999995,46.973793502897024L39.69,29.75432762503624L39.7575,48.242021553218365L39.824999999999996,56.69306732341647L39.8925,69.28928272426128L39.96,48.35282975435257L40.027499999999996,18.777540620416403L40.095,78.25048800185323L40.1625,50.05937825515866L40.23,50.17458779364824L40.2975,50.92871656268835L40.364999999999995,50.34534979239106L40.4325,41.07827629521489L40.5,65.15914687514305L40.567499999999995,68.91310849785805L40.635,79.04671795293689L40.7025,63.141125455498695L40.769999999999996,53.4889266975224L40.8375,31.818703204393387L40.905,51.381576262414455L40.9725,76.18682125210762L41.04,37.782070241868496L41.1075,35.604792941361666L41.175,49.08969934657216L41.2425,15.796269211918116L41.31,68.38549200072885L41.3775,8.21296276152134L41.445,52.920824490487576L41.5125,60.12019255757332L41.58,33.066671915352345L41.6475,41.145351357758045L41.714999999999996,77.37218217551708L41.7825,60.23096778988838L41.85,47.147440273314714L41.9175,29.627793297171593L41.985,57.80213839933276L42.0525,41.27986413985491L42.12,85.32948691025376L42.1875,45.59474076703191L42.255,88.53585293143988L42.3225,82.88849202543497L42.39,6.7221292443573475L42.4575,51.05998191609979L42.525,66.03644715249538L42.5925,58.48835140094161L42.660000000000004,63.67398399487138L42.7275,-3.795418594032526L42.795,0.5776479989290237L42.8625,0.5642956271767616L42.93,65.60622054710984L42.9975,93.1329756192863L43.065,80.4307819493115L43.1325,30.377454791218042L43.2,39.59462998062372L43.2675,78.23116827383637L43.335,76.05278651788831L43.4025,74.83968233317137L43.47,44.86957510560751L43.5375,-4.6767905205488205L43.605000000000004,79.16380671411753L43.6725,59.93916077166796L43.74,65.6583277657628L43.807500000000005,52.30336796119809L43.875,45.87725057825446L43.9425,54.50908086821437L44.010000000000005,86.29354463517666L44.0775,9.132924690842628L44.145,48.45737387984991L44.2125,5.9101072289049625L44.28,40.921575497835875L44.347500000000004,26.845505196601152L44.415,48.52861949801445L44.4825,83.28715098649263L44.550000000000004,23.088213723152876L44.6175,63.891759529709816L44.685,80.79338950663805L44.752500000000005,63.070094134658575L44.82,46.18273965641856L44.8875,89.85691351443529L44.955000000000005,70.74243288114667L45.0225,44.44266186654568L45.09,58.84007924795151L45.157500000000006,87.843804448843L45.225,58.78022435680032L45.292500000000004,39.46507900580764L45.36,83.8290759511292L45.4275,60.87803031876683L45.495000000000005,72.8056380674243L45.5625,79.70014346390963L45.63,74.58417398482561L45.697500000000005,41.707848865538836L45.765,52.3390237390995L45.8325,60.08903702348471L45.900000000000006,58.423122592270374" style="fill: none;" fill="none"></path></g></g></g></g></g></g><g transform="translate(60, 177)" clip-path="url(#clip_1)"><clipPath id="clip_1"><rect width="270" height="23"></rect></clipPath><g><g><line x1="0" y1="0" x2="0" y2="5" style="visibility: inherit;" fill="rgb(0, 0, 0)" stroke="rgb(204, 204, 204)" stroke-width="1px"></line><line x1="33.75" y1="0" x2="33.75" y2="5" style="visibility: inherit;" fill="rgb(0, 0, 0)" stroke="rgb(204, 204, 204)" stroke-width="1px"></line><line x1="67.5" y1="0" x2="67.5" y2="5" style="visibility: inherit;" fill="rgb(0, 0, 0)" stroke="rgb(204, 204, 204)" stroke-width="1px"></line><line x1="101.25" y1="0" x2="101.25" y2="5" style="visibility: inherit;" fill="rgb(0, 0, 0)" stroke="rgb(204, 204, 204)" stroke-width="1px"></line><line x1="135" y1="0" x2="135" y2="5" style="visibility: inherit;" fill="rgb(0, 0, 0)" stroke="rgb(204, 204, 204)" stroke-width="1px"></line><line x1="168.75" y1="0" x2="168.75" y2="5" style="visibility: inherit;" fill="rgb(0, 0, 0)" stroke="rgb(204, 204, 204)" stroke-width="1px"></line><line x1="202.5" y1="0" x2="202.5" y2="5" style="visibility: inherit;" fill="rgb(0, 0, 0)" stroke="rgb(204, 204, 204)" stroke-width="1px"></line><line x1="236.25" y1="0" x2="236.25" y2="5" style="visibility: inherit;" fill="rgb(0, 0, 0)" stroke="rgb(204, 204, 204)" stroke-width="1px"></line><line x1="270" y1="0" x2="270" y2="5" style="visibility: inherit;" fill="rgb(0, 0, 0)" stroke="rgb(204, 204, 204)" stroke-width="1px"></line></g><g transform="translate(0, 8)"><text x="0" y="0" dx="0em" dy="0.95em" style="text-anchor: middle; visibility: hidden; font-family: Roboto, sans-serif; font-size: 12px; font-weight: 200;" fill="rgb(33, 33, 33)" stroke="none" stroke-width="1px">-10k</text><text x="33.75" y="0" dx="0em" dy="0.95em" style="text-anchor: middle; visibility: inherit; font-family: Roboto, sans-serif; font-size: 12px; font-weight: 200;" fill="rgb(33, 33, 33)" stroke="none" stroke-width="1px">0</text><text x="67.5" y="0" dx="0em" dy="0.95em" style="text-anchor: middle; visibility: inherit; font-family: Roboto, sans-serif; font-size: 12px; font-weight: 200;" fill="rgb(33, 33, 33)" stroke="none" stroke-width="1px">10k</text><text x="101.25" y="0" dx="0em" dy="0.95em" style="text-anchor: middle; visibility: inherit; font-family: Roboto, sans-serif; font-size: 12px; font-weight: 200;" fill="rgb(33, 33, 33)" stroke="none" stroke-width="1px">20k</text><text x="135" y="0" dx="0em" dy="0.95em" style="text-anchor: middle; visibility: inherit; font-family: Roboto, sans-serif; font-size: 12px; font-weight: 200;" fill="rgb(33, 33, 33)" stroke="none" stroke-width="1px">30k</text><text x="168.75" y="0" dx="0em" dy="0.95em" style="text-anchor: middle; visibility: inherit; font-family: Roboto, sans-serif; font-size: 12px; font-weight: 200;" fill="rgb(33, 33, 33)" stroke="none" stroke-width="1px">40k</text><text x="202.5" y="0" dx="0em" dy="0.95em" style="text-anchor: middle; visibility: inherit; font-family: Roboto, sans-serif; font-size: 12px; font-weight: 200;" fill="rgb(33, 33, 33)" stroke="none" stroke-width="1px">50k</text><text x="236.25" y="0" dx="0em" dy="0.95em" style="text-anchor: middle; visibility: inherit; font-family: Roboto, sans-serif; font-size: 12px; font-weight: 200;" fill="rgb(33, 33, 33)" stroke="none" stroke-width="1px">60k</text><text x="270" y="0" dx="0em" dy="0.95em" style="text-anchor: middle; visibility: hidden; font-family: Roboto, sans-serif; font-size: 12px; font-weight: 200;" fill="rgb(33, 33, 33)" stroke="none" stroke-width="1px">70k</text></g><line x1="0" y1="0" x2="270" y2="0" fill="rgb(0, 0, 0)" stroke="rgb(204, 204, 204)" stroke-width="1px"></line></g></g></g></g></svg>