<svg viewBox="0 0 330 200" xmlns="http://www.w3.org/2000/svg"><g><g><g><g><g><line x1="40" y1="177" x2="35" y2="177" style="visibility: inherit;" fill="rgb(0, 0, 0)" stroke="rgb(204, 204, 204)" stroke-width="1px"></line><line x1="40" y1="160.9090909090909" x2="35" y2="160.9090909090909" style="visibility: inherit;" fill="rgb(0, 0, 0)" stroke="rgb(204, 204, 204)" stroke-width="1px"></line><line x1="40" y1="144.8181818181818" x2="35" y2="144.8181818181818" style="visibility: inherit;" fill="rgb(0, 0, 0)" stroke="rgb(204, 204, 204)" stroke-width="1px"></line><line x1="40" y1="128.72727272727272" x2="35" y2="128.72727272727272" style="visibility: inherit;" fill="rgb(0, 0, 0)" stroke="rgb(204, 204, 204)" stroke-width="1px"></line><line x1="40" y1="112.63636363636361" x2="35" y2="112.63636363636361" style="visibility: inherit;" fill="rgb(0, 0, 0)" stroke="rgb(204, 204, 204)" stroke-width="1px"></line><line x1="40" y1="96.54545454545453" x2="35" y2="96.54545454545453" style="visibility: inherit;" fill="rgb(0, 0, 0)" stroke="rgb(204, 204, 204)" stroke-width="1px"></line><line x1="40" y1="80.45454545454544" x2="35" y2="80.45454545454544" style="visibility: inherit;" fill="rgb(0, 0, 0)" stroke="rgb(204, 204, 204)" stroke-width="1px"></line><line x1="40" y1="64.36363636363635" x2="35" y2="64.36363636363635" style="visibility: inherit;" fill="rgb(0, 0, 0)" stroke="rgb(204, 204, 204)" stroke-width="1px"></line><line x1="40" y1="48.27272727272725" x2="35" y2="48.27272727272725" style="visibility: inherit;" fill="rgb(0, 0, 0)" stroke="rgb(204, 204, 204)" stroke-width="1px"></line><line x1="40" y1="32.18181818181815" x2="35" y2="32.18181818181815" style="visibility: inherit;" fill="rgb(0, 0, 0)" stroke="rgb(204, 204, 204)" stroke-width="1px"></line><line x1="40" y1="16.090909090909076" x2="35" y2="16.090909090909076" style="visibility: inherit;" fill="rgb(0, 0, 0)" stroke="rgb(204, 204, 204)" stroke-width="1px"></line><line x1="40" y1="0" x2="35" y2="0" style="visibility: inherit;" fill="rgb(0, 0, 0)" stroke="rgb(204, 204, 204)" stroke-width="1px"></line></g><g transform="translate(30, 0)"><text x="0" y="177" dx="0em" dy="0.3em" style="text-anchor: end; visibility: hidden; font-family: Roboto, sans-serif; font-size: 12px; font-weight: 200;" fill="rgb(33, 33, 33)" stroke="none" stroke-width="1px">0.1</text><text x="0" y="160.9090909090909" dx="0em" dy="0.3em" style="text-anchor: end; visibility: inherit; font-family: Roboto, sans-serif; font-size: 12px; font-weight: 200;" fill="rgb(33, 33, 33)" stroke="none" stroke-width="1px">0.2</text><text x="0" y="144.8181818181818" dx="0em" dy="0.3em" style="text-anchor: end; visibility: hidden; font-family: Roboto, sans-serif; font-size: 12px; font-weight: 200;" fill="rgb(33, 33, 33)" stroke="none" stroke-width="1px">0.3</text><text x="0" y="128.72727272727272" dx="0em" dy="0.3em" style="text-anchor: end; visibility: inherit; font-family: Roboto, sans-serif; font-size: 12px; font-weight: 200;" fill="rgb(33, 33, 33)" stroke="none" stroke-width="1px">0.4</text><text x="0" y="112.63636363636361" dx="0em" dy="0.3em" style="text-anchor: end; visibility: hidden; font-family: Roboto, sans-serif; font-size: 12px; font-weight: 200;" fill="rgb(33, 33, 33)" stroke="none" stroke-width="1px">0.5</text><text x="0" y="96.54545454545453" dx="0em" dy="0.3em" style="text-anchor: end; visibility: inherit; font-family: Roboto, sans-serif; font-size: 12px; font-weight: 200;" fill="rgb(33, 33, 33)" stroke="none" stroke-width="1px">0.6</text><text x="0" y="80.45454545454544" dx="0em" dy="0.3em" style="text-anchor: end; visibility: hidden; font-family: Roboto, sans-serif; font-size: 12px; font-weight: 200;" fill="rgb(33, 33, 33)" stroke="none" stroke-width="1px">0.7</text><text x="0" y="64.36363636363635" dx="0em" dy="0.3em" style="text-anchor: end; visibility: inherit; font-family: Roboto, sans-serif; font-size: 12px; font-weight: 200;" fill="rgb(33, 33, 33)" stroke="none" stroke-width="1px">0.8</text><text x="0" y="48.27272727272725" dx="0em" dy="0.3em" style="text-anchor: end; visibility: hidden; font-family: Roboto, sans-serif; font-size: 12px; font-weight: 200;" fill="rgb(33, 33, 33)" stroke="none" stroke-width="1px">0.9</text><text x="0" y="32.18181818181815" dx="0em" dy="0.3em" style="text-anchor: end; visibility: inherit; font-family: Roboto, sans-serif; font-size: 12px; font-weight: 200;" fill="rgb(33, 33, 33)" stroke="none" stroke-width="1px">1</text><text x="0" y="16.090909090909076" dx="0em" dy="0.3em" style="text-anchor: end; visibility: hidden; font-family: Roboto, sans-serif; font-size: 12px; font-weight: 200;" fill="rgb(33, 33, 33)" stroke="none" stroke-width="1px">1.1</text><text x="0" y="0" dx="0em" dy="0.3em" style="text-anchor: end; visibility: hidden; font-family: Roboto, sans-serif; font-size: 12px; font-weight: 200;" fill="rgb(33, 33, 33)" stroke="none" stroke-width="1px">1.2</text></g><line x1="40" y1="0" x2="40" y2="177" fill="rgb(0, 0, 0)" stroke="rgb(204, 204, 204)" stroke-width="1px"></line></g></g><g transform="translate(40, 0)" clip-path="url(#clip_0)"><clipPath id="clip_0"><rect width="290" height="177"></rect></clipPath><g><g><g><line x1="0" y1="0" x2="0" y2="177" fill="rgb(0, 0, 0)" stroke="rgb(66, 66, 66)" stroke-width="1px" opacity="0.25"></line><line x1="36.25" y1="0" x2="36.25" y2="177" fill="rgb(0, 0, 0)" stroke="rgb(66, 66, 66)" stroke-width="1px" opacity="0.25"></line><line x1="72.5" y1="0" x2="72.5" y2="177" fill="rgb(0, 0, 0)" stroke="rgb(66, 66, 66)" stroke-width="1px" opacity="0.25"></line><line x1="108.75" y1="0" x2="108.75" y2="177" fill="rgb(0, 0, 0)" stroke="rgb(66, 66, 66)" stroke-width="1px" opacity="0.25"></line><line x1="145" y1="0" x2="145" y2="177" fill="rgb(0, 0, 0)" stroke="rgb(66, 66, 66)" stroke-width="1px" opacity="0.25"></line><line x1="181.25" y1="0" x2="181.25" y2="177" fill="rgb(0, 0, 0)" stroke="rgb(66, 66, 66)" stroke-width="1px" opacity="0.25"></line><line x1="217.5" y1="0" x2="217.5" y2="177" fill="rgb(0, 0, 0)" stroke="rgb(66, 66, 66)" stroke-width="1px" opacity="0.25"></line><line x1="253.75" y1="0" x2="253.75" y2="177" fill="rgb(0, 0, 0)" stroke="rgb(66, 66, 66)" stroke-width="1px" opacity="0.25"></line><line x1="290" y1="0" x2="290" y2="177" fill="rgb(0, 0, 0)" stroke="rgb(66, 66, 66)" stroke-width="1px" opacity="0.25"></line></g><g><line x1="0" y1="177" x2="290" y2="177" fill="rgb(0, 0, 0)" stroke="rgb(66, 66, 66)" stroke-width="1px" opacity="0.25"></line><line x1="0" y1="160.9090909090909" x2="290" y2="160.9090909090909" fill="rgb(0, 0, 0)" stroke="rgb(66, 66, 66)" stroke-width="1px" opacity="0.25"></line><line x1="0" y1="144.8181818181818" x2="290" y2="144.8181818181818" fill="rgb(0, 0, 0)" stroke="rgb(66, 66, 66)" stroke-width="1px" opacity="0.25"></line><line x1="0" y1="128.72727272727272" x2="290" y2="128.72727272727272" fill="rgb(0, 0, 0)" stroke="rgb(66, 66, 66)" stroke-width="1px" opacity="0.25"></line><line x1="0" y1="112.63636363636361" x2="290" y2="112.63636363636361" fill="rgb(0, 0, 0)" stroke="rgb(66, 66, 66)" stroke-width="1px" opacity="0.25"></line><line x1="0" y1="96.54545454545453" x2="290" y2="96.54545454545453" fill="rgb(0, 0, 0)" stroke="rgb(66, 66, 66)" stroke-width="1px" opacity="0.25"></line><line x1="0" y1="80.45454545454544" x2="290" y2="80.45454545454544" fill="rgb(0, 0, 0)" stroke="rgb(66, 66, 66)" stroke-width="1px" opacity="0.25"></line><line x1="0" y1="64.36363636363635" x2="290" y2="64.36363636363635" fill="rgb(0, 0, 0)" stroke="rgb(66, 66, 66)" stroke-width="1px" opacity="0.25"></line><line x1="0" y1="48.27272727272725" x2="290" y2="48.27272727272725" fill="rgb(0, 0, 0)" stroke="rgb(66, 66, 66)" stroke-width="1px" opacity="0.25"></line><line x1="0" y1="32.18181818181815" x2="290" y2="32.18181818181815" fill="rgb(0, 0, 0)" stroke="rgb(66, 66, 66)" stroke-width="1px" opacity="0.25"></line><line x1="0" y1="16.090909090909076" x2="290" y2="16.090909090909076" fill="rgb(0, 0, 0)" stroke="rgb(66, 66, 66)" stroke-width="1px" opacity="0.25"></line><line x1="0" y1="0" x2="290" y2="0" fill="rgb(0, 0, 0)" stroke="rgb(66, 66, 66)" stroke-width="1px" opacity="0.25"></line></g></g></g><g><g><line x1="0" y1="193.09090909090907" x2="290" y2="193.09090909090907" fill="rgb(0, 0, 0)" stroke="rgb(153, 153, 153)" stroke-width="1.5px"></line></g></g><g><g><line x1="36.25" y1="0" x2="36.25" y2="177" fill="rgb(0, 0, 0)" stroke="rgb(153, 153, 153)" stroke-width="1.5px"></line></g></g><g><g><g><g><g><path stroke="rgb(0, 119, 187)" stroke-width="2px" d="M41.397499999999994,-0.5959894917611419L41.47,2.1440911530297084L41.5425,4.404702381833958L41.614999999999995,7.2285531642679395L41.9775,9.809633885590015L42.5575,11.649303954651486L43.065,13.49740640831735L43.644999999999996,15.265297368752549L43.8625,16.8940323486409L43.935,18.21531972290442L44.4425,18.953383918577554L44.805,20.027499770467106L45.385,21.544949816611467L45.6025,22.9214109333946L45.675,24.609556881263426L46.3275,26.60787076836363L46.472500000000004,27.29021534203999L46.545,28.78503200249163L46.6175,30.085260739258025L47.125,31.211207248829883L47.487500000000004,32.208727137708095L47.6325,32.53642067446363L47.705000000000005,34.244025644751034L47.995000000000005,35.12221269767993L48.3575,36.26889725705822L48.43,36.94094079781754L48.6475,38.25607273345939L49.0825,39.534549844670934L49.155,40.49706221157835L49.300000000000004,40.76190001696847L49.517500000000005,41.582620878366406L49.6625,42.608526619392634L49.73500000000001,43.381821311391L49.879999999999995,44.093174447869366L50.025,45.16986810929428L50.0975,46.09029342845357L50.605,46.9389149326814L51.184999999999995,47.072847971582895L51.2575,47.69658989192151L51.33,48.25021832697801L51.62,48.76980961810278L52.4175,49.74206291774513L52.5625,50.23495342475004L52.8525,50.52755915835167L53.07,50.575153297825366L53.214999999999996,50.92781275832725L53.4325,51.65480367736715L54.3025,52.3387924103356L54.7375,52.89210320884699L54.955,53.2420227166565L55.1,53.62315771839382L55.1725,54.144601746228034L55.3175,54.47628565828737L55.6075,54.63784912390979L55.8975,55.02793952346348L56.042500000000004,55.39189684115356L56.405,55.81818349366828L57.42,55.72451566224083L57.782500000000006,55.69013890969183L57.855000000000004,56.3439835947346L58.145,56.8131569813748L58.2175,57.079486690515814L58.5075,57.44280798046006L58.580000000000005,57.513332334528144L58.725,57.84119095022597L58.942499999999995,58.296474118865675L59.305,58.81611283270903L59.3775,59.2757999300924L59.8125,59.7088846158018L59.885,59.75788287718488L59.957499999999996,60.30532225478972L60.175,60.64818802664276L60.8275,61.14583822910707L61.4075,61.44948454432099L62.35,61.79829348636944L62.5675,62.08641364259033L62.8575,61.943122070283955L63.2925,62.23248280882997L63.5825,62.39849705697397L63.655,62.917885888173295L63.7275,63.03462738707059L64.235,63.15440173806922L64.5975,63.49977519415055L64.67,63.83758463094528L65.83,64.12367211812492L66.3375,64.25723425999254L66.77250000000001,64.6758393336966L66.845,65.16742328156559L66.99000000000001,65.48112524948249L67.425,65.45301774176272L68.0775,65.7451158842383L68.2225,66.01594510740452L68.295,66.08738015307475L68.5125,66.4789927072466L68.94749999999999,66.84250121519615L69.6,66.87958960195316L69.8175,67.03515717834637L69.89,67.25306208447108L70.5425,67.65922774538525L70.615,67.92232663901038L71.4125,68.20668807774531L71.63,68.52971628241842L71.7025,68.73428684055897L71.8475,68.94662633864453L71.99249999999999,69.12352922066121L73.0075,69.31070319379114L73.37,69.55709387423022L73.515,69.72454887863333L73.73249999999999,69.95147264280776L74.3125,70.30931769167985L74.74749999999999,70.50622956677262L74.8925,70.86818004088661L75.11,71.10946516621814L75.18249999999999,71.10828925692778L75.4,71.33144972680917L75.545,71.64080045727323L75.9075,71.83288074192247L75.98,71.8607489241442L76.6325,72.05108646556441L76.77749999999999,72.32800249470314L77.0675,72.05913202581489L77.14,72.32952852087898L77.5025,72.4125217156464L77.79249999999999,72.54499898042084L77.86500000000001,72.70040271071679L78.22749999999999,72.89611737407752L78.3725,73.10123081517989L78.44500000000001,73.1623627389065L78.5175,73.30619287484747L78.59,73.56342520446391L78.735,73.78596304903054L78.8075,73.8506413445888L79.17,74.13169893418626L79.24249999999999,74.39381673106072L79.75,74.65381473263504L79.89500000000001,74.78886097701537L80.33000000000001,75.00856462593454L80.47500000000001,75.17330528546869L80.8375,75.39257772326263L81.2,75.65669879242918L81.34500000000001,75.92308395369682L82.21499999999999,76.23310511538966L82.7225,76.36409358883425L82.79499999999999,76.6494113012038L82.94,76.60014837716427L83.0125,76.80098679809915L83.085,76.97135058418769L83.1575,77.11390054976754L83.3025,77.3545485927235L83.52,77.47343888048988L83.80999999999999,77.66864340670573L84.1725,77.88048114659702L84.39,77.93747631121755L84.67999999999999,78.10156963738034L84.89750000000001,78.35764713805055L84.97,78.4828604734318L85.115,78.67529768447022L85.1875,78.79962935491073L85.405,78.8920482625799L85.4775,78.97793176776052L85.695,79.0356480808292L85.7675,79.30159319277826L86.13,79.45382061710919L86.2025,79.59308453003655L86.71,79.83281383934434L86.92750000000001,79.97625362042011L87.2175,80.15778189237535L87.435,80.34059481443792L87.58,80.51457004590502L87.725,80.73743307739133L88.015,80.86394722465621L88.30499999999999,80.95558478751425L88.52250000000001,81.13587794677586L88.595,81.30563347242332L88.6675,81.47734394340641L88.74,81.55594819492651L89.175,81.73609818550754L89.61,81.87239342667L89.755,82.03481805729541L89.8275,82.17853615079537L90.1175,82.28103662621011L90.335,82.39108465577823L90.40750000000001,82.44076127904367L90.625,82.55451298674222L90.69749999999999,82.66592412008947L90.77,82.76140608386034L90.915,82.88443271861986L91.06,82.99429845620293L91.495,83.16697167775857L91.71249999999999,83.36543779401005L91.785,83.44991279751439L92.0025,83.59982742287136L92.075,83.77573303950315L92.1475,83.919313563167L92.29249999999999,84.00341393691156L92.365,84.1281482266413L92.8,84.2122088243068L93.09,84.33532103062018L93.1625,84.42517256687879L93.30749999999999,84.54376728773353L93.4525,84.61337885070076L93.5975,84.82877591277033L93.67,84.8073116195755L93.74249999999999,84.96931187126842L93.815,85.16226434057607L93.88749999999999,85.21284615486684L94.105,85.30719417581237L94.39500000000001,85.44679914829435L94.6125,85.44794768596424L94.7575,85.63986554731709L94.83,85.79221645643285L94.90249999999999,85.89490296454491L95.33749999999999,86.00084655989615L95.41000000000001,86.03786222251858L95.555,86.08020154529756L95.7725,86.1957625590612L96.0625,86.27629174778123L96.28,86.41526295770423L96.4975,86.5002102599162L96.57000000000001,86.64766349884887L96.715,86.7662352621826L96.86,86.86747374297056L97.00500000000001,87.03369727602907L97.36749999999999,87.16470256586882L97.58500000000001,87.23601562103502L99.1075,87.34931530914643L99.2525,87.49184878633815L99.325,87.55844051460275L99.61500000000001,87.5851176881942L99.75999999999999,87.70147801462228L100.05,87.8413252982522L100.195,87.93172068532546L100.33999999999999,88.00566244259629L100.5575,88.1253383085273L100.7025,88.22387614733664L100.77499999999999,88.22916446606328L101.21,88.3556019450132L101.5,88.45226461460473L102.00750000000001,88.49511065675158L102.08,88.60640418373167L102.1525,88.78094447489762L102.225,88.79627969570603L102.5875,88.9173394332591L102.7325,89.03633687923804L102.94999999999999,89.17361432395084L103.02250000000001,89.22431060186742L103.095,89.41934919915523L103.1675,89.52250981877323L103.7475,89.58783978033838L103.82,89.57818097970683L104.03750000000001,89.66049521103415L104.545,89.80410562742318L104.7625,89.82684764780625L105.3425,89.82017045798301L105.41499999999999,89.92475713557985L105.56,89.90859670552612L105.63250000000001,90.00692089951056L105.705,90.08594077521842L105.9225,89.9220294574924L105.995,90.00715384660808L106.285,90.12606753334038L106.64750000000001,90.19429576287307L106.72,90.1803310547471L107.01,90.29992424575565L107.08250000000001,90.4162292910425L107.155,90.55450715633353L107.2275,90.55625278391372L107.445,90.68498480108998L107.51750000000001,90.7938235168136L107.59,90.88355335151091L107.8075,90.95356063016575L107.88,91.07037611121332L108.46,91.21410135078295L108.75,91.22886711003486L108.895,91.35101246502839L109.04,91.447933053494L109.1125,91.46317338086317L109.33,91.47584777880577L109.62,91.51102463874592L109.6925,91.65674738314951L109.765,91.70038672495473L109.98249999999999,91.72339115695182L110.5625,91.61569138336962L110.7075,91.54855754356952L110.99749999999999,91.55524207138033L111.07000000000001,91.59088252231274L111.2875,91.64650401926045L111.43249999999999,91.69365532828294L111.5775,91.78283596941516L111.94,91.918112645962L112.7375,91.98246983469701L112.8825,92.12339087349254L113.3175,92.2376988364643L113.39,92.32759253606547L113.53500000000001,92.4268595834294L113.68,92.51682645804057L113.97,92.57759541210507L114.26,92.60056804931867L114.405,92.63435430091481L114.7675,92.66653207886789L114.84,92.7489050910671L114.9125,92.82373228359145L115.42,92.88591177939212L115.49249999999999,92.92939369685314L115.9275,93.0313602921944L116.2175,93.05242779302094L116.29,93.12975692229807L116.3625,93.17123225933555L117.015,93.22848148480284L117.16000000000001,93.24314317390247L117.3775,93.29950616295194L117.8125,93.38292836935233L117.88499999999999,93.41033490853255L118.3925,93.34761416940437L118.5375,93.40503190931952L119.5525,93.44240959379006L119.77,93.49146133766274L119.9875,93.61847716886089L120.05999999999999,93.68681422642636L120.13250000000001,93.75515112504776L120.35,93.86181532516738L120.4225,93.94844390084802L120.49499999999999,94.0845870071877L121.8,94.19702624595104L122.0175,94.28529980128457L122.16250000000001,94.40555338612809L122.235,94.47118876258745L122.67,94.58884602059058L122.7425,94.68556581791172L122.8875,94.76944481764029L123.0325,94.82353888761203L123.17750000000001,94.85753837849657L123.3225,94.9565766459525L123.53999999999999,95.04842276976504L123.685,95.16465032929881L123.83,95.30056273927006L123.975,95.35782028299488L124.265,95.41061557978003L124.99,95.48083583775914L125.28,95.57349489240269L125.57,95.65554034713968L125.64250000000001,95.7475971220726L125.715,95.8546276585647L125.86,95.95443640407967L126.0775,96.00329164877773L126.295,96.06259260141479L126.44,96.0411387956567L126.65750000000001,96.12262287944996L127.09249999999999,96.1135158176488L127.2375,96.14498258747167L127.3825,96.22031505953187L127.455,96.26184101119001L127.6725,96.30515962328982L127.745,96.35023898719798L127.8175,96.42724855597255L128.035,96.47481703655117L128.615,96.57521058936757L128.9775,96.67406507517795L129.1225,96.74651253838336L129.5575,96.80795380292975L129.8475,96.89192950518434L129.92000000000002,96.94068672500921L129.9925,97.01172215164556L130.065,97.10928185484981L130.5,97.15995334772583L130.7175,97.23995290613496L131.225,97.31730816444762L131.37,97.40373705821808L131.5875,97.511543036749L131.66,97.52314802229354L131.8775,97.57213463268828L132.3125,97.65980035563122L132.4575,97.7559083213367L132.675,97.80399643073333L132.89249999999998,97.8247168919348L132.965,97.84165457704368L133.0375,97.91761575751407L133.11,97.98733124667412L133.1825,98.10716459601899L133.6175,98.19107490804682L134.4875,98.24588668806267L134.92249999999999,98.28860730696437L135.285,98.312442325321L135.57500000000002,98.39280613150167L136.0825,98.49216450163769L136.2275,98.57387735588244L136.59,98.61703828118084L136.6625,98.70520613394777L136.88,98.7822931450581L136.95250000000001,98.8563616768611L137.0975,98.9432362086695L137.17,99.02062824377063L137.3875,99.00755932383576L138.62,99.10473118123943L138.6925,99.2015968870677L138.765,99.24203668859869L139.1275,99.31681368837607L139.345,99.41976170460642L139.635,99.45511280744226L139.7075,99.55412376493246L139.78,99.61069105581296L140.07,99.71732574934339L140.1425,99.70469331951202L140.215,99.77505637835762L140.35999999999999,99.86539170218266L140.65,99.94782030665033L140.795,100.00288894347139L141.7375,100.00605790720334L141.81,100.10771048513547L142.4625,100.18897683894467L142.535,100.23666173527612L143.3325,100.34106516124865L143.9125,100.45196493462674L143.98499999999999,100.53814271024915L144.20250000000001,100.6502946619896L144.3475,100.69518735560708L144.42,100.69629359266945L145,100.7233301412617L145.0725,100.82464465526131L145.14499999999998,100.90893159024702L145.43499999999997,101.01244955722399L145.58,101.05840218306119L145.725,101.12675339285938L146.30499999999998,101.19309007834853L146.66750000000002,101.26212937722555L146.74,101.33310275502528L146.9575,101.41240880510644L147.46499999999997,101.49994651704789L147.61,101.567563941417L148.33499999999998,101.66087243074064L148.69750000000002,101.7596371994917L148.77,101.85029099389943L148.915,101.88950871918317L148.9875,101.87652986737866L149.42249999999999,101.93376721681594L149.93,101.93294632785509L150.0025,102.03768384232293L150.655,102.1259431401611L150.945,102.19681342374538L151.09,102.24855591649325L151.38,102.31972985483631L152.0325,102.3757365391266L152.1775,102.42792651524701L152.39499999999998,102.49785521340881L152.54000000000002,102.59478127456988L152.6125,102.6777070940304L152.975,102.75958946124581L153.55499999999998,102.83281048709235L153.70000000000002,102.91123878147246L154.20749999999998,103.00598092293242L154.28,103.10303285274698L154.57000000000002,103.18031612133117L154.9325,103.26663101858853L155.15,103.28816071349847L155.295,103.36408357838667L155.5125,103.44460253157777L155.73000000000002,103.52763221578915L156.02,103.63015180978454L156.52749999999997,103.68379137755218L156.60000000000002,103.75531296630248L157.18,103.7950337881011L157.325,103.86826890532613L157.47,103.9312391339461L157.6875,103.98267950866284L157.76000000000002,104.0657547191848L158.195,104.17572014778904L158.26749999999998,104.24685796926622L158.8475,104.33233726973113L159.065,104.38374194584495L159.1375,104.43556842704321L159.21,104.44649773895569L159.2825,104.51162679772919L159.42749999999998,104.5966802404026L159.645,104.64551972627392L160.1525,104.6465252295766L160.225,104.70744514431738L160.58749999999998,104.77010952932397L160.73250000000002,104.81829348666562L160.805,104.9115021186564L160.8775,104.95607312002703L161.53,105.02709397983521L161.82000000000002,105.10987694648078L161.965,105.2015006212693L162.0375,105.22070809435863L162.1825,105.26068255803516L162.545,105.33161279155095L162.61749999999998,105.41541027100408L162.76250000000002,105.47424775502364L162.835,105.52743924588879L162.9075,105.56029446100571L163.125,105.58538401169065L163.26999999999998,105.63393118340814L163.415,105.67837804221006L164.0675,105.76159060104597L164.285,105.82872558794844L164.9375,105.90046110703982L165.3725,105.95443326453844L165.445,106.0276596922714L165.88,106.11620375943036L165.95250000000001,106.16078628605344L166.025,106.26170339672598L166.605,106.34757237635401L167.04,106.41343464020281L167.1125,106.48887832987175L167.69250000000002,106.55278689015502L167.76500000000001,106.5792190698719L167.98250000000002,106.61911802095892L168.48999999999998,106.67720076375157L168.635,106.75776209732426L168.925,106.84096541356827L169.35999999999999,106.9188565427756L169.64999999999998,106.986067786945L169.72250000000003,107.05787328211383L169.94,107.09686811437926L170.3025,107.16742507599974L170.5925,107.24793081434015L170.88250000000002,107.32240116531135L171.535,107.37392470668685L171.67999999999998,107.46110934579897L171.75250000000003,107.460997737218L172.1875,107.54090385295136L172.26,107.62201377476931L172.33249999999998,107.69826977086105L172.4775,107.77242658359461L172.62249999999997,107.82209949614725L173.49249999999998,107.90455122322233L174.145,107.9732891150073L174.435,108.00513894395544L174.7975,108.0699969173918L174.87,108.11561376324084L175.2325,108.15299775796457L175.305,108.23167630026005L175.3775,108.30046938737185L175.6675,108.36236953560507L175.74,108.42909540636683L176.175,108.48991213335289L176.465,108.54829801004306L176.5375,108.62412040219719L176.60999999999999,108.68263516124813L176.75500000000002,108.74182587562247L177.19,108.81599824973483L177.4075,108.86533817391116L177.55249999999998,108.90122439014856L177.77,108.99969336438026L177.9875,109.06265030332253L178.205,109.02280195837824L178.35,109.07813439685243L178.85750000000002,109.16198460818988L179.0025,109.22557137952816L179.8725,109.26400915386851L179.94500000000002,109.34771099426254L180.0175,109.41186761293969L181.0325,109.46231687381018L181.3225,109.52471111036805L181.61249999999998,109.59211199779432L181.68499999999997,109.61991937812257L181.9025,109.67917012819767L181.975,109.7583311592021L182.1925,109.83892620313348L182.3375,109.90936383422063L182.4825,109.9910770664687L182.845,110.05524792977003L183.0625,110.12340199655634L183.2075,110.19930282199643L183.42499999999998,110.25374156854853L183.64249999999998,110.2794134273221L183.86,110.34350706843138L184.005,110.41250902359484L184.2225,110.4715418896589L184.44,110.54745954868211L184.5125,110.61108978580478L184.73,110.68654011572517L184.94750000000002,110.75201137287179L185.6,110.81662559204936L185.74499999999998,110.89962481698277L186.10750000000002,110.94819540627915L186.47,111.00562341925159L186.5425,111.08641466914285L186.61499999999998,111.12981020163802L186.76,111.19607859600873L186.8325,111.25880376091321L186.97750000000002,111.28482130035711L187.1225,111.35631084347206L187.34,111.38878161523876L187.4125,111.46840580935341L187.7025,111.55985377475878L188.065,111.6167778345418L188.21,111.63436131581773L188.7175,111.70821163843428L188.8625,111.7853971337082L188.935,111.84212232712241L189.1525,111.88204609243826L189.2975,111.95341789289202L189.5875,112.02348077161655L189.80499999999998,112.03794846007786L189.95000000000002,112.08224724945875L190.095,112.15947634246743L190.16750000000002,112.20084266647278L190.53,112.27436257997175L190.82000000000002,112.3705024485016L190.8925,112.42670565407104L190.965,112.49301894710506L191.255,112.5542664077007L191.3275,112.62091537976107L191.4725,112.6904620590661L191.545,112.76871029366383L191.69,112.84375218674371L191.7625,112.92734381541426L191.83499999999998,113.00177685095461L191.98000000000002,113.06181581715572L192.0525,113.08819739314656L192.1975,113.15208265482914L192.56,113.21669136742209L192.6325,113.27882516798921L193.0675,113.34717794877353L193.14000000000001,113.42072792674868L193.2125,113.50535580339367L193.5025,113.52552529064977L193.64749999999998,113.5614434911698L193.7925,113.61537115042351L194.0825,113.64081041761386L194.80749999999998,113.71157128803782L194.95250000000001,113.76621815153638L195.0975,113.84352421034191L195.17000000000002,113.90413625814006L195.46,113.96394188790406L195.605,114.03553662573302L195.67749999999998,114.06649980907781L195.75,114.10421430887446L195.9675,114.12527031129372L196.2575,114.18173706955015L196.54749999999999,114.26338728389341L196.765,114.32614213883208L197.49,114.39491855009331L197.5625,114.44865816454355L197.85250000000002,114.50008687323707L197.9975,114.56662721960785L198.215,114.63825598907441L198.36,114.69987561485074L198.4325,114.76479225630949L198.5775,114.82620018383358L198.65,114.90699807945087L198.7225,114.97635869597359L198.795,115.03421753879117L198.94000000000003,115.08671550209144L199.085,115.11144388289068L199.1575,115.17986431348488L199.4475,115.22971460295102L199.51999999999998,115.3112233748009L199.665,115.36308229664284L199.88250000000002,115.41648506149626L200.245,115.46947500266627L201.115,115.53777991886363L201.405,115.60871345864877L201.6225,115.59017988151975L201.985,115.6667257847922L202.13,115.72745495180223L202.3475,115.78684091143644L202.7825,115.8498338525527L202.855,115.87585338971981L203,115.9021015754748L203.2175,115.95283703016885L203.435,116.01477249417412L203.5075,116.04835575548663L203.57999999999998,116.11548864920404L204.23250000000002,116.19472797716783L204.305,116.25857036568291L204.3775,116.30857278350925L204.45,116.37032001237294L204.595,116.42264838901372L204.73999999999998,116.46412717580571L204.9575,116.54182484349334L205.32,116.59265866577086L205.465,116.65027736233327L205.5375,116.70619381525454L205.60999999999999,116.77932074861798L205.6825,116.8369554771758L206.26250000000002,116.85562400569924L206.91500000000002,116.92757671836058L207.2775,116.983489010168L207.8575,117.00856929323992L207.92999999999998,117.0719930059935L208.1475,117.12612668597423L208.4375,117.17186470481732L208.94500000000002,117.21179969231574L209.1625,117.27238042560809L209.38,117.29675218054481L209.4525,117.37636213937186L209.525,117.44529774045019L209.67,117.51951586790013L210.25,117.5445798237773L210.395,117.58431400097855L210.54,117.64771710961527L210.685,117.70579853350108L211.41,117.74685184143412L211.99,117.77611257568081L212.0625,117.83165404525062L212.13500000000002,117.87010033674635L212.425,117.93435600217914L212.85999999999999,117.99634736451233L213.44,118.06508543397511L213.875,118.1190413977854L213.9475,118.17328044970493L214.02,118.2324980479644L214.0925,118.2991102068715L214.2375,118.35740284824716L214.3825,118.40480123437251L214.6,118.46288119515177L215.18,118.52627050503222L215.6875,118.58540862457252L215.97750000000002,118.63807872014658L216.1225,118.71825374231123L216.4125,118.77046682172575L216.485,118.8312607728739L216.63,118.87255982060965L216.99249999999998,118.94546895294722L217.21,119.01388019227295L217.35500000000002,119.06801490638743L217.5725,119.11045821657292L217.64499999999998,119.15294171859233L217.7175,119.20422752248959L218.4425,119.26952534823378L218.515,119.32613808391069L218.66,119.38450543218754L218.7325,119.44868198099294L218.80499999999998,119.51117907412419L218.8775,119.56868690866098L219.16750000000002,119.63603567161425L219.3125,119.68774919123604L219.53,119.74779847343625L219.67499999999998,119.81071634457693L219.82,119.84775628845496L219.96499999999997,119.90029811240538L220.6175,119.96044989484118L220.9075,120.00099369645282L221.0525,120.07847219322827L221.19750000000002,120.14503603240645L221.3425,120.20995722472429L221.56,120.26748515231694L221.7775,120.33679554060204L222.2125,120.36870569197237L222.285,120.41473605347944L222.575,120.48536713732373L222.7925,120.53697250563893L223.01,120.58262700559094L223.155,120.6346963526141L223.5175,120.6843249386225L223.8075,120.73621728633047L224.02499999999998,120.77760738718429L224.09750000000003,120.83420304910766L224.17000000000002,120.89590318713395L224.2425,120.95121681759149L224.46,121.02243976661265L224.75,121.0965677112918L225.185,121.13360128823078L225.25750000000002,121.19489030718967L225.475,121.25154823853201L225.8375,121.31118849543648L226.05499999999998,121.3686392828166L226.12750000000003,121.42010355304421L226.2725,121.46646067923977L226.41750000000002,121.50011485150672L226.5625,121.55852333713061L226.635,121.61008218142972L226.8525,121.67293997012514L226.92499999999998,121.7390558117426L227.07000000000002,121.80001853255348L227.2875,121.86100037981366L227.36,121.90673807084882L227.505,121.9473105860058L227.94,122.00610247491073L228.1575,122.07309360834682L228.375,122.12915630467393L228.4475,122.18216692619393L228.73749999999998,122.23393988873721L229.1725,122.28770758357639L230.115,122.3514816365281L230.405,122.39828127703365L230.55,122.45636994057904L230.9125,122.51877901186043L231.13000000000002,122.57247144561885L231.275,122.63653716276642L231.565,122.69142594947832L231.92749999999998,122.74440095765921L232.2175,122.79332064851606L232.5075,122.8527554770359L232.725,122.91884720115443L233.8125,122.95762995241097L234.5375,123.01333122175447L234.61,123.06879041800914L234.6825,123.12057409540684L234.9,123.17166695251031L234.9725,123.20460708338317L235.335,123.24639593446238L235.76999999999998,123.30106699914946L235.8425,123.36778141831633L235.915,123.41300112412182L235.98749999999998,123.4612498990688L236.05999999999997,123.48660940801621L236.13250000000002,123.54285665179138L236.205,123.58769040351902L236.785,123.64203340550304L238.45250000000001,123.69630198023353L238.525,123.75524166878468L238.5975,123.79188409764406L239.105,123.84860970802838L239.9025,123.89901588637062L239.975,123.95811071398767L240.04749999999999,124.01955096612349L240.3375,124.0739748446563L240.9175,124.12657675450279L240.98999999999998,124.18191820046982L241.2075,124.24402476399685L241.35250000000002,124.29361466045205L241.425,124.35691675951716L241.57,124.418010828173L242.44,124.4780824832283L242.585,124.52686476055732L242.8025,124.58897534262668L242.9475,124.64476888934477L243.31,124.70071378537652L243.5275,124.7435435646613L243.745,124.80691422819592L244.3975,124.86625817004068L244.47,124.92539853357444L244.905,124.9739856667719L245.04999999999998,125.03011927755003L245.12249999999997,125.10225602273421L245.5575,125.14851062636278L245.775,125.20531854880784L245.8475,125.23630716885789L246.20999999999998,125.28018866346574L246.35500000000002,125.30504770179509L246.5,125.36935852690365L246.7175,125.4159408001972L246.79,125.45628283627698L247.37,125.4986161090084L247.7325,125.56105514119565L247.8775,125.62107225826746L247.95,125.67115314530425L248.02249999999998,125.7264928535698L248.3125,125.78089904679102L248.82,125.8195954851745L249.10999999999999,125.88611105137821L249.32750000000001,125.94757554791961L249.4,125.98842105632754L249.54500000000002,126.03854339934838L250.125,126.10457805197595L250.4875,126.14463818717755L251.35750000000002,126.19509694787092L251.72,126.2202882401661L251.865,126.28528941117672L251.9375,126.3209336202407L252.155,126.37798405004608L252.88,126.43134932967902L253.31500000000003,126.4970229143295L253.60500000000002,126.53697443360359L253.9675,126.59323045581809L254.11249999999998,126.65153330358012L254.25750000000002,126.71312381066288L254.4025,126.76141173769365L254.5475,126.82954276949953L254.765,126.84223742781408L254.8375,126.89828230451029L254.91,126.95645186065612L255.1275,126.99745776527864L255.2,127.04470050390941L255.27249999999998,127.10168296869699L255.5625,127.15446825139516L255.635,127.18982525432658L255.7075,127.2546928427602L255.92499999999998,127.31032289733645L255.9975,127.37470462313948L256.1425,127.42215596065508L256.215,127.46147008420492L256.505,127.50871059451659L256.65,127.55380875297568L256.72249999999997,127.59097318420935L256.79499999999996,127.64561530921573L257.085,127.69398886215075L257.23,127.73299755252314L257.375,127.78616580779939L257.5925,127.83400027211736L258.245,127.88951290784476L258.4625,127.93887482673718L258.6075,127.98202479524542L258.7525,128.01592728048473L258.89750000000004,128.0549972459403L259.0425,128.1049449928607L259.695,128.16230438971417L259.985,128.20552529258026L260.13,128.23171435422336L260.3475,128.26101923573438L260.9275,128.31555701116014L261.21750000000003,128.37301115618942L261.5075,128.42139927750804L261.9425,128.47149575387533L262.16,128.5226649401074L262.45,128.5674640265918L262.59499999999997,128.61847820514362L262.885,128.66359188072283L262.9575,128.71027407188012L263.465,128.7665112594686L263.6825,128.81232411230883L263.755,128.85515654124322L264.1175,128.90360381383124L264.19,128.94953461756955L264.2625,129.0020187522904L264.40749999999997,129.05176256043336L264.625,129.09403913090662L264.9875,129.14017337797029L265.205,129.1832408725526L265.2775,129.23587991664024L265.4225,129.28112496874266L265.85749999999996,129.3261080506706L266.5825,129.36045360644172L267.09000000000003,129.3912018593368L267.3075,129.43475184454462L267.38,129.485266572099L267.8875,129.53156686301065L267.96000000000004,129.5690072584662L268.0325,129.59877205146682L268.105,129.6352901065547L268.4675,129.6865737172787L268.685,129.73776241917432L269.4825,129.78824634062283L270.3525,129.8149299790608L270.425,129.86717011024706L270.4975,129.91017033776518L270.6425,129.95838882116374L270.78749999999997,130.0120304386296L271.15000000000003,130.03950470472236L271.3675,130.099057760465L271.44,130.13699004768344L271.585,130.1929880825159L271.65749999999997,130.2267477834012L272.165,130.26813159936896L272.31,130.319176737821L272.455,130.369286848398L273.035,130.4149484360774L273.1075,130.45342989696906L273.46999999999997,130.50525533677583L273.5425,130.55461889033222L273.9775,130.59036178711727L274.1225,130.64527640864836L274.2675,130.6814586207975L274.4125,130.71333434209504L274.7025,130.72420997506546L274.91999999999996,130.75711401761936L275.21,130.77303463239986L275.645,130.8022402820806L275.8625,130.8396028085675L275.935,130.88681919092176L276.0075,130.92887679312352L276.4425,130.98143366112203L276.95,131.028793727958L277.02250000000004,131.06092131021217L277.3125,131.11790442144164L277.4575,131.1537907443742L277.53,131.20093029703492L277.6025,131.2333581184067L277.89250000000004,131.2768586058188L278.255,131.31462883198205L278.7625,131.3641814727972L279.0525,131.40792720351962L279.34250000000003,131.447890327833L279.415,131.48727722842196L279.6325,131.53239591349413L279.9225,131.58626278537602L280.0675,131.646262979537L280.5025,131.69772114054152L280.71999999999997,131.71358616367286L280.865,131.7478717170596L281.01,131.7908452257669L281.15500000000003,131.83497455348146L281.3725,131.8820758661808L281.5175,131.9315216023619L281.735,131.97613656988443L281.8075,132.02215316287132L282.02500000000003,132.07406832981968L282.17,132.11972183388792L282.605,132.15736709442274L282.96750000000003,132.20691962032697L283.04,132.24853161445688" style="fill: none;" fill="none"></path></g><g><path stroke="rgb(255, 112, 67)" stroke-width="2px" d="M43.427499999999995,-0.19076775464663553L43.5,0.400454262308497L43.5725,1.1903063631859059L43.644999999999996,1.8764438404970534L43.7175,2.580591988861516L43.79,2.892258344661886L43.8625,3.491418017467164L43.935,3.988431550145152L44.0075,4.634542033752857L44.08,5.192493590419778L44.152499999999996,5.7101180027186125L44.225,5.999731485082503L44.2975,6.349186063147978L44.37,6.94684785973631L44.4425,7.460501833934216L44.515,7.912624677751366L44.5875,8.502980067303376L44.66,8.790009461870723L44.7325,9.261921047715312L44.805,9.808283504898315L44.8775,9.799188813300752L44.95,10.288264740031096L45.0225,10.531693101393449L45.095,10.574402341608586L45.1675,11.051841387514866L45.24,11.561279862301706L45.3125,12.080468643237685L45.385,12.640068683374182L45.4575,13.122208201062655L45.53,13.400099960817458L45.6025,13.831490509990669L45.675,14.257079774102444L45.7475,14.74678674717926L45.82,15.09991756258574L45.8925,15.214199867024826L45.965,15.368548081149672L46.0375,15.727056583226778L46.11,16.08477022712244L46.1825,16.528984749436773L46.255,17.13477609035248L46.3275,17.31712380261657L46.4,17.60850330919263L46.472500000000004,18.06810021525291L46.545,18.549745420300432L46.6175,18.987685813805147L46.69,19.357676992721462L46.7625,19.632803415523437L46.835,20.13574767477506L46.9075,20.517697000832765L46.980000000000004,20.66368210189087L47.0525,21.05178600741029L47.125,21.47173668241477L47.197500000000005,21.807748456073043L47.27,22.259139662491325L47.3425,22.522167982187042L47.415,22.922059899642733L47.487500000000004,23.042926502785562L47.56,23.492293340583995L47.6325,23.864774981004267L47.705000000000005,24.168577991985536L47.7775,24.419231811745227L47.85,24.729592342317012L47.9225,25.14337571033935L47.995000000000005,25.557659792675313L48.0675,25.886960310458427L48.14,26.130216198004202L48.212500000000006,26.447021317164115L48.285000000000004,26.777981366031597L48.3575,27.1235377487953L48.43,27.39371742144823L48.502500000000005,27.629170308419756L48.575,27.860074252351907L48.6475,28.05379986732051L48.720000000000006,28.392904004650646L48.792500000000004,28.612934061422205L48.865,28.934058715089424L48.9375,29.251804926228637L49.010000000000005,29.545465213265963L49.0825,29.77146609068246L49.155,30.0186989856659L49.227500000000006,30.287501806137524L49.300000000000004,30.603297539315" style="fill: none;" fill="none"></path></g></g></g></g><g opacity="0.2"><g><g><g><path stroke="rgb(0, 119, 187)" stroke-width="2px" d="M37.99,-50.26413026722996L38.86,1.0919196172193923L39.150000000000006,15.969906091690063L39.295,27.022377816113544L39.440000000000005,35.13717669790438L39.5125,44.730743408203104L39.657500000000006,40.880560788241276L40.0925,8.982760711149728L40.165000000000006,29.546134927056038L40.237500000000004,50.429625587029875L40.31,24.33283190293743L40.9625,21.374509789726936L41.397499999999994,27.451380079442774L41.47,48.3084573203867L41.5425,44.71132177656346L41.614999999999995,60.34839193387462L41.9775,60.89263880252836L42.5575,49.86023130200124L43.065,53.69134715470398L43.644999999999996,55.4424110542644L43.8625,55.49877694520081L43.935,50.821501363407464L44.4425,37.886138417504036L44.805,48.626108895648585L45.385,63.42297529090533L45.6025,62.24557363986967L45.675,74.47648283568294L46.3275,87.57427775859831L46.472500000000004,48.768658876419046L46.545,77.28426572409542L46.6175,73.5278440280394L47.125,69.91796213930303L47.487500000000004,67.46278017217462L47.6325,44.43345337564292L47.705000000000005,97.88314555991778L47.995000000000005,68.69511866569518L48.3575,81.20810668034986L48.43,63.923736886544646L48.6475,92.32011889327654L49.0825,93.31638625535095L49.155,81.90823492136867L49.300000000000004,52.4094715118408L49.517500000000005,78.4617441025647L49.6625,89.6864209608598L49.73500000000001,79.60465677218002L49.879999999999995,78.09185073592444L50.025,97.65392235192382L50.0975,91.83159532330252L50.605,89.91746644540265L51.184999999999995,53.98292099345812L51.2575,80.46855012937024L51.33,77.86233980005437L51.62,77.05265437472949L52.4175,103.58295805887741L52.5625,77.99506866931914L52.8525,67.28325715931976L53.07,53.345392747358815L53.214999999999996,71.78630392117933L53.4325,95.3368689472025L54.3025,94.07922958243975L54.7375,87.1769063797864L54.955,75.25197659839282L55.1,77.9533481272784L55.1725,87.91921552744778L55.3175,76.26975641467352L55.6075,65.40425026416777L55.8975,81.38681446422228L56.042500000000004,80.32392850789154L56.405,85.41659682447259L57.42,49.133795142173746L57.782500000000006,53.23937461592933L57.855000000000004,103.56401597369799L58.145,91.13122730905357L58.2175,76.80697313222015L58.5075,84.69066898389295L58.580000000000005,62.86758376251565L58.725,83.03505401177839L58.942499999999995,93.70195120031183L59.305,99.70496174422176L59.3775,95.87028765678406L59.8125,94.58379877697335L59.885,63.74855856461956L59.957499999999996,105.39396526596762L60.175,89.20185844464734L60.8275,103.0455782955343L61.4075,87.29281275922601L62.35,91.80418444763528L62.5675,87.1346679275686L62.8575,49.355115424502955L63.2925,87.91615602103145L63.5825,77.28504258936101L63.655,109.96392794088882L63.7275,73.71507814797485L64.235,74.22101884538476L64.5975,95.72386294061486L64.67,95.66188635609366L65.83,91.33420973474327L66.3375,77.08140798048538L66.77250000000001,105.24684041196649L66.845,113.2549497972835L66.99000000000001,96.45065396482293L67.425,62.65286203947933L68.0775,95.1075306480581L68.2225,93.48369042439893L68.295,73.3965058435093L68.5125,106.89934792301871L68.94749999999999,104.68771801211615L69.6,70.77408684383737L69.8175,83.50973787090993L69.89,90.52376662601122L70.5425,111.39723476496609L70.615,96.48867240819061L71.4125,99.33484778620978L71.63,104.17795053395355L71.7025,91.49175033786078L71.8475,92.75685144554483L71.99249999999999,89.11703626676038L73.0075,90.63087812337005L73.37,97.84046592495658L73.515,89.09490040215576L73.73249999999999,96.40131822499359L74.3125,112.33490154959937L74.74749999999999,93.8052934624932L74.8925,114.01375054771249L75.11,100.08364999294281L75.18249999999999,70.96604929187079L75.4,98.52125885269858L75.545,109.60335695743561L75.9075,95.57269071448931L75.98,75.32946171543813L76.6325,95.9085842370987L76.77749999999999,107.27944603833282L77.0675,37.8885073770176L77.14,106.92985666881906L77.5025,83.10474170338021L77.79249999999999,89.72765236551109L77.86500000000001,92.99177166548641L78.22749999999999,98.6209277889945L78.3725,100.23936831951141L78.44500000000001,81.30358438058332L78.5175,92.58525054021314L78.59,108.26546069708736L78.735,103.99981820583344L78.8075,82.68781441991979L79.17,112.77574381503189L79.24249999999999,110.6595484451814L79.75,110.85002429918808L79.89500000000001,93.70573961734772L80.33000000000001,105.97271070697089L80.47500000000001,98.53254737637259L80.8375,106.67206208272412L81.2,113.56007561900397L81.34500000000001,114.37926565517077L82.21499999999999,121.25366966290906L82.7225,95.49777596647088L82.79499999999999,118.56955221566284L82.94,69.3202458403327L83.0125,106.65114426612854L83.085,102.4370050647042L83.1575,98.54309739849784L83.3025,113.73482714457944L83.52,95.54762961647727L83.80999999999999,107.50977220318534L84.1725,110.44358949227765L84.39,86.7467915686694L84.67999999999999,103.60281128233129L84.89750000000001,118.3698930469426L84.97,98.15303430773993L85.115,109.06790497086264L85.1875,98.54054621132934L85.405,93.64362875981763L85.4775,92.75844353979284L85.695,88.34496646577661L85.7675,122.41983554038134L86.13,104.26216848330063L86.2025,102.40521113439038L86.71,119.30189638788049L86.92750000000001,103.71188892017709L87.2175,110.34740206328304L87.435,110.89608953215857L87.58,109.73764914816076L87.725,118.35753033919767L88.015,102.32503096623853L88.30499999999999,96.57641981948504L88.52250000000001,112.01861188628455L88.595,110.52386556972155L88.6675,111.17404425144196L88.74,95.21519841931082L89.175,113.18986095623535L89.61,105.78158266977829L89.755,110.66144744916394L89.8275,107.62646503881973L90.1175,100.51487735184753L90.335,102.05792358788574L90.40750000000001,91.35929001461373L90.625,103.06976661898871L90.69749999999999,102.8502590222792L90.77,100.13794424317099L90.915,105.37427508831024L91.06,103.16793937032872L91.495,115.01417078213257L91.71249999999999,120.13144462758844L91.785,99.1677162538875L92.0025,111.61549554087897L92.075,116.7913891456344L92.1475,110.98437403548846L92.29249999999999,99.92457484115252L92.365,107.84276926517487L92.8,100.2618974122134L93.09,107.94061592492187L93.1625,101.725665027445L93.30749999999999,107.47426658326928L93.4525,98.12898025729437L93.5975,126.82307429747146L93.67,80.60532637075943L93.74249999999999,116.81362571499564L93.815,123.24567209048703L93.88749999999999,95.23682596466757L94.105,104.08003673770209L94.39500000000001,113.33630485426293L94.6125,85.67831410061227L94.7575,124.28676745566455L94.83,116.59295761585236L94.90249999999999,106.73682962764391L95.33749999999999,107.58818764036351L95.41000000000001,93.60970564322037L95.555,94.77467745000665L95.7725,110.0181934183294L96.0625,102.94090289419347L96.28,115.28386771137063L96.4975,104.21360001780768L96.57000000000001,117.51148090579294L96.715,111.67843121832067L96.86,108.21777459708126L97.00500000000001,122.21977355263449L97.36749999999999,114.99894997748459L97.58500000000001,102.44374748793514L99.1075,111.599852735346L99.2525,118.11143668673255L99.325,101.91615047238089L99.61500000000001,93.35782866044477L99.75999999999999,112.97191668098623L100.05,118.32185687802054L100.195,107.70452561161734L100.33999999999999,104.23714574900539L100.5575,114.48952777277337L100.7025,110.00816130638123L100.77499999999999,89.40239518338981L101.21,116.50442854382776L101.5,110.0473594340411L102.00750000000001,98.10043765198098L102.08,113.64268229224463L102.1525,128.18013802983543L102.225,92.26977610588074L102.5875,116.43143198165023L102.7325,116.17355107719247L102.94999999999999,120.58539289777929L103.02250000000001,100.8636610833081L103.095,134.34829478372225L103.1675,113.36580655249679L103.7475,104.73758125305176L103.82,87.33093670281497L104.03750000000001,108.87504097548397L104.545,123.43691521883011L104.7625,95.1703032797033L105.3425,88.24619907682592L105.41499999999999,114.6581363081932L105.56,86.07454415884884L105.63250000000001,113.40917673436077L105.705,108.95368659496307L105.9225,50.65996134281156L105.995,110.46185062148352L106.285,118.79027786038138L106.64750000000001,106.69246198914267L106.72,86.79297189279035L107.01,119.39959438822486L107.08250000000001,118.80370995673263L107.155,124.40945462205194L107.2275,90.98495604775168L107.445,122.39687006040052L107.51750000000001,117.68710520592602L107.59,113.12263333797455L107.8075,108.35709243470971L107.88,120.19790017604828L108.46,127.15922197970477L108.75,94.93278391794723L108.895,122.08194710449737L109.04,115.90492833202535L109.1125,95.32030541246587L109.33,94.69302986968646L109.62,100.4662897044962L109.6925,128.8630745302547L109.765,102.87495566498147L109.98249999999999,97.63114389506252L110.5625,63.87745106220243L110.7075,74.20835881883447L110.99749999999999,93.28675987503745L111.07000000000001,100.8493322350762L111.2875,106.13661968708038L111.43249999999999,104.01199868592346L111.5775,115.1471921747381L111.94,127.45882822166787L112.7375,108.93816847150975L112.8825,129.35443701527336L113.3175,122.52161927656692L113.39,116.20936360684307L113.53500000000001,118.87161373550241L113.68,116.54992311651056L113.97,108.85544670711862L114.26,98.77092033082788L114.405,101.73387486284429L114.7675,101.35632793469861L114.84,115.0542608662085L114.9125,113.1402854431759L115.42,109.81368603489615L115.49249999999999,104.79853160814804L115.9275,120.9389289346608L116.2175,98.8337409171191L116.29,114.40633605285123L116.3625,104.61290876431897L117.015,109.06305196068503L117.16000000000001,97.30901335586199L117.3775,108.97034603899175L117.8125,116.63730127703057L117.88499999999999,101.06978933377698L118.3925,75.7735792831941L118.5375,109.53446531295776L119.5525,103.96915600516577L119.77,107.34118284962393L119.9875,129.57232374494725L120.05999999999999,113.07962761142035L120.13250000000001,113.19679519805038L120.35,124.283674380996L120.4225,118.71774645827033L120.49499999999999,133.10842741077596L121.8,126.50652567906812L122.0175,119.71359181945974L122.16250000000001,129.13158218427137L122.235,113.47155134244397L122.67,128.73216793753883L122.7425,122.82153722372921L122.8875,119.22939855402166L123.0325,110.63617535070938L123.17750000000001,104.82020710815081L123.3225,124.0470901348374L123.53999999999999,122.09116398746316L123.685,129.46803677623922L123.83,135.50939665057442L123.975,112.337366418405L124.265,111.10398251360112L124.99,116.40303803573953L125.28,123.24631947820836L125.57,120.21605100956829L125.64250000000001,123.36942864548074L125.715,128.04417701742867L125.86,126.04171568155289L126.0775,110.76475134762848L126.295,114.02151440490374L126.44,89.52905299446799L126.65750000000001,120.91296149383889L127.09249999999999,93.33649843389337L127.2375,105.76198840141296L127.3825,119.29597398909652L127.455,109.01073344187301L127.6725,109.63439320434222L127.745,110.25242309136823L127.8175,120.22968451543287L128.035,111.21029796383597L128.615,127.7437219782309L128.9775,127.43281762166455L129.1225,119.33850496465509L129.5575,116.00999696146356L129.8475,123.19423593716186L129.92000000000002,112.24553327126935L129.9925,119.35834380171515L130.065,127.86679278178647L130.5,113.16972959583455L130.7175,122.5706433111971L131.225,121.86350410092959L131.37,124.88807555762203L131.5875,131.86719812588257L131.66,101.22932485016906L131.8775,113.24982824108817L132.3125,125.77589348771356L132.4575,128.64478018608958L132.675,113.29198517040771L132.89249999999998,104.51229032603176L132.965,103.31978296149859L133.0375,122.53693599050695L133.11,120.62944883108139L133.1825,137.1072982061993L133.6175,125.55646261843768L134.4875,116.15834945440292L134.92249999999999,112.27840138565408L135.285,106.13374240831894L135.57500000000002,124.81755825064398L136.0825,131.22918553785843L136.2275,125.55168633569369L136.59,112.89564961194992L136.6625,127.9320398731665L136.88,124.38738589395174L136.95250000000001,123.50823336839676L137.0975,127.9151406559077L137.17,124.88170718063006L137.3875,94.63180137764321L138.62,131.7045167847113L138.6925,131.76294472542673L138.765,112.86265681548551L139.1275,124.55213887583123L139.345,134.23018728603014L139.635,111.43195392868735L139.7075,133.16408836841583L139.78,118.85016362233594L140.07,136.05581106922844L140.1425,95.39155642552808L140.215,123.84564225782046L140.35999999999999,130.82765649123624L140.65,128.2541656169024L140.795,118.94980378584427L141.7375,101.09844703024083L141.81,135.21538192033768L142.4625,128.30899216370148L142.535,116.7678625962951L143.3325,136.60331405834717L143.9125,139.04284842447802L143.98499999999999,130.58237327228892L144.20250000000001,139.82286431030795L144.3475,116.40452942523086L144.42,101.08411818200891L145,110.21933438561179L145.0725,136.4748099933971L145.14499999999998,130.62204135547984L145.43499999999997,137.57186843048441L145.58,117.3171590891751L145.725,125.35457835414194L146.30499999999998,124.74960172176361L146.66750000000002,125.82280751791866L146.74,126.62748168273404L146.9575,129.72745222936976L147.46499999999997,132.8101782852953L147.61,125.7961303483356L148.33499999999998,135.15480081601575L148.69750000000002,137.27536005865443L148.77,134.5072788216851L148.915,116.0422944155606L148.9875,97.18447514013809L149.42249999999999,122.66243809461594L149.93,101.63513624668121L150.0025,140.1020131002773L150.655,134.25775641202927L150.945,128.04295417395502L151.09,121.15167972174557L151.38,128.36685903505844L152.0325,122.9076445861296L152.1775,121.59364412589505L152.39499999999998,128.22194009477442L152.54000000000002,138.3113338676366L152.6125,133.2875571955334L152.975,133.0358528494835L153.55499999999998,129.95258970152247L153.70000000000002,132.00900001417506L154.20749999999998,138.21585616740313L154.28,139.2322021397677L154.57000000000002,131.99871374260294L154.9325,135.50690300898117L155.15,111.34338169748132L155.295,131.81766097653994L155.5125,133.67091622677714L155.73000000000002,134.74823653156108L156.02,142.2431688633832L156.52749999999997,123.92000073194504L156.60000000000002,130.78220987319946L157.18,118.82958628372711L157.325,131.63361104510048L157.47,127.84392800656231L157.6875,123.54880779439752L157.76000000000002,135.71606678854334L158.195,146.1387309648774L158.26749999999998,131.437102496624L158.8475,137.05689307776362L159.065,124.0949776443568L159.1375,124.34044788642362L159.21,108.6508146416057L159.2825,129.60565701939842L159.42749999999998,137.4197131341154L159.645,123.52314246784555L160.1525,105.03579201481558L160.225,128.32902761481026L160.58749999999998,129.10641079057345L160.73250000000002,123.56040802327068L160.805,141.22372502088547L160.8775,122.34720822897823L161.53,132.78192340785807L161.82000000000002,137.5116661678661L161.965,141.11927021091634L162.0375,112.76196644522925L162.1825,120.9797383384271L162.545,133.26629410548642L162.61749999999998,138.46835176511243L162.76250000000002,128.7175801342184L162.835,126.57248729467392L162.9075,118.57918150858444L163.125,115.54224734414706L163.26999999999998,124.92925421216272L163.415,123.3707473982464L164.0675,138.93491210720757L164.285,132.632904345339L164.9375,134.58446182446045L165.3725,127.56795381415972L165.445,135.395513957197L165.88,141.68022447824478L165.95250000000001,124.09413843805139L166.025,146.9159031401981L166.605,140.9908620552583L167.04,133.0243677117608L167.1125,137.0159685828469L167.69250000000002,132.45035539432004L167.76500000000001,117.30598565665157L167.98250000000002,122.83466720581055L168.48999999999998,130.31734233010897L168.635,139.59456183151767L168.925,140.80384373122996L169.35999999999999,138.7593645345081L169.64999999999998,134.50049803473732L169.72250000000003,136.49540171839973L169.94,123.10623916170813L170.3025,136.17618202621287L170.5925,140.39434941790321L170.88250000000002,138.02761979536578L171.535,128.64806507934222L171.67999999999998,143.51086431741714L171.75250000000003,107.41478364034131L172.1875,140.67460596019572L172.26,141.30227952653712L172.33249999999998,139.40749555284327L172.4775,138.6520036729899L172.62249999999997,128.53529493375257L173.49249999999998,142.33422994071788L174.145,136.716395909136L174.435,121.34181030230087L174.7975,135.26600284468043L174.87,127.2699444619092L175.2325,123.872036494992L175.305,141.35956135121256L175.3775,137.30580646341497L175.6675,134.49716518683866L175.74,136.63984111222354L176.175,134.23739966479212L176.465,133.3002651767297L176.5375,140.81168431585485L176.60999999999999,133.5565060322935L176.75500000000002,133.93700696663421L177.19,140.43081413073972L177.4075,129.92397036877543L177.55249999999998,124.23825174028222L177.77,151.13958531618118L177.9875,136.0410841974345L178.205,91.92417656291613L178.35,132.8524023511193L178.85750000000002,145.23700618743896L179.0025,136.61878422715446L179.8725,125.84486185962503L179.94500000000002,145.50157676501706L180.0175,137.15982292998922L181.0325,131.3103727535768L181.3225,136.5810870799151L181.61249999999998,138.85765717246315L181.68499999999997,121.70962243730371L181.9025,135.47281205112284L181.975,144.26414069262415L182.1925,145.01519676772028L182.3375,140.69198472391474L182.4825,145.74727718938482L182.845,138.17125834660098L183.0625,140.02284957062113L183.2075,143.53980974175713L183.42499999999998,134.19719928503036L183.64249999999998,121.58486363020809L183.86,138.6050608699972L184.005,140.87684988433665L184.2225,136.56744398312134L184.44,144.1496873389591L184.5125,138.81013411825353L184.73,144.1658384637399L184.94750000000002,139.8396868001331L185.6,139.55937750772998L185.74499999999998,147.8666903159835L186.10750000000002,132.60796313394198L186.47,136.64706787737933L186.5425,147.20411535826594L186.61499999999998,130.55372037128967L186.76,140.8944588303566L186.8325,139.40382702242243L186.97750000000002,122.97330888293006L187.1225,143.5125858892094L187.34,126.01209409670395L187.4125,147.37109343572095L187.7025,152.8440229134126L188.065,137.3463041619821L188.21,119.59166713194412L188.7175,145.16911679506302L188.8625,146.79957475987345L188.935,137.60569084232503L189.1525,130.03645758195356L189.2975,144.44694380326703L189.5875,143.9591875076294L189.80499999999998,118.64039561423385L189.95000000000002,132.32239801233465L190.095,147.48737386139956L190.16750000000002,131.14597463607788L190.53,145.9851130518046L190.82000000000002,156.5050388412042L190.8925,138.2580274831165L190.965,143.00676507841456L191.255,140.76999734206632L191.3275,143.36091493476522L191.4725,144.8043497800827L191.545,148.94266789067876L191.69,147.57570152391088L191.7625,151.66122156923467L191.83499999999998,147.531703136184L191.98000000000002,140.946374530142L192.0525,125.35498596863312L192.1975,142.89128549532458L192.56,143.32713568210602L192.6325,142.26896846294403L193.0675,145.2753411314704L193.14000000000001,147.81566657261416L193.2125,153.12573487921193L193.5025,122.97901548580688L193.64749999999998,130.41544314947993L193.7925,138.94856959039515L194.0825,125.60469060594384L194.80749999999998,147.02724423733622L194.95250000000001,139.52394861524755L195.0975,150.3224285570058L195.17000000000002,142.5374809124253L195.46,142.24782525951213L195.605,147.93250806765124L195.67749999999998,128.74248298189858L195.75,131.9999989271164L195.9675,124.12752925807779L196.2575,141.03479810194537L196.54749999999999,153.1353114220229L196.765,144.23520485921338L197.49,147.20979318835518L197.5625,140.1171619729562L197.85250000000002,139.09160870855504L197.9975,146.41869498382914L198.215,148.96336032043803L198.36,144.2605440941724L198.4325,145.94084132259542L198.5775,144.34905398433858L198.65,153.7937646779147L198.7225,148.39445037733424L198.795,142.94065480340612L198.94000000000003,140.43462172963402L199.085,127.06396007537842L199.1575,148.28630785508588L199.4475,139.37634421478617L199.51999999999998,154.83462746305898L199.665,140.5360074422576L199.88250000000002,141.3662366379391L200.245,141.24581293084404L201.115,148.7989190437577L201.405,150.18618461218745L201.6225,106.5462674552744L201.985,153.05828906731173L202.13,145.423775147308L202.3475,144.8566251397133L202.7825,146.71735172380102L202.855,128.63907358321276L203,128.7908260605552L203.2175,140.89138973301107L203.435,146.4900179288604L203.5075,132.58997055075386L203.57999999999998,149.2161532369527L204.23250000000002,155.30470288070765L204.305,147.80138088356364L204.3775,141.03867283734408L204.45,146.94029287316582L204.595,142.35588146339762L204.73999999999998,137.04133179512888L204.9575,155.12592316486618L205.32,141.8619054501707L205.465,145.3211713866754L205.5375,144.55809308182108L205.60999999999999,153.24036326733503L205.6825,145.6024349765344L206.26250000000002,126.18241461298682L206.91500000000002,152.91106111082163L207.2775,144.97306861118838L207.8575,129.57620807127518L207.92999999999998,148.88496406511828L208.1475,144.3061969171871L208.4375,140.15927094762975L208.94500000000002,137.30249279737473L209.1625,147.77968140623787L209.38,129.58197701519185L209.4525,157.54525903409177L209.525,152.26230428435585L209.67,155.04120408946818L210.25,130.2282713705843L210.395,137.71150276877663L210.54,149.7955316792835L210.685,147.1838880885731L211.41,138.6028309789571L211.99,132.65557250651446L212.0625,146.10244847969577L212.13500000000002,137.45823030580175L212.425,150.70364401557228L212.85999999999999,149.64119444652036L213.44,153.18751724741676L213.875,145.71473516659304L213.9475,145.9402035258033L214.02,148.57696096463636L214.0925,152.46512845971367L214.2375,148.28459587422282L214.3825,142.76194701953366L214.6,148.3372644619508L215.18,151.16232540932566L215.6875,149.06136523051694L215.97750000000002,145.80630935864016L216.1225,160.11278435046023L216.4125,145.75339140675285L216.485,150.2779650092125L216.63,140.25508912585L216.99249999999998,156.72916686805812L217.21,154.49952519210902L217.35500000000002,147.17427318204534L217.5725,141.16700906103307L217.64499999999998,141.2507426684553L217.7175,145.90510552037847L218.4425,153.29670518094844L218.515,148.8545080694285L218.66,149.8559209650213L218.7325,152.98347262631762L218.80499999999998,152.19816494529897L218.8775,149.67358301444486L219.16750000000002,154.92460476539352L219.3125,146.80852309682152L219.53,151.26869840513575L219.67499999999998,152.86721617796204L219.82,139.32576165416023L219.96499999999997,147.5550570487976L220.6175,151.6490506800738L220.9075,141.3790453238921L221.0525,160.96810341694137L221.19750000000002,155.30577466704628L221.3425,154.53357059305364L221.56,150.7093602093783L221.7775,157.04612310095266L222.2125,137.28447144139898L222.285,144.83729462190107L222.575,157.9935390651226L222.7925,147.96581256931478L223.01,144.86985582655126L223.155,148.35880568894473L223.5175,147.13201554796913L223.8075,148.41448103297841L224.02499999999998,142.8734703443267L224.09750000000003,151.07379154183647L224.17000000000002,153.8915322124958L224.2425,150.5571857311509L224.46,159.17671445553952L224.75,160.8413976512172L225.185,141.00685972517186L225.25750000000002,154.1126390966502L225.475,151.7081547812982L225.8375,153.3984721330079L226.05499999999998,152.304442031817L226.12750000000003,149.1560181108388L226.2725,146.47128204865888L226.41750000000002,139.668488713828L226.5625,153.11745550957593L226.635,149.49170542847025L226.8525,155.69352874159813L226.92499999999998,157.55326985771006L227.07000000000002,154.8507234399969L227.2875,154.94993440942332L227.36,146.74502155455676L227.505,143.99909536405042L227.94,153.98717535625804L228.1575,158.54479930075732L228.375,152.67662283507258L228.4475,151.09069075909525L228.73749999999998,150.4910131151026L229.1725,151.6578503576192L230.115,157.2163860716603L230.405,148.00454074144363L230.55,154.26562640612775L230.9125,156.72205519405279L231.13000000000002,152.0228091911836L231.275,157.80548971620473L231.565,152.8473941250281L231.92749999999998,151.87275430831042L232.2175,149.7138265533881L232.5075,155.58641005104238L232.725,159.34840407696637L233.8125,144.35193126310003L234.5375,153.7655625505881L234.61,153.71216025677595L234.6825,151.7561957456849L234.9,151.44806316765872L234.9725,141.44938999414444L235.335,146.41088317199186L235.76999999999998,153.63076204061508L235.8425,160.40836719762194L235.915,148.53955154527318L235.98749999999998,150.29230824383822L236.05999999999997,137.6002192172137L236.13250000000002,154.8716484497894L236.205,148.57917167381808L236.785,153.95821075005964L238.45250000000001,153.99489845200017L238.525,156.68773405389354L238.5975,144.28193666176364L239.105,155.5939101576805L239.9025,152.12992548400706L239.975,157.08119712905452L240.04749999999999,158.4842062077739L240.3375,154.6266649473797L240.9175,153.67946238138458L240.98999999999998,155.2981282987378L241.2075,159.19110564481127L241.35250000000002,152.21926019408485L241.425,160.03193041953173L241.57,158.87525236877528L242.44,158.3848106129603L242.585,152.08263740756294L242.8025,159.7005062699318L242.9475,156.20943441445178L243.31,156.3752423985438L243.5275,149.01117589798838L243.745,160.74054663289678L244.3975,158.54221694306895L244.47,158.511353332888L244.905,152.5876813530922L245.04999999999998,156.9569058797576L245.12249999999997,166.16208791190928L245.5575,151.4962527914481L245.775,157.58887858011505L245.8475,142.91477368094704L246.20999999999998,150.33261891928584L246.35500000000002,139.50798930905083L246.5,162.14015332948077L246.7175,152.07003972205248L246.79,148.55697346817362L247.37,149.75758037242022L247.7325,161.36816505139524L247.8775,160.0648177157749L247.95,154.43379855426875L248.02249999999998,157.53290591727603L248.3125,157.07385767048055L248.82,148.09313215450808L249.10999999999999,164.2004048092799L249.32750000000001,161.3783506182107L249.4,149.55078555237162L249.54500000000002,154.97355207259005L250.125,164.25341387499464L250.4875,149.30462955886668L251.35750000000002,155.3880888169462L251.72,140.8053399161859L251.865,163.94644659486684L251.9375,146.98785908655688L252.155,159.480399240147L252.88,157.41787471012637L253.31500000000003,164.65783458677205L253.60500000000002,149.7682167129083L253.9675,159.32879781993952L254.11249999999998,160.60247321833265L254.25750000000002,162.60419845039195L254.4025,154.92067967761648L254.5475,166.58871642026034L254.765,134.25572313503784L254.8375,159.65088999542323L254.91,160.97483864697543L255.1275,150.99528019536626L255.2,154.71204339916056L255.27249999999998,160.4965749735182L255.5625,158.1113756190647L255.635,147.94018081101504L255.7075,165.3509854267944L255.92499999999998,160.00437807765874L255.9975,165.23863967982206L256.1425,155.34855260903186L256.215,150.61503342064944L256.505,155.34979223663157L256.65,154.15077502890065L256.72249999999997,149.524175519293L256.79499999999996,159.91590655120936L257.085,156.28197300975972L257.23,150.8024161999876L257.375,159.2511064979163L257.5925,156.16188498518684L258.245,160.78704345768148L258.4625,157.21146832271054L258.6075,153.58832697434858L258.7525,148.14828479290009L258.89750000000004,151.2717962752689L259.0425,157.80593569441274L259.695,162.29376165162432L259.985,153.94139305569908L260.13,143.836548295888L260.3475,145.73423832113093L260.9275,160.85601182959297L261.21750000000003,162.67666031826627L261.5075,157.33152517676353L261.9425,158.4224166463722L262.16,159.13544708490372L262.45,155.38718487186864L262.59499999999997,159.17939032478765L262.885,155.7077496918765L262.9575,156.71335622126406L263.465,162.52376172488385L263.6825,156.33047194101593L263.755,154.60013164173472L264.1175,158.04273094101384L264.19,156.59336410598323L264.2625,160.6108676791191L264.40749999999997,159.0299708409743L264.625,154.58885750445452L264.9875,156.9796243933114L265.205,155.1891130019318L265.2775,161.04223650422963L265.4225,156.63763343746012L265.85749999999996,156.54196152091026L266.5825,150.1538775671612L267.09000000000003,148.01885520328176L267.3075,155.83496857231313L267.38,160.12738654017448L267.8875,157.63538739356127L267.96000000000004,152.30963551998138L268.0325,147.689032738859L268.105,151.84429322589529L268.4675,160.8955144692551L268.685,160.90893217921257L269.4825,160.54993410814893L270.3525,146.0846381241625L270.425,161.7396720918742L270.4975,156.16198808767578L270.6425,159.41470617055893L270.78749999999997,162.80211926319382L271.15000000000003,146.84464733167127L271.3675,166.54885172302073L271.44,153.36834462664345L271.585,164.51022539084607L271.65749999999997,150.92871914668515L272.165,155.6612936285409L272.31,161.6602112434127L272.455,161.15551976453173L273.035,158.48569759726524L273.1075,154.12493706562302L273.46999999999997,162.40507877143946L273.5425,160.95802095261487L273.9775,152.61838671294123L274.1225,164.50967870788142L274.2675,153.00791031393138L274.4125,150.3946146856655L274.7025,137.44338834285736L274.91999999999996,151.0984162525697L275.21,140.6212324391712L275.645,148.87942530350253L275.8625,153.97978314757347L275.935,160.14783200350675L276.0075,157.00883356820452L276.4425,163.5919083058834L276.95,160.43268499862063L277.02250000000004,151.01974665576762L277.3125,166.53941664641553L277.4575,153.47478236122564L277.53,160.53910834680903L277.6025,151.42762969298795L277.89250000000004,158.38294757496226L278.255,154.86426583203402L278.7625,162.27873026782817L279.0525,158.71611247821286L279.34250000000003,156.40976734594867L279.415,156.10397735238075L279.6325,159.74831944974986L279.9225,165.29317610101268L280.0675,169.21346601572904L280.5025,163.93579107252035L280.71999999999997,141.65878875147212L280.865,153.2529897256331L281.01,158.76133370941335L281.15500000000003,159.5472528121688L281.3725,161.47817300937393L281.5175,163.01906368407336L281.735,160.04299595410174L281.8075,160.98778400366956L282.02500000000003,164.7718035985123L282.17,160.89052718606862L282.605,155.8952667442235L282.96750000000003,163.4714174622839L283.04,158.5183738930659" style="fill: none;" fill="none"></path></g><g><path stroke="rgb(255, 112, 67)" stroke-width="2px" d="M38.28,-22.888050491159625L38.3525,1.1036780964244515L38.425000000000004,-5.332928765903841L38.57,-18.477795969356208L38.642500000000005,18.464756142009367L38.715,31.25000186399979L38.7875,7.202127976851022L38.86,8.860246181488037L38.932500000000005,10.032660549337203L39.005,-15.936353184960108L39.0775,4.171068256551559L39.150000000000006,18.317612106149816L39.222500000000004,28.714083454825637L39.295,7.306036103855481L39.3675,7.636501160534931L39.440000000000005,20.857098340988138L39.5125,23.76631489667023L39.585,11.915187315507357L39.657500000000006,21.357226935299945L39.730000000000004,5.633454777977668L39.8025,0.8188083171844482L39.875,39.69402857260269L39.947500000000005,46.452113790945546L40.02,42.776438127864466L40.0925,44.67050278186796L40.165000000000006,-7.813641786575317L40.237500000000004,49.51250257275319L40.31,20.145873394879413L40.3825,47.082698204300605L40.455000000000005,16.507017309015417L40.5275,31.113887396725726L40.6,53.10538933493873L40.67250000000001,27.763545643199553L40.745000000000005,39.0028198957443L40.817499999999995,48.47528194297442L40.88999999999999,27.160525560379007L40.9625,50.03844035755502L41.035,52.15797816623339L41.107499999999995,21.33092860742046L41.18,20.969043666666174L41.2525,14.232854539697811L41.324999999999996,60.686107733032905L41.397499999999994,55.270340193401665L41.47,37.24437098069622L41.5425,57.81737448952413L41.614999999999995,22.856807080182147L41.6875,46.18694378029214L41.76,38.753570827570805L41.832499999999996,45.55402877114034L41.904999999999994,37.59217643737791L41.9775,51.72037283940746L42.05,51.40555058826098L42.122499999999995,44.02130237492646L42.195,47.569821498610736L42.2675,32.53223237124355L42.339999999999996,73.84380759976125L42.412499999999994,69.03060936927794L42.485,47.531707145950996L42.5575,52.708631775595904L42.629999999999995,54.97766339778898L42.7025,57.345203453844235L42.775,48.69800250096752L42.8475,47.3862990682775L42.919999999999995,50.39100291512227L42.9925,47.52222171696747L43.065,59.61347739263012L43.137499999999996,65.33104270154779L43.21,69.70530246604571L43.2825,48.978767362507895L43.355,70.65625268762761L43.427499999999995,63.005156051028834L43.5,56.63314409689468L43.5725,77.02916618910702L43.644999999999996,68.37655595215881L43.7175,71.46148792180145L43.79,33.66082578355613L43.8625,63.18153323910451L43.935,53.94943905960427L44.0075,70.16365297274154L44.08,62.28125189651141L44.152499999999996,59.136808211153195L44.225,36.151666825467856L44.2975,43.043957916173056L44.37,70.23913358558306L44.4425,62.31511746753344L44.515,56.599537480961175L44.5875,72.60167676752263L44.66,40.21022197333248L44.7325,61.34039133245294L44.805,70.58840645443307L44.8775,8.779375466433432L44.95,65.56346927989611L45.0225,38.25956124609166L45.095,15.477028239857068L45.1675,66.27958559989928L45.24,70.94055660204452L45.3125,73.05437821691686L45.385,78.8532266508449L45.4575,70.59466933120379L45.53,46.77011063965882L45.6025,66.01321672309527L45.675,66.11075647310776L45.7475,74.84209864789788L45.82,58.74447207017376L45.8925,29.43875488367946L45.965,34.715031948956565L46.0375,60.976837570017025L46.11,61.54643326455896L46.1825,73.3713200634176L46.255,95.18038334629752L46.3275,40.96810679002239L46.4,55.65449527176941L46.472500000000004,78.47769381783223L46.545,82.27523182738909L46.6175,77.31023796038193L46.69,68.95146502148019L46.7625,56.74884906682099L46.835,88.42024566910482L46.9075,72.70448193766852L46.980000000000004,40.73591998490418L47.0525,74.74852954257616L47.125,79.93611928549679L47.197500000000005,68.87528427080673L47.27,85.87639556147833L47.3425,59.81801354885099L47.415,79.967136350545L47.487500000000004,40.38820084658535L47.56,88.3642730062658L47.6325,77.95570749586278L47.705000000000005,68.54553853381762L47.7775,61.24640022624621L47.85,70.59358555620366L47.9225,86.64305607839063L47.995000000000005,87.48405588756906L48.0675,75.38992293314499L48.14,62.90473902225492L48.212500000000006,74.60903906822203L48.285000000000004,77.37220495397393L48.3575,80.24150406230578L48.43,69.15336367216976L48.502500000000005,64.2201829173348L48.575,63.93893850933419L48.6475,58.48679257522927L48.720000000000006,81.94938000765713L48.792500000000004,63.54848219047891L48.865,80.1908447742462L48.9375,80.23604682358825L49.010000000000005,76.91122653267598L49.0825,66.41346538066863L49.155,70.30999137054788L49.227500000000006,74.31875041398132L49.300000000000004,82.59597168185492" style="fill: none;" fill="none"></path></g></g></g></g></g></g><g transform="translate(40, 177)" clip-path="url(#clip_1)"><clipPath id="clip_1"><rect width="290" height="23"></rect></clipPath><g><g><line x1="0" y1="0" x2="0" y2="5" style="visibility: inherit;" fill="rgb(0, 0, 0)" stroke="rgb(204, 204, 204)" stroke-width="1px"></line><line x1="36.25" y1="0" x2="36.25" y2="5" style="visibility: inherit;" fill="rgb(0, 0, 0)" stroke="rgb(204, 204, 204)" stroke-width="1px"></line><line x1="72.5" y1="0" x2="72.5" y2="5" style="visibility: inherit;" fill="rgb(0, 0, 0)" stroke="rgb(204, 204, 204)" stroke-width="1px"></line><line x1="108.75" y1="0" x2="108.75" y2="5" style="visibility: inherit;" fill="rgb(0, 0, 0)" stroke="rgb(204, 204, 204)" stroke-width="1px"></line><line x1="145" y1="0" x2="145" y2="5" style="visibility: inherit;" fill="rgb(0, 0, 0)" stroke="rgb(204, 204, 204)" stroke-width="1px"></line><line x1="181.25" y1="0" x2="181.25" y2="5" style="visibility: inherit;" fill="rgb(0, 0, 0)" stroke="rgb(204, 204, 204)" stroke-width="1px"></line><line x1="217.5" y1="0" x2="217.5" y2="5" style="visibility: inherit;" fill="rgb(0, 0, 0)" stroke="rgb(204, 204, 204)" stroke-width="1px"></line><line x1="253.75" y1="0" x2="253.75" y2="5" style="visibility: inherit;" fill="rgb(0, 0, 0)" stroke="rgb(204, 204, 204)" stroke-width="1px"></line><line x1="290" y1="0" x2="290" y2="5" style="visibility: inherit;" fill="rgb(0, 0, 0)" stroke="rgb(204, 204, 204)" stroke-width="1px"></line></g><g transform="translate(0, 8)"><text x="0" y="0" dx="0em" dy="0.95em" style="text-anchor: middle; visibility: hidden; font-family: Roboto, sans-serif; font-size: 12px; font-weight: 200;" fill="rgb(33, 33, 33)" stroke="none" stroke-width="1px">-10k</text><text x="36.25" y="0" dx="0em" dy="0.95em" style="text-anchor: middle; visibility: inherit; font-family: Roboto, sans-serif; font-size: 12px; font-weight: 200;" fill="rgb(33, 33, 33)" stroke="none" stroke-width="1px">0</text><text x="72.5" y="0" dx="0em" dy="0.95em" style="text-anchor: middle; visibility: inherit; font-family: Roboto, sans-serif; font-size: 12px; font-weight: 200;" fill="rgb(33, 33, 33)" stroke="none" stroke-width="1px">10k</text><text x="108.75" y="0" dx="0em" dy="0.95em" style="text-anchor: middle; visibility: inherit; font-family: Roboto, sans-serif; font-size: 12px; font-weight: 200;" fill="rgb(33, 33, 33)" stroke="none" stroke-width="1px">20k</text><text x="145" y="0" dx="0em" dy="0.95em" style="text-anchor: middle; visibility: inherit; font-family: Roboto, sans-serif; font-size: 12px; font-weight: 200;" fill="rgb(33, 33, 33)" stroke="none" stroke-width="1px">30k</text><text x="181.25" y="0" dx="0em" dy="0.95em" style="text-anchor: middle; visibility: inherit; font-family: Roboto, sans-serif; font-size: 12px; font-weight: 200;" fill="rgb(33, 33, 33)" stroke="none" stroke-width="1px">40k</text><text x="217.5" y="0" dx="0em" dy="0.95em" style="text-anchor: middle; visibility: inherit; font-family: Roboto, sans-serif; font-size: 12px; font-weight: 200;" fill="rgb(33, 33, 33)" stroke="none" stroke-width="1px">50k</text><text x="253.75" y="0" dx="0em" dy="0.95em" style="text-anchor: middle; visibility: inherit; font-family: Roboto, sans-serif; font-size: 12px; font-weight: 200;" fill="rgb(33, 33, 33)" stroke="none" stroke-width="1px">60k</text><text x="290" y="0" dx="0em" dy="0.95em" style="text-anchor: middle; visibility: hidden; font-family: Roboto, sans-serif; font-size: 12px; font-weight: 200;" fill="rgb(33, 33, 33)" stroke="none" stroke-width="1px">70k</text></g><line x1="0" y1="0" x2="290" y2="0" fill="rgb(0, 0, 0)" stroke="rgb(204, 204, 204)" stroke-width="1px"></line></g></g></g></g></svg>