<svg viewBox="0 0 330 200" xmlns="http://www.w3.org/2000/svg"><g><g><g><g><g><line x1="60" y1="177" x2="55" y2="177" style="visibility: inherit;" fill="rgb(0, 0, 0)" stroke="rgb(204, 204, 204)" stroke-width="1px"></line><line x1="60" y1="164.35714285714286" x2="55" y2="164.35714285714286" style="visibility: inherit;" fill="rgb(0, 0, 0)" stroke="rgb(204, 204, 204)" stroke-width="1px"></line><line x1="60" y1="151.71428571428572" x2="55" y2="151.71428571428572" style="visibility: inherit;" fill="rgb(0, 0, 0)" stroke="rgb(204, 204, 204)" stroke-width="1px"></line><line x1="60" y1="139.07142857142856" x2="55" y2="139.07142857142856" style="visibility: inherit;" fill="rgb(0, 0, 0)" stroke="rgb(204, 204, 204)" stroke-width="1px"></line><line x1="60" y1="126.42857142857143" x2="55" y2="126.42857142857143" style="visibility: inherit;" fill="rgb(0, 0, 0)" stroke="rgb(204, 204, 204)" stroke-width="1px"></line><line x1="60" y1="113.78571428571428" x2="55" y2="113.78571428571428" style="visibility: inherit;" fill="rgb(0, 0, 0)" stroke="rgb(204, 204, 204)" stroke-width="1px"></line><line x1="60" y1="101.14285714285714" x2="55" y2="101.14285714285714" style="visibility: inherit;" fill="rgb(0, 0, 0)" stroke="rgb(204, 204, 204)" stroke-width="1px"></line><line x1="60" y1="88.5" x2="55" y2="88.5" style="visibility: inherit;" fill="rgb(0, 0, 0)" stroke="rgb(204, 204, 204)" stroke-width="1px"></line><line x1="60" y1="75.85714285714286" x2="55" y2="75.85714285714286" style="visibility: inherit;" fill="rgb(0, 0, 0)" stroke="rgb(204, 204, 204)" stroke-width="1px"></line><line x1="60" y1="63.21428571428571" x2="55" y2="63.21428571428571" style="visibility: inherit;" fill="rgb(0, 0, 0)" stroke="rgb(204, 204, 204)" stroke-width="1px"></line><line x1="60" y1="50.57142857142857" x2="55" y2="50.57142857142857" style="visibility: inherit;" fill="rgb(0, 0, 0)" stroke="rgb(204, 204, 204)" stroke-width="1px"></line><line x1="60" y1="37.92857142857143" x2="55" y2="37.92857142857143" style="visibility: inherit;" fill="rgb(0, 0, 0)" stroke="rgb(204, 204, 204)" stroke-width="1px"></line><line x1="60" y1="25.285714285714295" x2="55" y2="25.285714285714295" style="visibility: inherit;" fill="rgb(0, 0, 0)" stroke="rgb(204, 204, 204)" stroke-width="1px"></line><line x1="60" y1="12.642857142857137" x2="55" y2="12.642857142857137" style="visibility: inherit;" fill="rgb(0, 0, 0)" stroke="rgb(204, 204, 204)" stroke-width="1px"></line><line x1="60" y1="0" x2="55" y2="0" style="visibility: inherit;" fill="rgb(0, 0, 0)" stroke="rgb(204, 204, 204)" stroke-width="1px"></line></g><g transform="translate(50, 0)"><text x="0" y="177" dx="0em" dy="0.3em" style="text-anchor: end; visibility: hidden; font-family: Roboto, sans-serif; font-size: 12px; font-weight: 200;" fill="rgb(33, 33, 33)" stroke="none" stroke-width="1px">0.071</text><text x="0" y="164.35714285714286" dx="0em" dy="0.3em" style="text-anchor: end; visibility: inherit; font-family: Roboto, sans-serif; font-size: 12px; font-weight: 200;" fill="rgb(33, 33, 33)" stroke="none" stroke-width="1px">0.072</text><text x="0" y="151.71428571428572" dx="0em" dy="0.3em" style="text-anchor: end; visibility: hidden; font-family: Roboto, sans-serif; font-size: 12px; font-weight: 200;" fill="rgb(33, 33, 33)" stroke="none" stroke-width="1px">0.073</text><text x="0" y="139.07142857142856" dx="0em" dy="0.3em" style="text-anchor: end; visibility: inherit; font-family: Roboto, sans-serif; font-size: 12px; font-weight: 200;" fill="rgb(33, 33, 33)" stroke="none" stroke-width="1px">0.074</text><text x="0" y="126.42857142857143" dx="0em" dy="0.3em" style="text-anchor: end; visibility: hidden; font-family: Roboto, sans-serif; font-size: 12px; font-weight: 200;" fill="rgb(33, 33, 33)" stroke="none" stroke-width="1px">0.075</text><text x="0" y="113.78571428571428" dx="0em" dy="0.3em" style="text-anchor: end; visibility: inherit; font-family: Roboto, sans-serif; font-size: 12px; font-weight: 200;" fill="rgb(33, 33, 33)" stroke="none" stroke-width="1px">0.076</text><text x="0" y="101.14285714285714" dx="0em" dy="0.3em" style="text-anchor: end; visibility: hidden; font-family: Roboto, sans-serif; font-size: 12px; font-weight: 200;" fill="rgb(33, 33, 33)" stroke="none" stroke-width="1px">0.077</text><text x="0" y="88.5" dx="0em" dy="0.3em" style="text-anchor: end; visibility: inherit; font-family: Roboto, sans-serif; font-size: 12px; font-weight: 200;" fill="rgb(33, 33, 33)" stroke="none" stroke-width="1px">0.078</text><text x="0" y="75.85714285714286" dx="0em" dy="0.3em" style="text-anchor: end; visibility: hidden; font-family: Roboto, sans-serif; font-size: 12px; font-weight: 200;" fill="rgb(33, 33, 33)" stroke="none" stroke-width="1px">0.079</text><text x="0" y="63.21428571428571" dx="0em" dy="0.3em" style="text-anchor: end; visibility: inherit; font-family: Roboto, sans-serif; font-size: 12px; font-weight: 200;" fill="rgb(33, 33, 33)" stroke="none" stroke-width="1px">0.08</text><text x="0" y="50.57142857142857" dx="0em" dy="0.3em" style="text-anchor: end; visibility: hidden; font-family: Roboto, sans-serif; font-size: 12px; font-weight: 200;" fill="rgb(33, 33, 33)" stroke="none" stroke-width="1px">0.081</text><text x="0" y="37.92857142857143" dx="0em" dy="0.3em" style="text-anchor: end; visibility: inherit; font-family: Roboto, sans-serif; font-size: 12px; font-weight: 200;" fill="rgb(33, 33, 33)" stroke="none" stroke-width="1px">0.082</text><text x="0" y="25.285714285714295" dx="0em" dy="0.3em" style="text-anchor: end; visibility: hidden; font-family: Roboto, sans-serif; font-size: 12px; font-weight: 200;" fill="rgb(33, 33, 33)" stroke="none" stroke-width="1px">0.083</text><text x="0" y="12.642857142857137" dx="0em" dy="0.3em" style="text-anchor: end; visibility: inherit; font-family: Roboto, sans-serif; font-size: 12px; font-weight: 200;" fill="rgb(33, 33, 33)" stroke="none" stroke-width="1px">0.084</text><text x="0" y="0" dx="0em" dy="0.3em" style="text-anchor: end; visibility: hidden; font-family: Roboto, sans-serif; font-size: 12px; font-weight: 200;" fill="rgb(33, 33, 33)" stroke="none" stroke-width="1px">0.085</text></g><line x1="60" y1="0" x2="60" y2="177" fill="rgb(0, 0, 0)" stroke="rgb(204, 204, 204)" stroke-width="1px"></line></g></g><g transform="translate(60, 0)" clip-path="url(#clip_0)"><clipPath id="clip_0"><rect width="270" height="177"></rect></clipPath><g><g><g><line x1="0" y1="0" x2="0" y2="177" fill="rgb(0, 0, 0)" stroke="rgb(66, 66, 66)" stroke-width="1px" opacity="0.25"></line><line x1="33.75" y1="0" x2="33.75" y2="177" fill="rgb(0, 0, 0)" stroke="rgb(66, 66, 66)" stroke-width="1px" opacity="0.25"></line><line x1="67.5" y1="0" x2="67.5" y2="177" fill="rgb(0, 0, 0)" stroke="rgb(66, 66, 66)" stroke-width="1px" opacity="0.25"></line><line x1="101.25" y1="0" x2="101.25" y2="177" fill="rgb(0, 0, 0)" stroke="rgb(66, 66, 66)" stroke-width="1px" opacity="0.25"></line><line x1="135" y1="0" x2="135" y2="177" fill="rgb(0, 0, 0)" stroke="rgb(66, 66, 66)" stroke-width="1px" opacity="0.25"></line><line x1="168.75" y1="0" x2="168.75" y2="177" fill="rgb(0, 0, 0)" stroke="rgb(66, 66, 66)" stroke-width="1px" opacity="0.25"></line><line x1="202.5" y1="0" x2="202.5" y2="177" fill="rgb(0, 0, 0)" stroke="rgb(66, 66, 66)" stroke-width="1px" opacity="0.25"></line><line x1="236.25" y1="0" x2="236.25" y2="177" fill="rgb(0, 0, 0)" stroke="rgb(66, 66, 66)" stroke-width="1px" opacity="0.25"></line><line x1="270" y1="0" x2="270" y2="177" fill="rgb(0, 0, 0)" stroke="rgb(66, 66, 66)" stroke-width="1px" opacity="0.25"></line></g><g><line x1="0" y1="177" x2="270" y2="177" fill="rgb(0, 0, 0)" stroke="rgb(66, 66, 66)" stroke-width="1px" opacity="0.25"></line><line x1="0" y1="164.35714285714286" x2="270" y2="164.35714285714286" fill="rgb(0, 0, 0)" stroke="rgb(66, 66, 66)" stroke-width="1px" opacity="0.25"></line><line x1="0" y1="151.71428571428572" x2="270" y2="151.71428571428572" fill="rgb(0, 0, 0)" stroke="rgb(66, 66, 66)" stroke-width="1px" opacity="0.25"></line><line x1="0" y1="139.07142857142856" x2="270" y2="139.07142857142856" fill="rgb(0, 0, 0)" stroke="rgb(66, 66, 66)" stroke-width="1px" opacity="0.25"></line><line x1="0" y1="126.42857142857143" x2="270" y2="126.42857142857143" fill="rgb(0, 0, 0)" stroke="rgb(66, 66, 66)" stroke-width="1px" opacity="0.25"></line><line x1="0" y1="113.78571428571428" x2="270" y2="113.78571428571428" fill="rgb(0, 0, 0)" stroke="rgb(66, 66, 66)" stroke-width="1px" opacity="0.25"></line><line x1="0" y1="101.14285714285714" x2="270" y2="101.14285714285714" fill="rgb(0, 0, 0)" stroke="rgb(66, 66, 66)" stroke-width="1px" opacity="0.25"></line><line x1="0" y1="88.5" x2="270" y2="88.5" fill="rgb(0, 0, 0)" stroke="rgb(66, 66, 66)" stroke-width="1px" opacity="0.25"></line><line x1="0" y1="75.85714285714286" x2="270" y2="75.85714285714286" fill="rgb(0, 0, 0)" stroke="rgb(66, 66, 66)" stroke-width="1px" opacity="0.25"></line><line x1="0" y1="63.21428571428571" x2="270" y2="63.21428571428571" fill="rgb(0, 0, 0)" stroke="rgb(66, 66, 66)" stroke-width="1px" opacity="0.25"></line><line x1="0" y1="50.57142857142857" x2="270" y2="50.57142857142857" fill="rgb(0, 0, 0)" stroke="rgb(66, 66, 66)" stroke-width="1px" opacity="0.25"></line><line x1="0" y1="37.92857142857143" x2="270" y2="37.92857142857143" fill="rgb(0, 0, 0)" stroke="rgb(66, 66, 66)" stroke-width="1px" opacity="0.25"></line><line x1="0" y1="25.285714285714295" x2="270" y2="25.285714285714295" fill="rgb(0, 0, 0)" stroke="rgb(66, 66, 66)" stroke-width="1px" opacity="0.25"></line><line x1="0" y1="12.642857142857137" x2="270" y2="12.642857142857137" fill="rgb(0, 0, 0)" stroke="rgb(66, 66, 66)" stroke-width="1px" opacity="0.25"></line><line x1="0" y1="0" x2="270" y2="0" fill="rgb(0, 0, 0)" stroke="rgb(66, 66, 66)" stroke-width="1px" opacity="0.25"></line></g></g></g><g><g><line x1="0" y1="1074.6428571428562" x2="270" y2="1074.6428571428562" fill="rgb(0, 0, 0)" stroke="rgb(153, 153, 153)" stroke-width="1.5px"></line></g></g><g><g><line x1="33.75" y1="0" x2="33.75" y2="177" fill="rgb(0, 0, 0)" stroke="rgb(153, 153, 153)" stroke-width="1.5px"></line></g></g><g><g><g><g><g><path stroke="rgb(0, 119, 187)" stroke-width="2px" d="M34.0875,123.23630428739955L34.4925,178.25641694962255L37.395,177.038650658766L37.462500000000006,170.40201070135896L37.53,165.7622238077754L38.137499999999996,162.62286351324482L38.5425,153.67980889657082L38.61,148.4681917257771L38.677499999999995,143.48807729057847L38.745,143.2348703715852L39.082499999999996,141.5358345207037L39.622499999999995,140.52778443186563L40.095,137.1815769949126L40.635,133.68981933531848L40.8375,136.21012567862635L40.905,130.6430610742928L41.3775,128.05019979238395L41.714999999999996,130.5564964769713L42.255,126.13456738000656L42.4575,122.74548290580645L42.525,117.77158732475237L43.1325,116.10164605161144L43.2675,112.71878756325148L43.335,109.8270849610013L43.4025,110.87308065279895L43.875,113.00429701156554L44.2125,109.79304752762611L44.347500000000004,110.3363118334601L44.415,109.01696413061873L44.685,105.68435895693516L45.0225,103.02031683726398L45.09,101.41066492056065L45.292500000000004,101.50735075848483L45.697500000000005,100.75911329137215L45.765,100.21616713761186L45.900000000000006,99.3932870252445L46.102500000000006,98.12442897574489L46.237500000000004,96.88046524020149L46.30500000000001,94.9535166978454L46.44,94.28958681713891L46.574999999999996,92.44309685209073L46.6425,89.30390343360665L47.114999999999995,86.85427317600119L47.654999999999994,86.73634261996392L47.7225,87.80086089200236L47.79,85.61989126782194L48.059999999999995,84.66020304573706L48.802499999999995,84.42138489246081L48.9375,86.07091734915679L49.207499999999996,85.65176949282696L49.41,86.42484682630807L49.545,86.13353770768731L49.7475,84.57936335724645L50.5575,82.25112879858467L50.9625,79.92682207044538L51.165,79.60004467585352L51.3,78.46466748605268L51.3675,76.40933694512036L51.5025,74.14014423597284L51.7725,73.71644336445333L52.042500000000004,72.72001289118575L52.1775,72.89249540351292L52.515,72.0483321535206L53.46,72.14135467345095L53.7975,73.25424824550925L53.865,73.48870866591582L54.135000000000005,72.88167469263828L54.2025,73.18381158968312L54.472500000000004,72.1685878485525L54.540000000000006,71.92991974955072L54.675000000000004,70.83294430667878L54.8775,69.63169371306573L55.214999999999996,68.616496512172L55.2825,66.26923801633161L55.6875,65.2982379466329L55.754999999999995,65.85523978567903L55.8225,64.5926696512043L56.025,64.97285545925519L56.6325,65.16195055610888L57.1725,64.82786434039362L58.05,64.71764265802324L58.2525,64.86072563401399L58.5225,65.37281546924959L58.9275,65.3157739551953L59.1975,65.87489688642187L59.265,66.12210177877802L59.3325,66.31997755129926L59.805,65.74348280351211L60.1425,66.02316752373405L60.21,66.56702297913782L61.29,66.7811184170913L61.7625,66.46295548227428L62.167500000000004,66.89178511149926L62.235,66.34131430642248L62.370000000000005,66.57585701876482L62.775000000000006,66.21382463552744L63.38249999999999,65.90529432766607L63.5175,65.68591915717609L63.584999999999994,64.92179221331658L63.787499999999994,64.0354895617597L64.1925,62.937616601258526L64.8,62.807835362020825L65.0025,62.89280556769168L65.07,63.59328212129654L65.6775,64.40343078876133L65.745,63.82036350509935L66.4875,62.82938144267474L66.69,61.874664524851504L66.7575,62.01127182782044L66.8925,61.40422995959228L67.0275,60.88702438946852L67.9725,60.35530993768051L68.31,59.878802408795586L68.44500000000001,59.17839187214841L68.6475,59.12154668051789L69.1875,58.87519676839304L69.5925,59.12609539255449L69.72749999999999,59.07831007709412L69.93,58.80710975513742L69.99749999999999,59.18140273809078L70.2,58.40641340805681L70.33500000000001,58.4006314625493L70.6725,57.914245091032186L70.74000000000001,58.16108477336969L71.3475,57.392071393871625L71.4825,57.1380534492893L71.7525,56.4931422231897L71.82000000000001,56.184263535878294L72.1575,56.26075019227503L72.4275,55.80105738232726L72.495,56.21682205907678L72.8325,56.40842668379728L72.9675,56.64806039549984L73.03500000000001,56.53147662550046L73.10249999999999,56.3317025802956L73.17,56.45939412982755L73.305,56.37404163316934L73.3725,56.561942391604155L73.71000000000001,55.82395626056372L73.7775,55.716739197174086L74.25,55.62059514466726L74.385,55.69138201000967L74.79,55.334791174778665L74.92500000000001,56.174967638136984L75.2625,56.22761453157298L75.60000000000001,56.17007246190382L75.73500000000001,55.75789788613063L76.54499999999999,55.38443349985372L77.0175,55.34221208199059L77.085,55.17616868239001L77.22,55.234735964192765L77.2875,54.73984384654319L77.35499999999999,53.77158861735523L77.4225,53.2357902842634L77.5575,53.03463483119372L77.75999999999999,53.45584613520866L78.03,53.17391496057023L78.3675,53.38175627864168L78.57,53.29426810175948L78.83999999999999,52.9456308132013L79.0425,52.61219398884151L79.11,52.63314097668437L79.24499999999999,52.49795912008203L79.3125,52.55072988945341L79.515,52.350817489094474L79.58250000000001,53.08966434216181L79.785,53.28112813669383L79.8525,53.08926211583841L80.19,53.02790921786087L80.25750000000001,52.855302431073945L80.72999999999999,52.66197390699777L80.9325,52.71861965249937L81.2025,52.91937892815227L81.405,52.839667861775844L81.53999999999999,53.73880212647992L81.675,53.4433999229925L81.945,53.25320348180317L82.215,53.400031752616364L82.4175,53.35927500785669L82.485,52.9716959263327L82.55250000000001,52.858398492152375L82.62,52.820010695451465L83.025,53.08630364176765L83.42999999999999,53.15346044869461L83.565,52.89974659443938L83.63250000000001,52.74135565473833L83.9025,52.34831845078486L84.105,51.7726350610473L84.17250000000001,51.26573324335443L84.375,51.25224826194844L84.4425,51.29993833031446L84.51,51.037357057791745L84.645,51.03387660049924L84.78,51.36246505939293L85.185,51.430564065870975L85.38749999999999,51.68590451060483L85.455,51.60151612963505L85.6575,51.284219192456376L85.725,51.15485814472713L85.79249999999999,50.92899025689088L85.9275,50.883909783196906L85.995,50.715996415837715L86.4,50.50617012445929L86.67,50.38059017919921L86.7375,50.188293942526464L86.87249999999999,49.961474973332265L87.0075,49.87507525812772L87.1425,50.06623582641813L87.21000000000001,50.72562611344277L87.27749999999999,50.61887715097732L87.345,50.243423120716386L87.4125,49.823919720510396L87.61500000000001,49.799917983076924L87.885,49.97585979684091L88.08749999999999,50.52284898920055L88.2225,50.32694591078117L88.29,50.47759461184542L88.3575,50.79845743193125L88.7625,50.279275157630806L88.83,50.111244256965016L88.965,50.029647788928045L89.16749999999999,50.07879859901353L89.4375,50.48084887458416L89.64,50.46495359912188L89.8425,50.795620059679315L89.91000000000001,50.468381796890135L90.045,50.1846070951248L90.18,50.265263708732796L90.31500000000001,50.12384880816933L90.6525,50.28060086680715L90.855,50.2477872512212L92.2725,50.554956759978054L92.4075,50.37814103739301L92.47500000000001,50.30702822628637L92.745,50.04355662989609L92.88,49.91501986808987L93.14999999999999,50.05549040300095L93.285,50.12983032425013L93.41999999999999,50.122687748784145L93.6225,49.9047807041786L93.75750000000001,49.71213257502032L93.82499999999999,49.57152289785839L94.22999999999999,49.313161874871696L94.5,49.417239643908204L94.9725,49.4245554897053L95.03999999999999,49.238939746862044L95.1075,48.85532261633819L95.175,49.10752664097474L95.5125,49.13518060859877L95.64750000000001,49.389138406565706L95.85,49.47316389952545L95.9175,49.56168209120212L95.985,49.85131303126308L96.05250000000001,49.66598336533019L96.5925,49.6096420233425L96.66,49.52047455165297L96.8625,49.579158083725304L97.335,49.378977399272706L97.53750000000001,49.247325900092086L98.0775,49.22888826839464L98.145,49.09800504956601L98.28,49.09334639396158L98.34750000000001,49.4333190170114L98.41499999999999,49.719642149260686L98.6175,50.15387697904081L98.685,49.64378862071381L98.955,49.529755851490165L99.2925,49.22157393259479L99.36,49.51327233618375L99.63,49.86442021919163L99.6975,49.88478007614892L99.765,49.71767631779764L99.83250000000001,49.682997236570394L100.035,49.43228677566579L100.1025,49.63260140555228L100.17,49.63462189306281L100.3725,49.71965652883785L100.44,49.53218337015991L100.98,49.90360396907959L101.25,50.04372826697836L101.385,50.13539051469419L101.52,50.30509316351251L101.58749999999999,50.55870185270225L101.79,50.7402522539557L102.06,50.982063925041885L102.1275,51.00668871172636L102.19500000000001,50.958650289479195L102.3975,51.20219390063608L102.9375,51.57731640010381L103.07249999999999,51.826700601237434L103.3425,51.83910863351043L103.41,51.473298418621965L103.6125,51.51908099794543L103.74749999999999,51.50869934531343L103.8825,51.498948629110075L104.22,51.391740598956424L104.96249999999999,51.485947223929635L105.0975,51.49811237799405L105.5025,51.67146356569001L105.57000000000001,51.665367714929445L105.705,51.67497358563481L105.84,51.66530762451787L106.11,51.81490457410485L106.38000000000001,51.76277629763206L106.515,51.962667619803376L106.85249999999999,51.9148094082039L106.92,51.75918893145441L106.9875,51.47829537602816L107.46000000000001,51.14854450454629L107.5275,51.3464654149982L107.9325,51.33541739345687L108.2025,51.18516590414022L108.27000000000001,51.33008886713779L108.3375,51.125573431064915L108.94500000000001,51.196073805184575L109.08000000000001,51.175583891015805L109.2825,51.13657614710932L109.6875,50.98631732124229L109.755,51.14842274583995L110.2275,51.00201456084416L110.3625,50.88870807683103L111.3075,50.89322530583142L111.50999999999999,50.731664014159804L111.7125,50.75686733974376L111.78,50.73065113159653L111.8475,50.89496133974369L112.05,50.789026429834365L112.1175,50.65326456924316L112.18499999999999,50.36154884234193L113.39999999999999,50.50618563702606L113.6025,50.551620514563304L113.7375,50.76152871549515L113.80499999999999,51.13127961435404L114.21,51.25466348047463L114.2775,51.281004379893496L114.41250000000001,51.321539753918735L114.5475,51.78599915124982L114.6825,51.92374563221612L114.81750000000001,51.859013111332224L115.02,51.90769452986402L115.155,51.7131530095077L115.28999999999999,51.828502862372886L115.425,51.8605220578838L115.695,51.87855284305811L116.37,51.7715715816747L116.64,51.875633243103934L116.91,51.89967707003853L116.9775,51.71069821747176L117.045,51.699232766023684L117.17999999999999,51.60001918862073L117.38250000000001,51.358691055428146L117.585,51.33531062561307L117.72,51.70900125802343L117.92250000000001,51.85080427231144L118.32749999999999,51.99442505384211L118.46249999999999,52.03342027450399L118.5975,52.146175540211544L118.665,52.20889749253015L118.86749999999999,52.317107624507585L118.935,52.24131206034557L119.0025,52.494755059662815L119.205,52.619891467859965L119.745,52.60550060873772L120.0825,52.57208252362374L120.2175,52.570768467412265L120.62249999999999,52.65381297802684L120.8925,52.45932171923432L120.96000000000001,52.623826457236L121.02749999999999,52.48147900567158L121.095,52.34038856049117L121.5,52.635138328884864L121.7025,52.838553819039305L122.175,53.15320360428638L122.31,53.14891856784407L122.5125,53.34178009798059L122.58,53.51102126856689L122.7825,53.42368322108474L123.1875,53.625719225892844L123.32249999999999,53.46445345431289L123.525,53.391949247933105L123.72749999999999,53.4771152521426L123.795,53.579898738198104L123.8625,53.46377051504153L123.93,53.630497388630125L123.9975,53.73217932966661L124.4025,53.83696293090512L125.2125,53.878901399730424L125.61749999999999,53.99312902902467L125.95500000000001,54.11864847144698L126.22500000000001,54.005476649087264L126.6975,54.118981087353404L126.8325,54.06860355859373L127.16999999999999,54.06386186797982L127.2375,53.94272307184136L127.44,54.07773797012973L127.50750000000001,53.98276757811732L127.6425,54.19965067991556L127.71,53.90602021892988L127.9125,54.05745062488723L129.06,53.96948353044031L129.1275,54.09227013930345L129.195,54.115939848618424L129.5325,53.93190584103831L129.73499999999999,54.10891890509226L130.005,54.009705655682225L130.0725,53.90063928004463L130.14,54.20265659995588L130.41,54.29671351190806L130.4775,54.59357508341071L130.545,54.6672055858113L130.68,54.64397234553785L130.95,54.63919760872938L131.085,54.60158697479176L131.9625,54.63220308098263L132.03,54.664619339877L132.63750000000002,54.590144106531916L132.70499999999998,54.566327505356846L133.44750000000002,54.68223211772167L133.9875,54.73755067908574L134.055,54.81236196799192L134.2575,54.809435028285115L134.3925,54.67039838103851L134.46,54.721246267861616L135,54.83510457329312L135.0675,54.90747467075117L135.135,54.827494914222534L135.40499999999997,55.010891647608474L135.54,54.965807543806356L135.67499999999998,55.00670738936186L136.21499999999997,55.15151213142774L136.5525,55.07893961728828L136.62,55.225779222758185L136.82250000000002,55.19256158059534L137.295,55.30415182743428L137.43,55.3470936292882L138.105,55.245897696084825L138.44250000000002,55.218252087291006L138.51,55.432730184788014L138.64499999999998,55.52904921157821L138.7125,55.7708458176946L139.1175,55.92823749048247L139.59,55.976462862911745L139.6575,55.975219997812445L140.265,55.87399163895637L140.535,55.937611806316696L140.67000000000002,55.900251072192795L140.94,55.87621825925584L141.54749999999999,55.863449565956806L141.6825,55.87514833680549L141.885,55.904411113331385L142.02,56.1483687162147L142.0875,56.13417054594077L142.42499999999998,56.21212058052263L142.965,56.210698652759085L143.1,56.288980051311825L143.5725,56.436761240753555L143.64000000000001,56.52403334766514L143.91,56.577472105271994L144.2475,56.66738773397492L144.45000000000002,56.73676622205501L144.58499999999998,56.96432646072427L144.7875,57.03098528510443L144.99,57.11621099390387L145.26000000000002,57.279645365413955L145.7325,57.28653858955484L145.8,57.01191041134509L146.34,57.06645112552322L146.475,56.99001143563838L146.61,57.033218572259095L146.8125,57.20181875385034L146.88000000000002,57.28807276577005L147.285,57.316019548266986L147.3525,57.253405970920355L147.89249999999998,57.182964032219296L148.095,57.31141135883993L148.1625,57.32717286672027L148.23000000000002,57.370460901077315L148.2975,57.43940439998593L148.43249999999998,57.5971327441484L148.635,57.916269911909296L149.10750000000002,57.97644393480629L149.175,58.17764421146151L149.5125,58.268990043344836L149.6475,58.331877153043344L149.715,58.28117486504081L149.7825,58.370667103227724L150.39000000000001,58.31500610969571L150.66000000000003,58.42659592895581L150.795,58.49165058200948L150.86249999999998,58.62426955318302L150.9975,58.58222696470527L151.335,58.65812511920754L151.4025,58.68648352215845L151.5375,58.779292769838314L151.605,58.91809537775694L151.67249999999999,58.95960161985396L151.875,59.14048651295733L152.01,59.175123583833596L152.145,59.313577286992555L152.7525,59.37600384374247L152.955,59.39753620850364L153.5625,59.3365050195715L153.9675,59.25187453659455L154.035,59.324128050452785L154.44,59.35801878852258L154.50750000000002,59.54492039388619L154.575,59.69734159068914L155.115,59.630176536772L155.51999999999998,59.689327107431964L155.5875,59.60187222676471L156.1275,59.69689005348635L156.195,59.78897454606883L156.3975,59.91668999006568L156.86999999999998,59.87887974903507L157.005,59.98553200296975L157.275,59.828849009804614L157.67999999999998,59.93310017962891L157.95,60.05583708231053L158.0175,60.09422692500072L158.22,60.060480582912426L158.5575,60.05138896053513L158.82750000000001,60.19543309373681L159.09750000000003,60.15360144395867L159.705,60.19048542243982L159.84,60.155111912595096L159.90750000000003,60.134415153006636L160.3125,60.220556670989446L160.38,60.20177129393421L160.4475,60.1394775740407L160.5825,60.188454835559725L160.71749999999997,60.26376037823384L161.52749999999997,60.10717540675579L162.13500000000002,59.91924240199036L162.405,60.09462601889537L162.7425,60.14895222032289L162.81,60.07825061213775L163.14749999999998,60.07778343978294L163.215,60.087993466367024L163.2825,60.116905668726154L163.5525,60.16701741836477L163.62,60.26024795043914L164.025,60.355677330080916L164.29500000000002,60.2934111938905L164.3625,60.49396380224497L164.43,60.51214609680257L164.565,60.55390159823962L164.97,60.49000233857886L165.1725,60.43301289636999L165.30749999999998,60.547363635837996L165.51,60.508271635613134L165.7125,60.51540357398103L165.91500000000002,60.616473615110756L166.05,60.52165520731641L166.5225,60.512398197747L166.6575,60.71329871568382L167.4675,60.95717735043913L167.53500000000003,61.160304044279954L167.60250000000002,61.023589521561235L168.54749999999999,61.1526456528993L168.8175,61.21169353083845L169.0875,61.134455741762885L169.15499999999997,61.240961339450735L169.3575,61.273745935429034L169.42499999999998,61.404039261227034L169.6275,61.37082387667821L169.76250000000002,61.3401000710323L169.89749999999998,61.33845763150497L170.23499999999999,61.38665692163214L170.4375,61.35591796222593L170.57250000000002,61.527322915636645L170.77499999999998,61.594737428077224L170.9775,61.75838689668482L171.18,61.842659295811515L171.315,61.887707785211134L171.51749999999998,62.121701407396934L171.72,62.1070292453981L171.7875,62.21983157056443L171.99,62.36380333039433L172.19250000000002,62.40944754003461L172.8,62.54358893308329L172.935,62.62886157405651L173.2725,62.657480730168956L173.61,62.685392437758054L173.6775,62.80776237236919L173.74499999999998,62.818910738047315L173.88,62.74473604786871L173.9475,62.735669207489806L174.0825,62.84625351594746L174.2175,62.78130569239156L174.42000000000002,62.83271492969405L174.4875,62.92917261860421L174.7575,63.03430042702761L175.095,63.28489088583848L175.23000000000002,63.415513696776074L175.70250000000001,63.3893897315058L175.8375,63.39533120574299L175.905,63.46707643520589L176.1075,63.4589114719484L176.2425,63.49180438964216L176.51250000000002,63.40497395749987L176.715,63.638245411085656L176.85,63.81079763449581L176.98499999999999,64.06074621917013L177.0525,64.13201610982483L177.39000000000001,64.07939939943802L177.66,64.17838691715922L177.7275,64.31663236308161L177.795,64.48578637575292L178.065,64.49642663022688L178.1325,64.45149585945599L178.2675,64.51133151707985L178.33499999999998,64.52591584698601L178.47,64.63488261218534L178.5375,64.66164660241203L178.605,64.66025726028973L178.74,64.72233082148433L178.8075,64.72196567827329L178.9425,64.81017664455193L179.28,64.83421960046829L179.3475,64.83605062075581L179.7525,64.78576196996293L179.82000000000002,64.67603281608046L179.8875,64.78791937241223L180.1575,64.97096434149107L180.2925,65.04110370971334L180.4275,65.15513741428033L180.6975,65.28056859131446L181.3725,65.4643722567248L181.5075,65.59413822403806L181.64249999999998,65.69831714578099L181.71,65.8616441135056L181.98000000000002,65.96701353559453L182.115,66.05553756068868L182.18249999999998,66.196312446503L182.25,66.42643793170414L182.4525,66.59918651869123L182.7225,66.73491965998667L182.99249999999998,66.75173303277866L183.195,66.81289602096085L183.87,66.72520890791041L183.9375,66.83911784382333L184.2075,66.87778409494629L184.3425,66.8839629362424L184.545,66.86549852367519L184.68,66.82968251117448L184.7475,66.81820658105516L184.8825,66.83948260929628L184.95000000000002,66.87124073482765L185.0175,66.89324469542349L185.085,66.9516846279529L185.22000000000003,67.02085650106557L185.355,67.09059598782113L185.42249999999999,67.23725951374539L185.6925,67.31316866882459L185.76,67.4965349123883L185.895,67.4905518059107L186.0975,67.39986096445678L186.435,67.332411470104L187.245,67.33524804695978L187.51500000000001,67.31745996893272L187.7175,67.59660969258366L188.055,67.81237891256416L188.19,67.83293306491228L188.39249999999998,67.78683321672169L188.7975,68.01594146321753L188.865,68.18606309865224L189,68.36484519905878L189.2025,68.52241864586811L189.405,68.51583271556565L189.4725,68.69705501040598L189.54,68.61131851847603L190.1475,68.67893745302005L190.215,68.64985402300861L190.2825,68.66124246336392L190.35,68.76087487685382L190.485,68.87305484706467L190.61999999999998,68.92456847993819L190.8225,68.99727422022814L191.16,69.28652071963631L191.29500000000002,69.40185064730797L191.3625,69.31373802614576L191.42999999999998,69.3517640035992L191.4975,69.31805252195443L192.03750000000002,69.47858187460974L192.645,69.45485783373478L192.9825,69.42306479529712L193.5225,69.48065333939948L193.59,69.56436670156917L193.7925,69.59528287879287L194.0625,69.64130858615282L194.535,69.64319619570189L194.73749999999998,69.67390895552965L194.94,69.75153935737943L195.0075,69.67255654004659L195.07500000000002,69.74346131969342L195.20999999999998,69.76038271691921L195.75,69.80946187726938L195.88500000000002,69.95961647969642L196.01999999999998,69.91765787631115L196.155,69.97325086772238L196.82999999999998,70.01382685422861L197.37,70.14128316755529L197.4375,70.14508436452076L197.50500000000002,70.21951030882829L197.775,70.36143586030913L198.18,70.46896412545287L198.72,70.51940183981L199.125,70.50485521517136L199.1925,70.63964002345004L199.26,70.6052792466384L199.3275,70.63737639280546L199.4625,70.65059241928799L199.5975,70.62896971867764L199.8,70.70070661346239L200.34,70.75833885161818L200.8125,70.74731020314789L201.0825,70.7776461239598L201.2175,70.69520609139808L201.48749999999998,70.75745702971551L201.555,70.8926124868826L201.69,70.90736737744969L202.0275,71.08860609580084L202.23,71.27313717447453L202.365,71.29175223626163L202.5675,71.43628406090502L202.635,71.44268338395652L202.70250000000001,71.33765995671813L203.3775,71.46429998917071L203.445,71.6659800549551L203.58,71.69666687584021L203.64749999999998,71.79000056904994L203.71499999999997,71.80895250372895L203.7825,71.8450339428183L204.0525,71.7782692503602L204.1875,71.9173111603267L204.39000000000001,71.97007980954156L204.52499999999998,71.97887168748319L204.66,72.0681351709223L204.795,72.14079763111339L205.4025,72.23105565845955L205.6725,72.43533798240107L205.8075,72.5628160825429L205.94250000000002,72.50689773193487L206.0775,72.60215057363352L206.28,72.73837834522783L206.48250000000002,72.83857180101113L206.8875,72.91472492427098L206.95499999999998,73.03113189532738L207.225,72.97751000851656L207.4275,73.09753392887322L207.63,73.09538848872646L207.765,73.2164739905693L208.10250000000002,73.31856390534621L208.3725,73.30996728897864L208.575,73.45555098136256L208.6425,73.51794087018409L208.71,73.48750229576585L208.7775,73.46758185518584L208.98000000000002,73.44921740870785L209.25,73.3821551882032L209.655,73.35149579089193L209.72250000000003,73.33484831989018L209.92499999999998,73.57817632411415L210.26250000000002,73.74264539216206L210.465,73.82122462110449L210.53250000000003,73.84583068013593L210.6675,73.8191442194563L210.8025,73.88582632856509L210.9375,73.97580588627218L211.005,74.13911377108026L211.2075,74.05818406173513L211.275,74.1158108474548L211.41,74.20652252811853L211.61249999999998,74.3358291467489L211.68,74.37393928035684L211.815,74.4618345091944L212.22,74.58007233388757L212.42249999999999,74.60902355816401L212.625,74.7399939431026L212.6925,74.72966129185141L212.96249999999998,74.92868970891945L213.3675,74.98275142409807L214.245,75.08504349729928L214.515,75.18322826550653L214.65,75.24842397076367L214.9875,75.25198642980571L215.19,75.39304838068375L215.325,75.34370267641643L215.595,75.41380767811962L215.93249999999998,75.40105998792193L216.2025,75.43189581293505L216.4725,75.46961398479606L216.675,75.47060586163195L217.6875,75.49577338412048L218.36249999999998,75.48123355763029L218.43,75.61100697219071L218.4975,75.61453187394898L218.70000000000002,75.73027842392239L218.7675,75.93457613146164L219.105,75.93659576914573L219.51,75.93908540536967L219.57750000000001,75.9679253240883L219.645,76.09986365108011L219.7125,76.22047845436668L219.77999999999997,76.2804802872334L219.8475,76.34278041240309L219.915,76.45858178018652L220.455,76.50627810429906L222.00750000000002,76.60372329835498L222.075,76.73091913359426L222.14249999999998,76.84618398512085L222.615,76.92030273127762L223.35750000000002,77.02178913095672L223.425,77.0708011849177L223.4925,77.14416684218347L223.7625,77.27761068884233L224.3025,77.36299540753345L224.36999999999998,77.47156581212913L224.5725,77.49101416342127L224.7075,77.60655894616688L224.775,77.68288520490604L224.91,77.65720872139973L225.72,77.64288407605991L225.85500000000002,77.79604163850047L226.0575,77.85318352651451L226.1925,77.90519413198564L226.53,77.97174936215738L226.7325,77.96856315240836L226.935,78.18423882818263L227.5425,78.09945351966095L227.60999999999999,78.14838272878589L228.01500000000001,78.24920962543688L228.15,78.27422953036455L228.21749999999997,78.36151515743737L228.6225,78.4775074320354L228.82500000000002,78.51715001274903L228.8925,78.5718487943778L229.23,78.64531249864336L229.365,78.82527402035186L229.5,78.9006972887722L229.70250000000001,79.05727630017785L229.76999999999998,79.12760601086441L230.31,79.15468055057362L230.64749999999998,79.22323406344051L230.7825,79.29052684670033L230.85,79.26986590870712L230.9175,79.25581870980876L231.1875,79.20294624345306L231.66,79.28683388104596L231.93,79.21180349252275L232.1325,79.20161100223527L232.2,79.33569465027875L232.335,79.42829745049923L232.875,79.51856813540586L233.2125,79.66584565656106L234.0225,79.70035414866159L234.35999999999999,79.78423000842768L234.495,79.83735238047889L234.5625,80.0216633847215L234.76500000000001,80.06154663656754L235.44,80.21811270585407L235.84500000000003,80.2996517468278L236.115,80.31335327152753L236.45250000000001,80.34893753972511L236.5875,80.45474333892507L236.7225,80.42840965164012L236.8575,80.52087427989929L236.9925,80.5808785481946L237.195,80.7865937395467L237.26250000000002,80.90007274051713L237.33,80.8868608209807L237.5325,80.98821217157621L237.6,80.95761148873102L237.6675,81.03695564109564L237.9375,81.173611263311L238.005,81.25070795629216L238.07250000000002,81.374683221625L238.27499999999998,81.35548240597372L238.3425,81.49922619133808L238.4775,81.47031540880222L238.545,81.5930416276244L238.815,81.63167647203244L238.95,81.71861558671299L239.01749999999998,81.8194890607276L239.08499999999998,81.8058845485032L239.355,81.97223114514004L239.49,82.11836994951528L239.625,82.17610512901902L239.8275,82.33418885115854L240.435,82.34140602880046L240.6375,82.37778152264926L240.7725,82.36093633544836L240.9075,82.50817536858618L241.04250000000002,82.64434928336671L241.1775,82.73782250813521L241.785,82.79186551803622L242.05499999999998,82.7917708968033L242.19,83.0743457068278L242.3925,83.24031629707578L242.9325,83.41933842373692L243.20250000000001,83.64914619749811L243.47250000000003,83.64490463256823L243.8775,83.71862767990737L244.08,83.80483911476595L244.35,83.95152415416317L244.48499999999999,83.92953119942595L244.755,83.83351442425283L244.8225,83.78384196005845L245.295,83.70750150660699L245.4975,83.72197993112627L245.565,83.75165670813591L245.90249999999997,83.9335751208699L245.97,83.91623595284116L246.0375,84.12769508457083L246.17249999999999,84.2231193939032L246.375,84.24872861505499L246.71249999999998,84.38468402846189L246.915,84.48911225034358L246.9825,84.59628298818191L247.1175,84.74434591480775L247.52249999999998,84.80329979054198L248.1975,84.85127545427999L248.67000000000002,84.98554852361204L248.8725,85.04275971233517L248.94,84.9976382082386L249.4125,85.18834254969529L249.48000000000002,85.17181765489299L249.5475,85.20846170101544L249.615,85.35553394503027L249.9525,85.3634240593791L250.155,85.45922211943176L250.8975,85.41901043512723L251.7075,85.70184969169429L251.775,85.6846951443215L251.8425,85.63651845244345L251.97750000000002,85.64648499785105L252.11249999999998,85.7006832149275L252.45000000000002,85.8504121400437L252.6525,85.84352243798057L252.72000000000003,85.93220899705942L252.855,85.9931062006662L252.92249999999999,86.00060143720783L253.395,86.06409707038395L253.52999999999997,86.04805596423884L253.665,86.07730354808594L254.205,86.16569898217266L254.27249999999998,86.26872871387224L254.60999999999999,86.36842897830766L254.6775,86.55193838483943L255.08249999999998,86.63267041949328L255.2175,86.64727045484726L255.3525,86.69738149465455L255.4875,86.79905072437579L255.75750000000002,86.89838883450737L255.95999999999998,86.91658276358845L256.22999999999996,87.0134433036125L256.635,87.14679049543295L256.83750000000003,87.39838637476313L256.90500000000003,87.40422457378524L256.97249999999997,87.47468777022253L257.3775,87.37774963559431L257.84999999999997,87.45834983150093L257.9175,87.51183969837592L258.1875,87.48599615735203L258.3225,87.5933965064012L258.39,87.56501798434175L258.45750000000004,87.75288526398255L258.7275,87.69955155924079L259.065,87.81494561326983L259.5375,87.92696296781713L259.8075,88.00333941707018L260.0775,88.13709216070176L260.145,88.26260935476354L260.3475,88.4088650687422L260.6175,88.44715262044097L260.7525,88.55753777184569L261.1575,88.5011453687203L261.36,88.69870345507371L261.495,88.83419128073726L261.63,88.91584753313789L261.765,88.81346463129506L261.9675,88.98994549690067L262.1025,88.98956487493724L262.305,89.22493188945886L262.3725,89.20119133719825L262.575,89.18036795874954L262.71,89.32541838333859L263.115,89.29825241957651L263.4525,89.23086591868997L263.52,89.33580595791031" style="fill: none;" fill="none"></path></g><g><path stroke="rgb(255, 112, 67)" stroke-width="2px" d="M33.885,-56.66355067344386L33.9525,52.078216127290666L34.02,70.47626736974458L34.0875,102.14537231453514L34.155,139.03036417980329L34.222500000000004,135.33792033369332L34.29,146.80087348445352L34.3575,159.32570776735568L34.425,162.39783645092058L34.4925,170.01672728895647L34.56,174.3309042182867L34.6275,189.326719029901L39.4875,179.61606434596547L39.555,176.88570081890217L39.622499999999995,175.80152948868962L39.69,175.74298689873197L39.7575,175.46032499565624L39.824999999999996,174.31857332302292L39.8925,173.2787053525868L39.96,173.13120156334696L40.027499999999996,171.39688184938328L40.095,169.885624437109L40.1625,169.64518191787892L40.23,169.50977901912705L40.2975,167.7273966800572L40.364999999999995,164.83759163533844L40.4325,164.24128013165875L40.5,164.60532172092226L40.567499999999995,164.3504474608494L40.635,163.53524194671954L40.7025,162.40607578798614L40.769999999999996,162.15625020306007L40.8375,160.66277934296082L40.905,158.7942282785572L40.9725,157.69341573188L41.04,156.23777130000042L41.1075,155.6516592632371L41.175,156.8713987476112L41.2425,155.3430127527853L41.31,154.8401387910634L41.3775,152.9611344451732L41.445,152.52551774894687L41.5125,151.30073206275176L41.58,150.61399689940717L41.6475,149.3413015627044L41.714999999999996,150.04315226342726L41.7825,151.46639480443397L41.85,150.4740879573424L41.9175,150.95687000506425L41.985,149.17948092859294L42.0525,148.09935701481854L42.12,147.39716571713902L42.1875,147.22955106376065L42.255,147.08746427203684L42.3225,147.525602482726L42.39,147.37003969033958L42.4575,146.4486385894498L42.525,144.8134175750578L42.5925,144.74243437232093L42.660000000000004,144.44344041211536L42.7275,144.82943784245998L42.795,144.05768812737566L42.8625,143.95596790217562L42.93,143.04393785501875L42.9975,142.41481092497955L43.065,141.7066420564805L43.1325,140.27754412877476L43.2,139.9259730934395L43.2675,138.82791839974098L43.335,137.11488276018417L43.4025,135.8906334135806L43.47,135.170362655073L43.5375,133.95061416814926L43.605000000000004,134.0616572849142L43.6725,133.78235754825226L43.74,133.70994134240854L43.807500000000005,132.55256407127663L43.875,131.99393715952104L43.9425,131.87860608239126L44.010000000000005,131.65045617579665L44.0775,130.3760819158426L44.145,129.50635419369095L44.2125,129.2864642514343L44.28,128.79527900079762L44.347500000000004,128.68089448295274L44.415,127.96603969567428L44.4825,127.53053960100769L44.550000000000004,126.72560043606327L44.6175,125.98484744596769L44.685,125.58447242639127L44.752500000000005,124.59708268176286L44.82,124.68990672049443L44.8875,124.69607250234297L44.955000000000005,123.84777013807316L45.0225,122.08792466872809L45.09,122.32298391962063L45.157500000000006,121.6645310747669L45.225,120.91379644485104L45.292500000000004,119.7679324627596L45.36,119.94552731292315L45.4275,119.46513400185108L45.495000000000005,119.41865284651414L45.5625,118.47976187960786L45.63,117.69289048109911L45.697500000000005,117.34166938919505L45.765,116.49980239908764L45.8325,116.2258067581194L45.900000000000006,115.63244897826206" style="fill: none;" fill="none"></path></g></g></g></g><g opacity="0.2"><g><g><g><path stroke="rgb(0, 119, 187)" stroke-width="2px" d="M34.0875,123.23630428739955L34.4925,233.22150949920913L36.45,243.71237614325102L36.585,52.46138666357316L36.720000000000006,128.90477465731755L36.7875,65.68047018987794L36.9225,4.271523100989276L37.3275,30.334128205265372L37.395,136.98251213346205L37.462500000000006,84.72721638424056L37.53,101.29028013774325L38.137499999999996,115.90742998889513L38.5425,11.801130409751682L38.61,60.66384047269823L38.677499999999995,54.692810539688416L38.745,138.4717607923916L39.082499999999996,107.90966544832499L39.622499999999995,119.59004708698816L40.095,64.40570724861963L40.635,54.3360879165786L40.8375,195.9471509712082L40.905,-6.738649542842497L41.3775,61.538361949580086L41.714999999999996,197.28728637099258L42.255,4.099802651575707L42.4575,25.922617614269317L42.525,-29.15462066020274L43.1325,65.15353426337244L43.2675,6.2351459690503415L43.335,16.0059736030443L43.4025,145.821358348642L43.875,186.26929540719294L44.2125,-3.6979824517453688L44.347500000000004,130.0597194901534L44.415,59.84743831413136L44.685,-21.72043453369813L45.0225,-1.384984297411715L45.09,36.78254663944249L45.292500000000004,105.48203000000544L45.697500000000005,69.28292595914434L45.765,76.85642889567785L45.900000000000006,63.20300472634181L46.102500000000006,41.10824410404481L46.237500000000004,39.79608510221759L46.30500000000001,4.6909806770938545L46.44,62.557475247553434L46.574999999999996,2.4348772849356157L46.6425,-66.70092484780706L47.114999999999995,-37.207584423678156L47.654999999999994,80.65189355186054L47.7225,143.73160619820862L47.79,-31.034408531018553L48.059999999999995,32.421619636671934L48.802499999999995,71.19624782885825L48.9375,178.9743318940911L49.207499999999996,61.64979655827798L49.41,131.4221794903278L49.545,68.90369034239225L49.7475,-8.804946733372486L50.9625,-64.09422161323668L51.165,59.04573082923891L51.3,5.986561072724276L51.3675,-56.71711864215976L51.5025,-74.9583894865852L51.7725,45.48151086483686L52.042500000000004,5.390013839517402L52.1775,84.70800027251244L52.515,13.435441872903343L53.46,78.68666934115546L53.7975,152.59390737329207L53.865,90.4212140398366L54.135000000000005,28.479679226875366L54.2025,95.56359625288418L54.472500000000004,-3.9697397180965295L54.540000000000006,53.81009395633428L54.675000000000004,-13.46268730504165L55.6875,-12.893268700156797L55.754999999999995,111.22039426650316L55.8225,-39.39614883490961L56.025,96.63451769522257L56.6325,81.08284311635154L57.1725,36.393797163452454L58.05,55.235948285886245L58.2525,77.29990661144257L58.5225,110.35934290715625L58.9275,60.25276639631819L59.1975,116.01161145738192L59.265,88.51382655756814L59.3325,84.42324387175697L59.805,12.477933168411314L60.1425,92.11835465260914L60.21,117.80247771314211L61.29,87.14430181043488L61.7625,35.91405374663222L62.167500000000004,108.45374516078402L62.235,12.493381415094724L62.370000000000005,89.7305643771376L62.775000000000006,30.14705370579452L63.38249999999999,34.89107838698799L63.5175,43.436690505061875L63.584999999999994,-13.262519474540342L64.1925,-51.36298241359836L64.8,49.18004719274388L65.0025,71.89113633973258L65.07,138.39922939028054L65.6775,151.6444053820201L65.745,0.5129835222449464L66.4875,-45.6503338260309L66.69,-43.484470801693924L66.7575,77.2081590976034L66.8925,-6.66508197784416L67.0275,2.43261656590878L67.9725,-0.20997558321264886L68.31,5.180143756525927L68.44500000000001,-21.841571394886188L68.6475,52.495768432106324L69.1875,29.943683190005217L69.5925,88.81299504211971L69.72749999999999,53.38215868387906L69.93,26.240625424044524L69.99749999999999,104.45651133145601L70.2,-36.01806942905688L70.33500000000001,57.691089149032344L70.6725,-2.199785113334577L70.74000000000001,88.88486706784794L71.3475,-38.99845067943835L71.4825,25.076731911727425L71.7525,-25.46832989369111L71.82000000000001,16.65969818830496L72.1575,66.11471663628309L72.4275,-3.822321998221444L72.495,110.50402892487388L72.8325,81.593012043408L72.9675,88.35350389991488L73.03500000000001,41.0054755849498L73.10249999999999,29.55389755112789L73.17,73.68567626391139L73.305,44.78577458432747L73.3725,82.23533883690834L73.71000000000001,-45.64552979809886L73.7775,40.88254898786549L74.25,42.235683522054174L74.385,65.60699682150572L74.79,5.078317203692101L74.92500000000001,175.30697464942924L75.2625,63.73775897281512L75.60000000000001,47.91234899844445L75.73500000000001,-3.7448923715522637L76.54499999999999,1.150788877691617L77.0175,49.174866378307385L77.085,30.78033762318752L77.22,63.88960393411775L77.2875,-18.814845404454527L77.4225,-27.30949714779842L77.5575,22.624699537243217L77.75999999999999,117.49012170093398L78.03,10.074788842882505L78.3675,85.33054577452796L78.57,39.77187656930519L78.83999999999999,-1.2350232686314422L79.0425,0.5125125391143467L79.11,55.92377204980172L79.24499999999999,31.147987054927057L79.3125,60.9294749583517L79.515,20.441504333700507L79.58250000000001,171.64197232042034L79.785,84.16316698704448L79.8525,21.981619170733925L80.19,43.02929009710044L80.25750000000001,24.581446051597656L80.72999999999999,20.83232613546514L80.9325,62.09204971790316L81.2025,86.3072705907481L81.405,39.51669790915085L81.53999999999999,204.76875920380854L81.675,3.578424326011177L81.945,20.989446107830375L82.215,78.42885317546981L82.4175,46.377980155604256L82.485,-13.738212436437529L82.55250000000001,33.26402006404746L82.62,46.149270747389146L83.025,99.58042298044477L83.42999999999999,64.93424451776914L83.565,8.183791573558597L83.63250000000001,24.69532977257461L83.9025,-17.569189220666807L84.17250000000001,-39.739212947232254L84.375,48.82021608097215L84.4425,59.939939400979476L84.51,3.250808460371905L84.645,50.397632781948396L84.78,111.69815955417495L85.185,63.9904885206904L85.38749999999999,98.98792620216096L85.455,35.89983005608836L85.6575,-8.01143435495232L85.725,26.875133897577076L85.79249999999999,8.352686124188626L85.9275,42.349661439657254L85.995,18.792121410369933L86.4,10.44403961726605L86.67,26.302135820899753L86.7375,13.162554247038775L86.87249999999999,6.105625608137749L87.0075,33.099929541349454L87.1425,87.3353325682027L87.21000000000001,179.81202249016073L87.27749999999999,29.635283436094053L87.345,-23.86067607573091L87.4125,-33.31057580453998L87.61500000000001,45.024186245032766L87.885,85.12453775320735L88.08749999999999,160.23447830762174L88.2225,10.877532490662238L88.29,80.93420084033694L88.3575,115.9228782355785L88.7625,-55.51064825483717L88.83,15.739208757877408L88.965,33.27362811991152L89.16749999999999,60.21103729094781L89.4375,133.680637798139L89.64,47.163014837673764L89.8425,119.74688446947505L89.91000000000001,-18.026702233723146L90.045,-9.437100291252058L90.18,67.27503067680769L90.31500000000001,20.18924576895583L90.6525,83.58517648918289L90.855,43.25018118534774L92.2725,116.3011718860694L92.4075,12.393909777913837L92.47500000000001,34.97453659772877L92.745,-6.969431276832212L92.88,22.000175906079207L93.14999999999999,80.67186323659762L93.285,66.39071275080954L93.41999999999999,48.55476998857094L93.6225,1.900594021592903L93.75750000000001,7.122383990458153L93.82499999999999,18.376808485814568L94.22999999999999,-8.205856191260384L94.5,72.66891788159099L94.9725,51.06463909149174L95.03999999999999,7.483345461743289L95.1075,-37.73904178823733L95.175,106.232871306794L95.5125,55.420291083199665L95.64750000000001,107.30388694575853L95.85,68.69984884347235L95.9175,69.8845598101616L95.985,116.57048004014148L96.05250000000001,6.831128022500511L96.5925,36.544323371989435L96.66,28.77451466662548L96.8625,63.27760845422747L97.335,2.4977064345565L97.53750000000001,18.314544515950406L98.0775,44.88270291260315L98.145,18.145838358572604L98.28,47.98808308584352L98.34750000000001,130.35059867160658L98.41499999999999,118.08563277125354L98.6175,154.1671794227191L98.685,-72.92628567133617L98.955,22.04209340470183L99.2925,-25.29943534306108L99.36,120.26929895792685L99.63,135.30647156494L99.6975,54.85416936022897L99.765,8.805206716060717L99.83250000000001,41.16626922573365L100.035,-12.327806353568953L100.1025,99.12893855145998L100.17,50.13538937483518L100.3725,70.85892971072879L100.44,2.786419093608935L100.98,142.79444396495816L101.25,85.19320709364754L101.385,73.1969841676099L101.52,93.12795409134455L101.58749999999999,114.74381906645637L101.79,96.82375871709414L102.06,112.54206712756837L102.1275,57.2939561733178L102.19500000000001,38.6576246789524L102.3975,113.74646518911631L102.9375,148.19068608539442L103.07249999999999,116.24088604535372L103.3425,55.05320683121683L103.41,-43.55455309152591L103.6125,63.4460320217269L103.74749999999999,48.79647853119035L103.8825,48.944367234196015L104.22,23.225391421999305L104.96249999999999,76.30584961601667L105.0975,54.71212084804265L105.5025,97.59786659053393L105.57000000000001,50.045902580022855L105.705,54.233978773866404L105.84,49.08321306109433L106.11,91.88663095235825L106.38000000000001,37.761343781437226L106.515,105.79862486038888L106.85249999999999,38.99042135902817L106.92,9.61953654885298L106.9875,-24.787947663238985L107.46000000000001,-38.62298292773098L107.5275,105.37238512720377L107.9325,48.31164849655972L108.2025,9.953369391816073L108.27000000000001,91.2046473792621L108.3375,-5.293484904936298L108.94500000000001,70.69578115429198L109.08000000000001,45.49347383635388L109.2825,40.29108837246899L109.6875,9.100889925445905L109.755,96.4529066000666L110.2275,9.97917926737248L110.3625,19.059357238667403L111.3075,52.16542086430962L111.50999999999999,5.114959691252103L111.7125,57.8910685862814L111.78,43.29096832445694L111.8475,97.64072605541773L112.05,20.575169346162316L112.1175,11.835512178284848L112.18499999999999,-33.25537658163469L113.39999999999999,92.06767686775751L113.6025,63.63970028502603L113.7375,111.3774200422423L113.80499999999999,158.16808692046567L114.21,87.05980743680682L114.2775,58.94362168652673L114.41250000000001,63.1420595092433L114.5475,187.55555033683768L114.6825,92.28677822010857L114.81750000000001,32.845127667699586L115.02,66.24122270515988L115.155,-5.703805408307411L115.28999999999999,85.95403324280467L115.425,61.3557146915368L115.695,57.238191770655796L116.37,19.8963884583542L116.64,82.95387070093837L116.91,59.0972563837256L116.9775,-4.99280927436684L117.045,48.250985869339566L117.17999999999999,21.69215293867254L117.38250000000001,-21.557851157018003L117.585,44.25469400627277L117.72,165.13901403972073L117.92250000000001,94.99229371547699L118.32749999999999,95.7887261893068L118.46249999999999,63.95130272422521L118.5975,86.68509325810841L118.665,71.46517919642585L118.86749999999999,85.6136066360133L118.935,28.866450573716886L119.0025,130.82996530192236L119.205,91.38390355876513L119.745,48.13766732811932L120.0825,42.17398473194672L120.2175,52.16099362288205L120.62249999999999,78.60744997859001L120.8925,-8.457926362752836L120.96000000000001,104.2617127086435L121.02749999999999,7.701222257954801L121.095,7.859001606702883L121.5,145.7620144741875L121.7025,117.24709440554888L122.175,152.99716312970426L122.31,51.786279444183656L122.5125,114.80297454765864L122.58,107.56000757217406L122.7825,25.471980954919605L123.1875,118.42257410287853L123.32249999999999,1.6340175696782406L123.525,30.040140535150297L123.72749999999999,80.96462635057314L123.795,86.82299711874553L123.8625,15.826152243784549L123.93,107.77986249753405L123.9975,86.8248810512679L124.4025,88.00968621458325L125.2125,67.58437239698003L125.61749999999999,91.39944600207465L125.95500000000001,95.30700464333806L126.22500000000001,16.79298641426229L126.6975,91.5169091948441L126.8325,37.43627122470314L127.16999999999999,52.495203252349604L127.2375,13.786324305193835L127.44,98.9240608896528L127.50750000000001,22.374230708394794L127.6425,126.52828797698017L127.71,-44.212610721588014L127.9125,104.75963607430457L129.06,24.457765881504386L129.1275,95.36691369754928L129.195,62.088187656232314L129.5325,-8.17486550126748L129.73499999999999,113.96340001906664L130.005,20.396572543042097L130.0725,16.877292394638122L130.14,156.92374948944357L130.41,86.3489996961185L130.4775,155.95211129103384L130.545,79.85555527465685L130.68,46.68082230857445L130.95,52.99953198858673L131.085,41.661272495985074L131.9625,65.18603209938323L132.03,65.86019735251158L132.63750000000002,28.820011637040594L132.70499999999998,46.30968760166852L133.44750000000002,94.9391668183463L133.9875,73.98729386074203L134.055,80.89388468435833L134.2575,53.78710997956143L134.3925,6.017174976212705L134.46,72.54749843052457L135,94.82537729399544L135.0675,80.37278894867217L135.135,26.632765978574813L135.40499999999997,119.78107784475596L135.54,39.01434730206222L135.67499999999998,69.50409963726999L136.21499999999997,106.57245014395029L136.5525,29.26132283040461L136.62,107.55831203290393L136.82250000000002,43.33269742982731L137.295,95.21742365189961L137.43,70.73393078786987L138.105,18.920699805021346L138.44250000000002,45.27691579290802L138.51,132.69600046532491L138.64499999999998,90.28839679700988L138.7125,143.18404121058325L139.1175,112.92808490140094L139.59,73.47213251250132L139.6575,55.52353058542527L140.265,19.020642425332813L140.535,79.13966091615814L140.67000000000002,42.25122596536369L140.94,47.0810637729509L141.54749999999999,51.18247907076566L141.6825,60.1712863147259L141.885,66.66906378098898L142.02,146.04498113904677L142.0875,50.893295428582626L142.42499999999998,85.03439158201218L142.965,55.68404163633077L143.1,85.3322413137981L143.5725,111.35801553726195L143.64000000000001,89.01250349623817L143.91,76.50441610387394L144.2475,90.25260207908494L144.45000000000002,82.69435899598258L144.58499999999998,142.24697317395888L144.7875,82.05429292150906L144.99,89.16255872164453L145.26000000000002,118.83562630840709L145.7325,59.88709509372713L145.8,-46.765810272523225L146.34,77.7104155080659L146.475,28.0097322591714L146.61,73.44095342925617L146.8125,121.33146011403628L146.88000000000002,90.14945677348545L147.285,67.98056340643339L147.3525,33.32129161272735L147.89249999999998,30.21525206310413L148.095,106.56482021723474L148.1625,63.38065956320082L148.23000000000002,74.02261759553637L148.2975,84.00312691926956L148.43249999999998,118.46618714077128L148.635,181.2703746557235L149.10750000000002,81.27198994159698L149.175,136.19267342346052L149.5125,93.74400002615792L149.6475,82.7930770601545L149.715,38.52857530117039L149.7825,93.28959550176347L150.39000000000001,36.56278591070861L150.66000000000003,102.10357380764825L150.795,83.9939898465361L150.86249999999998,110.69326994674545L150.9975,42.04992777534897L151.335,88.54933868561471L151.4025,69.87212585551399L151.5375,95.4429303748267L151.605,113.83491582104136L151.67249999999999,75.40646022983961L151.875,130.92519809092792L152.01,72.94180550745556L152.145,114.42599964993339L152.7525,84.26282701747758L152.955,67.9945045070989L153.5625,34.93271329573227L153.9675,25.361017329352293L154.035,88.30178995217595L154.44,72.9703470851694L154.50750000000002,134.72622034805158L154.575,121.09983061041147L155.115,32.53286585211758L155.51999999999998,83.58847337109702L155.5875,24.214644389493174L156.1275,98.20081919431686L156.195,97.15891031282288L156.3975,111.82221651077269L156.86999999999998,44.48980878506391L157.005,103.45699093171527L157.275,-4.127801656722944L157.67999999999998,102.54912384918757L157.95,110.30094099896293L158.0175,75.83260576639857L158.22,46.20588291968621L158.5575,56.313463492052925L158.82750000000001,119.50235002807207L159.09750000000003,42.9057983202594L159.705,75.41993034737452L159.84,45.528609177896L159.90750000000003,51.56444638967518L160.3125,95.93981757760048L160.38,52.40128921610971L160.4475,34.236129245587804L160.5825,80.5830358181681L160.71749999999997,91.6655514708587L161.52749999999997,-5.278601838009631L162.13500000000002,-18.66592053856158L162.405,133.534067847899L162.7425,82.92881439839091L162.81,30.390928770814664L163.14749999999998,59.88134909953393L163.215,64.3869621200221L163.2825,72.3072028372969L163.5525,81.3246458555971L163.62,99.67678612896373L164.025,100.7568446440356L164.29500000000002,33.896456211805386L164.3625,145.63108116388315L164.43,68.24120547090259L164.565,78.32759180239269L164.97,33.2539410250528L165.1725,36.10951174582759L165.30749999999998,109.41850700548716L165.51,43.77881265112335L165.7125,63.57159612434253L165.91500000000002,103.98486882448195L166.05,19.781751164368274L166.5225,56.52973894562043L166.6575,147.2613421721117L167.4675,166.1587867140769L167.53500000000003,148.89810274754248L167.60250000000002,1.8940944543907294L168.54749999999999,117.04297031675063L168.8175,86.81696853467396L169.0875,27.597716216530173L169.15499999999997,107.54597227488244L169.3575,75.54587123649462L169.42499999999998,118.19810354283877L169.6275,46.87373699886463L169.76250000000002,47.91319676807953L169.89749999999998,60.619756451674895L170.23499999999999,82.50483538423266L170.4375,47.87061989307408L170.57250000000002,136.81936357702523L170.77499999999998,91.24524612511907L170.9775,133.82683096187452L171.18,99.00186730282647L171.315,81.77660126771246L171.51749999999998,165.56026135172155L171.72,55.61292318361149L171.7875,112.21049500363212L171.99,126.24786462102614L172.19250000000002,82.68833041191101L172.8,122.21455348389485L172.935,100.60848495789935L173.2725,75.42002454400064L173.61,75.147890491145L173.6775,117.51319987433295L173.74499999999998,67.80893715364594L173.88,29.50312556965015L173.9475,58.6673429821219L174.0825,112.52671307751109L174.2175,33.56752159340046L174.42000000000002,85.98502393279757L174.4875,106.42211232866556L174.7575,110.49423247575758L175.095,176.5511236871991L175.23000000000002,122.52813405224254L175.70250000000001,51.55286020466263L175.8375,66.0906022999968L175.905,96.0524767424379L176.1075,59.746082744428115L176.2425,78.4670028090477L176.51250000000002,23.826365896633746L176.715,170.09356818028851L176.85,142.65004053711888L176.98499999999999,178.39794273887352L177.0525,96.77251575248582L177.39000000000001,39.95329927120895L177.66,109.62018198200633L177.7275,127.85504745585574L177.795,142.32120011534005L178.065,69.39822262951307L178.1325,43.7284174561501L178.2675,92.14105603950364L178.33499999999998,71.2682140512126L178.47,115.06842064005984L178.5375,77.06328468663352L178.605,64.01573321649008L178.74,93.55183890887669L178.8075,64.55218300223352L178.9425,105.87322858827454L179.28,76.03927316410201L179.3475,65.69036083562035L179.7525,41.29550699676789L179.82000000000002,13.362251094409462L179.8875,117.17004156538417L180.1575,150.7646088940756L180.2925,97.9527994777475L180.4275,118.72390910983081L180.6975,124.26982966916897L181.3725,152.00291774102612L181.5075,126.759163907596L181.64249999999998,114.85789118068557L181.71,143.01787836211065L181.98000000000002,115.7993864587375L182.115,107.96778476663997L182.18249999999998,132.92103620512142L182.25,175.6225333469254L182.4525,148.66016206996778L182.7225,131.28352205668173L182.99249999999998,74.75622091974532L183.195,95.96327253750391L183.87,24.887585086481963L183.9375,121.24724833028652L184.2075,85.36671727895737L184.3425,69.8417003452778L184.545,58.01719786865373L184.68,49.64773344142099L184.7475,61.30692083920754L184.8825,77.06827710781779L184.95000000000002,82.15593108109066L185.0175,77.49479943088123L185.085,95.13839268258639L185.22000000000003,100.41952652590615L185.355,100.79932732241494L185.42249999999999,138.20301781807623L185.6925,104.08226813588823L185.76,156.4103778770991L185.895,64.58628218088835L186.0975,23.330891643251746L186.435,34.522392792361174L187.245,68.71652164629529L187.51500000000001,58.646431331123644L187.7175,203.81454738123065L188.055,173.21251266768994L188.19,77.88383149674961L188.39249999999998,45.22068040711544L188.7975,180.28253463762138L188.865,151.6348915227821L189,156.1527501046657L189.2025,145.9762176019804L189.405,65.27523630431722L189.4725,157.95906460710927L189.54,26.33793053882468L190.1475,102.05346120255334L190.215,54.28051190716882L190.2825,74.2937154855047L190.35,118.08713991727144L190.485,124.46792517389567L190.61999999999998,94.47995826601982L190.8225,105.1024175967489L191.16,213.06955429060108L191.29500000000002,126.78968361445834L191.3625,25.424976838486586L191.42999999999998,88.31149220466614L191.4975,52.492659943444416L192.03750000000002,149.67899277806276L192.645,57.59048715233805L192.9825,53.50753439324246L193.5225,98.33806367857115L193.59,111.55450969934462L193.7925,85.11803818600518L194.0625,92.77330379400934L194.535,70.59282424194473L194.73749999999998,85.1402685897691L194.94,108.88318757925714L195.0075,29.820097216538073L195.07500000000002,105.55503238524706L195.20999999999998,78.31515784774508L195.75,94.64612111449242L195.88500000000002,146.01983063987316L196.01999999999998,48.64303222724373L196.155,98.18838523966924L196.82999999999998,90.62731625778335L197.37,134.9544587731361L197.4375,72.07990637847357L197.50500000000002,108.13903423292295L197.775,142.7410344779491L198.18,125.35911945360043L198.72,96.29107679639543L199.125,63.06500666907858L199.1925,139.6408351191452L199.26,52.99802484256883L199.3275,87.10031198603767L199.4625,77.43564394967898L199.5975,59.51746753283911L199.8,107.59975854839594L200.34,100.43035913790975L200.8125,65.06385907530786L201.0825,86.42548735652652L201.2175,28.131245906863956L201.48749999999998,102.92779428618294L201.555,140.8040692550795L201.69,78.54669315474375L202.0275,165.01194279108722L202.23,166.99139069233615L202.365,80.95652544072696L202.5675,146.54525942036076L202.635,74.77129237992423L202.70250000000001,16.65941559842661L203.3775,137.45735732572416L203.445,176.85933504785802L203.58,87.71711149385997L203.64749999999998,120.5605549258845L203.71499999999997,81.72111945492881L203.7825,90.7333816587925L204.0525,36.79573416709904L204.1875,144.83681521245404L204.39000000000001,99.66925039887428L204.52499999999998,76.59804755023548L204.66,119.00866551058631L204.795,110.38581215909548L205.4025,119.77994748524256L205.6725,180.14990578804688L205.8075,139.8399667867592L205.94250000000002,42.96938104288922L206.0775,122.9620037121432L206.28,144.82560581394597L206.48250000000002,125.90470631207735L206.8875,113.28395975487571L206.95499999999998,134.79375932897835L207.225,44.50196014983318L207.4275,136.89161238925794L207.63,71.95405968597959L207.765,137.6879506664616L208.10250000000002,127.72354896579465L208.3725,68.72471675276758L208.575,151.17455261094224L208.6425,106.85343867966105L208.71,57.20974438956808L208.7775,62.80540076749667L208.98000000000002,63.61134710056444L209.25,37.4257212025779L209.655,56.89880132675173L209.72250000000003,64.3936500804765L209.92499999999998,204.37972713794016L210.26250000000002,162.22928025892796L210.465,116.13416126796176L210.53250000000003,87.10690574986594L210.6675,59.42458965948652L210.8025,109.88449771489412L210.9375,122.59303552763798L211.005,162.45158429656703L211.2075,30.256510185343927L211.275,105.33159798809459L211.41,123.38551174317084L211.61249999999998,144.4979899483067L211.68,95.07000593202454L211.815,122.23424057875357L212.22,138.8980005255767L212.42249999999999,90.37081884486335L212.625,146.10319465398783L212.6925,69.0949094934123L212.96249999999998,183.55605578848284L213.3675,104.51350029025758L214.245,131.00752594215527L214.515,128.90468046069142L214.65,110.94948476978709L214.9875,77.20439123255866L215.19,152.76562782270562L215.325,48.25531891414101L215.595,113.92958343029021L215.93249999999998,68.39173167943956L216.2025,92.40085033433778L216.4725,96.24284812382288L216.675,76.01732535021647L217.6875,89.37930515834263L218.36249999999998,67.45391006980624L218.43,147.3158820186342L218.4975,77.56375136119979L218.70000000000002,139.78806444576801L218.7675,189.09039016280846L219.105,77.05612574304854L219.51,77.32025308268412L219.57750000000001,91.98016820209367L219.645,149.41203953964364L219.7125,143.29415706651548L219.77999999999997,109.67396825551985L219.8475,111.04292782289637L219.915,141.00922950676502L220.455,103.11449199914932L222.00750000000002,131.0081853185381L222.075,147.80146562627377L222.14249999999998,141.30105065447938L222.615,118.39930753622733L223.35750000000002,133.86111853378156L223.425,104.54241865447588L223.4925,118.29832875302858L223.7625,152.19084001013204L224.3025,125.33396895442687L224.36999999999998,138.51622159991942L224.5725,88.43451299837658L224.7075,142.6734954970223L224.775,120.6978936067649L224.91,63.17559350814141L225.72,69.55750912427904L225.85500000000002,164.3105547130107L226.0575,110.15587819474082L226.1925,107.32969682131494L226.53,115.65357008150644L226.7325,76.16323592407363L226.935,200.4807403896535L227.5425,29.98626006501067L227.60999999999999,105.93539836151258L228.01500000000001,135.5525131523609L228.15,92.50465501632009L228.21749999999997,128.04400588784895L228.6225,144.5495155027934L228.82500000000002,101.1155453962939L228.8925,109.77654838136263L229.23,120.58655319469314L229.365,181.64433526141295L229.5,122.02521826539717L229.70250000000001,168.65085265466138L229.76999999999998,119.39986409885539L230.31,94.66967027102197L230.64749999999998,118.53683461035997L230.7825,117.90976767029078L230.85,67.40379746471133L230.9175,71.18221253156663L231.1875,48.79214548638893L231.66,127.57226918424875L231.93,35.992802126067076L232.1325,73.32622193864414L232.2,156.6839248793465L232.335,132.88674863321438L232.875,131.6687862575054L233.2125,164.81149237070758L234.0225,99.66529414057732L234.35999999999999,128.34600027118407L234.495,110.61602871332849L234.5625,186.8873194711548L234.76500000000001,103.20303682770044L235.44,171.12812972494527L235.84500000000003,127.67937074814519L236.115,88.28059571129936L236.45250000000001,101.05554214545657L236.5875,142.06762279782973L236.7225,65.08279259715765L236.8575,134.4419349304267L236.9925,115.59752308896608L237.195,200.92110961675633L237.26250000000002,147.21716395446225L237.33,73.16034168004991L237.5325,140.3019070412431L237.6,63.03655928799086L237.6675,127.53703964608052L237.9375,161.31783370460775L238.005,126.49729728698726L238.07250000000002,154.18451160192484L238.27499999999998,70.07106912987574L238.3425,166.0372730663844L238.4775,64.45553726383619L238.545,153.87111942682944L238.815,104.40102951867239L238.95,132.991589478084L239.01749999999998,141.3516342427049L239.08499999999998,73.771395193679L239.355,180.28036811522065L239.49,168.54365689413882L239.625,116.34374876107485L239.8275,175.9524099315915L240.435,86.61840204681668L240.6375,103.94916830318314L240.7725,72.36456858260291L240.9075,169.9433245616299L241.04250000000002,163.56385805777134L241.1775,138.32085779735016L241.785,114.9499212844031L242.05499999999998,82.73542872497013L242.19,251.44742629357734L243.20250000000001,220.85848491106702L243.47250000000003,81.11072531768254L243.8775,127.79504420501841L244.08,135.38220565233908L244.35,171.76697124327924L244.48499999999999,70.75427725911142L244.755,26.274630406073214L244.8225,53.98699522018435L245.295,37.88295162575591L245.4975,92.41865349667412L245.565,101.5892602290426L245.90249999999997,193.35033838238024L245.97,73.48051601222583L246.0375,211.48008042148172L246.17249999999999,141.73077566283087L246.375,99.69232857227325L246.71249999999998,166.42621093562664L246.915,147.5470405391284L246.9825,149.35260146856302L247.1175,174.26760907684047L247.52249999999998,120.47182170408111L248.1975,113.89661461114882L248.67000000000002,166.32975359048154L248.8725,119.7244656724589L248.94,57.62703544327193L249.4125,200.94399939690308L249.48000000000002,75.13489135674068L249.5475,107.47975204672129L249.615,174.79972581778247L249.9525,90.16499921679497L250.155,143.7950947242123L250.8975,60.91657002057351L251.7075,258.1562983989714L251.775,75.21844376410758L251.8425,56.22444768037118L251.97750000000002,91.73497438430786L252.11249999999998,118.83101067372729L252.45000000000002,177.43487643344054L252.6525,81.62664023893221L252.72000000000003,140.24764978459896L252.855,123.31269775118143L252.92249999999999,90.59679655092103L253.395,125.02509821738512L253.52999999999997,76.19903064199858L253.665,104.04619082808493L254.205,140.507349882807L254.27249999999998,149.646494942052L254.60999999999999,147.7363757576261L254.6775,199.57682956542277L255.08249999999998,136.38709525976859L255.2175,95.65072813204355L255.3525,117.6187000955854L255.4875,149.57349255681032L255.75750000000002,148.27141259397774L255.95999999999998,98.16408251013074L256.22999999999996,146.92958165492325L256.635,169.6836244634219L256.83750000000003,243.22227109755775L256.90500000000003,91.02228271109718L256.97249999999997,131.16897895932195L257.3775,27.22959580166004L257.84999999999997,137.49965161085126L257.9175,120.74169503790988L258.1875,71.42128356865476L258.3225,154.39551204442972L258.39,69.90311654550689L258.45750000000004,204.7463404067924L258.7275,54.4661734572479L259.065,159.76283580064768L259.5375,157.8115526906081L259.8075,135.68118574363842L260.0775,171.6821000831467L260.145,166.71049635325153L260.3475,179.87296770725922L260.6175,112.40538782307078L260.7525,157.6716707008225L261.1575,53.17181761775701L261.36,212.5406402349471L261.495,173.81697241749075L261.63,140.16390898397984L261.765,24.519182081733494L261.9675,199.88164984754144L262.1025,88.75026008912495L262.305,237.29212250028326L262.3725,74.25744978444918L262.575,76.06517723628454L262.71,180.73609139238076L263.115,72.16826281377249L263.4525,46.71426211084641L263.52,155.58493284242488" style="fill: none;" fill="none"></path></g><g><path stroke="rgb(255, 112, 67)" stroke-width="2px" d="M33.9525,377.6515007870535L34.02,143.88467571565076L34.0875,260.01649337155465L34.155,359.5670202268019L34.222500000000004,109.59399531994546L34.29,238.09279382228834L35.1,407.1527537277764L35.167500000000004,167.89605508957584L35.235,414.44314870451154L35.7075,320.3193365782497L35.775,166.2349917846066L35.8425,345.69793288196814L35.910000000000004,188.63721019455355L35.9775,146.3462219493729L36.045,76.39495962432453L36.112500000000004,62.194441450493706L36.18,283.69517026203L36.2475,137.6853131609303L36.315000000000005,210.89709750243586L36.45,266.91243997641953L36.517500000000005,160.83262688347264L36.585,253.67235060249038L36.855000000000004,221.2773773074149L36.9225,80.60922248022898L36.99,159.04298518385198L37.057500000000005,173.99830092276838L37.125,163.48030565040446L37.1925,115.00446113092555L37.260000000000005,201.79063867245392L37.3275,99.34238810624394L37.395,222.9698080888815L37.462500000000006,89.62572353226798L37.53,217.0841202991348L37.597500000000004,75.7125050680978L37.665000000000006,162.29729022298534L37.7325,71.84432061655181L37.800000000000004,192.89301376257615L37.86750000000001,47.683357000350995L37.935,278.6158055918556L38.06999999999999,199.35744562319337L38.137499999999996,46.5789015591145L38.205,47.312787473201794L38.272499999999994,221.47952326706465L38.339999999999996,162.5179929179804L38.4075,3.950783589056633L38.474999999999994,93.37766934718404L38.5425,12.34671726822859L38.61,239.38535992588302L38.677499999999995,15.445032694510124L38.745,252.69053916845985L38.8125,92.79054177658898L38.879999999999995,-25.899091064929845L38.9475,114.53865881477083L39.015,127.02432741011889L39.082499999999996,84.34864014387131L39.15,120.14543039458137L39.217499999999994,3.7357326916286597L39.285,-34.18952452284938L39.419999999999995,177.82833574073646L39.4875,28.9480248519353L39.555,-47.994699456861916L39.622499999999995,85.51234526293618L39.69,170.8139839768409L39.7575,151.402979429279L39.824999999999996,76.10068936433112L39.8925,82.87587589451245L39.96,160.17315630401876L40.027499999999996,17.458579774413852L40.095,34.37073622431079L40.1625,147.86599031516477L40.23,157.1220333874225L40.2975,3.043199096407285L40.364999999999995,-104.78744668619957L40.4325,108.06405371853282L40.5,199.23028017793374L40.567499999999995,139.87830481358932L40.635,84.52591819422585L40.7025,51.94923960736822L40.769999999999996,137.4927752571446L40.8375,11.878654233047005L40.905,-29.03706327080715L40.9725,46.048009374312024L41.04,7.2984374846731646L41.1075,95.1560074516705L41.175,283.8596375712325L41.2425,-5.1464439715657075L41.31,101.58586915050233L41.3775,-47.70325509565205L41.445,105.61607179897172L41.5125,18.317841397864544L41.58,75.43924065572875L41.6475,8.891208235706678L41.714999999999996,228.1205738016536L41.7825,311.0585836746861L41.85,38.323886032615434L41.9175,205.94847774931353L41.985,-54.84835177659976L42.0525,23.156062705176268L42.12,65.55094982896536L42.1875,127.54476376942222L42.255,130.2754297639642L42.3225,199.7529772562639L42.39,128.68962956326345L42.4575,34.99441208583973L42.525,-54.421452667031836L42.5925,136.0315971927983L42.660000000000004,107.48983108571596L42.7275,192.87398604410026L42.795,47.32418526496209L42.8625,131.1171708149569L42.93,27.134457209280612L42.9975,61.91081540925165L43.065,50.471482936825105L43.1325,-45.08025584476322L43.2,94.02065551706723L43.2675,-5.500811679022585L43.4025,-27.148326720510116L43.47,38.62493844968937L43.5375,-30.600067887987308L43.605000000000004,149.1379273576395L43.6725,95.62086780156407L43.74,123.75306697828425L43.807500000000005,-27.578240122113815L43.875,54.22342875174116L43.9425,115.72336978146006L44.010000000000005,99.49592860681669L44.0775,-50.32258067812228L44.145,5.438619298594409L44.2125,97.73058963673455L44.28,57.88626455834936L44.347500000000004,112.07023622734202L44.415,23.54613093393195L44.4825,63.544938479151064L44.550000000000004,7.774507233074806L44.6175,15.88841621364873L44.685,65.73717655880112L44.752500000000005,-23.834866200174503L44.82,138.72270060437063L44.8875,125.63342002885678L44.955000000000005,-5.833137375967776L45.0225,-148.4306274993077L45.09,158.6543299044881L45.157500000000006,19.336389516081184L45.225,3.6111105552742133L45.292500000000004,-60.23960147585173L45.36,147.99400353005947L45.4275,43.190083737884294L45.495000000000005,111.99949456112724L45.5625,-32.17079662850915L45.63,-9.225063685859851L45.697500000000005,60.39745241403582L45.765,-20.698401140315102L45.8325,71.34394813861167L45.900000000000006,17.9419026630266" style="fill: none;" fill="none"></path></g></g></g></g></g></g><g transform="translate(60, 177)" clip-path="url(#clip_1)"><clipPath id="clip_1"><rect width="270" height="23"></rect></clipPath><g><g><line x1="0" y1="0" x2="0" y2="5" style="visibility: inherit;" fill="rgb(0, 0, 0)" stroke="rgb(204, 204, 204)" stroke-width="1px"></line><line x1="33.75" y1="0" x2="33.75" y2="5" style="visibility: inherit;" fill="rgb(0, 0, 0)" stroke="rgb(204, 204, 204)" stroke-width="1px"></line><line x1="67.5" y1="0" x2="67.5" y2="5" style="visibility: inherit;" fill="rgb(0, 0, 0)" stroke="rgb(204, 204, 204)" stroke-width="1px"></line><line x1="101.25" y1="0" x2="101.25" y2="5" style="visibility: inherit;" fill="rgb(0, 0, 0)" stroke="rgb(204, 204, 204)" stroke-width="1px"></line><line x1="135" y1="0" x2="135" y2="5" style="visibility: inherit;" fill="rgb(0, 0, 0)" stroke="rgb(204, 204, 204)" stroke-width="1px"></line><line x1="168.75" y1="0" x2="168.75" y2="5" style="visibility: inherit;" fill="rgb(0, 0, 0)" stroke="rgb(204, 204, 204)" stroke-width="1px"></line><line x1="202.5" y1="0" x2="202.5" y2="5" style="visibility: inherit;" fill="rgb(0, 0, 0)" stroke="rgb(204, 204, 204)" stroke-width="1px"></line><line x1="236.25" y1="0" x2="236.25" y2="5" style="visibility: inherit;" fill="rgb(0, 0, 0)" stroke="rgb(204, 204, 204)" stroke-width="1px"></line><line x1="270" y1="0" x2="270" y2="5" style="visibility: inherit;" fill="rgb(0, 0, 0)" stroke="rgb(204, 204, 204)" stroke-width="1px"></line></g><g transform="translate(0, 8)"><text x="0" y="0" dx="0em" dy="0.95em" style="text-anchor: middle; visibility: hidden; font-family: Roboto, sans-serif; font-size: 12px; font-weight: 200;" fill="rgb(33, 33, 33)" stroke="none" stroke-width="1px">-10k</text><text x="33.75" y="0" dx="0em" dy="0.95em" style="text-anchor: middle; visibility: inherit; font-family: Roboto, sans-serif; font-size: 12px; font-weight: 200;" fill="rgb(33, 33, 33)" stroke="none" stroke-width="1px">0</text><text x="67.5" y="0" dx="0em" dy="0.95em" style="text-anchor: middle; visibility: inherit; font-family: Roboto, sans-serif; font-size: 12px; font-weight: 200;" fill="rgb(33, 33, 33)" stroke="none" stroke-width="1px">10k</text><text x="101.25" y="0" dx="0em" dy="0.95em" style="text-anchor: middle; visibility: inherit; font-family: Roboto, sans-serif; font-size: 12px; font-weight: 200;" fill="rgb(33, 33, 33)" stroke="none" stroke-width="1px">20k</text><text x="135" y="0" dx="0em" dy="0.95em" style="text-anchor: middle; visibility: inherit; font-family: Roboto, sans-serif; font-size: 12px; font-weight: 200;" fill="rgb(33, 33, 33)" stroke="none" stroke-width="1px">30k</text><text x="168.75" y="0" dx="0em" dy="0.95em" style="text-anchor: middle; visibility: inherit; font-family: Roboto, sans-serif; font-size: 12px; font-weight: 200;" fill="rgb(33, 33, 33)" stroke="none" stroke-width="1px">40k</text><text x="202.5" y="0" dx="0em" dy="0.95em" style="text-anchor: middle; visibility: inherit; font-family: Roboto, sans-serif; font-size: 12px; font-weight: 200;" fill="rgb(33, 33, 33)" stroke="none" stroke-width="1px">50k</text><text x="236.25" y="0" dx="0em" dy="0.95em" style="text-anchor: middle; visibility: inherit; font-family: Roboto, sans-serif; font-size: 12px; font-weight: 200;" fill="rgb(33, 33, 33)" stroke="none" stroke-width="1px">60k</text><text x="270" y="0" dx="0em" dy="0.95em" style="text-anchor: middle; visibility: hidden; font-family: Roboto, sans-serif; font-size: 12px; font-weight: 200;" fill="rgb(33, 33, 33)" stroke="none" stroke-width="1px">70k</text></g><line x1="0" y1="0" x2="270" y2="0" fill="rgb(0, 0, 0)" stroke="rgb(204, 204, 204)" stroke-width="1px"></line></g></g></g></g></svg>