<svg viewBox="0 0 330 200" xmlns="http://www.w3.org/2000/svg"><g><g><g><g><g><line x1="51.5625" y1="177" x2="46.5625" y2="177" style="visibility: inherit;" fill="rgb(0, 0, 0)" stroke="rgb(204, 204, 204)" stroke-width="1px"></line><line x1="51.5625" y1="151.7142857142857" x2="46.5625" y2="151.7142857142857" style="visibility: inherit;" fill="rgb(0, 0, 0)" stroke="rgb(204, 204, 204)" stroke-width="1px"></line><line x1="51.5625" y1="126.42857142857144" x2="46.5625" y2="126.42857142857144" style="visibility: inherit;" fill="rgb(0, 0, 0)" stroke="rgb(204, 204, 204)" stroke-width="1px"></line><line x1="51.5625" y1="101.14285714285714" x2="46.5625" y2="101.14285714285714" style="visibility: inherit;" fill="rgb(0, 0, 0)" stroke="rgb(204, 204, 204)" stroke-width="1px"></line><line x1="51.5625" y1="75.85714285714282" x2="46.5625" y2="75.85714285714282" style="visibility: inherit;" fill="rgb(0, 0, 0)" stroke="rgb(204, 204, 204)" stroke-width="1px"></line><line x1="51.5625" y1="50.57142857142857" x2="46.5625" y2="50.57142857142857" style="visibility: inherit;" fill="rgb(0, 0, 0)" stroke="rgb(204, 204, 204)" stroke-width="1px"></line><line x1="51.5625" y1="25.285714285714256" x2="46.5625" y2="25.285714285714256" style="visibility: inherit;" fill="rgb(0, 0, 0)" stroke="rgb(204, 204, 204)" stroke-width="1px"></line><line x1="51.5625" y1="0" x2="46.5625" y2="0" style="visibility: inherit;" fill="rgb(0, 0, 0)" stroke="rgb(204, 204, 204)" stroke-width="1px"></line></g><g transform="translate(41.5625, 0)"><text x="0" y="177" dx="0em" dy="0.3em" style="text-anchor: end; visibility: hidden; font-family: Roboto, sans-serif; font-size: 12px; font-weight: 200;" fill="rgb(33, 33, 33)" stroke="none" stroke-width="1px">0.6</text><text x="0" y="151.7142857142857" dx="0em" dy="0.3em" style="text-anchor: end; visibility: inherit; font-family: Roboto, sans-serif; font-size: 12px; font-weight: 200;" fill="rgb(33, 33, 33)" stroke="none" stroke-width="1px">0.65</text><text x="0" y="126.42857142857144" dx="0em" dy="0.3em" style="text-anchor: end; visibility: inherit; font-family: Roboto, sans-serif; font-size: 12px; font-weight: 200;" fill="rgb(33, 33, 33)" stroke="none" stroke-width="1px">0.7</text><text x="0" y="101.14285714285714" dx="0em" dy="0.3em" style="text-anchor: end; visibility: inherit; font-family: Roboto, sans-serif; font-size: 12px; font-weight: 200;" fill="rgb(33, 33, 33)" stroke="none" stroke-width="1px">0.75</text><text x="0" y="75.85714285714282" dx="0em" dy="0.3em" style="text-anchor: end; visibility: inherit; font-family: Roboto, sans-serif; font-size: 12px; font-weight: 200;" fill="rgb(33, 33, 33)" stroke="none" stroke-width="1px">0.8</text><text x="0" y="50.57142857142857" dx="0em" dy="0.3em" style="text-anchor: end; visibility: inherit; font-family: Roboto, sans-serif; font-size: 12px; font-weight: 200;" fill="rgb(33, 33, 33)" stroke="none" stroke-width="1px">0.85</text><text x="0" y="25.285714285714256" dx="0em" dy="0.3em" style="text-anchor: end; visibility: inherit; font-family: Roboto, sans-serif; font-size: 12px; font-weight: 200;" fill="rgb(33, 33, 33)" stroke="none" stroke-width="1px">0.9</text><text x="0" y="0" dx="0em" dy="0.3em" style="text-anchor: end; visibility: hidden; font-family: Roboto, sans-serif; font-size: 12px; font-weight: 200;" fill="rgb(33, 33, 33)" stroke="none" stroke-width="1px">0.95</text></g><line x1="51.5625" y1="0" x2="51.5625" y2="177" fill="rgb(0, 0, 0)" stroke="rgb(204, 204, 204)" stroke-width="1px"></line></g></g><g transform="translate(51, 0)" clip-path="url(#clip_0)"><clipPath id="clip_0"><rect width="278" height="177"></rect></clipPath><g><g><g><line x1="0" y1="0" x2="0" y2="177" fill="rgb(0, 0, 0)" stroke="rgb(66, 66, 66)" stroke-width="1px" opacity="0.25"></line><line x1="34.8046875" y1="0" x2="34.8046875" y2="177" fill="rgb(0, 0, 0)" stroke="rgb(66, 66, 66)" stroke-width="1px" opacity="0.25"></line><line x1="69.609375" y1="0" x2="69.609375" y2="177" fill="rgb(0, 0, 0)" stroke="rgb(66, 66, 66)" stroke-width="1px" opacity="0.25"></line><line x1="104.4140625" y1="0" x2="104.4140625" y2="177" fill="rgb(0, 0, 0)" stroke="rgb(66, 66, 66)" stroke-width="1px" opacity="0.25"></line><line x1="139.21875" y1="0" x2="139.21875" y2="177" fill="rgb(0, 0, 0)" stroke="rgb(66, 66, 66)" stroke-width="1px" opacity="0.25"></line><line x1="174.0234375" y1="0" x2="174.0234375" y2="177" fill="rgb(0, 0, 0)" stroke="rgb(66, 66, 66)" stroke-width="1px" opacity="0.25"></line><line x1="208.828125" y1="0" x2="208.828125" y2="177" fill="rgb(0, 0, 0)" stroke="rgb(66, 66, 66)" stroke-width="1px" opacity="0.25"></line><line x1="243.6328125" y1="0" x2="243.6328125" y2="177" fill="rgb(0, 0, 0)" stroke="rgb(66, 66, 66)" stroke-width="1px" opacity="0.25"></line><line x1="278.4375" y1="0" x2="278.4375" y2="177" fill="rgb(0, 0, 0)" stroke="rgb(66, 66, 66)" stroke-width="1px" opacity="0.25"></line></g><g><line x1="0" y1="177" x2="278.4375" y2="177" fill="rgb(0, 0, 0)" stroke="rgb(66, 66, 66)" stroke-width="1px" opacity="0.25"></line><line x1="0" y1="151.7142857142857" x2="278.4375" y2="151.7142857142857" fill="rgb(0, 0, 0)" stroke="rgb(66, 66, 66)" stroke-width="1px" opacity="0.25"></line><line x1="0" y1="126.42857142857144" x2="278.4375" y2="126.42857142857144" fill="rgb(0, 0, 0)" stroke="rgb(66, 66, 66)" stroke-width="1px" opacity="0.25"></line><line x1="0" y1="101.14285714285714" x2="278.4375" y2="101.14285714285714" fill="rgb(0, 0, 0)" stroke="rgb(66, 66, 66)" stroke-width="1px" opacity="0.25"></line><line x1="0" y1="75.85714285714282" x2="278.4375" y2="75.85714285714282" fill="rgb(0, 0, 0)" stroke="rgb(66, 66, 66)" stroke-width="1px" opacity="0.25"></line><line x1="0" y1="50.57142857142857" x2="278.4375" y2="50.57142857142857" fill="rgb(0, 0, 0)" stroke="rgb(66, 66, 66)" stroke-width="1px" opacity="0.25"></line><line x1="0" y1="25.285714285714256" x2="278.4375" y2="25.285714285714256" fill="rgb(0, 0, 0)" stroke="rgb(66, 66, 66)" stroke-width="1px" opacity="0.25"></line><line x1="0" y1="0" x2="278.4375" y2="0" fill="rgb(0, 0, 0)" stroke="rgb(66, 66, 66)" stroke-width="1px" opacity="0.25"></line></g></g></g><g><g><line x1="0" y1="480.42857142857144" x2="278.4375" y2="480.42857142857144" fill="rgb(0, 0, 0)" stroke="rgb(153, 153, 153)" stroke-width="1.5px"></line></g></g><g><g><line x1="34.8046875" y1="0" x2="34.8046875" y2="177" fill="rgb(0, 0, 0)" stroke="rgb(153, 153, 153)" stroke-width="1.5px"></line></g></g><g><g><g><g><g><path stroke="rgb(0, 119, 187)" stroke-width="2px" d="M36.4753125,178.11188210057944L37.310625,169.35384223737287L37.589062500000004,159.53970841253744L37.72828125,151.64812174249064L37.8675,145.8880142346668L37.937109375000006,139.80584447718263L38.076328125,135.88666377014385L38.493984375000004,132.8571546468517L38.56359375,130.40292176146002L38.633203125,126.53415753683814L38.7028125,124.67795728172207L39.329296875,124.12002028530522L39.746953125,122.59024104214521L39.816562499999996,120.01293000808171L39.886171874999995,117.75188333585028L39.955781249999994,115.11866411552599L40.303828124999995,112.92626166186642L40.860703125,111.25724481474383L41.34796875,109.79539302825688L41.90484375,108.36021127905883L42.113671875,106.83421191900116L42.18328125,105.61243977000716L42.670546875,104.98942773231369L43.01859375,104.12488431517411L43.57546875,102.55024936193998L43.784296875,101.27147732790343L43.85390625,100.2230646454572L44.480390625,98.57740913228848L44.619609375,97.84829379124395L44.68921875,96.53766337406213L44.758828125,95.33473677286702L45.24609375,94.46189095615051L45.594140625,93.62069986591187L45.733359375,93.14150741239166L45.802968750000005,91.51435145381053L46.08140625,90.83899844514318L46.429453125,89.76826951188309L46.4990625,89.31774361608677L46.707890625000005,88.04375140041142L47.125546875000005,86.88009819141111L47.195156250000004,86.03740301119328L47.334375,85.75209868253769L47.543203125000005,85.02431054061691L47.682421875,83.99582933437551L47.75203125,83.40454733311563L47.89125,82.92945895406717L48.03046875,82.02483808424707L48.100078124999996,81.19955086285589L48.587343749999995,80.46005693768726L49.14421875,80.33283108403646L49.213828125,79.65679231534853L49.2834375,79.1654623007694L49.561875,78.71174013533016L50.327578124999995,77.8732143473153L50.466796875,77.28959153697534L50.745234374999995,76.85136192654042L50.9540625,76.79453010755316L51.09328125,76.44393577601817L51.302109375,75.89196347824205L52.137421875,75.13885143108644L52.555078125,74.66888197165551L52.76390625,74.40306298160337L52.903125,73.9797823823157L52.972734375,73.41448982410363L53.111953125,73.12365717712063L53.390390625,72.9746494606337L53.668828125000005,72.70637526669645L53.808046875,72.24659791031708L54.156093750000004,71.89157715214482L55.130625,71.86647388459257L55.478671875,71.7171202621986L55.54828125,71.15543697580944L55.826718750000005,70.6616352473593L55.896328125000004,70.50003000720427L56.174765625000006,70.29053032951539L56.244375000000005,70.14130278750409L56.38359375,69.83987406560672L56.592421875,69.36307543165985L56.940468749999994,68.95797674525639L57.010078125,68.5170156053906L57.427734375,68.05874399483814L57.49734375,68.01162250787361L57.566953125,67.57289187369042L57.775781249999994,67.36513725071299L58.402265625,66.8871192901985L58.959140624999996,66.54099011714108L59.864062499999996,66.30948800711204L60.072890625,66.031674689053L60.351328125,65.9123002936002L60.768984375,65.64455493933079L61.047421875,65.46026161223325L61.117031250000004,65.09799943989243L61.186640625,64.92323766655063L61.67390625,64.76413169681221L62.021953125,64.49153200879337L62.0915625,64.18585519422203L63.205312500000005,63.886236383732296L63.692578125000004,63.75539305397853L64.110234375,63.40517651926985L64.17984375,63.00744230381157L64.3190625,62.71067769821262L64.73671875000001,62.62425280202326L65.363203125,62.3337436135679L65.502421875,62.194653436472244L65.57203125,62.10182074782203L65.78085937499999,61.75613279380807L66.198515625,61.440843409436376L66.825,61.30156936636131L67.033828125,61.143643655373225L67.1034375,60.9989636307558L67.729921875,60.64128858166794L67.79953125,60.426284903376214L68.565234375,60.148539238822906L68.7740625,59.93126020302561L68.843671875,59.64975361726827L68.982890625,59.49766809247013L69.122109375,59.3183983864788L70.09664062499999,59.12242327787485L70.4446875,58.88089436205297L70.58390625,58.665034737555565L70.792734375,58.49824393677642L71.349609375,58.214969988433865L71.767265625,57.992924836841986L71.90648437499999,57.67340029986683L72.1153125,57.414772991418104L72.184921875,57.426228105271015L72.39375,57.19169107866936L72.53296875000001,56.8740320662251L72.88101562499999,56.724238432814815L72.950625,56.74312617119625L73.57710937499999,56.61431278970976L73.71632812499999,56.39422741986504L73.994765625,56.44174359705014L74.064375,56.160324696767006L74.41242187499999,56.032941290818435L74.690859375,55.859879095878654L74.76046875,55.672116657708266L75.108515625,55.487003114051106L75.247734375,55.29389822613342L75.31734375,55.24439952289162L75.38695312499999,55.178866451107176L75.4565625,54.98964289475562L75.59578125,54.78442811500533L75.665390625,54.66605925967191L76.01343750000001,54.44128570291047L76.083046875,54.19926414270675L76.5703125,54.03089648150086L76.70953125000001,53.88275159835958L77.1271875,53.67093422779697L77.26640625,53.47373083302089L77.614453125,53.2279994033782L77.9625,52.960037088086644L78.10171875,52.70714359555385L78.93703124999999,52.42657703039796L79.424296875,52.26659624516818L79.49390625,52.01513839645333L79.63312499999999,51.89769354770369L79.702734375,51.68174047952907L79.77234374999999,51.477820019411425L79.841953125,51.37150022558784L79.981171875,51.10327854316166L80.19,51.039313197146015L80.4684375,50.85323460967014L80.816484375,50.694912583053274L81.0253125,50.63461608262439L81.30375,50.53533586324277L81.512578125,50.30621152945776L81.58218749999999,50.11367421510386L81.72140625,49.95000229349627L81.791015625,49.80764517423458L81.99984375,49.73017180336716L82.06945312500001,49.62736279209819L82.27828124999999,49.5552790295598L82.347890625,49.30063509799131L82.6959375,49.145225294873924L82.765546875,48.991546854292864L83.25281249999999,48.80038514944247L83.461640625,48.67574721492649L83.74007812500001,48.52042704453044L83.94890625,48.35672940393745L84.08812499999999,48.17643500777448L84.22734375,47.97149335216946L84.50578125,47.84317415520569L84.78421875,47.75243316126288L84.993046875,47.59386097904533L85.06265625,47.446743730371615L85.132265625,47.26223450644205L85.201875,47.220132800294756L85.61953125,47.05311333421798L86.0371875,46.93580926914738L86.17640625,46.78786863275765L86.24601562500001,46.60023689267376L86.52445312500001,46.52021127689676L86.73328125,46.40016803530405L86.802890625,46.312599170984846L87.01171875,46.21190359878203L87.081328125,46.095172775631006L87.1509375,45.993481433503504L87.29015625,45.895866161050215L87.42937500000001,45.78545393680544L87.84703125,45.63655452353274L88.055859375,45.4572866404219L88.12546875,45.409497064636966L88.33429687499999,45.285562591635724L88.40390625,45.10748060079143L88.47351562499999,44.96535266923867L88.61273437499999,44.84385417439054L88.68234375,44.72793590387799L89.10000000000001,44.68515788379715L89.3784375,44.60471193121617L89.44804687499999,44.50460388593823L89.587265625,44.411234461387565L89.726484375,44.307160590537855L89.865703125,44.111878449438976L89.93531250000001,44.10770398500474L90.004921875,43.98072604341908L90.07453125,43.82360438451139L90.14414062499999,43.761418437452825L90.35296875,43.674390667953354L90.63140625,43.58252079805794L90.840234375,43.57687209238514L90.97945312499999,43.42345713596497L91.0490625,43.31307021914268L91.11867187499999,43.26591744093682L91.536328125,43.19161393477779L91.60593750000001,43.183857734434326L91.74515625000001,43.12009748489475L91.95398437499999,43.033729241148706L92.232421875,42.9562486814056L92.44125000000001,42.82805684700062L92.650078125,42.78312218614065L92.7196875,42.66074321265079L92.85890625,42.56079085321832L92.998125,42.4683416615543L93.13734375,42.336862325354026L93.485390625,42.19722971948944L93.69421875,42.14174279958886L95.156015625,42.002726189787396L95.29523437499999,41.86355177176213L95.36484375,41.79457447600856L95.64328125,41.754722301254795L95.7825,41.63758616017156L96.0609375,41.496914693509964L96.20015624999999,41.429303850673584L96.33937499999999,41.345602060448726L96.548203125,41.2294169743575L96.687421875,41.12559945483124L96.75703125,41.1239169243452L97.17468749999999,41.032650544158614L97.453125,40.972288116475795L97.940390625,40.93370668488384L98.00999999999999,40.85546228312932L98.079609375,40.71933044237044L98.14921874999999,40.71326577633975L98.497265625,40.595986107822746L98.63648437500001,40.48454191991031L98.84531249999999,40.37027263875438L98.914921875,40.30216296041681L98.98453124999999,40.13943149957566L99.054140625,40.03264814585936L99.61101562500001,39.99816741593993L99.68062499999999,39.99534892902267L99.889453125,39.916712076009844L100.37671875,39.79906939512799L100.585546875,39.77559421888562L101.14242187500001,39.7904422947005L101.21203125,39.683973137951305L101.35125,39.718062751544295L101.420859375,39.65980451918228L101.49046874999999,39.59491225407599L101.699296875,39.69240447745193L101.76890625,39.65234668502669L102.04734375,39.5496214254545L102.395390625,39.48948123080252L102.465,39.50508689015602L102.7434375,39.39583402513105L102.81304687500001,39.279303334356165L102.88265625,39.175084034201944L102.95226562500001,39.190629071245915L103.16109374999999,39.09767225323761L103.230703125,39.005372131251875L103.3003125,38.92052625004107L103.509140625,38.84419021851158L103.57875,38.728933668116966L104.135625,38.59312608411019L104.4140625,38.575920066219126L104.55328125,38.46721967423771L104.6925,38.390459409093836L104.762109375,38.38975221113775L104.9709375,38.361364441093045L105.249375,38.3563584713524L105.318984375,38.24679332128195L105.38859375,38.21920828676155L105.597421875,38.21698635444634L106.154296875,38.281360289545L106.293515625,38.315915862620216L106.571953125,38.31334103282251L106.6415625,38.29238613622829L106.85039062499999,38.211139269043215L106.989609375,38.16701816148303L107.128828125,38.082411783556225L107.476875,37.98017137316232L108.242578125,37.897809904623536L108.38179687499999,37.758524145380704L108.799453125,37.690185821972385L108.8690625,37.62229188553794L109.00828125000001,37.55167202951846L109.14750000000001,37.47835101778551L109.4259375,37.40865118370548L109.704375,37.39383122055675L109.84359375000001,37.358227227063374L110.19164062499999,37.35200230883025L110.26125,37.2689793961121L110.330859375,37.196838614878466L110.81812500000001,37.15717118085914L110.887734375,37.11878391565023L111.305390625,37.046735180786975L111.583828125,37.0181729305625L111.65343750000001,36.94788875745135L111.723046875,36.90148581791093L112.34953125000001,36.85333761547418L112.48875000000001,36.85618705878344L112.69757812499999,36.80137079621664L113.115234375,36.728734030700636L113.18484375,36.70081439996541L113.672109375,36.717223740052745L113.811328125,36.67046758548376L114.785859375,36.62699115792016L114.9946875,36.57780250977545L115.20351562500001,36.481225249554065L115.273125,36.410003828995556L115.342734375,36.33327941535218L115.55156249999999,36.23335041803298L115.621171875,36.1615578120731L115.69078125,36.0401559203247L116.94375,35.93709141471508L117.152578125,35.848305152043224L117.291796875,35.7405653390007L117.36140625,35.702436872642224L117.7790625,35.59184674772869L117.84867187500001,35.53217690498323L117.987890625,35.476713153072886L118.127109375,35.41964807159019L118.266328125,35.3715524414034L118.405546875,35.294052410635075L118.614375,35.21795501061291L118.75359375,35.11180111993902L118.89281249999999,34.999601708059664L119.03203125,34.953487207510115L119.31046875,34.91142076290708L120.0065625,34.8318342480532L120.285,34.75929199129015L120.56343749999999,34.70689169000513L120.633046875,34.6285399907432L120.70265625,34.53753621608649L120.841875,34.453574921913344L121.05070312500001,34.37566936206529L121.25953125,34.3242049598337L121.39874999999999,34.34901372748204L121.607578125,34.27753102414856L122.025234375,34.275628463895586L122.164453125,34.231399569152565L122.30367187499999,34.17088508010297L122.37328125,34.14002242945301L122.58210937499999,34.1129856063975L122.65171875,34.08153588215651L122.721328125,34.0184042305825L122.93015625,33.971053189473075L123.48703125,33.87593741422093L123.835078125,33.802129770647866L123.974296875,33.755782704810365L124.391953125,33.67908149215573L124.670390625,33.62165283707036L124.74000000000001,33.59052094438544L124.809609375,33.522891594629534L124.87921875,33.44402249832923L125.296875,33.411871921402124L125.505703125,33.34168790588308L125.99296875,33.287832826809435L126.1321875,33.216568393035736L126.341015625,33.12007817894498L126.41062500000001,33.108660679432916L126.61945312499999,33.05686718937309L127.037109375,32.97288828924534L127.176328125,32.89284788708402L127.38515625000001,32.852530675313886L127.59398437499999,32.82636903843965L127.66359375,32.81947951475887L127.733203125,32.743181453993394L127.8028125,32.68893194688185L127.872421875,32.586550728579084L128.290078125,32.524376693541505L129.125390625,32.479738226448006L129.543046875,32.43446779108753L129.89109375,32.45373213294345L130.16953125,32.3856222215302L130.656796875,32.3067555545346L130.796015625,32.249591283059054L131.1440625,32.208873573495254L131.213671875,32.128468137724354L131.42249999999999,32.07048887545638L131.492109375,32.005190721201934L131.631328125,31.92671877047302L131.70093749999998,31.862951017860905L131.909765625,31.860844712383564L133.093125,31.788299040388466L133.162734375,31.709415039545842L133.23234374999998,31.66600592525808L133.580390625,31.58779204134222L133.78921875,31.504968519238606L134.06765625,31.4607535383171L134.137265625,31.367848741078944L134.206875,31.336616399604488L134.4853125,31.2493874743595L134.554921875,31.265596049029277L134.62453125,31.220035685467384L134.76375,31.141856199033455L135.04218749999998,31.05995569355238L135.18140625,31.0038013599027L136.086328125,31.00097528688688L136.1559375,30.93135270145229L136.782421875,30.875886581431374L136.85203125,30.8182491576442L137.617734375,30.73252902963896L138.17460937500002,30.655301146223128L138.24421875,30.58489525644287L138.453046875,30.503541884995848L138.592265625,30.457150056393026L138.661875,30.428634786853912L139.21875,30.41387343927794L139.288359375,30.332003472932055L139.35796875,30.251313196787674L139.63640625,30.169404461609936L139.775625,30.11730398568025L139.91484375,30.07417781472408L140.47171874999998,30.014608710025172L140.819765625,29.948194608891132L140.889375,29.894719934790245L141.098203125,29.82887920731999L141.58546875,29.772781435814384L141.72468750000002,29.722437672633014L142.42078124999998,29.652723475313365L142.768828125,29.562196072350037L142.8384375,29.488485121181863L142.97765625,29.45332016548002L143.04726562500002,29.466579068418476L143.464921875,29.414501663227334L143.9521875,29.41618473453838L144.021796875,29.340421534238644L144.64828125,29.262678728542724L144.92671875,29.216922985207223L145.06593750000002,29.175993555716747L145.344375,29.1114063974203L145.970859375,29.053247786248242L146.110078125,29.001478154118487L146.31890625,28.95146764282993L146.458125,28.87570986195153L146.527734375,28.804098115532724L146.87578125,28.720622408697384L147.43265624999998,28.64587167465674L147.571875,28.5919302649787L148.059140625,28.52080622221921L148.12875,28.440919663959306L148.40718750000002,28.372702417511917L148.75523437500001,28.31457702525172L148.9640625,28.30259144005923L149.10328124999998,28.24409504709154L149.312109375,28.18510133878439L149.5209375,28.121870515848027L149.799375,28.046954775324966L150.286640625,28.00444097738986L150.35625000000002,27.935295012728286L150.913125,27.902138033410058L151.05234375,27.83571426948659L151.1915625,27.774761462216397L151.400390625,27.738487189446797L151.47,27.679464060876583L151.88765625,27.59487458492151L151.957265625,27.53347085670774L152.51414062499998,27.466443898592956L152.72296875,27.417315889165476L152.79257812499998,27.37059263287115L152.8621875,27.362113781091963L152.931796875,27.311298823845306L153.071015625,27.249755058331044L153.27984375,27.208857925866067L153.76710937500002,27.208120193022733L153.83671875,27.146406813638034L154.18476562499998,27.103068739453374L154.323984375,27.056291379848055L154.39359375,26.994533668758034L154.46320312499998,26.960443421413068L155.08968750000003,26.896241163356297L155.36812500000002,26.82726784171531L155.50734375,26.760730833031847L155.576953125,26.741784180233875L155.71617187500001,26.698575901299765L156.06421875,26.644822135971747L156.13382812499998,26.578440786529935L156.273046875,26.53655563744773L156.34265625,26.504089058758144L156.412265625,26.47885753166886L156.62109375,26.456564934442955L156.7603125,26.41311445807734L156.89953125,26.387517959935273L157.52601562499999,26.313301627575765L157.73484375,26.24572762175517L158.361328125,26.188279387964652L158.77898437500002,26.14230724860155L158.84859375,26.078970156393552L159.26624999999999,26.01027750135851L159.335859375,25.970549970964523L159.40546875,25.896039706186993L159.96234375,25.826010111121665L160.38,25.771584621196666L160.44960937500002,25.721547457815998L161.006484375,25.662675568413167L161.07609375,25.642187031527964L161.284921875,25.609310467867164L161.7721875,25.54820376764716L161.91140625,25.494241834913357L162.18984375,25.423937700374474L162.6075,25.366302626052562L162.88593749999998,25.31989386968345L162.955546875,25.26336418322493L163.16437499999998,25.233795625883875L163.512421875,25.179690568237405L163.79085937500003,25.12374237413738L164.06929687500002,25.07142295338466L164.69578125,25.04044055927957L164.83499999999998,24.972810484411898L164.904609375,24.982267021613037L165.322265625,24.9285460811142L165.391875,24.861469939679278L165.461484375,24.80412717673493L165.600703125,24.749706260922316L165.739921875,24.710344645047222L166.57523437499998,24.638095506096057L167.20171875,24.58227756063896L167.48015625000002,24.556925291132185L167.82820312500002,24.500783263316826L167.8978125,24.46697809022035L168.24585937499998,24.415221190207426L168.31546875,24.34827893111465L168.385078125,24.30896376529171L168.663515625,24.249123595010964L168.733125,24.195499296936877L169.15078125000002,24.14672927446508L169.42921875000002,24.099468344434374L169.49882812500002,24.033812316228772L169.5684375,23.992904753951866L169.70765625,23.939580946328803L170.1253125,23.875224270426056L170.334140625,23.835511587513665L170.473359375,23.808461394626182L170.6821875,23.73019416717372L170.891015625,23.680465263754968L171.09984375000002,23.70834406216665L171.2390625,23.66731630172856L171.726328125,23.602224282633085L171.86554687499998,23.555668369956116L172.700859375,23.522987995124414L172.77046875000002,23.472174342052607L172.84007812500002,23.41373251699758L173.814609375,23.3743556693502L174.093046875,23.32797846159076L174.371484375,23.255181557070838L174.44109375,23.23186447891715L174.649921875,23.191168099442418L174.71953125,23.13576082605646L174.92835937499999,23.079261288189528L175.067578125,23.019741936873938L175.20679687499998,22.961077993435392L175.55484374999997,22.911619462395446L175.763671875,22.866187383107558L175.902890625,22.80937836472372L176.11171875,22.770055231469634L176.320546875,22.745576523918466L176.52937500000002,22.69883451547681L176.66859374999999,22.63886422050146L176.87742187499998,22.60012416444714L177.08625,22.536710100424997L177.155859375,22.483683974684478L177.3646875,22.423228567275633L177.573515625,22.373124684962733L178.20000000000002,22.32319552467824L178.33921875,22.260796243955735L178.687265625,22.229553139402796L179.0353125,22.195895941436046L179.104921875,22.132752109996005L179.17453125,22.117007820457165L179.31375,22.064247704034305L179.383359375,22.011669535947245L179.52257812500002,21.98873065165342L179.661796875,21.935822311675068L179.87062500000002,21.912482095703638L179.940234375,21.853626141916916L180.21867187499998,21.78249694587612L180.56671874999998,21.734037872086933L180.7059375,21.71312201420284L181.19320312500003,21.650017037506395L181.332421875,21.597058278435547L181.40203125,21.557918994187403L181.610859375,21.520770128319025L181.75007812500002,21.470139874218653L182.028515625,21.42400510754158L182.23734374999998,21.40270743523921L182.3765625,21.37901630211127L182.51578125,21.318470282829114L182.585390625,21.27780280987494L182.9334375,21.22683155943705L183.21187500000002,21.16192270734385L183.281484375,21.114998731398625L183.35109375,21.069455363172885L183.62953124999999,21.025286269428438L183.69914062499998,20.9763798492812L183.838359375,20.92763594786144L183.90796874999998,20.869916905288765L184.0471875,20.821515391535765L184.116796875,20.766589093740496L184.18640625,20.7021318944496L184.325625,20.64576947524495L184.395234375,20.621085198245076L184.534453125,20.576519294485244L184.88250000000002,20.52666158550262L184.952109375,20.48179573648354L185.36976562499999,20.434062460755698L185.439375,20.37865683562228L185.508984375,20.31320654909454L185.787421875,20.300240913272237L185.92664062499998,20.260311058659337L186.065859375,20.210919523488652L186.344296875,20.20240620258976L187.040390625,20.15504245625042L187.179609375,20.10603963757711L187.31882812499998,20.050630409935128L187.3884375,20.004341811079186L187.666875,19.967729645020782L187.80609375,19.925882075096606L187.875703125,19.906152131697247L187.9453125,19.880550595254757L188.154140625,19.863330698268136L188.432578125,19.820702131363834L188.711015625,19.765196033706054L188.91984374999998,19.71754842406833L189.6159375,19.675364629798256L189.685546875,19.635083751242927L189.963984375,19.591986029731522L190.103203125,19.54196515789294L190.31203125,19.486225886300304L190.45125000000002,19.444751799111422L190.52085937500001,19.395785340364732L190.66007812499998,19.354002584014555L190.7296875,19.29187126118092L190.799296875,19.240456570705852L190.86890625,19.184532153152087L191.008125,19.143364762982216L191.14734375,19.11980563190905L191.216953125,19.067800772901514L191.495390625,19.028167864093984L191.565,18.972977089619175L191.70421875,18.92027882677585L191.91304687500002,18.87875615328278L192.26109375000001,18.838520315616293L193.09640625,18.785107114136345L193.37484375,18.736481252353133L193.58367187500002,18.756685342501473L193.93171875000002,18.707642546188193L194.07093749999999,18.659326915021808L194.27976562499998,18.616338026453914L194.697421875,18.570032833366785L194.76703125,18.539945874972396L194.90625,18.529451952496704L195.115078125,18.49549874917093L195.32390625,18.451919099563536L195.393515625,18.427913093599894L195.463125,18.377134049471962L196.089609375,18.316238605269852L196.15921875,18.27034909175761L196.228828125,18.24168243881361L196.29843749999998,18.190916785252526L196.43765625,18.153943858122663L196.576875,18.129004821909987L196.785703125,18.072948245917775L197.13375,18.039157042422318L197.27296875000002,17.994713565786387L197.342578125,17.958885320220226L197.4121875,17.909043071963527L197.48179687500001,17.86160755462103L198.038671875,17.8413735044715L198.66515625,17.791351715134162L199.013203125,17.744855111766004L199.570078125,17.714234855675556L199.63968749999998,17.666860835832363L199.848515625,17.624676348740053L200.126953125,17.58149644616917L200.61421875000002,17.54796200414502L200.823046875,17.50054476026492L201.03187499999999,17.48679233341323L201.10148437499998,17.427308722542936L201.17109375,17.383614919156432L201.31031249999998,17.324451051139626L201.8671875,17.30609049911658L202.00640625,17.28611588085276L202.145625,17.245091586259775L202.28484375000002,17.20307773530501L202.98093749999998,17.166176699805998L203.5378125,17.14821542685125L203.607421875,17.112599687943977L203.67703125,17.07542945891866L203.95546875000002,17.03229248699468L204.373125,16.98983283424823L204.93,16.945291731790284L205.34765625,16.90693768602169L205.417265625,16.86594394099716L205.486875,16.81132750986831L205.556484375,16.755770826837455L205.695703125,16.715735944511675L205.834921875,16.68074944576728L206.04375,16.63984034661278L206.600625,16.596860713467912L207.087890625,16.55728397919981L207.366328125,16.513998541881293L207.505546875,16.465381847250427L207.783984375,16.427259854702086L207.85359375000002,16.380534605589272L207.99281249999999,16.35570336061795L208.34085937499998,16.306485000027457L208.5496875,16.25360582355141L208.68890625,16.21389726998009L208.897734375,16.183515680241484L208.96734375,16.150512819432542L209.036953125,16.109488329155642L209.73304687499999,16.066417951729594L209.80265624999998,16.031029662470388L209.941875,15.984950765626726L210.01148437499998,15.939540937137291L210.08109374999998,15.89533611332867L210.150703125,15.855022086163139L210.429140625,15.810520827595681L210.568359375,15.774200731886356L210.7771875,15.739055692385607L210.91640625,15.692750641329L211.055625,15.656216502849425L211.19484375,15.620854754558955L211.821328125,15.57971020749447L212.099765625,15.556308823029438L212.238984375,15.503617983892719L212.378203125,15.452140137987914L212.517421875,15.408264011966114L212.72625,15.368767932435976L212.93507812500002,15.31927657716463L213.35273437499998,15.299146707625011L213.42234374999998,15.27270183437429L213.70078124999998,15.223521891106499L213.909609375,15.186136496593681L214.1184375,15.153619409826904L214.25765625,15.121191747789808L214.60570312500002,15.087267516113888L214.88414062500001,15.053964443224508L215.09296874999998,15.023918502579903L215.162578125,14.988682947916052L215.2321875,14.948276441521314L215.301796875,14.914821806477313L215.510625,14.863580643913942L215.7890625,14.818783397065197L216.20671875,14.794579540161516L216.27632812500002,14.75156093844258L216.48515625,14.72071135660918L216.833203125,14.68942181739761L217.04203124999998,14.648800978089252L217.111640625,14.6098580284768L217.250859375,14.577809204814217L217.390078125,14.555238880003195L217.529296875,14.518653303421258L217.59890625,14.480082659925326L217.807734375,14.433808942438977L217.87734375,14.389739579468625L218.01656250000002,14.353062546476883L218.225390625,14.30713927700406L218.29500000000002,14.266526003266543L218.43421874999999,14.23483194103419L218.851875,14.190276527357554L219.06070312499997,14.14739219987405L219.26953125,14.107724010430008L219.339140625,14.071777219698008L219.617578125,14.036958252802227L220.03523437500002,13.99294929119444L220.94015625,13.950087613211826L221.21859375,13.91403240595611L221.35781250000002,13.872928470900984L221.70585937500002,13.829363206871246L221.9146875,13.789507960758147L222.05390624999998,13.74462639510263L222.33234375,13.708066702510049L222.680390625,13.669041690390614L222.958828125,13.638821449030438L223.237265625,13.598451004876525L223.44609375,13.543876717075948L224.490234375,13.514977758164687L225.186328125,13.477480430348027L225.25593750000002,13.446708825371218L225.32554687500001,13.409904649372075L225.534375,13.37523246192547L225.603984375,13.352856844257799L225.95203125,13.330539454983063L226.3696875,13.286953368479614L226.439296875,13.24906155371355L226.50890625,13.22090040157418L226.578515625,13.190785956631847L226.648125,13.1693542239986L226.71773437500002,13.130781987789321L226.78734375,13.100395158519182L227.34421875,13.060492403914528L228.945234375,13.029774601723998L229.01484375,12.990565079162227L229.08445312499998,12.967073193490533L229.57171875,12.931057273575336L230.33742187500002,12.895133749283522L230.40703125000002,12.85829713893951L230.476640625,12.815528448932962L230.75507812499998,12.777887171424577L231.311953125,12.744854790638007L231.3815625,12.701886180326142L231.590390625,12.6595277093994L231.72960937500002,12.621779353473515L231.79921875,12.576629069021878L231.9384375,12.537087743298502L232.77374999999998,12.491657611354176L232.91296875,12.457813015824856L233.121796875,12.415582541707588L233.261015625,12.383915783246394L233.6090625,12.349343633134442L233.817890625,12.319830632980914L234.02671875000001,12.273997392335431L234.653203125,12.240690374588349L234.7228125,12.202506614129758L235.14046875,12.167888586409383L235.2796875,12.124937303545765L235.349296875,12.083083640441163L235.76695312500001,12.05716069030236L235.97578125,12.019442157418053L236.045390625,11.998607660876644L236.3934375,11.968449720098823L236.53265625,11.954145449827362L236.671875,11.912285200878106L236.880703125,11.87889897834988L236.9503125,11.856419268734241L237.5071875,11.830062508722563L237.85523437499998,11.790016332759121L237.994453125,11.751051239570607L238.0640625,11.71169216161224L238.13367187499998,11.667038714716472L238.412109375,11.63376095931113L238.899375,11.597139332645586L239.1778125,11.549848387087183L239.386640625,11.512448297926602L239.45624999999998,11.480023889802464L239.59546875,11.444263192857909L240.15234375,11.4012756392904L240.500390625,11.37008863795427L241.335703125,11.335569519003332L241.68375,11.321085012311869L241.82296875,11.27648938756783L241.892578125,11.242206311186006L242.10140625000003,11.210920155516304L242.79749999999999,11.171947358915924L243.21515625,11.128221176041018L243.49359375,11.095744650941192L243.841640625,11.05463259610635L243.980859375,11.01265280821399L244.12007812500002,10.97754317580065L244.259296875,10.948799027903567L244.39851562500002,10.899848579886566L244.60734374999998,10.890092354411335L244.676953125,10.855773857030881L244.7465625,10.810940098048274L244.955390625,10.77969351456826L245.025,10.747560103265632L245.094609375,10.71021619282082L245.373046875,10.6734425138241L245.44265625,10.64683804015524L245.512265625,10.607825091962939L245.72109375,10.571302568522055L245.79070312500002,10.531993320853799L245.929921875,10.497565157633014L245.99953125,10.474221719217422L246.27796874999999,10.447587794478434L246.4171875,10.411463395487646L246.48679687499998,10.388314132245823L246.55640624999998,10.347569451949441L246.83484374999998,10.315502545015182L246.9740625,10.29208678082464L247.11328125,10.250636422767018L247.322109375,10.21594462392705L247.94859375,10.177531816870848L248.15742187499998,10.1425355117719L248.296640625,10.112369540441886L248.435859375,10.080851549360675L248.575078125,10.059364239374297L248.714296875,10.02560913383974L249.34078125,9.986725453702077L249.61921875,9.960708206992706L249.7584375,9.94704555117259L249.967265625,9.93152498010976L250.524140625,9.89479242815762L250.80257812500003,9.85956162142529L251.08101562500002,9.826771134517458L251.49867187499999,9.794528609486832L251.7075,9.762361470243695L251.9859375,9.734504942645446L252.12515625,9.700129335880797L252.40359375,9.668653708525301L252.473203125,9.637251393929471L252.96046875,9.595596370654361L253.16929687500001,9.569985672277024L253.23890624999999,9.538809632448476L253.58695312499998,9.507237523799688L253.6565625,9.475738605275861L253.726171875,9.439634568286797L253.86539062499997,9.402679100555165L254.07421875,9.374685689096934L254.422265625,9.344422519002384L254.63109375,9.31889493988286L254.700703125,9.281769311051937L254.83992187500002,9.257310444577785L255.25757812499998,9.230113826582414L255.953671875,9.207168044252459L256.4409375,9.187065359788978L256.649765625,9.158178266705672L256.719375,9.125177253388246L257.206640625,9.099214251397065L257.27625,9.077021552604187L257.34585937500003,9.060905952936176L257.41546875,9.036025038837924L257.76351562499997,9.003330432593234L257.97234375,8.969784987227564L258.738046875,8.93585357754176L259.573359375,8.919096451284387L259.64296875,8.88621478631352L259.712578125,8.85063886424233L259.851796875,8.816527236722468L259.991015625,8.77972751614892L260.3390625,8.759132807126477L260.547890625,8.721552553863148L260.6175,8.70107867265102L260.75671875,8.661341634595741L260.826328125,8.641450984656574L261.31359375,8.613340125657166L261.4528125,8.580703760615904L261.59203125,8.55822993520819L262.14890625,8.526640501671004L262.218515625,8.500160285676834L262.5665625,8.464584734207463L262.636171875,8.430918771110125L263.053828125,8.410586142072614L263.193046875,8.373394264792505L263.332265625,8.355006333357421L263.471484375,8.34715486125244L263.749921875,8.34433735436022L263.95875,8.324207262370265L264.2371875,8.307765902533674L264.65484375,8.2895403584911L264.863671875,8.264986464646036L264.93328125,8.234576775285962L265.002890625,8.202871514170853L265.420546875,8.16805798133049L265.9078125,8.132867824335667L265.977421875,8.112268752242306L266.255859375,8.079930454170276L266.395078125,8.058082358090477L266.46468749999997,8.027681011219203L266.534296875,8.00458575666792L266.812734375,7.975663255526586L267.16078125,7.953582920605178L267.64804687500003,7.9180024953556485L267.92648437500003,7.8924300426718395L268.204921875,7.868267033570377L268.27453125,7.840099799482179L268.483359375,7.810192190887734L268.761796875,7.77224516414806L268.901015625,7.734831273282722L269.318671875,7.703345802274974L269.5275,7.693503798203528L269.66671875000003,7.667511919208553L269.80593749999997,7.634393708420833L269.94515625,7.603142397544284L270.153984375,7.573304403260126L270.293203125,7.542186909735264L270.50203125,7.516511706818505L270.571640625,7.481939883186669L270.78046875,7.447890459312393L270.9196875,7.415256188591126L271.33734375,7.3871610016795755L271.685390625,7.349302031791809L271.755,7.322236526369698" style="fill: none;" fill="none"></path></g><g><path stroke="rgb(255, 112, 67)" stroke-width="2px" d="M37.310625,178.27169510988452L37.380234375,176.84720064098875L37.44984375,176.10784695562367L37.519453125000005,174.7508404537537L37.589062500000004,173.2283217489831L37.658671875,171.60686480308786L37.72828125,170.24178350145363L37.797890625,169.13534254434558L37.8675,167.8216727329511L37.937109375000006,166.0820270121734L38.006718750000005,165.2396648053354L38.076328125,164.0532357191998L38.1459375,163.09220191530915L38.215546875,162.4125277782613L38.28515625,161.01067687744754L38.354765625000006,159.65162180025467L38.424375000000005,158.42036393867988L38.493984375000004,157.06301289364035L38.56359375,156.83555805268065L38.633203125,155.65287797843087L38.7028125,154.5269790755437L38.772421875000006,153.2196650634875L38.842031250000005,152.1880726499496L38.911640625000004,151.07462982972424L38.98125,149.66881110598166L39.050859375,148.92300824577737L39.12046875,148.002236704118L39.190078125,146.94645301318067L39.2596875,146.27725215585082L39.329296875,145.0144607637834L39.398906249999996,143.98959823711652L39.468515624999995,143.2995312098022L39.538124999999994,142.85792814327723L39.607734375,142.57497625535737L39.67734375,141.32050254804867L39.746953125,140.33639120631383L39.816562499999996,139.68376505582114L39.886171874999995,138.76405852046352L39.955781249999994,138.15386129604403L40.025390625,137.3400355082425L40.095,136.8594588016292L40.164609375,135.9513883094203L40.23421875,135.2557026089317L40.303828124999995,134.61410608831955L40.373437499999994,133.99923537345012L40.443046875,133.3169641479046L40.51265625,132.72197112035963L40.582265625,132.0746333796877L40.651875,131.1621528442135L40.721484374999996,130.41124680689387L40.791093749999995,129.8130246402881L40.860703125,129.2685886820803L40.9303125,128.62045851586035L40.999921875,127.98018593695573L41.06953125,127.43182349584403L41.139140624999996,126.85367046026565L41.208749999999995,126.25302076365719L41.278359375,125.84751278341498L41.34796875,125.19843939830324L41.417578125,124.64610023159574L41.4871875,123.9312354632193L41.556796874999996,123.3971607474481L41.626406249999995,122.66440345599138L41.696015625,122.02337991607997L41.765625,121.45378462442712L41.835234375,120.71210966580492L41.90484375,120.160652016727L41.974453125,119.4855899892897L42.044062499999995,119.1799666297658L42.113671875,118.75671281266864L42.18328125,118.23574721001407L42.252890625,117.6886187537613L42.3225,117.23621293344733L42.392109375,116.75683795868356L42.461718749999996,116.48210274696507L42.531328125,116.1803321941174L42.6009375,115.75455234491561L42.670546875,115.32839603039865L42.74015625,114.91485231538577L42.809765625,114.39770299468896L42.879374999999996,114.132097456655L42.948984375,113.71894295741599L43.01859375,113.27251289549393L43.088203125,113.06801245370056L43.1578125,112.63423963810833L43.227421875,112.46546493873552L43.297031249999996,112.30187505964288L43.366640625,111.89421538352028L43.43625,111.46427985572063L43.505859375,111.02688135605737L43.57546875,110.53725313189439L43.645078125,110.01302607635783L43.714687500000004,109.74865236399668L43.784296875,109.44438737709662L43.85390625,109.0413930745599L43.923515625,108.5601140361185L43.993125,108.23330920104335L44.062734375,108.10707151483248L44.132343750000004,107.87549138956248L44.201953125,107.5519345857416L44.2715625,107.16480929650933L44.341171875,106.76142018021058L44.41078125,106.24864249277267L44.480390625,106.05196038848733L44.550000000000004,105.79801586568988L44.619609375,105.35801102154349L44.68921875,104.88606524647317L44.758828125,104.51322950081709L44.8284375,104.25630415378936L44.898046875,104.10257617994337L44.967656250000005,103.64143733448061L45.037265625,103.28701243224553L45.106875,103.08814071498911L45.176484375,102.66511787534729L45.24609375,102.27186021185318L45.315703125,101.98980647393542L45.385312500000005,101.61402167426186L45.454921875000004,101.32217935154148L45.52453125,101.00071315739483L45.594140625,100.83570167269656L45.66375,100.47089171555231L45.733359375,100.17247041718448L45.802968750000005,99.875891828669L45.872578125000004,99.66315481984768L45.9421875,99.44358174912111L46.011796875,99.09281518760633L46.08140625,98.66947040989655L46.151015625,98.35573256995215L46.220625000000005,98.10144032644642L46.290234375000004,97.8022697164783L46.35984375,97.44249856608818L46.429453125,97.1399167039301L46.4990625,96.92255879797851L46.568671875,96.68430800983937L46.638281250000006,96.44885045547746L46.707890625000005,96.20542697677308L46.7775,95.91510751220918L46.847109375,95.79239572447386L46.91671875,95.54985532750577L46.986328125,95.27162460341263L47.055937500000006,94.99306801031288L47.125546875000005,94.83182459964688L47.195156250000004,94.59493810067221L47.264765625,94.35041659529155L47.334375,94.0523809598223" style="fill: none;" fill="none"></path></g></g></g></g><g opacity="0.2"><g><g><g><path stroke="rgb(0, 119, 187)" stroke-width="2px" d="M35.570390625,191.16676865305217L35.848828125000004,167.74360953058513L36.05765625,176.4920194489615L36.4753125,160.12405197960987L37.310625,125.69483848980494L37.589062500000004,100.86065912246703L37.72828125,96.62753810201372L37.8675,100.01403491837637L37.937109375000006,85.33928571428571L38.076328125,96.90976626532418L38.493984375000004,99.73183689798624L38.56359375,101.14285714285714L38.633203125,76.59087579590933L38.7028125,98.8852126938956L39.329296875,115.8176063469478L39.746953125,98.32078651019503L39.816562499999996,76.59087579590933L39.886171874999995,77.43749999999999L39.955781249999994,65.58482142857142L40.303828124999995,69.53571428571428L40.860703125,76.59087579590933L41.34796875,78.00192618370055L41.90484375,75.74425159181867L42.113671875,70.66453651019503L42.18328125,75.46205357142856L42.670546875,89.00798055103846L43.01859375,81.10619483675275L43.57546875,59.094055959156556L43.784296875,64.73819722448076L43.85390625,69.25351626532417L44.480390625,48.37022975512911L44.619609375,74.897627387728L44.68921875,54.01434087753294L44.758828125,55.143163102013716L45.24609375,64.45599920409065L45.594140625,63.89157302039008L45.733359375,75.74425159181867L45.802968750000005,30.873409918376364L46.08140625,65.02039524487085L46.429453125,47.80580357142855L46.4990625,71.2289626938956L46.707890625000005,35.67092697960988L47.125546875000005,37.92857142857141L47.195156250000004,49.78124999999998L47.334375,73.20440912246703L47.543203125000005,52.32112261227197L47.682421875,36.79974920409064L47.75203125,55.70758928571428L47.89125,60.22290832655768L48.03046875,37.92857142857141L48.100078124999996,40.18621587753294L48.587343749999995,43.00828651019503L49.14421875,73.76880516324724L49.213828125,44.1371087346758L49.2834375,52.885518653052166L49.561875,54.01434087753294L50.327578124999995,31.437805959156556L50.466796875,44.41933689798625L50.745234374999995,51.75669642857141L50.9540625,73.48660714285712L51.09328125,55.70758928571428L51.302109375,42.72608848980493L52.137421875,29.180161510195028L52.555078125,45.54815912246702L52.76390625,57.68303571428569L52.903125,46.95917936733789L52.972734375,36.79974920409064L53.111953125,54.01434087753294L53.390390625,63.04494881629942L53.668828125000005,54.5787670612335L53.808046875,40.7506420612335L54.156093750000004,47.24137738772799L55.130625,70.10014046941484L55.478671875,61.06950238772799L55.54828125,30.59121189798625L55.826718750000005,34.54210475512911L55.896328125000004,58.52965991837636L56.174765625000006,54.5787670612335L56.244375000000005,58.81185793876646L56.38359375,46.6769813469478L56.592421875,32.28443016324724L56.940468749999994,37.08194722448076L57.010078125,33.41325238772799L57.427734375,31.155607938766458L57.49734375,64.17380118370055L57.566953125,31.437805959156556L57.775781249999994,50.06344802039008L58.402265625,26.640319040843405L58.959140624999996,37.08194722448076L59.864062499999996,46.39478332655768L60.072890625,41.87946428571428L60.351328125,55.42539126532416L60.768984375,41.87946428571428L61.047421875,48.93462579590932L61.117031250000004,32.28443016324724L61.186640625,48.93462579590932L61.67390625,50.06344802039008L62.021953125,39.057393653052166L62.0915625,35.38869881629942L63.205312500000005,35.38869881629942L63.692578125000004,51.19227024487085L64.110234375,29.462359530585125L64.17984375,24.100446428571413L64.3190625,33.41325238772799L64.73671875000001,54.01434087753294L65.363203125,33.13105436733789L65.502421875,48.088001591818646L65.57203125,52.60332063266207L65.78085937499999,26.075892857142843L66.198515625,28.615765469414836L66.825,46.6769813469478L67.033828125,44.41933689798625L67.1034375,45.54815912246702L67.729921875,22.12499999999998L67.79953125,37.08194722448076L68.565234375,29.74458769389559L68.7740625,35.95312499999998L68.843671875,28.333537306104372L68.982890625,42.44389046941484L69.122109375,39.057393653052166L70.09664062499999,36.79974920409064L70.4446875,31.155607938766458L70.58390625,33.69548055103845L70.792734375,39.057393653052166L71.349609375,24.94707063266207L71.767265625,31.72003412246702L71.90648437499999,19.585127387727987L72.1153125,26.358090877532938L72.184921875,58.81185793876646L72.39375,28.615765469414836L72.53296875000001,17.89190912246702L72.88101562499999,38.21076944896151L72.950625,59.094055959156556L73.57710937499999,40.4684440408434L73.71632812499999,28.615765469414836L73.994765625,62.48055277551921L74.064375,20.149553571428548L74.41242187499999,39.62181983675273L74.690859375,33.41325238772799L74.76046875,31.155607938766458L75.108515625,31.155607938766458L75.247734375,29.74458769389559L75.31734375,48.65242777551921L75.38695312499999,46.39478332655768L75.4565625,29.462359530585125L75.59578125,26.9225170612335L75.665390625,38.49299761227197L76.01343750000001,23.53602024487085L76.083046875,20.71397975512911L76.5703125,30.59121189798625L76.70953125000001,33.13105436733789L77.1271875,23.818248408181315L77.26640625,25.511466673442282L77.614453125,18.174107142857117L77.9625,14.50541230610437L78.10171875,16.198660714285687L78.93703124999999,11.683341673442282L79.424296875,28.897963489804933L79.49390625,15.069838489804932L79.63312499999999,34.54210475512911L79.702734375,19.585127387727987L79.77234374999999,20.996177775519207L79.841953125,35.38869881629942L79.981171875,10.554519448961507L80.19,41.315038102013716L80.4684375,22.407198020390076L80.816484375,26.358090877532938L81.0253125,41.315038102013716L81.30375,35.10650079590932L81.512578125,14.50541230610437L81.58218749999999,19.867355551038454L81.72140625,24.100446428571413L81.791015625,27.204715081623597L81.99984375,37.36414524487085L82.06945312500001,33.13105436733789L82.27828124999999,37.92857142857141L82.347890625,8.014676979609884L82.6959375,23.818248408181315L82.765546875,23.818248408181315L83.25281249999999,17.327482938766458L83.461640625,28.051339285714274L83.74007812500001,22.68942618370054L83.94890625,20.996177775519207L84.08812499999999,17.89190912246702L84.22734375,13.376590081623597L84.50578125,26.075892857142843L84.78421875,32.28443016324724L84.993046875,20.431751591818646L85.06265625,22.12499999999998L85.132265625,15.352036510195028L85.201875,39.90401785714284L85.61953125,17.89190912246702L86.0371875,26.358090877532938L86.17640625,20.71397975512911L86.24601562500001,13.376590081623597L86.52445312500001,32.28443016324724L86.73328125,24.94707063266207L86.802890625,30.59121189798625L87.01171875,28.051339285714274L87.081328125,24.94707063266207L87.1509375,27.486913102013713L87.29015625,28.051339285714274L87.42937500000001,25.511466673442282L87.84703125,18.174107142857117L88.055859375,12.247767857142843L88.12546875,36.51755118370054L88.33429687499999,22.12499999999998L88.40390625,11.683341673442282L88.47351562499999,18.174107142857117L88.61273437499999,21.842801979609884L88.68234375,22.68942618370054L89.10000000000001,36.51755118370054L89.3784375,29.180161510195028L89.44804687499999,25.229268653052166L89.587265625,26.358090877532938L89.726484375,24.100446428571413L89.865703125,6.039230551038453L89.93531250000001,43.290484530585125L90.004921875,19.020731346947777L90.07453125,12.812194040843405L90.14414062499999,31.437805959156556L90.35296875,26.358090877532938L90.63140625,25.229268653052166L90.840234375,42.44389046941484L90.97945312499999,12.52996587753294L91.0490625,20.996177775519207L91.11867187499999,33.69548055103845L91.536328125,28.051339285714274L91.60593750000001,41.59726626532416L91.74515625000001,30.026785714285687L91.95398437499999,25.229268653052166L92.232421875,26.9225170612335L92.44125000000001,16.198660714285687L92.650078125,33.41325238772799L92.7196875,17.045284918376364L92.85890625,21.560573816299417L92.998125,22.971624204090638L93.13734375,14.50541230610437L93.485390625,12.52996587753294L93.69421875,30.308983734675802L95.156015625,12.247767857142843L95.29523437499999,11.965569836752728L95.36484375,26.9225170612335L95.64328125,33.13105436733789L95.7825,16.198660714285687L96.0609375,10.836747612271973L96.20015624999999,26.640319040843405L96.33937499999999,22.971624204090638L96.548203125,15.634234530585125L96.687421875,18.174107142857117L96.75703125,40.7506420612335L97.17468749999999,20.71397975512911L97.453125,27.486913102013713L97.940390625,32.28443016324724L98.00999999999999,23.253822224480754L98.079609375,9.990123408181296L98.14921874999999,39.33959167344228L98.497265625,13.941016265324158L98.63648437500001,15.069838489804932L98.84531249999999,14.223214285714255L98.914921875,24.664872612271974L98.98453124999999,2.652733734675802L99.054140625,15.352036510195028L99.61101562500001,32.00223214285712L99.68062499999999,39.33959167344228L99.889453125,21.560573816299417L100.37671875,12.247767857142843L100.585546875,34.259876591818646L101.14242187500001,43.290484530585125L101.21203125,14.50541230610437L101.35125,47.80580357142855L101.420859375,25.793694836752728L101.49046874999999,24.100446428571413L101.699296875,63.04494881629942L101.76890625,30.026785714285687L102.04734375,14.787640469414816L102.395390625,24.94707063266207L102.465,43.290484530585125L102.7434375,12.812194040843405L102.81304687500001,10.836747612271973L102.88265625,13.658788102013693L102.95226562500001,43.00828651019503L103.16109374999999,16.198660714285687L103.230703125,16.198660714285687L103.3003125,17.89190912246702L103.509140625,19.867355551038454L103.57875,9.990123408181296L104.135625,4.6281801632472135L104.4140625,34.259876591818646L104.55328125,11.118945632662069L104.6925,19.020731346947777L104.762109375,38.21076944896151L104.9709375,31.155607938766458L105.249375,37.08194722448076L105.318984375,10.272321428571411L105.38859375,31.155607938766458L105.597421875,37.64637340818132L106.154296875,54.8609650816236L106.293515625,47.24137738772799L106.571953125,37.64637340818132L106.6415625,32.8488563469478L106.85039062499999,17.045284918376364L106.989609375,26.640319040843405L107.128828125,15.916462693895589L107.476875,11.118945632662069L108.242578125,16.198660714285687L108.38179687499999,0.9595154694148164L108.799453125,19.585127387727987L108.8690625,19.585127387727987L109.00828125000001,18.73853332655768L109.14750000000001,17.89190912246702L109.4259375,18.73853332655768L109.704375,33.41325238772799L109.84359375000001,27.76914126532416L110.19164062499999,35.67092697960988L110.26125,14.787640469414816L110.330859375,17.609680959156556L110.81812500000001,26.358090877532938L110.887734375,26.640319040843405L111.305390625,17.327482938766458L111.583828125,29.180161510195028L111.65343750000001,17.609680959156556L111.723046875,24.100446428571413L112.34953125000001,23.53602024487085L112.48875000000001,37.64637340818132L112.69757812499999,21.560573816299417L113.115234375,16.480858734675802L113.18484375,28.897963489804933L113.672109375,41.315038102013716L113.811328125,23.53602024487085L114.785859375,24.382644448961507L114.9946875,22.68942618370054L115.20351562500001,9.143499204090638L115.273125,16.198660714285687L115.342734375,14.50541230610437L115.55156249999999,7.732448816299419L115.621171875,15.634234530585125L115.69078125,1.2417134898049322L116.94375,6.321428571428549L117.152578125,10.272321428571411L117.291796875,4.6281801632472135L117.36140625,24.664872612271974L117.7790625,3.49935793876646L117.84867187500001,18.174107142857117L117.987890625,19.302929367337892L118.127109375,18.73853332655768L118.266328125,21.278375795909323L118.405546875,12.52996587753294L118.614375,12.812194040843405L118.75359375,3.781555959156556L118.89281249999999,1.8061095305851247L119.03203125,21.278375795909323L119.31046875,22.407198020390076L120.0065625,11.118945632662069L120.285,13.094392061233501L120.56343749999999,19.020731346947777L120.633046875,11.118945632662069L120.70265625,7.1680527755192065L120.841875,9.143499204090638L121.05070312500001,10.836747612271973L121.25953125,18.73853332655768L121.39874999999999,41.87946428571428L121.607578125,12.52996587753294L122.025234375,33.69548055103845L122.164453125,20.71397975512911L122.30367187499999,15.634234530585125L122.37328125,24.664872612271974L122.58210937499999,25.793694836752728L122.65171875,24.382644448961507L122.721328125,14.50541230610437L122.93015625,19.302929367337892L123.48703125,4.3459821428571175L123.835078125,10.836747612271973L123.974296875,19.302929367337892L124.391953125,9.70789524487085L124.670390625,15.634234530585125L124.74000000000001,23.818248408181315L124.809609375,12.247767857142843L124.87921875,8.579073020390076L125.296875,23.253822224480754L125.505703125,11.118945632662069L125.99296875,16.198660714285687L126.1321875,10.554519448961507L126.341015625,2.370535714285686L126.41062500000001,29.462359530585125L126.61945312499999,16.480858734675802L127.037109375,6.039230551038453L127.176328125,7.1680527755192065L127.38515625000001,19.867355551038454L127.59398437499999,24.382644448961507L127.66359375,30.59121189798625L127.733203125,8.014676979609884L127.8028125,15.069838489804932L127.872421875,-0.7337329387665188L128.290078125,12.247767857142843L129.125390625,17.89190912246702L129.543046875,17.609680959156556L129.89109375,38.77519563266207L130.16953125,9.990123408181296L130.656796875,6.321428571428549L130.796015625,13.376590081623597L131.1440625,18.73853332655768L131.213671875,5.474804367337891L131.42249999999999,12.812194040843405L131.492109375,10.272321428571411L131.631328125,5.7570023877279874L131.70093749999998,10.554519448961507L131.909765625,31.155607938766458L133.093125,7.450250795909323L133.162734375,5.192606346947775L133.23234374999998,17.045284918376364L133.580390625,5.192606346947775L133.78921875,3.49935793876646L134.06765625,16.480858734675802L134.137265625,-0.16933689798628704L134.206875,20.71397975512911L134.4853125,1.5239115101950285L134.554921875,36.79974920409064L134.62453125,15.634234530585125L134.76375,4.3459821428571175L135.04218749999998,2.9349618979862475L135.18140625,11.683341673442282L136.086328125,30.026785714285687L136.1559375,6.8858547551291105L136.782421875,11.683341673442282L136.85203125,10.836747612271973L137.617734375,0.9595154694148164L138.17460937500002,3.781555959156556L138.24421875,6.039230551038453L138.453046875,2.08833769389559L138.592265625,14.223214285714255L138.661875,20.431751591818646L139.21875,25.229268653052166L139.288359375,1.5239115101950285L139.35796875,1.8061095305851247L139.63640625,1.2417134898049322L139.775625,11.683341673442282L139.91484375,14.787640469414816L140.47171874999998,8.861301183700542L140.819765625,6.321428571428549L140.889375,10.836747612271973L141.098203125,6.321428571428549L141.58546875,9.70789524487085L141.72468750000002,11.683341673442282L142.42078124999998,4.6281801632472135L142.768828125,-2.9913773877280265L142.8384375,2.9349618979862475L142.97765625,16.76308689798625L143.04726562500002,34.259876591818646L143.464921875,10.554519448961507L143.9521875,30.026785714285687L144.021796875,1.8061095305851247L144.64828125,0.9595154694148164L144.92671875,12.52996587753294L145.06593750000002,14.223214285714255L145.344375,5.474804367337891L145.970859375,7.732448816299419L146.110078125,9.990123408181296L146.31890625,10.554519448961507L146.458125,0.9595154694148164L146.527734375,2.370535714285686L146.87578125,-2.144783326557738L147.43265624999998,0.9595154694148164L147.571875,8.579073020390076L148.059140625,2.08833769389559L148.12875,-1.2981591224670803L148.40718750000002,2.9349618979862475L148.75523437500001,6.603626591818645L148.9640625,23.818248408181315L149.10328124999998,6.321428571428549L149.312109375,6.039230551038453L149.5209375,4.3459821428571175L149.799375,-0.16933689798628704L150.286640625,11.965569836752728L150.35625000000002,1.8061095305851247L150.913125,15.352036510195028L151.05234375,2.652733734675802L151.1915625,4.6281801632472135L151.400390625,13.941016265324158L151.47,5.192606346947775L151.88765625,-4.6846257959093425L151.957265625,4.0637841224670215L152.51414062499998,1.8061095305851247L152.72296875,8.579073020390076L152.79257812499998,9.425697224480734L152.8621875,24.100446428571413L152.931796875,7.732448816299419L153.071015625,3.49935793876646L153.27984375,11.401143653052166L153.76710937500002,26.9225170612335L153.83671875,3.2171599183763635L154.18476562499998,10.272321428571411L154.323984375,8.861301183700542L154.39359375,2.9349618979862475L154.46320312499998,13.658788102013693L155.08968750000003,1.8061095305851247L155.36812500000002,-0.16933689798628704L155.50734375,0.6772873061043707L155.576953125,19.302929367337892L155.71617187500001,9.70789524487085L156.06421875,5.474804367337891L156.13382812499998,0.39508928571425483L156.273046875,9.990123408181296L156.34265625,13.658788102013693L156.412265625,16.480858734675802L156.62109375,17.609680959156556L156.7603125,9.143499204090638L156.89953125,16.198660714285687L157.52601562499999,-3.273605551038492L157.73484375,-0.7337329387665188L158.361328125,3.2171599183763635L158.77898437500002,7.732448816299419L158.84859375,0.6772873061043707L159.26624999999999,-1.5803571428571765L159.335859375,9.990123408181296L159.40546875,-4.12022975512915L159.96234375,-2.4269813469478345L160.38,3.781555959156556L160.44960937500002,5.474804367337891L161.006484375,1.8061095305851247L161.07609375,17.327482938766458L161.284921875,12.247767857142843L161.7721875,0.6772873061043707L161.91140625,3.49935793876646L162.18984375,-3.273605551038492L162.6075,1.8061095305851247L162.88593749999998,6.321428571428549L162.955546875,2.08833769389559L163.16437499999998,13.094392061233501L163.512421875,2.9349618979862475L163.79085937500003,2.08833769389559L164.06929687500002,3.49935793876646L164.69578125,12.247767857142843L164.83499999999998,-2.9913773877280265L164.904609375,28.897963489804933L165.322265625,2.652733734675802L165.391875,-2.9913773877280265L165.461484375,0.9595154694148164L165.600703125,2.08833769389559L165.739921875,8.29687499999998L166.57523437499998,-5.531250000000039L167.20171875,1.2417134898049322L167.48015625000002,13.941016265324158L167.82820312500002,0.9595154694148164L167.8978125,10.272321428571411L168.24585937499998,2.652733734675802L168.31546875,-3.8380015918186845L168.385078125,7.732448816299419L168.663515625,-1.015930959156615L168.733125,1.5239115101950285L169.15078125000002,3.49935793876646L169.42921875000002,4.0637841224670215L169.49882812500002,-3.8380015918186845L169.5684375,6.603626591818645L169.70765625,1.2417134898049322L170.1253125,-3.555803571428588L170.334140625,6.8858547551291105L170.473359375,12.247767857142843L170.6821875,-9.764340877532998L170.891015625,2.370535714285686L171.09984375000002,35.67092697960988L171.2390625,6.039230551038453L171.726328125,-4.4024277755192465L171.86554687499998,3.49935793876646L172.700859375,9.425697224480734L172.77046875000002,1.5239115101950285L172.84007812500002,-1.8625551632472728L173.814609375,6.321428571428549L174.093046875,3.2171599183763635L174.371484375,-8.35332063266211L174.44109375,13.094392061233501L174.649921875,5.474804367337891L174.71953125,-1.015930959156615L175.20679687499998,-2.7091793673379305L175.55484374999997,1.2417134898049322L175.763671875,2.9349618979862475L175.902890625,-2.144783326557738L176.11171875,5.474804367337891L176.320546875,11.965569836752728L176.52937500000002,2.08833769389559L176.66859374999999,-3.8380015918186845L176.87742187499998,5.474804367337891L177.08625,-5.531250000000039L177.3646875,-4.4024277755192465L177.573515625,0.11289126532415861L178.20000000000002,0.11289126532415861L178.33921875,-5.531250000000039L178.687265625,8.29687499999998L179.0353125,7.1680527755192065L179.104921875,-6.095676183700601L179.17453125,15.069838489804932L179.31375,-1.5803571428571765L179.383359375,-1.5803571428571765L179.52257812500002,11.683341673442282L179.661796875,-1.8625551632472728L179.87062500000002,11.401143653052166L179.940234375,-4.6846257959093425L180.56671874999998,-0.16933689798628704L180.7059375,12.247767857142843L181.19320312500003,-6.9422702448708895L181.332421875,-2.4269813469478345L181.40203125,3.781555959156556L181.610859375,4.6281801632472135L181.75007812500002,-1.5803571428571765L182.028515625,0.39508928571425483L182.23734374999998,11.683341673442282L182.3765625,10.554519448961507L182.51578125,-6.377874204090697L182.585390625,2.652733734675802L182.9334375,-2.144783326557738L183.281484375,-0.45153491837638327L183.35109375,0.11289126532415861L183.62953124999999,0.6772873061043707L183.69914062499998,-1.5803571428571765L184.325625,-5.531250000000039L184.395234375,9.143499204090638L184.534453125,-0.16933689798628704L185.508984375,-10.32876706123356L185.787421875,14.223214285714255L185.92664062499998,1.5239115101950285L186.065859375,-2.9913773877280265L186.344296875,16.198660714285687L187.040390625,-2.144783326557738L187.3884375,-1.8625551632472728L187.666875,2.652733734675802L187.80609375,0.11289126532415861L187.875703125,10.554519448961507L187.9453125,7.732448816299419L188.154140625,11.683341673442282L188.432578125,-0.45153491837638327L189.6159375,-0.45153491837638327L189.685546875,0.39508928571425483L189.963984375,-1.015930959156615L191.008125,-0.7337329387665188L191.14734375,7.732448816299419L191.216953125,-6.095676183700601L193.37484375,-4.966823816299478L193.58367187500002,28.615765469414836L193.93171875000002,-5.249051979609904L194.697421875,-4.12022975512915L194.76703125,3.781555959156556L194.90625,13.376590081623597L195.115078125,1.8061095305851247L195.32390625,-2.9913773877280265L195.393515625,6.603626591818645L195.463125,-6.6600722244807935L196.15921875,-4.4024277755192465L196.228828125,4.0637841224670215L196.29843749999998,-6.9422702448708895L196.43765625,-0.16933689798628704L196.576875,5.7570023877279874L196.785703125,-9.764340877532998L197.13375,1.2417134898049322L197.27296875000002,-4.12022975512915L197.342578125,0.11289126532415861L197.4121875,-6.9422702448708895L197.48179687500001,-5.813448020390135L198.038671875,7.732448816299419L198.66515625,-7.224498408181355L199.013203125,-5.531250000000039L199.570078125,2.370535714285686L199.63968749999998,-6.095676183700601L200.126953125,-4.12022975512915L200.61421875000002,0.6772873061043707L200.823046875,-6.377874204090697L201.03187499999999,10.554519448961507L201.10148437499998,-12.586411510195068L201.31031249999998,-12.586411510195068L201.8671875,8.014676979609884L202.00640625,7.1680527755192065L202.145625,-3.555803571428588L202.98093749999998,-1.5803571428571765L203.5378125,8.014676979609884L203.607421875,-1.015930959156615L207.85359375000002,-7.788894448961547L207.99281249999999,3.49935793876646L208.34085937499998,-9.199944836752767L208.68890625,-4.4024277755192465L208.897734375,0.39508928571425483L208.96734375,-1.015930959156615L211.821328125,-6.095676183700601L212.099765625,3.2171599183763635L212.238984375,-12.304213489804972L212.93507812500002,-10.893163102013752L213.35273437499998,4.6281801632472135L213.42234374999998,1.2417134898049322L213.70078124999998,-10.893163102013752L215.7890625,-9.199944836752767L216.20671875,1.8061095305851247L216.27632812500002,-8.35332063266211L217.250859375,-2.7091793673379305L217.390078125,2.370535714285686L217.529296875,-5.249051979609904L225.534375,-5.813448020390135L225.603984375,0.9595154694148164L225.95203125,0.9595154694148164L226.3696875,-10.893163102013752L226.578515625,-3.555803571428588L226.648125,1.2417134898049322L226.71773437500002,-8.35332063266211L235.97578125,-9.482142857142863L236.045390625,0.11289126532415861L236.3934375,-5.249051979609904L236.53265625,3.781555959156556L236.671875,-12.022015469414875L241.335703125,-8.635518653052205L241.68375,2.9349618979862475L241.82296875,-14.561857938766519L244.39851562500002,-17.666126591818685L244.60734374999998,5.192606346947775L244.676953125,-9.199944836752767L249.61921875,-5.531250000000039L249.7584375,1.8061095305851247L249.967265625,0.6772873061043707L250.524140625,-12.022015469414875L263.332265625,-2.9913773877280265L263.471484375,3.49935793876646L263.749921875,6.603626591818645L263.95875,-4.12022975512915L269.318671875,-12.022015469414875L269.5275,1.5239115101950285L269.66671875000003,-8.635518653052205" style="fill: none;" fill="none"></path></g><g><path stroke="rgb(255, 112, 67)" stroke-width="2px" d="M35.50078125,199.63298055103846L35.570390625,170.001284122467L35.64,192.86001706123352L35.709609375,174.23437499999997L35.77921875,158.43080357142856L35.848828125000004,184.9582313469478L35.9184375,167.74360953058513L35.988046875,179.03189206123352L36.05765625,164.9215690408434L36.127265625,179.87851626532418L36.196875,181.28953651019503L36.266484375000005,172.25892857142856L36.33609375,159.8418238162994L36.405703125,136.41869483675274L36.4753125,136.41869483675274L36.544921875,133.31442618370053L36.61453125,165.76816310201372L36.684140625000005,149.11799761227198L36.753750000000004,154.1977126938956L36.823359375,129.08130516324724L36.89296875,149.68239365305217L36.962578125,146.29592697960987L37.0321875,153.91548453058513L37.101796875000005,111.30228730610438L37.171406250000004,111.86671348980494L37.241015625,128.23468095915658L37.310625,111.58451546941484L37.380234375,125.13041230610438L37.44984375,148.55357142857142L37.519453125000005,122.87276785714285L37.589062500000004,113.55996189798624L37.658671875,106.50477024487085L37.72828125,114.12435793876647L37.797890625,122.59056983675272L37.8675,111.30228730610438L37.937109375000006,89.57237659181864L38.006718750000005,127.38808689798624L38.076328125,109.60906904084341L38.1459375,118.07525079590933L38.215546875,129.9279293673379L38.28515625,92.67664524487085L38.354765625000006,92.11224920409066L38.424375000000005,96.0631420612335L38.493984375000004,87.03253412246703L38.56359375,144.88487659181865L38.633203125,92.39444722448076L38.7028125,93.24107142857142L38.772421875000006,80.82396667344229L38.842031250000005,94.08769563266208L38.911640625000004,87.31473214285712L38.98125,67.84246587753294L39.050859375,104.81155197960989L39.12046875,92.67664524487085L39.190078125,82.5172150816236L39.2596875,104.81155197960989L39.329296875,65.58482142857142L39.398906249999996,78.56632222448076L39.468515624999995,98.60298453058512L39.538124999999994,113.84215991837637L39.607734375,123.71939206123352L39.67734375,56.55421348980493L39.746953125,72.92218095915656L39.816562499999996,94.36989365305216L39.886171874999995,74.05103332655769L39.955781249999994,94.65209167344229L40.025390625,78.56632222448076L40.095,101.7072833265577L40.164609375,68.6890900816236L40.23421875,83.08164126532417L40.303828124999995,85.90371189798627L40.373437499999994,86.75030595915656L40.443046875,80.25957063266208L40.51265625,85.90371189798627L40.582265625,80.54176865305219L40.651875,57.68303571428569L40.721484374999996,69.25351626532417L40.791093749999995,80.54176865305219L40.860703125,83.92826546941484L40.9303125,74.05103332655769L40.999921875,73.48660714285712L41.06953125,80.25957063266208L41.139140624999996,76.59087579590933L41.208749999999995,73.48660714285712L41.278359375,89.85460475512912L41.34796875,66.99584167344229L41.417578125,74.6154293673379L41.4871875,58.52965991837636L41.556796874999996,74.05103332655769L41.626406249999995,54.2965690408434L41.696015625,61.63392857142855L41.765625,67.27806983675275L41.835234375,49.49905197960988L41.90484375,66.71364365305219L41.974453125,53.44994483675273L42.044062499999995,89.00798055103846L42.113671875,76.59087579590933L42.18328125,65.86701944896151L42.252890625,62.19835475512911L42.3225,70.94673453058515L42.392109375,67.27806983675275L42.461718749999996,87.87915832655769L42.531328125,84.49266151019503L42.6009375,70.66453651019503L42.670546875,69.81791230610438L42.74015625,70.38233848980494L42.809765625,58.24746189798625L42.879374999999996,85.0570876938956L42.948984375,68.12469404084341L43.01859375,63.60937499999998L43.088203125,90.1368027755192L43.1578125,63.60937499999998L43.227421875,93.24107142857142L43.297031249999996,93.52326944896151L43.366640625,64.73819722448076L43.43625,61.35173055103845L43.505859375,59.65848214285712L43.57546875,52.60332063266207L43.645078125,47.52360555103845L43.714687500000004,78.00192618370055L43.784296875,72.63998293876647L43.85390625,59.94068016324724L43.923515625,49.49905197960988L43.993125,67.84246587753294L44.062734375,92.39444722448076L44.132343750000004,78.84852024487085L44.201953125,66.71364365305219L44.2715625,57.9652337346758L44.341171875,55.143163102013716L44.41078125,40.18621587753294L44.480390625,80.54176865305219L44.550000000000004,72.63998293876647L44.619609375,47.52360555103845L44.68921875,42.44389046941484L44.758828125,54.8609650816236L44.8284375,69.81791230610438L44.898046875,83.36383928571428L44.967656250000005,41.0328400816236L45.037265625,54.8609650816236L45.106875,75.74425159181867L45.176484375,44.1371087346758L45.24609375,47.52360555103845L45.315703125,62.48055277551921L45.385312500000005,48.65242777551921L45.454921875000004,59.94068016324724L45.52453125,55.143163102013716L45.594140625,77.15530197960989L45.66375,47.80580357142855L45.733359375,56.83641151019503L45.802968750000005,56.55421348980493L45.872578125000004,68.4068920612335L45.9421875,66.99584167344229L46.011796875,46.95917936733789L46.08140625,35.38869881629942L46.151015625,51.19227024487085L46.220625000000005,59.65848214285712L46.290234375000004,52.32112261227197L46.35984375,42.44389046941484L46.429453125,50.62787420409064L46.4990625,63.32717697960988L46.568671875,59.65848214285712L46.638281250000006,59.65848214285712L46.707890625000005,57.9652337346758L46.7775,50.06344802039008L46.847109375,76.30867777551923L46.91671875,56.83641151019503L46.986328125,50.62787420409064L47.055937500000006,50.06344802039008L47.125546875000005,68.6890900816236L47.195156250000004,55.98978730610437L47.264765625,54.2965690408434L47.334375,44.98373293876646" style="fill: none;" fill="none"></path></g></g></g></g></g></g><g transform="translate(51, 177)" clip-path="url(#clip_1)"><clipPath id="clip_1"><rect width="278" height="23"></rect></clipPath><g><g><line x1="0" y1="0" x2="0" y2="5" style="visibility: inherit;" fill="rgb(0, 0, 0)" stroke="rgb(204, 204, 204)" stroke-width="1px"></line><line x1="34.8046875" y1="0" x2="34.8046875" y2="5" style="visibility: inherit;" fill="rgb(0, 0, 0)" stroke="rgb(204, 204, 204)" stroke-width="1px"></line><line x1="69.609375" y1="0" x2="69.609375" y2="5" style="visibility: inherit;" fill="rgb(0, 0, 0)" stroke="rgb(204, 204, 204)" stroke-width="1px"></line><line x1="104.4140625" y1="0" x2="104.4140625" y2="5" style="visibility: inherit;" fill="rgb(0, 0, 0)" stroke="rgb(204, 204, 204)" stroke-width="1px"></line><line x1="139.21875" y1="0" x2="139.21875" y2="5" style="visibility: inherit;" fill="rgb(0, 0, 0)" stroke="rgb(204, 204, 204)" stroke-width="1px"></line><line x1="174.0234375" y1="0" x2="174.0234375" y2="5" style="visibility: inherit;" fill="rgb(0, 0, 0)" stroke="rgb(204, 204, 204)" stroke-width="1px"></line><line x1="208.828125" y1="0" x2="208.828125" y2="5" style="visibility: inherit;" fill="rgb(0, 0, 0)" stroke="rgb(204, 204, 204)" stroke-width="1px"></line><line x1="243.6328125" y1="0" x2="243.6328125" y2="5" style="visibility: inherit;" fill="rgb(0, 0, 0)" stroke="rgb(204, 204, 204)" stroke-width="1px"></line><line x1="278.4375" y1="0" x2="278.4375" y2="5" style="visibility: inherit;" fill="rgb(0, 0, 0)" stroke="rgb(204, 204, 204)" stroke-width="1px"></line></g><g transform="translate(0, 8)"><text x="0" y="0" dx="0em" dy="0.95em" style="text-anchor: middle; visibility: hidden; font-family: Roboto, sans-serif; font-size: 12px; font-weight: 200;" fill="rgb(33, 33, 33)" stroke="none" stroke-width="1px">-10k</text><text x="34.8046875" y="0" dx="0em" dy="0.95em" style="text-anchor: middle; visibility: inherit; font-family: Roboto, sans-serif; font-size: 12px; font-weight: 200;" fill="rgb(33, 33, 33)" stroke="none" stroke-width="1px">0</text><text x="69.609375" y="0" dx="0em" dy="0.95em" style="text-anchor: middle; visibility: inherit; font-family: Roboto, sans-serif; font-size: 12px; font-weight: 200;" fill="rgb(33, 33, 33)" stroke="none" stroke-width="1px">10k</text><text x="104.4140625" y="0" dx="0em" dy="0.95em" style="text-anchor: middle; visibility: inherit; font-family: Roboto, sans-serif; font-size: 12px; font-weight: 200;" fill="rgb(33, 33, 33)" stroke="none" stroke-width="1px">20k</text><text x="139.21875" y="0" dx="0em" dy="0.95em" style="text-anchor: middle; visibility: inherit; font-family: Roboto, sans-serif; font-size: 12px; font-weight: 200;" fill="rgb(33, 33, 33)" stroke="none" stroke-width="1px">30k</text><text x="174.0234375" y="0" dx="0em" dy="0.95em" style="text-anchor: middle; visibility: inherit; font-family: Roboto, sans-serif; font-size: 12px; font-weight: 200;" fill="rgb(33, 33, 33)" stroke="none" stroke-width="1px">40k</text><text x="208.828125" y="0" dx="0em" dy="0.95em" style="text-anchor: middle; visibility: inherit; font-family: Roboto, sans-serif; font-size: 12px; font-weight: 200;" fill="rgb(33, 33, 33)" stroke="none" stroke-width="1px">50k</text><text x="243.6328125" y="0" dx="0em" dy="0.95em" style="text-anchor: middle; visibility: inherit; font-family: Roboto, sans-serif; font-size: 12px; font-weight: 200;" fill="rgb(33, 33, 33)" stroke="none" stroke-width="1px">60k</text><text x="278.4375" y="0" dx="0em" dy="0.95em" style="text-anchor: middle; visibility: hidden; font-family: Roboto, sans-serif; font-size: 12px; font-weight: 200;" fill="rgb(33, 33, 33)" stroke="none" stroke-width="1px">70k</text></g><line x1="0" y1="0" x2="278.4375" y2="0" fill="rgb(0, 0, 0)" stroke="rgb(204, 204, 204)" stroke-width="1px"></line></g></g></g></g></svg>