<svg viewBox="0 0 330 200" xmlns="http://www.w3.org/2000/svg"><g><g><g><g><g><line x1="51.5625" y1="177" x2="46.5625" y2="177" style="visibility: inherit;" fill="rgb(0, 0, 0)" stroke="rgb(204, 204, 204)" stroke-width="1px"></line><line x1="51.5625" y1="165.20000000000005" x2="46.5625" y2="165.20000000000005" style="visibility: inherit;" fill="rgb(0, 0, 0)" stroke="rgb(204, 204, 204)" stroke-width="1px"></line><line x1="51.5625" y1="153.40000000000003" x2="46.5625" y2="153.40000000000003" style="visibility: inherit;" fill="rgb(0, 0, 0)" stroke="rgb(204, 204, 204)" stroke-width="1px"></line><line x1="51.5625" y1="141.60000000000002" x2="46.5625" y2="141.60000000000002" style="visibility: inherit;" fill="rgb(0, 0, 0)" stroke="rgb(204, 204, 204)" stroke-width="1px"></line><line x1="51.5625" y1="129.8" x2="46.5625" y2="129.8" style="visibility: inherit;" fill="rgb(0, 0, 0)" stroke="rgb(204, 204, 204)" stroke-width="1px"></line><line x1="51.5625" y1="118.00000000000001" x2="46.5625" y2="118.00000000000001" style="visibility: inherit;" fill="rgb(0, 0, 0)" stroke="rgb(204, 204, 204)" stroke-width="1px"></line><line x1="51.5625" y1="106.19999999999997" x2="46.5625" y2="106.19999999999997" style="visibility: inherit;" fill="rgb(0, 0, 0)" stroke="rgb(204, 204, 204)" stroke-width="1px"></line><line x1="51.5625" y1="94.40000000000003" x2="46.5625" y2="94.40000000000003" style="visibility: inherit;" fill="rgb(0, 0, 0)" stroke="rgb(204, 204, 204)" stroke-width="1px"></line><line x1="51.5625" y1="82.60000000000002" x2="46.5625" y2="82.60000000000002" style="visibility: inherit;" fill="rgb(0, 0, 0)" stroke="rgb(204, 204, 204)" stroke-width="1px"></line><line x1="51.5625" y1="70.8" x2="46.5625" y2="70.8" style="visibility: inherit;" fill="rgb(0, 0, 0)" stroke="rgb(204, 204, 204)" stroke-width="1px"></line><line x1="51.5625" y1="59.00000000000001" x2="46.5625" y2="59.00000000000001" style="visibility: inherit;" fill="rgb(0, 0, 0)" stroke="rgb(204, 204, 204)" stroke-width="1px"></line><line x1="51.5625" y1="47.19999999999999" x2="46.5625" y2="47.19999999999999" style="visibility: inherit;" fill="rgb(0, 0, 0)" stroke="rgb(204, 204, 204)" stroke-width="1px"></line><line x1="51.5625" y1="35.39999999999997" x2="46.5625" y2="35.39999999999997" style="visibility: inherit;" fill="rgb(0, 0, 0)" stroke="rgb(204, 204, 204)" stroke-width="1px"></line><line x1="51.5625" y1="23.600000000000033" x2="46.5625" y2="23.600000000000033" style="visibility: inherit;" fill="rgb(0, 0, 0)" stroke="rgb(204, 204, 204)" stroke-width="1px"></line><line x1="51.5625" y1="11.800000000000017" x2="46.5625" y2="11.800000000000017" style="visibility: inherit;" fill="rgb(0, 0, 0)" stroke="rgb(204, 204, 204)" stroke-width="1px"></line><line x1="51.5625" y1="0" x2="46.5625" y2="0" style="visibility: inherit;" fill="rgb(0, 0, 0)" stroke="rgb(204, 204, 204)" stroke-width="1px"></line></g><g transform="translate(41.5625, 0)"><text x="0" y="177" dx="0em" dy="0.3em" style="text-anchor: end; visibility: hidden; font-family: Roboto, sans-serif; font-size: 12px; font-weight: 200;" fill="rgb(33, 33, 33)" stroke="none" stroke-width="1px">0.68</text><text x="0" y="165.20000000000005" dx="0em" dy="0.3em" style="text-anchor: end; visibility: inherit; font-family: Roboto, sans-serif; font-size: 12px; font-weight: 200;" fill="rgb(33, 33, 33)" stroke="none" stroke-width="1px">0.7</text><text x="0" y="153.40000000000003" dx="0em" dy="0.3em" style="text-anchor: end; visibility: hidden; font-family: Roboto, sans-serif; font-size: 12px; font-weight: 200;" fill="rgb(33, 33, 33)" stroke="none" stroke-width="1px">0.72</text><text x="0" y="141.60000000000002" dx="0em" dy="0.3em" style="text-anchor: end; visibility: inherit; font-family: Roboto, sans-serif; font-size: 12px; font-weight: 200;" fill="rgb(33, 33, 33)" stroke="none" stroke-width="1px">0.74</text><text x="0" y="129.8" dx="0em" dy="0.3em" style="text-anchor: end; visibility: hidden; font-family: Roboto, sans-serif; font-size: 12px; font-weight: 200;" fill="rgb(33, 33, 33)" stroke="none" stroke-width="1px">0.76</text><text x="0" y="118.00000000000001" dx="0em" dy="0.3em" style="text-anchor: end; visibility: inherit; font-family: Roboto, sans-serif; font-size: 12px; font-weight: 200;" fill="rgb(33, 33, 33)" stroke="none" stroke-width="1px">0.78</text><text x="0" y="106.19999999999997" dx="0em" dy="0.3em" style="text-anchor: end; visibility: hidden; font-family: Roboto, sans-serif; font-size: 12px; font-weight: 200;" fill="rgb(33, 33, 33)" stroke="none" stroke-width="1px">0.8</text><text x="0" y="94.40000000000003" dx="0em" dy="0.3em" style="text-anchor: end; visibility: inherit; font-family: Roboto, sans-serif; font-size: 12px; font-weight: 200;" fill="rgb(33, 33, 33)" stroke="none" stroke-width="1px">0.82</text><text x="0" y="82.60000000000002" dx="0em" dy="0.3em" style="text-anchor: end; visibility: hidden; font-family: Roboto, sans-serif; font-size: 12px; font-weight: 200;" fill="rgb(33, 33, 33)" stroke="none" stroke-width="1px">0.84</text><text x="0" y="70.8" dx="0em" dy="0.3em" style="text-anchor: end; visibility: inherit; font-family: Roboto, sans-serif; font-size: 12px; font-weight: 200;" fill="rgb(33, 33, 33)" stroke="none" stroke-width="1px">0.86</text><text x="0" y="59.00000000000001" dx="0em" dy="0.3em" style="text-anchor: end; visibility: hidden; font-family: Roboto, sans-serif; font-size: 12px; font-weight: 200;" fill="rgb(33, 33, 33)" stroke="none" stroke-width="1px">0.88</text><text x="0" y="47.19999999999999" dx="0em" dy="0.3em" style="text-anchor: end; visibility: inherit; font-family: Roboto, sans-serif; font-size: 12px; font-weight: 200;" fill="rgb(33, 33, 33)" stroke="none" stroke-width="1px">0.9</text><text x="0" y="35.39999999999997" dx="0em" dy="0.3em" style="text-anchor: end; visibility: hidden; font-family: Roboto, sans-serif; font-size: 12px; font-weight: 200;" fill="rgb(33, 33, 33)" stroke="none" stroke-width="1px">0.92</text><text x="0" y="23.600000000000033" dx="0em" dy="0.3em" style="text-anchor: end; visibility: inherit; font-family: Roboto, sans-serif; font-size: 12px; font-weight: 200;" fill="rgb(33, 33, 33)" stroke="none" stroke-width="1px">0.94</text><text x="0" y="11.800000000000017" dx="0em" dy="0.3em" style="text-anchor: end; visibility: hidden; font-family: Roboto, sans-serif; font-size: 12px; font-weight: 200;" fill="rgb(33, 33, 33)" stroke="none" stroke-width="1px">0.96</text><text x="0" y="0" dx="0em" dy="0.3em" style="text-anchor: end; visibility: hidden; font-family: Roboto, sans-serif; font-size: 12px; font-weight: 200;" fill="rgb(33, 33, 33)" stroke="none" stroke-width="1px">0.98</text></g><line x1="51.5625" y1="0" x2="51.5625" y2="177" fill="rgb(0, 0, 0)" stroke="rgb(204, 204, 204)" stroke-width="1px"></line></g></g><g transform="translate(51, 0)" clip-path="url(#clip_0)"><clipPath id="clip_0"><rect width="278" height="177"></rect></clipPath><g><g><g><line x1="0" y1="0" x2="0" y2="177" fill="rgb(0, 0, 0)" stroke="rgb(66, 66, 66)" stroke-width="1px" opacity="0.25"></line><line x1="34.8046875" y1="0" x2="34.8046875" y2="177" fill="rgb(0, 0, 0)" stroke="rgb(66, 66, 66)" stroke-width="1px" opacity="0.25"></line><line x1="69.609375" y1="0" x2="69.609375" y2="177" fill="rgb(0, 0, 0)" stroke="rgb(66, 66, 66)" stroke-width="1px" opacity="0.25"></line><line x1="104.4140625" y1="0" x2="104.4140625" y2="177" fill="rgb(0, 0, 0)" stroke="rgb(66, 66, 66)" stroke-width="1px" opacity="0.25"></line><line x1="139.21875" y1="0" x2="139.21875" y2="177" fill="rgb(0, 0, 0)" stroke="rgb(66, 66, 66)" stroke-width="1px" opacity="0.25"></line><line x1="174.0234375" y1="0" x2="174.0234375" y2="177" fill="rgb(0, 0, 0)" stroke="rgb(66, 66, 66)" stroke-width="1px" opacity="0.25"></line><line x1="208.828125" y1="0" x2="208.828125" y2="177" fill="rgb(0, 0, 0)" stroke="rgb(66, 66, 66)" stroke-width="1px" opacity="0.25"></line><line x1="243.6328125" y1="0" x2="243.6328125" y2="177" fill="rgb(0, 0, 0)" stroke="rgb(66, 66, 66)" stroke-width="1px" opacity="0.25"></line><line x1="278.4375" y1="0" x2="278.4375" y2="177" fill="rgb(0, 0, 0)" stroke="rgb(66, 66, 66)" stroke-width="1px" opacity="0.25"></line></g><g><line x1="0" y1="177" x2="278.4375" y2="177" fill="rgb(0, 0, 0)" stroke="rgb(66, 66, 66)" stroke-width="1px" opacity="0.25"></line><line x1="0" y1="165.20000000000005" x2="278.4375" y2="165.20000000000005" fill="rgb(0, 0, 0)" stroke="rgb(66, 66, 66)" stroke-width="1px" opacity="0.25"></line><line x1="0" y1="153.40000000000003" x2="278.4375" y2="153.40000000000003" fill="rgb(0, 0, 0)" stroke="rgb(66, 66, 66)" stroke-width="1px" opacity="0.25"></line><line x1="0" y1="141.60000000000002" x2="278.4375" y2="141.60000000000002" fill="rgb(0, 0, 0)" stroke="rgb(66, 66, 66)" stroke-width="1px" opacity="0.25"></line><line x1="0" y1="129.8" x2="278.4375" y2="129.8" fill="rgb(0, 0, 0)" stroke="rgb(66, 66, 66)" stroke-width="1px" opacity="0.25"></line><line x1="0" y1="118.00000000000001" x2="278.4375" y2="118.00000000000001" fill="rgb(0, 0, 0)" stroke="rgb(66, 66, 66)" stroke-width="1px" opacity="0.25"></line><line x1="0" y1="106.19999999999997" x2="278.4375" y2="106.19999999999997" fill="rgb(0, 0, 0)" stroke="rgb(66, 66, 66)" stroke-width="1px" opacity="0.25"></line><line x1="0" y1="94.40000000000003" x2="278.4375" y2="94.40000000000003" fill="rgb(0, 0, 0)" stroke="rgb(66, 66, 66)" stroke-width="1px" opacity="0.25"></line><line x1="0" y1="82.60000000000002" x2="278.4375" y2="82.60000000000002" fill="rgb(0, 0, 0)" stroke="rgb(66, 66, 66)" stroke-width="1px" opacity="0.25"></line><line x1="0" y1="70.8" x2="278.4375" y2="70.8" fill="rgb(0, 0, 0)" stroke="rgb(66, 66, 66)" stroke-width="1px" opacity="0.25"></line><line x1="0" y1="59.00000000000001" x2="278.4375" y2="59.00000000000001" fill="rgb(0, 0, 0)" stroke="rgb(66, 66, 66)" stroke-width="1px" opacity="0.25"></line><line x1="0" y1="47.19999999999999" x2="278.4375" y2="47.19999999999999" fill="rgb(0, 0, 0)" stroke="rgb(66, 66, 66)" stroke-width="1px" opacity="0.25"></line><line x1="0" y1="35.39999999999997" x2="278.4375" y2="35.39999999999997" fill="rgb(0, 0, 0)" stroke="rgb(66, 66, 66)" stroke-width="1px" opacity="0.25"></line><line x1="0" y1="23.600000000000033" x2="278.4375" y2="23.600000000000033" fill="rgb(0, 0, 0)" stroke="rgb(66, 66, 66)" stroke-width="1px" opacity="0.25"></line><line x1="0" y1="11.800000000000017" x2="278.4375" y2="11.800000000000017" fill="rgb(0, 0, 0)" stroke="rgb(66, 66, 66)" stroke-width="1px" opacity="0.25"></line><line x1="0" y1="0" x2="278.4375" y2="0" fill="rgb(0, 0, 0)" stroke="rgb(66, 66, 66)" stroke-width="1px" opacity="0.25"></line></g></g></g><g><g><line x1="0" y1="578.2000000000002" x2="278.4375" y2="578.2000000000002" fill="rgb(0, 0, 0)" stroke="rgb(153, 153, 153)" stroke-width="1.5px"></line></g></g><g><g><line x1="34.8046875" y1="0" x2="34.8046875" y2="177" fill="rgb(0, 0, 0)" stroke="rgb(153, 153, 153)" stroke-width="1.5px"></line></g></g><g><g><g><g><g><path stroke="rgb(0, 119, 187)" stroke-width="2px" d="M36.4753125,186.83409111224375L37.310625,174.76971875978379L37.589062500000004,163.79352844721794L37.72828125,153.66162387554144L37.8675,146.22201338820264L37.937109375000006,139.0466485376178L38.076328125,134.01817217999607L38.493984375000004,130.84853962166758L38.56359375,127.24931852372659L38.633203125,122.79139311181817L38.7028125,120.7182467436527L39.329296875,119.87866706369275L39.746953125,117.3417918414002L39.816562499999996,114.18288826918183L39.886171874999995,111.81111921739372L39.955781249999994,109.02839167768454L40.303828124999995,107.25496381051342L40.860703125,105.612515127198L41.34796875,103.8958001771394L41.90484375,101.9058462998127L42.113671875,100.35499170123991L42.18328125,98.92343958096927L42.670546875,98.01794931572289L43.01859375,96.8315156397765L43.57546875,95.1627790420676L43.784296875,93.43827955365117L43.85390625,91.83582668186641L44.480390625,90.14545057447552L44.619609375,89.50032050957812L44.68921875,88.12528968590586L44.758828125,86.81927193311617L45.24609375,85.62304426434046L45.594140625,84.60019905479571L45.733359375,84.10777507720029L45.802968750000005,82.7200265335745L46.08140625,81.8548764790913L46.429453125,80.81075010241902L46.4990625,80.3204091918487L46.707890625000005,79.24301655566457L47.125546875000005,78.21460368950032L47.195156250000004,77.13468239978297L47.334375,76.90689066488805L47.543203125000005,76.05805074951347L47.682421875,75.09010842408286L47.75203125,74.52641725764741L47.89125,74.08649077759063L48.03046875,73.08139200102369L48.100078124999996,72.13444251335194L48.587343749999995,71.45273699950296L49.14421875,71.17189218458357L49.213828125,70.47080869093256L49.2834375,70.07272667941804L49.561875,69.68861604623272L50.327578124999995,68.88559774220421L50.466796875,68.247659348162L50.745234374999995,67.81181953541655L50.9540625,67.64051842388618L51.09328125,67.33242092045099L51.302109375,66.72149959341797L52.137421875,65.98104627968439L52.555078125,65.63465164780092L52.76390625,65.29360463355239L52.903125,64.93227386956569L52.972734375,64.4013635559231L53.111953125,64.04872745011335L53.390390625,63.978758090522184L53.668828125000005,63.70909965334415L53.808046875,63.1958684636592L54.156093750000004,62.804218083080954L55.130625,62.84299785309783L55.478671875,62.684905483640435L55.54828125,62.13077239460237L55.826718750000005,61.75533620948529L55.896328125000004,61.700915145424894L56.174765625000006,61.50057420018202L56.244375000000005,61.36088755740607L56.38359375,60.97934013459921L56.592421875,60.56530372903702L56.940468749999994,60.21082954041734L57.010078125,59.69733571051544L57.427734375,59.30496870994666L57.49734375,59.24520142952602L57.566953125,58.866899827324296L57.775781249999994,58.62221059625304L58.402265625,58.2400353518592L58.959140624999996,57.98488685570763L59.864062499999996,57.67103288289946L60.072890625,57.41642336893958L60.351328125,57.42668719769817L60.768984375,57.27167182708626L61.047421875,57.07634820014654L61.117031250000004,56.77364761289819L61.186640625,56.56618854944648L61.67390625,56.40526926656385L62.021953125,56.17428527438197L62.0915625,55.916801746973775L63.205312500000005,55.640442088350916L63.692578125000004,55.55615682169212L64.110234375,55.231419553480904L64.17984375,54.84629917796549L64.3190625,54.53455235263172L64.73671875000001,54.50027101678651L65.363203125,54.19097259053737L65.502421875,53.96134301432264L65.57203125,53.911197381904316L65.78085937499999,53.577632387360524L66.198515625,53.318994513508336L66.825,53.20474437500817L67.033828125,53.03092031505915L67.1034375,52.91512789327797L67.729921875,52.61050483821302L67.79953125,52.386256667150114L68.565234375,52.13604151217083L68.7740625,51.86937559684625L68.843671875,51.55439844614608L68.982890625,51.39309796846067L69.122109375,51.14206423841987L70.09664062499999,51.00403286545605L70.4446875,50.81706725643828L70.58390625,50.666983254111486L70.792734375,50.48289495428646L71.349609375,50.20721961517315L71.767265625,50.04350237127208L71.90648437499999,49.79743625450811L72.1153125,49.60957318484921L72.184921875,49.53528544309762L72.39375,49.30399898893023L72.53296875000001,49.007029289270235L72.88101562499999,48.81494788873279L72.950625,48.88289858831636L73.57710937499999,48.67621863681562L73.71632812499999,48.49069890705785L73.994765625,48.634332078686256L74.064375,48.40313975817858L74.41242187499999,48.256427670251696L74.690859375,48.13196681076266L74.76046875,47.976743395473555L75.108515625,47.85105531102512L75.247734375,47.68514203103294L75.31734375,47.59024410343864L75.38695312499999,47.4795907161052L75.4565625,47.25174959338247L75.59578125,47.08960271698419L75.665390625,46.963141330960894L76.01343750000001,46.73140304788275L76.083046875,46.524023612818425L76.5703125,46.3734016959189L76.70953125000001,46.278442157277674L77.1271875,46.094260171238915L77.26640625,45.9678117797852L77.614453125,45.78340741486629L77.9625,45.56263966862467L78.10171875,45.3605446171544L78.93703124999999,45.10697168682695L79.424296875,44.990913937054756L79.49390625,44.798409104487455L79.63312499999999,44.75657107837311L79.702734375,44.54361919443231L79.77234374999999,44.409864735421564L79.841953125,44.28427210471185L79.981171875,44.0844809388436L80.19,43.992528928868396L80.4684375,43.833209643584574L80.816484375,43.705583656284205L81.0253125,43.628150135935996L81.30375,43.5011090376617L81.512578125,43.3211201005543L81.58218749999999,43.17030266541737L81.72140625,43.077164783082594L81.791015625,42.97479678963945L81.99984375,42.90844928014847L82.06945312500001,42.79595611831385L82.27828124999999,42.75776922818765L82.347890625,42.5787351521162L82.6959375,42.44788959148585L82.765546875,42.28653745999383L83.25281249999999,42.12100991942156L83.461640625,42.014660296635626L83.74007812500001,41.87995812204982L83.94890625,41.75259857909942L84.08812499999999,41.605186428883435L84.22734375,41.416706980710096L84.50578125,41.32865442593787L84.78421875,41.24730190005355L84.993046875,41.11521704370328L85.06265625,40.99593761576963L85.132265625,40.87412529229449L85.201875,40.859080025674224L85.61953125,40.74106769742429L86.0371875,40.61681092663383L86.17640625,40.471541952058935L86.24601562500001,40.32775998866211L86.52445312500001,40.20384705430904L86.73328125,40.12149493358966L86.802890625,40.06732925189039L87.01171875,39.93745646435939L87.081328125,39.83960468384945L87.1509375,39.73192959890208L87.29015625,39.64323152281594L87.42937500000001,39.5803727159438L87.84703125,39.436456359822216L88.055859375,39.299245336735915L88.12546875,39.277767365024594L88.33429687499999,39.18990449585423L88.40390625,39.020876070074635L88.47351562499999,38.8812617498308L88.61273437499999,38.7810358449L88.68234375,38.712767410565434L89.10000000000001,38.664012009104134L89.3784375,38.562758801242055L89.44804687499999,38.48796759821504L89.587265625,38.376602575601645L89.726484375,38.266267931729914L89.865703125,38.111586063870575L89.93531250000001,38.14405423648161L90.004921875,38.02124552034421L90.07453125,37.89623332813055L90.14414062499999,37.84343242344541L90.35296875,37.73018954038834L90.63140625,37.675356868184245L90.840234375,37.71248142640461L90.97945312499999,37.58333133120261L91.0490625,37.49907809679991L91.11867187499999,37.454307705807004L91.536328125,37.39385082313969L91.60593750000001,37.41560849108901L91.74515625000001,37.387715523854375L91.95398437499999,37.304434511086704L92.232421875,37.25353854638069L92.44125000000001,37.154181918740456L92.650078125,37.091816611109785L92.7196875,36.99710707140042L92.85890625,36.886044574504226L92.998125,36.803888491886234L93.13734375,36.69300999902252L93.485390625,36.567636309104984L93.69421875,36.523216047634705L95.156015625,36.404141892115135L95.29523437499999,36.31351166197514L95.36484375,36.24946772269751L95.64328125,36.2177538475858L95.7825,36.138008697588106L96.0609375,36.00628345087076L96.20015624999999,35.93855626168455L96.33937499999999,35.896757398115696L96.548203125,35.83000249335866L96.687421875,35.7622995813792L96.75703125,35.786735001650605L97.17468749999999,35.71675193593935L97.453125,35.65319147080506L97.940390625,35.631071229436266L98.00999999999999,35.53918413223121L98.079609375,35.432042695299266L98.14921874999999,35.422697732886256L98.497265625,35.31679208326674L98.63648437500001,35.24045423569116L98.84531249999999,35.15037855083202L98.914921875,35.11667936029636L98.98453124999999,35.017776568115366L99.054140625,34.93522928671923L99.61101562500001,34.88865069185545L99.68062499999999,34.85792380673143L99.889453125,34.769846624138395L100.37671875,34.679630828106255L100.585546875,34.680786180147614L101.14242187500001,34.73756584839761L101.21203125,34.66915198085241L101.35125,34.666194437346476L101.420859375,34.599893100310766L101.49046874999999,34.556048887273015L101.699296875,34.690469696140646L101.76890625,34.65061973944381L102.04734375,34.59201630154259L102.395390625,34.50536178445538L102.465,34.52071397092956L102.7434375,34.42545514671527L102.81304687500001,34.320131458932735L102.88265625,34.228952554042884L102.95226562500001,34.245237584803206L103.16109374999999,34.18686412481305L103.230703125,34.11430510394405L103.3003125,34.06342621128789L103.509140625,34.01290428277119L103.57875,33.9259116287248L104.135625,33.821168128892865L104.4140625,33.800820210666465L104.55328125,33.71022719094099L104.6925,33.64625090898693L104.762109375,33.63195406660334L104.9709375,33.626799083235355L105.249375,33.62683215999715L105.318984375,33.527960151728266L105.38859375,33.51044684601393L105.597421875,33.51603935259861L106.154296875,33.596725016269914L106.293515625,33.69464549008991L106.571953125,33.704546365379606L106.6415625,33.69670540844955L106.85039062499999,33.64107510694266L106.989609375,33.61092243946884L107.128828125,33.55092293468699L107.476875,33.47259220999178L108.242578125,33.391041029315645L108.38179687499999,33.29264265857811L108.799453125,33.22955190783564L108.8690625,33.15452486734595L109.00828125000001,33.08121539478445L109.14750000000001,33.02557027455821L109.4259375,32.980080037246154L109.704375,32.96052794160576L109.84359375000001,32.93866519621057L110.19164062499999,32.9497377317927L110.26125,32.895324082535055L110.330859375,32.83279834593496L110.81812500000001,32.783922341966935L110.887734375,32.78943332129413L111.305390625,32.73138509763743L111.583828125,32.69402267795792L111.65343750000001,32.61993277031428L111.723046875,32.5938707913371L112.34953125000001,32.541877107311116L112.48875000000001,32.53515885488171L112.69757812499999,32.48836437231036L113.115234375,32.40419729408464L113.18484375,32.392152319367646L113.672109375,32.43989512123209L113.811328125,32.39858802448633L114.785859375,32.37034603672037L114.9946875,32.31787401696724L115.20351562500001,32.22631213670782L115.273125,32.17576605010527L115.342734375,32.10591886658125L115.55156249999999,32.02843769870046L115.621171875,31.966336597057662L115.69078125,31.87484475861134L116.94375,31.786179908928876L117.152578125,31.709430060599086L117.291796875,31.62972475042453L117.36140625,31.59582561886607L117.7790625,31.497677776478024L117.84867187500001,31.428302401455L117.987890625,31.400963988088627L118.127109375,31.377152029335676L118.266328125,31.334442199823993L118.405546875,31.28080863182423L118.614375,31.21745474610871L118.75359375,31.131118234733837L118.89281249999999,31.03751331252864L119.03203125,30.9942375246228L119.31046875,30.947897008227894L120.0065625,30.869882009185282L120.285,30.815383511390788L120.56343749999999,30.76448210268505L120.633046875,30.71168074808323L120.70265625,30.639536869410886L120.841875,30.58630399820365L121.05070312500001,30.515991925196992L121.25953125,30.483998058350807L121.39874999999999,30.54407680292631L121.607578125,30.491642554555064L122.025234375,30.50191813743478L122.164453125,30.457375206174312L122.30367187499999,30.409863683339125L122.37328125,30.378647163962754L122.58210937499999,30.374265046689143L122.65171875,30.33798245423091L122.721328125,30.284909152286872L122.93015625,30.242718693175373L123.48703125,30.17433011329539L123.835078125,30.107366185244945L123.974296875,30.05970722374225L124.391953125,30.00390379091022L124.670390625,29.949447665854994L124.74000000000001,29.92246729369106L124.809609375,29.872678969600475L124.87921875,29.798171383061668L125.296875,29.800928680522066L125.505703125,29.76013678092343L125.99296875,29.711285978748144L126.1321875,29.645146895519144L126.341015625,29.580385472058637L126.41062500000001,29.57762689840589L126.61945312499999,29.535912065829603L127.037109375,29.483157768851925L127.176328125,29.41433852554936L127.38515625000001,29.378487333353227L127.59398437499999,29.35705919511934L127.66359375,29.36923125704118L127.733203125,29.313487993737482L127.8028125,29.26611630689278L127.872421875,29.192765566965754L128.290078125,29.156022743190505L129.125390625,29.12850705590436L129.543046875,29.083089301694294L129.89109375,29.072912601375073L130.16953125,29.03184130129474L130.656796875,28.973045292622626L130.796015625,28.912557211079715L131.1440625,28.89404658541139L131.213671875,28.836019834722276L131.42249999999999,28.791130588265688L131.492109375,28.731671491498822L131.631328125,28.667587100060143L131.70093749999998,28.60971518614107L131.909765625,28.598209240431522L133.093125,28.554470656403204L133.162734375,28.497276270898386L133.23234374999998,28.46277989491461L133.580390625,28.407053099475956L133.78921875,28.35354091306526L134.06765625,28.332265202595615L134.137265625,28.263707487234488L134.206875,28.245672912357787L134.4853125,28.18533960031246L134.554921875,28.207985155748958L134.62453125,28.181580169477968L134.76375,28.131357538817607L135.04218749999998,28.074684624169528L135.18140625,28.036412546559337L136.086328125,28.05260750862764L136.1559375,28.02595048400866L136.782421875,27.982342735371546L136.85203125,27.944624205744127L137.617734375,27.888180493498044L138.17460937500002,27.822569620654974L138.24421875,27.773277082022833L138.453046875,27.716697347989115L138.592265625,27.670703706786664L138.661875,27.663320739306204L139.21875,27.63447332133364L139.288359375,27.571238869376934L139.35796875,27.507367752050214L139.63640625,27.452160027033273L139.775625,27.421334403453336L139.91484375,27.366569223222992L140.47171874999998,27.307434193400518L140.819765625,27.25410893927905L140.889375,27.20102886872045L141.098203125,27.14911196879643L141.58546875,27.110283780704734L141.72468750000002,27.066135166629607L142.42078124999998,27.013041141248127L142.768828125,26.94010176137973L142.8384375,26.882987604912056L142.97765625,26.840689061220708L143.04726562500002,26.852166215753805L143.464921875,26.831859975922587L143.9521875,26.839701085278502L144.021796875,26.78065160991045L144.64828125,26.719161043322153L144.92671875,26.68315413489925L145.06593750000002,26.64101658833828L145.344375,26.602655424429578L145.970859375,26.557299453217716L146.110078125,26.530921035069063L146.31890625,26.49484086711264L146.458125,26.449118304712556L146.527734375,26.40270755208301L146.87578125,26.344956464303415L147.43265624999998,26.304302729762817L147.571875,26.263826972176314L148.059140625,26.19613832491058L148.12875,26.136683311460676L148.40718750000002,26.085412099785646L148.75523437500001,26.0308471003232L148.9640625,26.005480621224866L149.10328124999998,25.96182408705231L149.312109375,25.919230639796176L149.5209375,25.86983441984561L149.799375,25.815419437449275L150.286640625,25.78038668270687L150.35625000000002,25.728993395865114L150.913125,25.707316367511925L151.05234375,25.659747706527213L151.1915625,25.60459884795788L151.400390625,25.572993876060185L151.47,25.52256052450575L151.88765625,25.462014020099744L151.957265625,25.41546942208744L152.51414062499998,25.376840709353303L152.72296875,25.348651118510098L152.79257812499998,25.318014720233634L152.8621875,25.305433419385665L152.931796875,25.269040284489538L153.071015625,25.231948013285706L153.27984375,25.200957356387747L153.76710937500002,25.203177635646977L153.83671875,25.16304241163021L154.18476562499998,25.12899245387461L154.323984375,25.108591441188917L154.39359375,25.055399325286498L154.46320312499998,25.03188348402422L155.08968750000003,24.98157355655354L155.36812500000002,24.93566492953269L155.50734375,24.894132807066356L155.576953125,24.884555040472073L155.71617187500001,24.850796737862705L156.06421875,24.809670915646706L156.13382812499998,24.76621422597869L156.273046875,24.747873351045524L156.34265625,24.734587033432323L156.412265625,24.73461518179209L156.62109375,24.729677924296084L156.7603125,24.699971662810594L156.89953125,24.689360772673247L157.52601562499999,24.632659150930657L157.73484375,24.575361690922463L158.361328125,24.525684916737106L158.77898437500002,24.49424863040435L158.84859375,24.450653848176202L159.26624999999999,24.403143717274084L159.335859375,24.370518184317497L159.40546875,24.31600957549772L159.96234375,24.261716087048107L160.38,24.22226798475992L160.44960937500002,24.18378672514912L161.006484375,24.133299197470603L161.07609375,24.117000042378248L161.284921875,24.099956527712123L161.7721875,24.057157229427283L161.91140625,24.015330440104343L162.18984375,23.96240172678158L162.6075,23.92092684022234L162.88593749999998,23.885228758920476L162.955546875,23.84325960750046L163.16437499999998,23.83025249571862L163.512421875,23.794927484512698L163.79085937500003,23.756547507575945L164.06929687500002,23.719908133482182L164.69578125,23.694545625312323L164.83499999999998,23.643861526414895L164.904609375,23.656034772013975L165.322265625,23.621427908375548L165.391875,23.56955113867216L165.461484375,23.527349960290586L165.600703125,23.486097678158274L165.739921875,23.459179696982506L166.57523437499998,23.406406318986317L167.20171875,23.353046585815623L167.48015625000002,23.343814236379885L167.82820312500002,23.289967530698064L167.8978125,23.261354541300864L168.24585937499998,23.221131321087316L168.31546875,23.174817736489327L168.385078125,23.15048980344238L168.663515625,23.11302723759288L168.733125,23.081142391790546L169.15078125000002,23.0400657329766L169.42921875000002,23.009213789852215L169.49882812500002,22.9637747202285L169.5684375,22.93318506350024L169.70765625,22.901164875972633L170.1253125,22.856161827300447L170.334140625,22.823637886372936L170.473359375,22.8089105405188L170.6821875,22.75202191073077L170.891015625,22.712971480690047L171.09984375000002,22.748318355549966L171.2390625,22.724669938026647L171.726328125,22.678202931363497L171.86554687499998,22.642579522547532L172.700859375,22.623837905022725L172.77046875000002,22.59299637371694L172.84007812500002,22.549355005839416L173.814609375,22.523316618349636L174.093046875,22.485251845385484L174.371484375,22.431436937752878L174.44109375,22.408037145011274L174.649921875,22.37189356267605L174.71953125,22.332864971713274L174.92835937499999,22.296233722850204L175.067578125,22.25371982361623L175.20679687499998,22.20985599023179L175.55484374999997,22.172895693493547L175.763671875,22.139061783637295L175.902890625,22.09338252589392L176.11171875,22.05981495425893L176.320546875,22.043522316846005L176.52937500000002,22.01015246773359L176.66859374999999,21.96573933592436L176.87742187499998,21.94674815988192L177.08625,21.901105216383726L177.155859375,21.86822345626985L177.3646875,21.82731311039936L177.573515625,21.784327524342707L178.20000000000002,21.743707208878245L178.33921875,21.70175323725043L178.687265625,21.692357626139184L179.0353125,21.666808389200185L179.104921875,21.62371171009133L179.17453125,21.61892836802349L179.31375,21.58117534274252L179.383359375,21.544284696897453L179.52257812500002,21.540426527219214L179.661796875,21.505176932236125L179.87062500000002,21.488284650927053L179.940234375,21.45323607397481L180.21867187499998,21.401570702672203L180.56671874999998,21.366798319070377L180.7059375,21.351744649077766L181.19320312500003,21.302664592616658L181.332421875,21.260993283926076L181.40203125,21.236823075836362L181.610859375,21.201175603488693L181.75007812500002,21.156989649113868L182.028515625,21.126646962665422L182.23734374999998,21.130960642604112L182.3765625,21.110093993438575L182.51578125,21.06416149648859L182.585390625,21.034881781037317L182.9334375,20.99280361464164L183.21187500000002,20.948719414176228L183.281484375,20.914075021693076L183.35109375,20.885257968769317L183.62953124999999,20.859389478589442L183.69914062499998,20.822922601135375L183.838359375,20.79369163932578L183.90796874999998,20.751765950380857L184.0471875,20.71423813484811L184.116796875,20.676125479853045L184.18640625,20.63247322758869L184.325625,20.589672299811063L184.395234375,20.571742027420402L184.534453125,20.534815332592927L184.88250000000002,20.496600030089866L184.952109375,20.460622385998267L185.36976562499999,20.431092644220083L185.439375,20.390418672819102L185.508984375,20.34777227524212L185.787421875,20.34311648881854L185.92664062499998,20.309769025092976L186.065859375,20.27862807065879L186.344296875,20.272038907770334L187.040390625,20.24383897565975L187.179609375,20.21294217027033L187.31882812499998,20.17587895430421L187.3884375,20.14658553034158L187.666875,20.116691707831844L187.80609375,20.09799700642976L187.875703125,20.084214508896334L187.9453125,20.067014243402987L188.154140625,20.05332721786629L188.432578125,20.02655732896629L188.711015625,19.99228155094027L188.91984374999998,19.962251269359797L189.6159375,19.933693859474445L189.685546875,19.914857281473555L189.963984375,19.8892093887469L190.103203125,19.85815191277232L190.31203125,19.820336539533116L190.45125000000002,19.794968546109697L190.52085937500001,19.762155097826998L190.66007812499998,19.73559568994304L190.7296875,19.6913705034872L190.799296875,19.65546756526323L190.86890625,19.614908873416784L191.008125,19.59148932886568L191.14734375,19.585816780385386L191.216953125,19.546889363751067L191.495390625,19.523006303134448L191.565,19.487001015262308L191.70421875,19.453138447283987L191.91304687500002,19.42411428420272L192.26109375000001,19.39585564721436L193.09640625,19.35958773100198L193.37484375,19.324106097372823L193.58367187500002,19.341927229558962L193.93171875000002,19.30117480472431L194.07093749999999,19.273986477023467L194.27976562499998,19.252251717907207L194.697421875,19.22589006007354L194.76703125,19.213006012776024L194.90625,19.201499784713995L195.115078125,19.17465430623508L195.32390625,19.137874432574566L195.393515625,19.127890112096598L195.463125,19.097944307783735L196.089609375,19.054775370211154L196.15921875,19.024373411134906L196.228828125,19.003364780507155L196.29843749999998,18.970473593378355L196.43765625,18.95624625845373L196.576875,18.94868526407093L196.785703125,18.910048752916293L197.13375,18.88342677748182L197.27296875000002,18.852262649662645L197.342578125,18.831087324263645L197.4121875,18.79811344066027L197.48179687500001,18.766555217089785L198.038671875,18.752849289031012L198.66515625,18.71684506396276L199.013203125,18.6809484285782L199.570078125,18.65827359577782L199.63968749999998,18.625840043580098L199.848515625,18.598084075585568L200.126953125,18.569756841895092L200.61421875000002,18.551310868784693L200.823046875,18.51986955135437L201.03187499999999,18.52046266004679L201.10148437499998,18.478724304828887L201.17109375,18.447518667745065L201.31031249999998,18.404705808059596L201.8671875,18.40617303109776L202.00640625,18.398554249260517L202.145625,18.372164033582838L202.28484375000002,18.34520375760733L202.98093749999998,18.319616129169685L203.5378125,18.299919029356538L203.607421875,18.274469435493145L203.67703125,18.25425367732386L203.95546875000002,18.223143245046508L204.373125,18.189548540705808L204.93,18.161196283162905L205.34765625,18.13549635821044L205.417265625,18.110512820857526L205.486875,18.070211236402816L205.556484375,18.02874488334876L205.695703125,17.99571904893017L205.834921875,17.97557753248512L206.04375,17.954216331150338L206.600625,17.924619428883112L207.087890625,17.899571148442817L207.366328125,17.867587133466472L207.505546875,17.83760420521898L207.783984375,17.81215818734667L207.85359375000002,17.779796949437543L207.99281249999999,17.767203334001614L208.34085937499998,17.73181824897093L208.5496875,17.696533983816803L208.68890625,17.667679369365217L208.897734375,17.643965464960054L208.96734375,17.612105994226617L209.036953125,17.586648642548933L209.73304687499999,17.558110401971618L209.80265624999998,17.5315428818714L209.941875,17.50253261826702L210.01148437499998,17.473604194388145L210.08109374999998,17.44412899465078L210.150703125,17.424152719879267L210.429140625,17.395452287797003L210.568359375,17.371218607101355L210.7771875,17.34517476632731L210.91640625,17.315451095236224L211.055625,17.287060333483932L211.19484375,17.261246254372743L211.821328125,17.233009064244282L212.099765625,17.22666357056872L212.238984375,17.196051510569934L212.378203125,17.157436995001706L212.517421875,17.12887477255703L212.72625,17.101012756325453L212.93507812500002,17.06702326525667L213.35273437499998,17.055444826708754L213.42234374999998,17.04204026624093L213.70078124999998,17.007632677482672L213.909609375,16.985067294623533L214.1184375,16.963181761368443L214.25765625,16.943208014884696L214.60570312500002,16.92020580761472L214.88414062500001,16.897882874352412L215.09296874999998,16.874389917540363L215.162578125,16.846040893998953L215.2321875,16.823299966692414L215.301796875,16.801235164355333L215.510625,16.76941527481557L215.7890625,16.741359624229453L216.20671875,16.7207290291489L216.27632812500002,16.692200181805998L216.48515625,16.666194210679507L216.833203125,16.644534498758578L217.04203124999998,16.618051004476044L217.111640625,16.589809802672534L217.250859375,16.56956529704451L217.390078125,16.549984148477687L217.529296875,16.524373582902733L217.59890625,16.492147100435407L217.807734375,16.459400106504877L217.87734375,16.43159453727141L218.01656250000002,16.40750063534933L218.225390625,16.378020361043905L218.29500000000002,16.35103961936471L218.43421874999999,16.329572830422112L218.851875,16.303934363339195L219.06070312499997,16.27655336150753L219.26953125,16.2534672840472L219.339140625,16.226826880092606L219.617578125,16.20387007329587L220.03523437500002,16.176161145668082L220.94015625,16.14672228577572L221.21859375,16.12096530783734L221.35781250000002,16.092275774743996L221.70585937500002,16.06366208183678L221.9146875,16.03452473328461L222.05390624999998,16.006062953567643L222.33234375,15.980667048513995L222.680390625,15.95713106998593L222.958828125,15.937240227713152L223.237265625,15.910240900934049L223.44609375,15.873176322237992L224.490234375,15.854677269329366L225.186328125,15.834440795981422L225.25593750000002,15.815446832203609L225.32554687500001,15.788776367669241L225.534375,15.766332310556448L225.603984375,15.74572680963935L225.95203125,15.728139318470477L226.3696875,15.70111904326888L226.439296875,15.677128577926924L226.50890625,15.659706426326933L226.578515625,15.639965450119321L226.648125,15.626771311165106L226.71773437500002,15.59826987477932L226.78734375,15.576327497030837L227.34421875,15.550317863222677L228.945234375,15.533793794739598L229.01484375,15.509077538572837L229.08445312499998,15.490302155619505L229.57171875,15.472162244571534L230.33742187500002,15.447613958975783L230.40703125000002,15.423128581375416L230.476640625,15.394604619962283L230.75507812499998,15.371422505031912L231.311953125,15.35180952052718L231.3815625,15.32464768408112L231.590390625,15.293466544379813L231.72960937500002,15.26645016420927L231.79921875,15.237169808490568L231.9384375,15.214956570138925L232.77374999999998,15.18697693566114L232.91296875,15.172450263635978L233.121796875,15.14633276512128L233.261015625,15.129576309473634L233.6090625,15.111701244657972L233.817890625,15.094451336305902L234.02671875000001,15.063913868183743L234.653203125,15.043299215677887L234.7228125,15.018685323589517L235.14046875,14.995289912567914L235.2796875,14.96733036292192L235.349296875,14.941173210801198L235.76695312500001,14.92892922641309L235.97578125,14.903455269482924L236.045390625,14.888415113796977L236.3934375,14.868231326809823L236.53265625,14.855000999598229L236.671875,14.831456734867555L236.880703125,14.806822335116168L236.9503125,14.790284788156136L237.5071875,14.775508972661122L237.85523437499998,14.750453713453805L237.994453125,14.726033258200559L238.0640625,14.698811903998497L238.13367187499998,14.666511304176211L238.412109375,14.647433351563617L238.899375,14.622121433426425L239.1778125,14.589454345563624L239.386640625,14.56827112990385L239.45624999999998,14.548849332042499L239.59546875,14.524920610681283L240.15234375,14.495930341605614L240.500390625,14.47497034812536L241.335703125,14.451789365067363L241.68375,14.453075571095006L241.82296875,14.424860452835395L241.892578125,14.400682344091342L242.10140625000003,14.377696146318431L242.79749999999999,14.351369716647545L243.21515625,14.321147955502306L243.49359375,14.296086898657975L243.841640625,14.267697790777692L243.980859375,14.23937765032456L244.12007812500002,14.21733048311317L244.259296875,14.200409382775568L244.39851562500002,14.16663264061579L244.60734374999998,14.158827396741618L244.676953125,14.140917390005754L244.7465625,14.110686143698889L244.955390625,14.090075474037452L245.025,14.070075687436354L245.094609375,14.046759086397433L245.373046875,14.019575482605493L245.44265625,14.001977943235161L245.512265625,13.974908564993836L245.72109375,13.954615233410085L245.79070312500002,13.931576177904342L245.929921875,13.909150726883604L245.99953125,13.896824590310842L246.27796874999999,13.878393125106314L246.4171875,13.854432428166476L246.48679687499998,13.847236912676111L246.55640624999998,13.818909636393442L246.83484374999998,13.796211420912254L246.9740625,13.784127000228871L247.11328125,13.75818627020766L247.322109375,13.736192211336594L247.94859375,13.710922425447055L248.15742187499998,13.689592283876449L248.296640625,13.666650942774396L248.435859375,13.647638334382794L248.575078125,13.630883106398148L248.714296875,13.608087145632728L249.34078125,13.578716412708792L249.61921875,13.565974826350066L249.7584375,13.552711591436331L249.967265625,13.548850875791864L250.524140625,13.52737092647128L250.80257812500003,13.508693887772374L251.08101562500002,13.48345889669115L251.49867187499999,13.458282963623148L251.7075,13.436462354413923L251.9859375,13.420732147906186L252.12515625,13.398454530419095L252.40359375,13.375132267811923L252.473203125,13.3540560940812L252.96046875,13.327005591798708L253.16929687500001,13.310415077168479L253.23890624999999,13.28730085874362L253.58695312499998,13.263693738464L253.6565625,13.24341816191362L253.726171875,13.21936912560423L253.86539062499997,13.194830335873505L254.07421875,13.176888935431808L254.422265625,13.158444286520496L254.63109375,13.140042195207293L254.700703125,13.111890734314066L254.83992187500002,13.100656773659004L255.25757812499998,13.080756149437855L255.953671875,13.057100778778699L256.4409375,13.042723522456246L256.649765625,13.022957005887166L256.719375,12.999984542988066L257.206640625,12.985729094867025L257.27625,12.97150626394868L257.34585937500003,12.953530159091532L257.41546875,12.938297480240736L257.76351562499997,12.922019325546806L257.97234375,12.898761031406947L258.738046875,12.880410711463442L259.573359375,12.867493133056874L259.64296875,12.84436855335899L259.712578125,12.821834890981549L259.851796875,12.800966579750266L259.991015625,12.779070154245332L260.3390625,12.762059789844901L260.547890625,12.738643354926488L260.6175,12.72333050139686L260.75671875,12.697861187449265L260.826328125,12.68156195825018L261.31359375,12.662085271807719L261.4528125,12.64265246107498L261.59203125,12.628078606868009L262.14890625,12.609794667858292L262.218515625,12.595826729638981L262.5665625,12.571743586483734L262.636171875,12.55038296304842L263.053828125,12.536537302332546L263.193046875,12.511528922383675L263.332265625,12.499361385771193L263.471484375,12.498933277917848L263.749921875,12.50701884540003L263.95875,12.494881086033867L264.2371875,12.487021502055395L264.65484375,12.471744485922907L264.863671875,12.455439948854135L264.93328125,12.434928334461974L265.002890625,12.414992346756113L265.420546875,12.392981521608888L265.9078125,12.367842790854187L265.977421875,12.35334226064699L266.255859375,12.334643400014759L266.395078125,12.318099808883293L266.46468749999997,12.302120910422637L266.534296875,12.286705163739915L266.812734375,12.268685742199544L267.16078125,12.255978125618979L267.64804687500003,12.232233731242507L267.92648437500003,12.218546493007354L268.204921875,12.201205501924575L268.27453125,12.182324791328286L268.483359375,12.163485497311969L268.761796875,12.138383630479602L268.901015625,12.112286750343086L269.318671875,12.09201859961228L269.5275,12.088575011710907L269.66671875000003,12.073085250020469L269.80593749999997,12.052391655432368L269.94515625,12.032790110938206L270.153984375,12.015323839300281L270.293203125,11.995804245026864L270.50203125,11.977894697694447L270.571640625,11.956368503813117L270.78046875,11.932279425793123L270.9196875,11.910329096205931L271.33734375,11.8931180738606L271.685390625,11.867608298653746L271.755,11.852567679547954" style="fill: none;" fill="none"></path></g><g><path stroke="rgb(255, 112, 67)" stroke-width="2px" d="M37.589062500000004,177.42413573245403L37.658671875,175.08203914721668L37.72828125,173.20073556106803L37.797890625,171.86364963295884L37.8675,170.1148432185862L37.937109375000006,168.18589427588145L38.006718750000005,166.9626174757927L38.076328125,165.33390986238217L38.1459375,164.12954689402716L38.215546875,163.05433784442633L38.28515625,161.30650444273476L38.354765625000006,159.39860427851661L38.424375000000005,157.95159559466555L38.493984375000004,156.43924966114523L38.56359375,155.86126667234794L38.633203125,154.32504260469653L38.7028125,153.062494482916L38.772421875000006,151.69165581777798L38.842031250000005,150.55684442640802L38.911640625000004,149.2620902702347L38.98125,147.74287249090145L39.050859375,146.7489153560212L39.12046875,145.64099800796208L39.190078125,144.4084682232233L39.2596875,143.39689434757275L39.329296875,142.11199090901982L39.398906249999996,141.06350085818943L39.468515624999995,140.28614035961328L39.538124999999994,139.5461279012797L39.607734375,139.03657503012505L39.67734375,137.63870958069896L39.746953125,136.5402301096918L39.816562499999996,135.7055851782701L39.886171874999995,134.50596315529654L39.955781249999994,133.69358578017759L40.025390625,132.84413994255246L40.095,132.25655289892833L40.164609375,131.28494175716057L40.23421875,130.5502240370132L40.303828124999995,129.7011952142693L40.373437499999994,128.9450429478542L40.443046875,128.15718315234946L40.51265625,127.40484508381351L40.582265625,126.73986660100283L40.651875,125.72708439822861L40.721484374999996,124.9854629551937L40.791093749999995,124.35963801658038L40.860703125,123.67772757534505L40.9303125,122.94545331976774L40.999921875,122.22946245526147L41.06953125,121.62758530553454L41.139140624999996,121.02008083446324L41.208749999999995,120.47382339123914L41.278359375,119.96487283529551L41.34796875,119.16888740254396L41.417578125,118.43263880345691L41.4871875,117.75074013619692L41.556796874999996,117.1850006005656L41.626406249999995,116.32695240337546L41.696015625,115.70739922981755L41.765625,115.1138268133254L41.835234375,114.35543253269915L41.90484375,113.77317058997671L41.974453125,113.09217080482843L42.044062499999995,112.68827880901688L42.113671875,112.19058190343989L42.18328125,111.66003678902614L42.252890625,111.07181951858178L42.3225,110.56451208989074L42.392109375,110.04432278502689L42.461718749999996,109.78410123072564L42.531328125,109.33596677163318L42.6009375,108.8372541125756L42.670546875,108.31064723274223L42.74015625,107.87500005558206L42.809765625,107.3687509717454L42.879374999999996,107.00230498660252L42.948984375,106.50607148467202L43.01859375,106.0445868885984L43.088203125,105.98368187158523L43.1578125,105.47043447174698L43.227421875,105.3323717820366L43.297031249999996,105.17096592009662L43.366640625,104.72715846433199L43.43625,104.30446414324513L43.505859375,103.8745890756142L43.57546875,103.32180725608951L43.645078125,102.78863030791568L43.714687500000004,102.55739811136708L43.784296875,102.21364787066732L43.85390625,101.8242281646151L43.923515625,101.35555730019833L43.993125,100.94943739387699L44.062734375,100.84853446137603L44.132343750000004,100.69179826435699L44.201953125,100.35620823210839L44.2715625,99.96640555894068L44.341171875,99.51332937928392L44.41078125,98.97549055298424L44.480390625,98.78037552307694L44.550000000000004,98.54799461694697L44.619609375,98.10509993622682L44.68921875,97.62395395613544L44.758828125,97.24274726111744L44.8284375,96.9228835860609L44.898046875,96.73580567156831L44.967656250000005,96.31777257707985L45.037265625,95.8886534907182L45.106875,95.70065506755427L45.176484375,95.29308540088851L45.24609375,94.93084143099989L45.315703125,94.63871833153368L45.385312500000005,94.23907810636655L45.454921875000004,93.97836913962402L45.52453125,93.59726547154337L45.594140625,93.42383212569382L45.66375,93.05556131181275L45.733359375,92.71222699901809L45.802968750000005,92.43590238750807L45.872578125000004,92.14523322964702L45.9421875,91.83162673612937L46.011796875,91.44488619050773L46.08140625,91.06071311351846L46.151015625,90.7573843274691L46.220625000000005,90.5529367644562L46.290234375000004,90.26059232337161L46.35984375,89.90970519008508L46.429453125,89.58854106166822L46.4990625,89.29658417486719L46.568671875,89.0396455696328L46.638281250000006,88.80875035464572L46.707890625000005,88.52639962784698L46.7775,88.22039095405363L46.847109375,88.06009245451554L46.91671875,87.82373587661387L46.986328125,87.56356230280429L47.055937500000006,87.28604940583155L47.125546875000005,87.05000956664088L47.195156250000004,86.81661397153047L47.264765625,86.53986994802261L47.334375,86.2463151719675" style="fill: none;" fill="none"></path></g></g></g></g><g opacity="0.2"><g><g><g><path stroke="rgb(0, 119, 187)" stroke-width="2px" d="M35.570390625,192.65869028568272L35.848828125000004,174.55045647621156L36.05765625,182.45224721431734L36.4753125,157.4299157381058L37.310625,114.62858147621156L37.589062500000004,98.16650278568268L37.72828125,83.02141852378845L37.8675,86.97233147621156L37.937109375000006,74.79039676189423L38.076328125,84.00914676189424L38.493984375000004,96.19108147621155L38.56359375,84.33837778568268L38.633203125,65.24241573810578L38.7028125,91.9109375L39.329296875,107.3852527856827L39.746953125,77.09508426189424L39.816562499999996,60.962271761894236L39.886171874999995,69.52255971431732L39.955781249999994,56.68212778568269L40.303828124999995,72.15647823810578L40.860703125,71.49798102378845L41.34796875,66.559375L41.90484375,56.68212778568269L42.113671875,63.59619028568269L42.18328125,63.59619028568269L42.670546875,74.79039676189423L43.01859375,65.24241573810578L43.57546875,49.10960323810578L43.784296875,44.17099721431732L43.85390625,44.500228238105784L44.480390625,38.573893976211544L44.619609375,69.19329352378845L44.68921875,43.5125L44.758828125,43.18326897621154L45.24609375,44.500228238105784L45.594140625,48.45110602378846L45.733359375,66.23014397621155L45.802968750000005,31.00133426189423L46.08140625,48.78037221431733L46.429453125,39.89085323810577L46.4990625,60.63304073810577L46.707890625000005,34.95224721431731L47.125546875000005,34.95224721431731L47.195156250000004,30.672103238105763L47.334375,66.88860602378845L47.543203125000005,37.91539676189423L47.682421875,30.672103238105763L47.75203125,48.121874999999996L47.89125,53.060481023788455L48.03046875,24.08727176189423L48.100078124999996,25.07499999999999L48.587343749999995,36.92766852378845L49.14421875,56.68212778568269L49.213828125,33.63525278568268L49.2834375,48.78037221431733L49.561875,48.78037221431733L50.327578124999995,24.416502785682674L50.466796875,32.318293523788455L50.745234374999995,42.85400278568267L50.9540625,57.66985602378845L51.09328125,49.10960323810578L51.302109375,30.013606023788448L52.137421875,20.79485602378844L52.555078125,44.17099721431732L52.76390625,43.84173102378845L52.903125,41.86630971431731L52.972734375,30.013606023788448L53.111953125,40.87858147621155L53.390390625,59.316081476211544L53.668828125000005,45.487956476211544L53.808046875,28.03818471431731L54.156093750000004,35.61070926189422L55.130625,65.57164676189423L55.478671875,51.414290738105784L55.54828125,22.111815285682667L55.826718750000005,34.293749999999996L55.896328125000004,57.66985602378845L56.174765625000006,46.475684714317325L56.244375000000005,50.75579352378845L56.38359375,31.659831476211544L56.592421875,28.367415738105777L56.940468749999994,32.318293523788455L57.010078125,18.819434714317325L57.427734375,27.70891852378844L57.49734375,54.37744028568268L57.566953125,27.70891852378844L57.775781249999994,38.244627785682674L58.402265625,26.06272823810577L58.959140624999996,36.26920647621154L59.864062499999996,30.672103238105763L60.072890625,35.28147823810578L60.351328125,58.328353238105784L60.768984375,43.5125L61.047421875,39.561622214317325L61.117031250000004,29.355143976211536L61.186640625,37.58616573810576L61.67390625,41.53704352378844L62.021953125,34.62298102378844L62.0915625,31.659831476211544L63.205312500000005,29.355143976211536L63.692578125000004,47.46337778568268L64.110234375,23.758040738105763L64.17984375,17.17320926189423L64.3190625,23.758040738105763L64.73671875000001,51.08505971431732L65.363203125,23.099543523788448L65.502421875,30.672103238105763L65.57203125,48.78037221431733L65.78085937499999,19.14866573810577L66.198515625,26.391959261894215L66.825,41.207812499999996L67.033828125,34.62298102378844L67.1034375,40.54931528568268L67.729921875,19.80712778568268L67.79953125,28.03818471431731L68.565234375,24.745768976211544L68.7740625,22.441081476211536L68.843671875,16.514747214317318L68.982890625,33.306021761894215L69.122109375,22.770312500000003L70.09664062499999,35.28147823810578L70.4446875,29.355143976211536L70.58390625,33.306021761894215L70.792734375,29.025877785682667L71.349609375,17.831706476211544L71.767265625,30.672103238105763L71.90648437499999,20.465624999999996L72.1153125,27.05045647621155L72.184921875,40.54931528568268L72.39375,21.12412221431731L72.53296875000001,12.563834261894215L72.88101562499999,25.07499999999999L72.950625,57.340625L73.57710937499999,22.770312500000003L73.71632812499999,25.07499999999999L73.994765625,66.88860602378845L74.064375,18.819434714317325L74.41242187499999,29.355143976211536L74.690859375,31.98906249999999L74.76046875,27.70891852378844L75.108515625,31.330565285682674L75.247734375,25.733497214317325L75.31734375,34.95224721431731L75.38695312499999,32.647559714317325L75.4565625,16.514747214317318L75.59578125,25.07499999999999L75.665390625,29.684375000000003L76.01343750000001,14.868521761894222L76.083046875,17.831706476211544L76.5703125,25.404231023788455L76.70953125000001,32.97679073810577L77.1271875,20.13639397621155L77.26640625,28.03818471431731L77.614453125,19.477896761894215L77.9625,13.88079352378844L78.10171875,16.185481023788448L78.93703124999999,8.283690285682667L79.424296875,28.03818471431731L79.49390625,16.514747214317318L79.63312499999999,38.573893976211544L79.702734375,12.893065285682662L79.77234374999999,24.416502785682674L79.841953125,25.404231023788455L79.981171875,13.88079352378844L80.19,30.013606023788448L80.4684375,19.477896761894215L80.816484375,24.08727176189423L81.0253125,31.659831476211544L81.30375,23.758040738105763L81.512578125,15.197752785682667L81.58218749999999,19.477896761894215L81.72140625,28.367415738105777L81.791015625,26.72119028568268L81.99984375,32.318293523788455L82.06945312500001,24.745768976211544L82.27828124999999,36.5984375L82.347890625,13.551562499999996L82.6959375,21.12412221431731L82.765546875,15.856250000000003L83.25281249999999,14.868521761894222L83.461640625,24.416502785682674L83.74007812500001,19.477896761894215L83.94890625,20.465624999999996L84.08812499999999,16.843978238105763L84.22734375,9.600684714317318L84.50578125,26.391959261894215L84.78421875,27.379687499999996L84.993046875,18.490168523788455L85.06265625,20.465624999999996L85.132265625,19.80712778568268L85.201875,38.244627785682674L85.61953125,20.13639397621155L86.0371875,18.819434714317325L86.17640625,14.868521761894222L86.24601562500001,14.868521761894222L86.52445312500001,18.16093749999999L86.73328125,25.404231023788455L86.802890625,30.342872214317318L87.01171875,16.514747214317318L87.081328125,22.111815285682667L87.1509375,20.13639397621155L87.29015625,23.428809714317318L87.42937500000001,28.03818471431731L87.84703125,12.893065285682662L88.055859375,13.88079352378844L88.12546875,35.28147823810578L88.33429687499999,22.770312500000003L88.40390625,7.295997214317311L88.47351562499999,12.563834261894215L88.61273437499999,19.80712778568268L88.68234375,25.733497214317325L89.10000000000001,29.355143976211536L89.3784375,19.14866573810577L89.44804687499999,24.08727176189423L89.587265625,16.843978238105763L89.726484375,16.843978238105763L89.865703125,7.954459261894222L89.93531250000001,44.500228238105784L90.004921875,13.88079352378844L90.07453125,13.222331476211531L90.14414062499999,27.379687499999996L90.35296875,15.197752785682667L90.63140625,26.72119028568268L90.840234375,45.158690285682674L90.97945312499999,11.576106023788435L91.0490625,20.465624999999996L91.11867187499999,28.367415738105777L91.536328125,25.07499999999999L91.60593750000001,41.86630971431731L91.74515625000001,31.659831476211544L91.95398437499999,20.13639397621155L92.232421875,26.72119028568268L92.44125000000001,16.514747214317318L92.650078125,24.08727176189423L92.7196875,17.17320926189423L92.85890625,13.551562499999996L92.998125,19.477896761894215L93.13734375,13.222331476211531L93.485390625,9.929915738105763L93.69421875,27.05045647621155L95.156015625,10.917643976211544L95.29523437499999,16.843978238105763L95.36484375,22.441081476211536L95.64328125,29.355143976211536L95.7825,18.819434714317325L96.0609375,7.295997214317311L96.20015624999999,21.12412221431731L96.33937499999999,26.72119028568268L96.548203125,21.12412221431731L96.687421875,20.79485602378844L96.75703125,41.207812499999996L97.17468749999999,20.13639397621155L97.453125,21.453353238105777L97.940390625,30.672103238105763L98.00999999999999,14.868521761894222L98.079609375,11.246874999999989L98.14921874999999,33.306021761894215L98.497265625,11.246874999999989L98.63648437500001,17.831706476211544L98.84531249999999,14.539290738105757L98.914921875,27.379687499999996L98.98453124999999,12.23460323810577L99.054140625,15.856250000000003L99.61101562500001,24.08727176189423L99.68062499999999,27.70891852378844L99.889453125,14.21005971431731L100.37671875,13.551562499999996L100.585546875,34.95224721431731L101.14242187500001,48.121874999999996L101.21203125,18.490168523788455L101.35125,33.96451897621155L101.420859375,18.819434714317325L101.49046874999999,24.08727176189423L101.699296875,66.88860602378845L101.76890625,25.07499999999999L102.04734375,20.465624999999996L102.395390625,13.551562499999996L102.465,38.244627785682674L102.7434375,11.246874999999989L102.81304687500001,8.612956476211536L102.88265625,11.905372214317305L102.95226562500001,38.244627785682674L103.16109374999999,19.80712778568268L103.230703125,16.185481023788448L103.3003125,21.453353238105777L103.509140625,21.453353238105777L103.57875,12.23460323810577L104.135625,7.625228238105757L104.4140625,28.696646761894222L104.55328125,10.917643976211544L104.6925,17.502440285682674L104.762109375,30.013606023788448L104.9709375,32.318293523788455L105.249375,33.63525278568268L105.318984375,8.283690285682667L105.38859375,29.025877785682667L105.597421875,34.95224721431731L106.154296875,54.37744028568268L106.293515625,58.986815285682674L106.571953125,36.26920647621154L106.6415625,31.659831476211544L106.85039062499999,19.14866573810577L106.989609375,25.733497214317325L107.128828125,17.831706476211544L107.476875,12.893065285682662L108.242578125,11.905372214317305L108.38179687499999,7.295997214317311L108.799453125,16.514747214317318L108.8690625,13.222331476211531L109.00828125000001,13.551562499999996L109.14750000000001,18.16093749999999L109.4259375,20.79485602378844L109.704375,27.70891852378844L109.84359375000001,27.05045647621155L110.19164062499999,35.93994028568267L110.26125,18.16093749999999L110.330859375,15.856250000000003L110.81812500000001,19.477896761894215L110.887734375,34.293749999999996L111.305390625,16.843978238105763L111.583828125,22.441081476211536L111.65343750000001,12.23460323810577L111.723046875,25.404231023788455L112.34953125000001,18.16093749999999L112.48875000000001,30.672103238105763L112.69757812499999,19.477896761894215L113.115234375,8.942187499999983L113.18484375,29.025877785682667L113.672109375,45.81718750000001L113.811328125,20.79485602378844L114.785859375,24.416502785682674L114.9946875,17.502440285682674L115.20351562500001,6.308268976211531L115.273125,17.831706476211544L115.342734375,12.23460323810577L115.55156249999999,9.929915738105763L115.621171875,14.21005971431731L115.69078125,5.649771761894216L116.94375,6.308268976211531L117.152578125,9.600684714317318L117.291796875,8.612956476211536L117.36140625,21.782584261894222L117.7790625,3.0158532381057634L117.84867187500001,11.246874999999989L117.987890625,23.428809714317318L118.127109375,24.416502785682674L118.266328125,18.819434714317325L118.405546875,15.527018976211536L118.614375,12.563834261894215L118.75359375,5.649771761894216L118.89281249999999,3.345084261894209L119.03203125,18.16093749999999L119.31046875,17.17320926189423L120.0065625,7.625228238105757L120.285,14.539290738105757L120.56343749999999,15.527018976211536L120.633046875,14.868521761894222L120.70265625,8.942187499999983L120.841875,14.539290738105757L121.05070312500001,9.271418523788448L121.25953125,20.79485602378844L121.39874999999999,48.78037221431733L121.607578125,14.539290738105757L122.025234375,33.63525278568268L122.164453125,16.843978238105763L122.30367187499999,15.856250000000003L122.37328125,20.79485602378844L122.58210937499999,29.025877785682667L122.65171875,19.14866573810577L122.721328125,13.88079352378844L122.93015625,17.17320926189423L123.48703125,8.942187499999983L123.835078125,9.271418523788448L123.974296875,15.197752785682667L124.391953125,12.563834261894215L124.670390625,12.893065285682662L124.74000000000001,21.453353238105777L124.809609375,14.21005971431731L124.87921875,6.308268976211531L125.296875,30.672103238105763L125.505703125,16.843978238105763L125.99296875,14.21005971431731L126.1321875,8.612956476211536L126.341015625,8.942187499999983L126.41062500000001,28.696646761894222L126.61945312499999,16.185481023788448L127.037109375,12.563834261894215L127.176328125,7.295997214317311L127.38515625000001,17.831706476211544L127.59398437499999,22.441081476211536L127.66359375,33.306021761894215L127.733203125,11.246874999999989L127.8028125,13.88079352378844L127.872421875,5.32054073810577L128.290078125,17.17320926189423L129.125390625,20.13639397621155L129.543046875,14.21005971431731L129.89109375,25.733497214317325L130.16953125,15.527018976211536L130.656796875,9.600684714317318L130.796015625,8.942187499999983L131.1440625,22.770312500000003L131.213671875,9.600684714317318L131.42249999999999,13.88079352378844L131.492109375,8.942187499999983L131.631328125,7.295997214317311L131.70093749999998,9.271418523788448L131.909765625,24.745768976211544L133.093125,13.88079352378844L133.162734375,9.271418523788448L133.23234374999998,16.843978238105763L133.580390625,9.600684714317318L133.78921875,10.25914676189421L134.06765625,21.12412221431731L134.137265625,4.991309714317305L134.206875,22.111815285682667L134.4853125,7.625228238105757L134.554921875,35.93994028568267L134.62453125,19.14866573810577L134.76375,10.917643976211544L135.04218749999998,8.612956476211536L135.18140625,14.868521761894222L136.086328125,33.63525278568268L136.1559375,18.819434714317325L136.782421875,12.893065285682662L136.85203125,14.868521761894222L137.617734375,8.283690285682667L138.17460937500002,4.991309714317305L138.24421875,10.588377785682674L138.453046875,7.954459261894222L138.592265625,11.576106023788435L138.661875,25.07499999999999L139.21875,17.502440285682674L139.288359375,5.32054073810577L139.35796875,4.991309714317305L139.63640625,7.954459261894222L139.775625,16.514747214317318L139.91484375,7.954459261894222L140.47171874999998,6.308268976211531L140.819765625,8.283690285682667L140.889375,8.283690285682667L141.098203125,8.612956476211536L141.58546875,13.222331476211531L141.72468750000002,11.246874999999989L142.42078124999998,7.954459261894222L142.768828125,0.7111657381057569L142.8384375,6.308268976211531L142.97765625,11.576106023788435L143.04726562500002,31.00133426189423L143.464921875,19.477896761894215L143.9521875,29.684375000000003L144.021796875,5.32054073810577L144.64828125,4.3328124999999895L144.92671875,13.551562499999996L145.06593750000002,11.246874999999989L145.344375,12.563834261894215L145.970859375,9.929915738105763L146.110078125,16.843978238105763L146.31890625,13.222331476211531L146.458125,9.600684714317318L146.527734375,9.271418523788448L146.87578125,4.991309714317305L147.43265624999998,11.246874999999989L147.571875,11.246874999999989L148.059140625,1.0403967618942223L148.12875,4.003581476211544L148.40718750000002,6.966731023788442L148.75523437500001,5.649771761894216L148.9640625,16.514747214317318L149.10328124999998,9.600684714317318L149.312109375,9.929915738105763L149.5209375,7.295997214317311L149.799375,5.32054073810577L150.286640625,12.563834261894215L150.35625000000002,6.308268976211531L150.913125,17.502440285682674L151.05234375,7.625228238105757L151.1915625,4.6620435237884355L151.400390625,13.551562499999996L151.47,6.308268976211531L151.88765625,2.3573560237884483L151.957265625,7.625228238105757L152.51414062499998,10.588377785682674L152.72296875,14.539290738105757L152.79257812499998,13.551562499999996L152.8621875,20.465624999999996L152.931796875,11.246874999999989L153.071015625,10.917643976211544L153.27984375,13.222331476211531L153.76710937500002,26.06272823810577L153.83671875,9.600684714317318L154.18476562499998,11.905372214317305L154.323984375,17.17320926189423L154.39359375,4.3328124999999895L154.46320312499998,15.856250000000003L155.08968750000003,5.32054073810577L155.36812500000002,6.966731023788442L155.50734375,8.612956476211536L155.576953125,21.12412221431731L155.71617187500001,11.576106023788435L156.06421875,8.612956476211536L156.13382812499998,7.625228238105757L156.273046875,17.502440285682674L156.34265625,19.477896761894215L156.412265625,24.745768976211544L156.62109375,22.770312500000003L156.7603125,12.893065285682662L156.89953125,20.465624999999996L157.52601562499999,2.028124999999983L157.73484375,1.6988939762115374L158.361328125,4.6620435237884355L158.77898437500002,11.905372214317305L158.84859375,6.966731023788442L159.26624999999999,5.32054073810577L159.335859375,11.246874999999989L159.40546875,2.3573560237884483L159.96234375,2.3573560237884483L160.38,8.283690285682667L160.44960937500002,8.612956476211536L161.006484375,3.6743152856826744L161.07609375,17.502440285682674L161.284921875,17.17320926189423L161.7721875,6.637499999999996L161.91140625,6.966731023788442L162.18984375,2.3573560237884483L162.6075,6.966731023788442L162.88593749999998,9.271418523788448L162.955546875,6.637499999999996L163.16437499999998,18.490168523788455L163.512421875,9.271418523788448L163.79085937500003,7.954459261894222L164.06929687500002,8.612956476211536L164.69578125,13.222331476211531L164.83499999999998,2.686622214317318L164.904609375,28.696646761894222L165.322265625,9.271418523788448L165.391875,2.028124999999983L165.461484375,5.9790027856826615L165.600703125,6.308268976211531L165.739921875,12.23460323810577L166.57523437499998,1.3696277856826677L167.20171875,1.0403967618942223L167.48015625000002,19.477896761894215L167.82820312500002,0.7111657381057569L167.8978125,11.246874999999989L168.24585937499998,6.308268976211531L168.31546875,3.6743152856826744L168.385078125,12.893065285682662L168.663515625,7.295997214317311L168.733125,9.600684714317318L169.15078125000002,5.649771761894216L169.42921875000002,9.929915738105763L169.49882812500002,3.6743152856826744L169.5684375,9.929915738105763L169.70765625,9.271418523788448L170.1253125,3.6743152856826744L170.334140625,8.942187499999983L170.473359375,16.514747214317318L170.6821875,-1.5935217618942497L170.891015625,5.9790027856826615L171.09984375000002,37.91539676189423L171.2390625,12.563834261894215L171.726328125,2.686622214317318L171.86554687499998,7.295997214317311L172.700859375,14.539290738105757L172.77046875000002,9.271418523788448L172.84007812500002,3.6743152856826744L173.814609375,11.246874999999989L174.093046875,5.9790027856826615L174.371484375,-0.9350597143173192L174.44109375,12.23460323810577L174.649921875,6.637499999999996L174.71953125,5.32054073810577L174.92835937499999,6.308268976211531L175.067578125,3.6743152856826744L175.20679687499998,3.0158532381057634L175.55484374999997,5.9790027856826615L175.763671875,7.295997214317311L175.902890625,2.028124999999983L176.11171875,7.295997214317311L176.320546875,14.868521761894222L176.52937500000002,7.295997214317311L176.66859374999999,2.3573560237884483L176.87742187499998,13.551562499999996L177.08625,1.6988939762115374L177.155859375,7.295997214317311L177.3646875,3.6743152856826744L177.573515625,2.686622214317318L178.20000000000002,3.6743152856826744L178.33921875,3.0158532381057634L178.687265625,17.502440285682674L179.0353125,10.25914676189421L179.104921875,2.3573560237884483L179.17453125,19.477896761894215L179.31375,4.6620435237884355L179.383359375,4.991309714317305L179.52257812500002,19.80712778568268L179.661796875,5.649771761894216L179.87062500000002,13.88079352378844L179.940234375,5.649771761894216L180.21867187499998,-1.9227527856826756L180.56671874999998,5.649771761894216L180.7059375,14.539290738105757L181.19320312500003,-0.9350597143173192L181.332421875,2.3573560237884483L181.40203125,10.25914676189421L181.610859375,4.991309714317305L181.75007812500002,1.0403967618942223L182.028515625,7.295997214317311L182.23734374999998,23.099543523788448L182.3765625,11.576106023788435L182.51578125,0.05266852378844167L182.585390625,7.625228238105757L182.9334375,1.6988939762115374L183.21187500000002,0.7111657381057569L183.281484375,4.991309714317305L183.35109375,7.625228238105757L183.62953124999999,8.942187499999983L183.69914062499998,4.003581476211544L183.838359375,7.295997214317311L183.90796874999998,1.3696277856826677L184.0471875,3.345084261894209L184.116796875,3.0158532381057634L184.18640625,0.3819347143173113L184.325625,0.7111657381057569L184.395234375,12.23460323810577L184.534453125,3.345084261894209L184.88250000000002,2.686622214317318L184.952109375,3.6743152856826744L185.36976562499999,6.637499999999996L185.439375,1.3696277856826677L185.508984375,0.3819347143173113L185.787421875,18.16093749999999L185.92664062499998,4.6620435237884355L186.065859375,5.649771761894216L186.344296875,17.17320926189423L187.040390625,6.966731023788442L187.179609375,5.649771761894216L187.31882812499998,2.686622214317318L187.3884375,6.308268976211531L187.666875,5.9790027856826615L187.80609375,11.246874999999989L187.875703125,13.551562499999996L187.9453125,11.905372214317305L188.154140625,13.551562499999996L188.432578125,7.295997214317311L188.711015625,3.6743152856826744L188.91984374999998,5.649771761894216L189.6159375,6.308268976211531L189.685546875,10.917643976211544L189.963984375,7.625228238105757L190.103203125,4.991309714317305L190.31203125,1.6988939762115374L190.45125000000002,7.625228238105757L190.52085937500001,4.003581476211544L190.66007812499998,6.966731023788442L190.7296875,-1.5935217618942497L190.799296875,2.3573560237884483L190.86890625,0.05266852378844167L191.008125,8.283690285682667L191.14734375,16.843978238105763L191.216953125,0.7111657381057569L191.495390625,7.954459261894222L191.565,2.028124999999983L191.70421875,3.0158532381057634L191.91304687500002,5.32054073810577L192.26109375000001,5.649771761894216L193.09640625,1.6988939762115374L193.37484375,2.028124999999983L193.58367187500002,28.03818471431731L193.93171875000002,-0.6057935237884495L194.07093749999999,5.9790027856826615L194.27976562499998,8.612956476211536L194.697421875,6.308268976211531L194.76703125,12.893065285682662L194.90625,13.551562499999996L195.115078125,5.9790027856826615L195.32390625,1.0403967618942223L195.393515625,14.21005971431731L195.463125,4.3328124999999895L196.089609375,-2.252018976211545L196.15921875,4.003581476211544L196.228828125,8.612956476211536L196.29843749999998,2.686622214317318L196.43765625,11.905372214317305L196.576875,15.197752785682667L196.785703125,-0.2765625000000236L197.13375,5.649771761894216L197.27296875000002,3.345084261894209L197.342578125,8.283690285682667L197.4121875,2.3573560237884483L197.48179687500001,3.0158532381057634L198.038671875,11.905372214317305L198.66515625,0.7111657381057569L199.013203125,0.7111657381057569L199.570078125,7.295997214317311L199.63968749999998,2.3573560237884483L199.848515625,4.6620435237884355L200.126953125,4.3328124999999895L200.61421875000002,9.271418523788448L200.823046875,2.686622214317318L201.03187499999999,18.819434714317325L201.10148437499998,-2.5812500000000105L201.17109375,2.686622214317318L201.31031249999998,-3.2397472143173456L201.8671875,19.14866573810577L202.00640625,14.539290738105757L202.145625,4.991309714317305L202.28484375000002,4.6620435237884355L202.98093749999998,5.32054073810577L203.5378125,8.283690285682667L203.607421875,5.32054073810577L203.67703125,7.954459261894222L203.95546875000002,2.3573560237884483L204.373125,1.0403967618942223L204.93,3.6743152856826744L205.34765625,4.991309714317305L205.417265625,5.32054073810577L205.486875,-2.5812500000000105L205.556484375,-3.2397472143173456L205.695703125,1.0403967618942223L205.834921875,7.625228238105757L206.04375,6.966731023788442L206.600625,2.686622214317318L207.087890625,4.991309714317305L207.366328125,1.3696277856826677L207.505546875,2.3573560237884483L207.783984375,4.6620435237884355L207.85359375000002,1.0403967618942223L207.99281249999999,11.246874999999989L208.34085937499998,-0.6057935237884495L208.5496875,-0.6057935237884495L208.68890625,2.686622214317318L208.897734375,5.32054073810577L208.96734375,1.0403967618942223L209.036953125,4.3328124999999895L209.73304687499999,2.686622214317318L209.80265624999998,3.6743152856826744L209.941875,2.3573560237884483L210.01148437499998,2.3573560237884483L210.08109374999998,2.028124999999983L210.150703125,6.966731023788442L210.429140625,2.3573560237884483L210.568359375,4.6620435237884355L210.7771875,3.6743152856826744L210.91640625,1.6988939762115374L211.055625,2.3573560237884483L211.19484375,3.6743152856826744L211.821328125,2.3573560237884483L212.099765625,13.88079352378844L212.238984375,1.0403967618942223L212.378203125,-3.2397472143173456L212.517421875,2.028124999999983L212.72625,2.3573560237884483L212.93507812500002,-0.9350597143173192L213.35273437499998,10.917643976211544L213.42234374999998,9.929915738105763L213.70078124999998,-1.2642907381057844L213.909609375,4.991309714317305L214.1184375,5.32054073810577L214.25765625,6.308268976211531L214.60570312500002,4.6620435237884355L214.88414062500001,4.991309714317305L215.09296874999998,4.3328124999999895L215.162578125,1.6988939762115374L215.2321875,4.6620435237884355L215.301796875,4.991309714317305L215.510625,-0.2765625000000236L215.7890625,1.6988939762115374L216.20671875,5.649771761894216L216.27632812500002,1.3696277856826677L216.48515625,2.686622214317318L216.833203125,4.991309714317305L217.04203124999998,2.3573560237884483L217.111640625,1.3696277856826677L217.250859375,5.649771761894216L217.390078125,5.9790027856826615L217.529296875,2.686622214317318L217.59890625,-0.9350597143173192L217.807734375,-1.2642907381057844L217.87734375,1.3696277856826677L218.01656250000002,3.345084261894209L218.225390625,0.3819347143173113L218.29500000000002,1.6988939762115374L218.43421874999999,4.6620435237884355L218.851875,2.3573560237884483L219.06070312499997,1.3696277856826677L219.26953125,3.6743152856826744L219.339140625,1.6988939762115374L219.617578125,3.6743152856826744L220.03523437500002,1.0403967618942223L220.94015625,0.05266852378844167L221.21859375,2.028124999999983L221.35781250000002,0.3819347143173113L221.70585937500002,0.3819347143173113L221.9146875,0.05266852378844167L222.05390624999998,0.3819347143173113L222.33234375,2.028124999999983L222.680390625,3.0158532381057634L222.958828125,4.991309714317305L223.237265625,1.0403967618942223L223.44609375,-4.556706476211572L224.490234375,5.649771761894216L225.186328125,4.6620435237884355L225.25593750000002,5.32054073810577L225.32554687500001,1.0403967618942223L225.534375,3.345084261894209L225.603984375,4.3328124999999895L225.95203125,5.9790027856826615L226.3696875,0.7111657381057569L226.439296875,2.3573560237884483L226.50890625,5.9790027856826615L226.578515625,4.6620435237884355L226.648125,8.283690285682667L226.71773437500002,-0.2765625000000236L226.78734375,3.345084261894209L227.34421875,1.0403967618942223L228.945234375,6.308268976211531L229.01484375,1.6988939762115374L229.08445312499998,4.991309714317305L229.57171875,5.32054073810577L230.33742187500002,1.6988939762115374L230.40703125000002,1.6988939762115374L230.476640625,-0.6057935237884495L230.75507812499998,2.3573560237884483L231.311953125,4.3328124999999895L231.3815625,0.05266852378844167L231.590390625,-2.252018976211545L231.72960937500002,0.05266852378844167L231.79921875,-1.2642907381057844L231.9384375,2.686622214317318L232.77374999999998,-0.6057935237884495L232.91296875,6.966731023788442L233.121796875,0.3819347143173113L233.261015625,5.649771761894216L233.6090625,4.991309714317305L233.817890625,5.32054073810577L234.02671875000001,-2.252018976211545L234.653203125,3.345084261894209L234.7228125,1.0403967618942223L235.14046875,1.6988939762115374L235.2796875,-0.9350597143173192L235.349296875,0.05266852378844167L235.76695312500001,7.954459261894222L235.97578125,0.3819347143173113L236.045390625,6.308268976211531L236.3934375,3.345084261894209L236.53265625,7.295997214317311L236.671875,1.3696277856826677L236.880703125,0.7111657381057569L236.9503125,5.32054073810577L237.5071875,6.308268976211531L237.85523437499998,0.3819347143173113L237.994453125,0.7111657381057569L238.0640625,-0.9350597143173192L238.13367187499998,-3.8982092618942366L238.412109375,3.6743152856826744L238.899375,0.05266852378844167L239.1778125,-4.227440285682702L239.386640625,2.3573560237884483L239.45624999999998,3.345084261894209L239.59546875,0.7111657381057569L240.15234375,-2.252018976211545L240.500390625,2.3573560237884483L241.335703125,1.0403967618942223L241.68375,15.197752785682667L241.82296875,-1.9227527856826756L241.892578125,0.3819347143173113L242.10140625000003,1.0403967618942223L242.79749999999999,-0.9350597143173192L243.980859375,-2.252018976211545L244.12007812500002,1.3696277856826677L244.259296875,4.3328124999999895L244.39851562500002,-5.544434714317332L244.60734374999998,9.600684714317318L244.676953125,3.6743152856826744L244.7465625,-3.568978238105771L244.955390625,2.028124999999983L245.025,2.3573560237884483L245.094609375,0.3819347143173113L245.373046875,-1.9227527856826756L245.44265625,3.6743152856826744L245.512265625,-1.9227527856826756L245.72109375,2.028124999999983L245.79070312500002,0.3819347143173113L245.929921875,0.7111657381057569L245.99953125,6.637499999999996L246.27796874999999,3.0158532381057634L246.4171875,-0.2765625000000236L246.48679687499998,9.600684714317318L246.55640624999998,-2.910481023788476L246.83484374999998,0.3819347143173113L246.9740625,6.637499999999996L247.11328125,-1.5935217618942497L247.322109375,0.7111657381057569L247.94859375,-1.2642907381057844L248.15742187499998,1.0403967618942223L248.296640625,0.05266852378844167L248.435859375,2.3573560237884483L248.575078125,3.6743152856826744L248.714296875,0.05266852378844167L249.34078125,-3.8982092618942366L249.61921875,5.9790027856826615L249.7584375,5.649771761894216L249.967265625,11.246874999999989L250.524140625,0.7111657381057569L250.80257812500003,2.3573560237884483L251.08101562500002,-1.5935217618942497L251.49867187499999,-1.5935217618942497L251.7075,0.3819347143173113L251.9859375,4.003581476211544L252.12515625,0.05266852378844167L252.40359375,-0.6057935237884495L252.473203125,0.7111657381057569L252.96046875,-2.910481023788476L253.16929687500001,3.345084261894209L253.23890624999999,-0.6057935237884495L253.58695312499998,-0.9350597143173192L253.6565625,1.0403967618942223L253.726171875,-1.2642907381057844L253.86539062499997,-1.5935217618942497L254.07421875,2.3573560237884483L254.422265625,2.028124999999983L254.63109375,2.028124999999983L254.700703125,-3.8982092618942366L254.83992187500002,6.308268976211531L255.25757812499998,1.0403967618942223L255.953671875,-1.2642907381057844L256.4409375,4.3328124999999895L256.649765625,1.0403967618942223L256.719375,-0.9350597143173192L257.206640625,4.3328124999999895L257.27625,4.3328124999999895L257.34585937500003,2.028124999999983L257.41546875,3.6743152856826744L257.76351562499997,3.0158532381057634L257.97234375,-1.2642907381057844L258.738046875,1.6988939762115374L259.573359375,4.991309714317305L259.64296875,-1.2642907381057844L259.712578125,-0.9350597143173192L259.851796875,0.05266852378844167L259.991015625,-0.6057935237884495L260.3390625,2.3573560237884483L260.547890625,-1.5935217618942497L260.6175,3.345084261894209L260.75671875,-2.910481023788476L260.826328125,2.686622214317318L261.31359375,0.7111657381057569L261.4528125,0.7111657381057569L261.59203125,3.6743152856826744L262.14890625,1.3696277856826677L262.218515625,4.003581476211544L262.5665625,-2.252018976211545L262.636171875,-0.6057935237884495L263.053828125,4.003581476211544L263.193046875,-2.910481023788476L263.332265625,4.991309714317305L263.471484375,12.23460323810577L263.749921875,17.502440285682674L263.95875,4.991309714317305L264.2371875,7.625228238105757L264.65484375,3.0158532381057634L264.863671875,2.3573560237884483L264.93328125,-0.2765625000000236L265.002890625,0.05266852378844167L265.420546875,-1.2642907381057844L265.9078125,-3.2397472143173456L265.977421875,3.345084261894209L266.255859375,0.7111657381057569L266.395078125,2.028124999999983L266.46468749999997,2.3573560237884483L266.534296875,2.686622214317318L266.812734375,1.0403967618942223L267.16078125,4.3328124999999895L267.64804687500003,-2.5812500000000105L267.92648437500003,3.6743152856826744L268.204921875,1.3696277856826677L268.27453125,0.3819347143173113L268.483359375,0.3819347143173113L268.761796875,-3.568978238105771L269.318671875,-0.6057935237884495L269.5275,9.929915738105763L269.66671875000003,2.3573560237884483L269.80593749999997,-0.9350597143173192L269.94515625,-0.2765625000000236L270.153984375,1.0403967618942223L270.293203125,-0.2765625000000236L270.50203125,0.7111657381057569L270.571640625,-1.5935217618942497L270.9196875,-1.9227527856826756L271.33734375,1.0403967618942223L271.685390625,-4.227440285682702L271.755,2.3573560237884483" style="fill: none;" fill="none"></path></g><g><path stroke="rgb(255, 112, 67)" stroke-width="2px" d="M35.50078125,208.46227176189424L35.570390625,173.23349721431734L35.64,205.1698560237885L35.709609375,187.06162221431734L35.77921875,156.11295647621156L35.848828125000004,190.68326897621156L35.9184375,161.38079352378847L35.988046875,178.83056528568272L36.05765625,161.71005971431734L36.127265625,188.70781250000005L36.196875,176.19664676189424L36.266484375000005,177.84287221431737L36.33609375,159.07610602378847L36.405703125,118.90869028568271L36.4753125,121.2133777856827L36.544921875,121.87187500000003L36.61453125,173.5627282381058L36.684140625000005,139.98014397621156L36.753750000000004,137.01695926189424L36.823359375,110.01920647621155L36.89296875,142.61406250000002L36.962578125,140.30937500000002L37.0321875,145.9064782381058L37.101796875000005,107.05602176189423L37.171406250000004,91.25244028568268L37.241015625,103.43437500000002L37.310625,96.84954352378845L37.380234375,111.33616573810578L37.44984375,136.6877282381058L37.519453125000005,110.34843750000002L37.589062500000004,100.80045647621156L37.658671875,81.04599721431732L37.72828125,95.86181528568268L37.797890625,115.61630971431732L37.8675,94.87412221431732L37.937109375000006,83.35068471431732L38.006718750000005,111.99462778568271L38.076328125,90.59397823810578L38.1459375,107.71451897621156L38.215546875,111.66539676189424L38.28515625,76.10735602378845L38.354765625000006,64.58391852378845L38.424375000000005,84.66764397621155L38.493984375000004,78.41204352378847L38.56359375,125.49352176189424L38.633203125,72.15647823810578L38.7028125,84.33837778568268L38.772421875000006,75.77812500000002L38.842031250000005,86.6430652856827L38.911640625000004,75.11962778568268L38.98125,59.316081476211544L39.050859375,87.96005971431732L39.12046875,79.07054073810578L39.190078125,69.19329352378845L39.2596875,80.71673102378845L39.329296875,61.29150278568268L39.398906249999996,74.13193471431732L39.468515624999995,89.93548102378845L39.538124999999994,90.92320926189424L39.607734375,105.08056528568268L39.67734375,43.18326897621154L39.746953125,61.29150278568268L39.816562499999996,77.75358147621155L39.886171874999995,50.09733147621156L39.955781249999994,75.77812500000002L40.025390625,71.49798102378845L40.095,89.27701897621155L40.164609375,59.316081476211544L40.23421875,75.44889397621155L40.303828124999995,65.24241573810578L40.373437499999994,70.83951897621155L40.443046875,66.88860602378845L40.51265625,68.20556528568268L40.582265625,73.80266852378845L40.651875,44.17099721431732L40.721484374999996,64.58391852378845L40.791093749999995,72.81494028568268L40.860703125,66.88860602378845L40.9303125,61.29150278568268L40.999921875,61.29150278568268L41.06953125,69.85179073810578L41.139140624999996,68.20556528568268L41.208749999999995,72.48570926189423L41.278359375,74.79039676189423L41.34796875,47.79264397621155L41.417578125,51.74352176189423L41.4871875,55.36516852378846L41.556796874999996,64.91318471431732L41.626406249999995,36.26920647621154L41.696015625,57.340625L41.765625,58.65758426189423L41.835234375,41.53704352378844L41.90484375,57.340625L41.974453125,46.475684714317325L42.044062499999995,72.81494028568268L42.113671875,62.60849721431733L42.18328125,58.328353238105784L42.252890625,51.414290738105784L42.3225,58.65758426189423L42.392109375,56.35289676189422L42.461718749999996,82.69218750000002L42.531328125,62.27923102378846L42.6009375,56.02366573810578L42.670546875,52.072752785682674L42.74015625,60.962271761894236L42.809765625,52.402018976211544L42.879374999999996,66.88860602378845L42.948984375,51.74352176189423L43.01859375,54.70670647621155L43.088203125,99.15423102378847L43.1578125,47.46337778568268L43.227421875,89.60625000000002L43.297031249999996,86.6430652856827L43.366640625,53.389747214317325L43.43625,55.035937499999996L43.505859375,53.389747214317325L43.57546875,37.91539676189423L43.645078125,39.232356023788455L43.714687500000004,74.79039676189423L43.784296875,60.63304073810577L43.85390625,54.37744028568268L43.923515625,43.84173102378845L43.993125,50.75579352378845L44.062734375,88.28929073810579L44.132343750000004,81.04599721431732L44.201953125,57.99912221431732L44.2715625,50.4265625L44.341171875,41.53704352378844L44.41078125,29.684375000000003L44.480390625,73.4734375L44.550000000000004,68.20556528568268L44.619609375,39.89085323810577L44.68921875,33.96451897621155L44.758828125,46.475684714317325L44.8284375,54.048209261894236L44.898046875,71.49798102378845L44.967656250000005,39.561622214317325L45.037265625,37.25693471431732L45.106875,69.85179073810578L45.176484375,38.90312499999999L45.24609375,44.500228238105784L45.315703125,53.71897823810577L45.385312500000005,37.91539676189423L45.454921875000004,57.01139397621156L45.52453125,39.232356023788455L45.594140625,68.53483147621155L45.66375,39.89085323810577L45.733359375,42.85400278568267L45.802968750000005,52.072752785682674L45.872578125000004,49.43883426189422L45.9421875,45.487956476211544L46.011796875,33.96451897621155L46.08140625,33.63525278568268L46.151015625,45.158690285682674L46.220625000000005,59.64531250000001L46.290234375000004,45.81718750000001L46.35984375,36.26920647621154L46.429453125,40.220084261894215L46.4990625,44.17099721431732L46.568671875,49.10960323810578L46.638281250000006,52.73125000000001L46.707890625000005,44.17099721431732L46.7775,39.89085323810577L46.847109375,62.60849721431733L46.91671875,50.09733147621156L46.986328125,45.81718750000001L47.055937500000006,42.52477176189422L47.125546875000005,48.78037221431733L47.195156250000004,48.78037221431733L47.264765625,41.207812499999996L47.334375,37.91539676189423" style="fill: none;" fill="none"></path></g></g></g></g></g></g><g transform="translate(51, 177)" clip-path="url(#clip_1)"><clipPath id="clip_1"><rect width="278" height="23"></rect></clipPath><g><g><line x1="0" y1="0" x2="0" y2="5" style="visibility: inherit;" fill="rgb(0, 0, 0)" stroke="rgb(204, 204, 204)" stroke-width="1px"></line><line x1="34.8046875" y1="0" x2="34.8046875" y2="5" style="visibility: inherit;" fill="rgb(0, 0, 0)" stroke="rgb(204, 204, 204)" stroke-width="1px"></line><line x1="69.609375" y1="0" x2="69.609375" y2="5" style="visibility: inherit;" fill="rgb(0, 0, 0)" stroke="rgb(204, 204, 204)" stroke-width="1px"></line><line x1="104.4140625" y1="0" x2="104.4140625" y2="5" style="visibility: inherit;" fill="rgb(0, 0, 0)" stroke="rgb(204, 204, 204)" stroke-width="1px"></line><line x1="139.21875" y1="0" x2="139.21875" y2="5" style="visibility: inherit;" fill="rgb(0, 0, 0)" stroke="rgb(204, 204, 204)" stroke-width="1px"></line><line x1="174.0234375" y1="0" x2="174.0234375" y2="5" style="visibility: inherit;" fill="rgb(0, 0, 0)" stroke="rgb(204, 204, 204)" stroke-width="1px"></line><line x1="208.828125" y1="0" x2="208.828125" y2="5" style="visibility: inherit;" fill="rgb(0, 0, 0)" stroke="rgb(204, 204, 204)" stroke-width="1px"></line><line x1="243.6328125" y1="0" x2="243.6328125" y2="5" style="visibility: inherit;" fill="rgb(0, 0, 0)" stroke="rgb(204, 204, 204)" stroke-width="1px"></line><line x1="278.4375" y1="0" x2="278.4375" y2="5" style="visibility: inherit;" fill="rgb(0, 0, 0)" stroke="rgb(204, 204, 204)" stroke-width="1px"></line></g><g transform="translate(0, 8)"><text x="0" y="0" dx="0em" dy="0.95em" style="text-anchor: middle; visibility: hidden; font-family: Roboto, sans-serif; font-size: 12px; font-weight: 200;" fill="rgb(33, 33, 33)" stroke="none" stroke-width="1px">-10k</text><text x="34.8046875" y="0" dx="0em" dy="0.95em" style="text-anchor: middle; visibility: inherit; font-family: Roboto, sans-serif; font-size: 12px; font-weight: 200;" fill="rgb(33, 33, 33)" stroke="none" stroke-width="1px">0</text><text x="69.609375" y="0" dx="0em" dy="0.95em" style="text-anchor: middle; visibility: inherit; font-family: Roboto, sans-serif; font-size: 12px; font-weight: 200;" fill="rgb(33, 33, 33)" stroke="none" stroke-width="1px">10k</text><text x="104.4140625" y="0" dx="0em" dy="0.95em" style="text-anchor: middle; visibility: inherit; font-family: Roboto, sans-serif; font-size: 12px; font-weight: 200;" fill="rgb(33, 33, 33)" stroke="none" stroke-width="1px">20k</text><text x="139.21875" y="0" dx="0em" dy="0.95em" style="text-anchor: middle; visibility: inherit; font-family: Roboto, sans-serif; font-size: 12px; font-weight: 200;" fill="rgb(33, 33, 33)" stroke="none" stroke-width="1px">30k</text><text x="174.0234375" y="0" dx="0em" dy="0.95em" style="text-anchor: middle; visibility: inherit; font-family: Roboto, sans-serif; font-size: 12px; font-weight: 200;" fill="rgb(33, 33, 33)" stroke="none" stroke-width="1px">40k</text><text x="208.828125" y="0" dx="0em" dy="0.95em" style="text-anchor: middle; visibility: inherit; font-family: Roboto, sans-serif; font-size: 12px; font-weight: 200;" fill="rgb(33, 33, 33)" stroke="none" stroke-width="1px">50k</text><text x="243.6328125" y="0" dx="0em" dy="0.95em" style="text-anchor: middle; visibility: inherit; font-family: Roboto, sans-serif; font-size: 12px; font-weight: 200;" fill="rgb(33, 33, 33)" stroke="none" stroke-width="1px">60k</text><text x="278.4375" y="0" dx="0em" dy="0.95em" style="text-anchor: middle; visibility: hidden; font-family: Roboto, sans-serif; font-size: 12px; font-weight: 200;" fill="rgb(33, 33, 33)" stroke="none" stroke-width="1px">70k</text></g><line x1="0" y1="0" x2="278.4375" y2="0" fill="rgb(0, 0, 0)" stroke="rgb(204, 204, 204)" stroke-width="1px"></line></g></g></g></g></svg>