<svg viewBox="0 0 330 200" xmlns="http://www.w3.org/2000/svg"><g><g><g><g><g><line x1="51.5625" y1="177" x2="46.5625" y2="177" style="visibility: inherit;" fill="rgb(0, 0, 0)" stroke="rgb(204, 204, 204)" stroke-width="1px"></line><line x1="51.5625" y1="164.35714285714283" x2="46.5625" y2="164.35714285714283" style="visibility: inherit;" fill="rgb(0, 0, 0)" stroke="rgb(204, 204, 204)" stroke-width="1px"></line><line x1="51.5625" y1="151.7142857142857" x2="46.5625" y2="151.7142857142857" style="visibility: inherit;" fill="rgb(0, 0, 0)" stroke="rgb(204, 204, 204)" stroke-width="1px"></line><line x1="51.5625" y1="139.07142857142856" x2="46.5625" y2="139.07142857142856" style="visibility: inherit;" fill="rgb(0, 0, 0)" stroke="rgb(204, 204, 204)" stroke-width="1px"></line><line x1="51.5625" y1="126.42857142857144" x2="46.5625" y2="126.42857142857144" style="visibility: inherit;" fill="rgb(0, 0, 0)" stroke="rgb(204, 204, 204)" stroke-width="1px"></line><line x1="51.5625" y1="113.78571428571432" x2="46.5625" y2="113.78571428571432" style="visibility: inherit;" fill="rgb(0, 0, 0)" stroke="rgb(204, 204, 204)" stroke-width="1px"></line><line x1="51.5625" y1="101.14285714285715" x2="46.5625" y2="101.14285714285715" style="visibility: inherit;" fill="rgb(0, 0, 0)" stroke="rgb(204, 204, 204)" stroke-width="1px"></line><line x1="51.5625" y1="88.5" x2="46.5625" y2="88.5" style="visibility: inherit;" fill="rgb(0, 0, 0)" stroke="rgb(204, 204, 204)" stroke-width="1px"></line><line x1="51.5625" y1="75.85714285714285" x2="46.5625" y2="75.85714285714285" style="visibility: inherit;" fill="rgb(0, 0, 0)" stroke="rgb(204, 204, 204)" stroke-width="1px"></line><line x1="51.5625" y1="63.21428571428569" x2="46.5625" y2="63.21428571428569" style="visibility: inherit;" fill="rgb(0, 0, 0)" stroke="rgb(204, 204, 204)" stroke-width="1px"></line><line x1="51.5625" y1="50.571428571428605" x2="46.5625" y2="50.571428571428605" style="visibility: inherit;" fill="rgb(0, 0, 0)" stroke="rgb(204, 204, 204)" stroke-width="1px"></line><line x1="51.5625" y1="37.92857142857145" x2="46.5625" y2="37.92857142857145" style="visibility: inherit;" fill="rgb(0, 0, 0)" stroke="rgb(204, 204, 204)" stroke-width="1px"></line><line x1="51.5625" y1="25.285714285714313" x2="46.5625" y2="25.285714285714313" style="visibility: inherit;" fill="rgb(0, 0, 0)" stroke="rgb(204, 204, 204)" stroke-width="1px"></line><line x1="51.5625" y1="12.642857142857157" x2="46.5625" y2="12.642857142857157" style="visibility: inherit;" fill="rgb(0, 0, 0)" stroke="rgb(204, 204, 204)" stroke-width="1px"></line><line x1="51.5625" y1="0" x2="46.5625" y2="0" style="visibility: inherit;" fill="rgb(0, 0, 0)" stroke="rgb(204, 204, 204)" stroke-width="1px"></line></g><g transform="translate(41.5625, 0)"><text x="0" y="177" dx="0em" dy="0.3em" style="text-anchor: end; visibility: hidden; font-family: Roboto, sans-serif; font-size: 12px; font-weight: 200;" fill="rgb(33, 33, 33)" stroke="none" stroke-width="1px">0.5</text><text x="0" y="164.35714285714283" dx="0em" dy="0.3em" style="text-anchor: end; visibility: inherit; font-family: Roboto, sans-serif; font-size: 12px; font-weight: 200;" fill="rgb(33, 33, 33)" stroke="none" stroke-width="1px">0.52</text><text x="0" y="151.7142857142857" dx="0em" dy="0.3em" style="text-anchor: end; visibility: hidden; font-family: Roboto, sans-serif; font-size: 12px; font-weight: 200;" fill="rgb(33, 33, 33)" stroke="none" stroke-width="1px">0.54</text><text x="0" y="139.07142857142856" dx="0em" dy="0.3em" style="text-anchor: end; visibility: inherit; font-family: Roboto, sans-serif; font-size: 12px; font-weight: 200;" fill="rgb(33, 33, 33)" stroke="none" stroke-width="1px">0.56</text><text x="0" y="126.42857142857144" dx="0em" dy="0.3em" style="text-anchor: end; visibility: hidden; font-family: Roboto, sans-serif; font-size: 12px; font-weight: 200;" fill="rgb(33, 33, 33)" stroke="none" stroke-width="1px">0.58</text><text x="0" y="113.78571428571432" dx="0em" dy="0.3em" style="text-anchor: end; visibility: inherit; font-family: Roboto, sans-serif; font-size: 12px; font-weight: 200;" fill="rgb(33, 33, 33)" stroke="none" stroke-width="1px">0.6</text><text x="0" y="101.14285714285715" dx="0em" dy="0.3em" style="text-anchor: end; visibility: hidden; font-family: Roboto, sans-serif; font-size: 12px; font-weight: 200;" fill="rgb(33, 33, 33)" stroke="none" stroke-width="1px">0.62</text><text x="0" y="88.5" dx="0em" dy="0.3em" style="text-anchor: end; visibility: inherit; font-family: Roboto, sans-serif; font-size: 12px; font-weight: 200;" fill="rgb(33, 33, 33)" stroke="none" stroke-width="1px">0.64</text><text x="0" y="75.85714285714285" dx="0em" dy="0.3em" style="text-anchor: end; visibility: hidden; font-family: Roboto, sans-serif; font-size: 12px; font-weight: 200;" fill="rgb(33, 33, 33)" stroke="none" stroke-width="1px">0.66</text><text x="0" y="63.21428571428569" dx="0em" dy="0.3em" style="text-anchor: end; visibility: inherit; font-family: Roboto, sans-serif; font-size: 12px; font-weight: 200;" fill="rgb(33, 33, 33)" stroke="none" stroke-width="1px">0.68</text><text x="0" y="50.571428571428605" dx="0em" dy="0.3em" style="text-anchor: end; visibility: hidden; font-family: Roboto, sans-serif; font-size: 12px; font-weight: 200;" fill="rgb(33, 33, 33)" stroke="none" stroke-width="1px">0.7</text><text x="0" y="37.92857142857145" dx="0em" dy="0.3em" style="text-anchor: end; visibility: inherit; font-family: Roboto, sans-serif; font-size: 12px; font-weight: 200;" fill="rgb(33, 33, 33)" stroke="none" stroke-width="1px">0.72</text><text x="0" y="25.285714285714313" dx="0em" dy="0.3em" style="text-anchor: end; visibility: hidden; font-family: Roboto, sans-serif; font-size: 12px; font-weight: 200;" fill="rgb(33, 33, 33)" stroke="none" stroke-width="1px">0.74</text><text x="0" y="12.642857142857157" dx="0em" dy="0.3em" style="text-anchor: end; visibility: inherit; font-family: Roboto, sans-serif; font-size: 12px; font-weight: 200;" fill="rgb(33, 33, 33)" stroke="none" stroke-width="1px">0.76</text><text x="0" y="0" dx="0em" dy="0.3em" style="text-anchor: end; visibility: hidden; font-family: Roboto, sans-serif; font-size: 12px; font-weight: 200;" fill="rgb(33, 33, 33)" stroke="none" stroke-width="1px">0.78</text></g><line x1="51.5625" y1="0" x2="51.5625" y2="177" fill="rgb(0, 0, 0)" stroke="rgb(204, 204, 204)" stroke-width="1px"></line></g></g><g transform="translate(51, 0)" clip-path="url(#clip_0)"><clipPath id="clip_0"><rect width="278" height="177"></rect></clipPath><g><g><g><line x1="0" y1="0" x2="0" y2="177" fill="rgb(0, 0, 0)" stroke="rgb(66, 66, 66)" stroke-width="1px" opacity="0.25"></line><line x1="34.8046875" y1="0" x2="34.8046875" y2="177" fill="rgb(0, 0, 0)" stroke="rgb(66, 66, 66)" stroke-width="1px" opacity="0.25"></line><line x1="69.609375" y1="0" x2="69.609375" y2="177" fill="rgb(0, 0, 0)" stroke="rgb(66, 66, 66)" stroke-width="1px" opacity="0.25"></line><line x1="104.4140625" y1="0" x2="104.4140625" y2="177" fill="rgb(0, 0, 0)" stroke="rgb(66, 66, 66)" stroke-width="1px" opacity="0.25"></line><line x1="139.21875" y1="0" x2="139.21875" y2="177" fill="rgb(0, 0, 0)" stroke="rgb(66, 66, 66)" stroke-width="1px" opacity="0.25"></line><line x1="174.0234375" y1="0" x2="174.0234375" y2="177" fill="rgb(0, 0, 0)" stroke="rgb(66, 66, 66)" stroke-width="1px" opacity="0.25"></line><line x1="208.828125" y1="0" x2="208.828125" y2="177" fill="rgb(0, 0, 0)" stroke="rgb(66, 66, 66)" stroke-width="1px" opacity="0.25"></line><line x1="243.6328125" y1="0" x2="243.6328125" y2="177" fill="rgb(0, 0, 0)" stroke="rgb(66, 66, 66)" stroke-width="1px" opacity="0.25"></line><line x1="278.4375" y1="0" x2="278.4375" y2="177" fill="rgb(0, 0, 0)" stroke="rgb(66, 66, 66)" stroke-width="1px" opacity="0.25"></line></g><g><line x1="0" y1="177" x2="278.4375" y2="177" fill="rgb(0, 0, 0)" stroke="rgb(66, 66, 66)" stroke-width="1px" opacity="0.25"></line><line x1="0" y1="164.35714285714283" x2="278.4375" y2="164.35714285714283" fill="rgb(0, 0, 0)" stroke="rgb(66, 66, 66)" stroke-width="1px" opacity="0.25"></line><line x1="0" y1="151.7142857142857" x2="278.4375" y2="151.7142857142857" fill="rgb(0, 0, 0)" stroke="rgb(66, 66, 66)" stroke-width="1px" opacity="0.25"></line><line x1="0" y1="139.07142857142856" x2="278.4375" y2="139.07142857142856" fill="rgb(0, 0, 0)" stroke="rgb(66, 66, 66)" stroke-width="1px" opacity="0.25"></line><line x1="0" y1="126.42857142857144" x2="278.4375" y2="126.42857142857144" fill="rgb(0, 0, 0)" stroke="rgb(66, 66, 66)" stroke-width="1px" opacity="0.25"></line><line x1="0" y1="113.78571428571432" x2="278.4375" y2="113.78571428571432" fill="rgb(0, 0, 0)" stroke="rgb(66, 66, 66)" stroke-width="1px" opacity="0.25"></line><line x1="0" y1="101.14285714285715" x2="278.4375" y2="101.14285714285715" fill="rgb(0, 0, 0)" stroke="rgb(66, 66, 66)" stroke-width="1px" opacity="0.25"></line><line x1="0" y1="88.5" x2="278.4375" y2="88.5" fill="rgb(0, 0, 0)" stroke="rgb(66, 66, 66)" stroke-width="1px" opacity="0.25"></line><line x1="0" y1="75.85714285714285" x2="278.4375" y2="75.85714285714285" fill="rgb(0, 0, 0)" stroke="rgb(66, 66, 66)" stroke-width="1px" opacity="0.25"></line><line x1="0" y1="63.21428571428569" x2="278.4375" y2="63.21428571428569" fill="rgb(0, 0, 0)" stroke="rgb(66, 66, 66)" stroke-width="1px" opacity="0.25"></line><line x1="0" y1="50.571428571428605" x2="278.4375" y2="50.571428571428605" fill="rgb(0, 0, 0)" stroke="rgb(66, 66, 66)" stroke-width="1px" opacity="0.25"></line><line x1="0" y1="37.92857142857145" x2="278.4375" y2="37.92857142857145" fill="rgb(0, 0, 0)" stroke="rgb(66, 66, 66)" stroke-width="1px" opacity="0.25"></line><line x1="0" y1="25.285714285714313" x2="278.4375" y2="25.285714285714313" fill="rgb(0, 0, 0)" stroke="rgb(66, 66, 66)" stroke-width="1px" opacity="0.25"></line><line x1="0" y1="12.642857142857157" x2="278.4375" y2="12.642857142857157" fill="rgb(0, 0, 0)" stroke="rgb(66, 66, 66)" stroke-width="1px" opacity="0.25"></line><line x1="0" y1="0" x2="278.4375" y2="0" fill="rgb(0, 0, 0)" stroke="rgb(66, 66, 66)" stroke-width="1px" opacity="0.25"></line></g></g></g><g><g><line x1="0" y1="493.07142857142856" x2="278.4375" y2="493.07142857142856" fill="rgb(0, 0, 0)" stroke="rgb(153, 153, 153)" stroke-width="1.5px"></line></g></g><g><g><line x1="34.8046875" y1="0" x2="34.8046875" y2="177" fill="rgb(0, 0, 0)" stroke="rgb(153, 153, 153)" stroke-width="1.5px"></line></g></g><g><g><g><g><g><path stroke="rgb(0, 119, 187)" stroke-width="2px" d="M35.152734375,158.30381596939904L35.570390625,169.95065625814712L35.848828125000004,168.88938336351546L36.05765625,169.3302874749995L36.4753125,168.39304934155925L37.310625,161.93314617624424L37.589062500000004,155.09493321937762L37.72828125,152.97523797270443L37.8675,149.47702271123785L37.937109375000006,145.26106186686468L38.076328125,142.4562346748011L38.493984375000004,141.419460770368L38.56359375,141.33384636423898L38.633203125,138.69898004239957L38.7028125,137.59955032702618L39.329296875,137.7704244632633L39.746953125,137.8375277172356L39.816562499999996,136.51363952245882L39.886171874999995,135.0106353058729L39.955781249999994,133.72915977297836L40.303828124999995,131.33117240498493L40.860703125,130.73913211348557L41.34796875,129.8419206996245L41.90484375,129.06408427658565L42.113671875,127.62017710379796L42.18328125,126.90555482757331L42.670546875,126.79977238669355L43.01859375,125.8076873858133L43.57546875,125.01971367462399L43.784296875,124.90463480999738L43.85390625,124.17323285666696L44.480390625,122.5583198888885L44.619609375,121.84505040529311L44.68921875,121.20538411032786L44.758828125,120.16147331587744L45.24609375,119.37499014361968L45.594140625,118.68926458405747L45.733359375,118.44624016006988L45.802968750000005,116.59329691613686L46.08140625,115.86710422593369L46.429453125,115.31677486999646L46.4990625,114.80122741833813L46.707890625000005,113.53058029121863L47.125546875000005,112.39141700757745L47.195156250000004,112.1041762589542L47.334375,111.62552021607493L47.543203125000005,111.02132581553984L47.682421875,110.39717101184624L47.75203125,109.93121723534144L47.89125,109.52005237198424L48.03046875,108.55062383149158L48.100078124999996,108.10557198398466L48.587343749999995,107.47923610920662L49.14421875,107.65414541116787L49.213828125,107.11771558821917L49.2834375,106.58750016075369L49.561875,106.03134764505864L50.327578124999995,104.95001160311828L50.466796875,104.75460432496774L50.745234374999995,104.48700368775309L50.9540625,104.60950430524355L51.09328125,104.55210222918515L51.302109375,103.96524375908723L52.137421875,103.70384801358949L52.555078125,103.14795569797482L52.76390625,102.8242126900874L52.903125,102.60263021062131L52.972734375,102.31784338961494L53.111953125,102.09948551310688L53.390390625,101.90823008227675L53.668828125000005,101.78924177502846L53.808046875,101.48069223925322L54.156093750000004,101.27575937125307L55.130625,101.23949274775696L55.478671875,101.16515588533036L55.54828125,100.62062691299266L55.826718750000005,100.15685508155767L55.896328125000004,99.8083579760393L56.174765625000006,99.40834492561599L56.244375000000005,99.4906956793289L56.38359375,99.25379833355812L56.592421875,99.08090363679983L56.940468749999994,98.48720531765201L57.010078125,98.18335462087711L57.427734375,97.95588766071543L57.49734375,97.77650082068267L57.566953125,97.23732228612606L57.775781249999994,96.8234162249822L58.402265625,96.1786633619413L58.959140624999996,95.908748636755L59.864062499999996,95.7015202057382L60.072890625,95.558972140867L60.351328125,95.49095741229807L60.768984375,95.21217023617999L61.047421875,95.21937669952385L61.117031250000004,94.48686227268135L61.186640625,94.60093602018789L61.67390625,94.43695628992668L62.021953125,94.07429260866569L62.0915625,93.69295209995884L63.205312500000005,93.43294720531452L63.692578125000004,93.48347409033744L64.110234375,92.96742128608444L64.17984375,92.49342826316567L64.3190625,92.16642987908916L64.73671875000001,92.28031890903658L65.363203125,92.12800115735169L65.502421875,91.90273443407968L65.57203125,91.74647620199785L65.78085937499999,91.37981289326396L66.198515625,91.05667930690255L66.825,90.90570798915938L67.033828125,90.80361003832756L67.1034375,90.49386176109105L67.729921875,89.96555348166711L67.79953125,89.84555596555806L68.565234375,89.69248528162274L68.7740625,89.54201195258406L68.843671875,89.38149954193065L68.982890625,89.26420040300198L69.122109375,89.19834393360148L70.09664062499999,89.01690902848702L70.4446875,88.79882312597445L70.58390625,88.59030613327684L70.792734375,88.37012592457957L71.349609375,88.04920280637877L71.767265625,87.80724922079254L71.90648437499999,87.26387348958048L72.1153125,86.98822296284033L72.184921875,87.05811878383442L72.39375,86.88572356491426L72.53296875000001,86.71024130345059L72.88101562499999,86.53457048332288L72.950625,86.44305965577665L73.57710937499999,86.38361954178387L73.71632812499999,86.18918317346149L73.994765625,86.27023531691496L74.064375,86.10939776341637L74.41242187499999,85.99435032266818L74.690859375,85.86745448233611L74.76046875,85.76649128951294L75.108515625,85.52578566257674L75.247734375,85.44193137270102L75.31734375,85.48806950918983L75.38695312499999,85.46565172726591L75.4565625,85.26963533664178L75.59578125,84.94217120742921L75.665390625,84.95233567954675L76.01343750000001,84.70765523626915L76.083046875,84.4156164194344L76.5703125,84.17525318884383L76.70953125000001,83.97056446724486L77.1271875,83.82323407476844L77.26640625,83.56418243845805L77.614453125,83.42635136194092L77.9625,83.23414558529443L78.10171875,82.95703042706515L78.93703124999999,82.60622849322101L79.424296875,82.45413077618957L79.49390625,82.22285797528365L79.63312499999999,82.16992276592921L79.702734375,82.1152849802437L79.77234374999999,82.01912233860601L79.841953125,81.89149973476637L79.981171875,81.64720508687586L80.19,81.49576496348783L80.4684375,81.24068503560281L80.816484375,81.02740916016663L81.0253125,81.00941169580977L81.30375,80.92847561144474L81.512578125,80.66902531189137L81.58218749999999,80.61565022252732L81.72140625,80.3875525201812L81.791015625,80.21948652993697L81.99984375,80.12143073789075L82.06945312500001,80.10096210995732L82.27828124999999,80.05246888028095L82.347890625,79.7234088392655L82.6959375,79.5981128107562L82.765546875,79.45922944867648L83.25281249999999,79.18132685166678L83.461640625,79.08236260882519L83.74007812500001,78.94863970491085L83.94890625,78.75343444152777L84.08812499999999,78.47057589244822L84.22734375,78.35280834480203L84.50578125,78.25491011503588L84.78421875,78.21771919448679L84.993046875,78.14202136102959L85.06265625,77.93467505932828L85.132265625,77.82684912704177L85.201875,77.77868292939979L85.61953125,77.63057239456967L86.0371875,77.53798020738996L86.17640625,77.39857526744761L86.24601562500001,77.2883316938345L86.52445312500001,77.20090226754246L86.73328125,77.05743411467644L86.802890625,77.03460643904153L87.01171875,76.96726886263545L87.081328125,76.87155721081561L87.1509375,76.90402929252042L87.29015625,76.82102827347515L87.42937500000001,76.73693290819311L87.84703125,76.6232238802424L88.055859375,76.38751283805121L88.12546875,76.40866450071455L88.33429687499999,76.23621940468696L88.40390625,76.18320994841693L88.47351562499999,76.09347706933224L88.61273437499999,76.04352312485352L88.68234375,75.8943725578095L89.10000000000001,75.77787291638337L89.3784375,75.73750634713913L89.44804687499999,75.6610643834913L89.587265625,75.59803828411354L89.726484375,75.55367092326613L89.865703125,75.35490060343285L89.93531250000001,75.30137496161444L90.004921875,75.1358520258374L90.07453125,74.89892405454592L90.14414062499999,74.88552799240912L90.35296875,74.85284840455218L90.63140625,74.65706183700603L90.840234375,74.50852351039374L90.97945312499999,74.26369063784648L91.0490625,74.13735435081337L91.11867187499999,74.09341700655294L91.536328125,74.00679589339855L91.60593750000001,73.98099487146861L91.74515625000001,73.91951880810755L91.95398437499999,73.74107191858535L92.232421875,73.61166427964974L92.44125000000001,73.51040781292582L92.650078125,73.46389324487386L92.7196875,73.28862220637502L92.85890625,73.22512511322077L92.998125,73.16715854833474L93.13734375,72.996891912997L93.485390625,72.8511862036541L93.69421875,72.72645284400028L95.156015625,72.61915972882655L95.29523437499999,72.49150577377206L95.36484375,72.44470253823621L95.64328125,72.46968157824831L95.7825,72.35540591489652L96.0609375,72.27750421231455L96.20015624999999,72.20183941951811L96.33937499999999,72.08199425702789L96.548203125,72.01890460330566L96.687421875,71.94520102743576L96.75703125,71.9686433474232L97.17468749999999,71.81996099812197L97.453125,71.67874340838998L97.940390625,71.68589458606907L98.00999999999999,71.60868631344776L98.079609375,71.39516778515612L98.14921874999999,71.3833351668252L98.497265625,71.28814785540916L98.63648437500001,71.11823185154046L98.84531249999999,70.97571911344518L98.914921875,70.84500906903557L98.98453124999999,70.56435119427717L99.054140625,70.49858582060742L99.61101562500001,70.46058370950942L99.68062499999999,70.51797940808945L99.889453125,70.38082936048995L100.37671875,70.21321190180107L100.585546875,70.18139749456108L101.14242187500001,70.13342832483215L101.21203125,70.08878614127941L101.35125,70.11850546810179L101.420859375,70.01074645691968L101.49046874999999,69.92584717299725L101.699296875,70.00435883216352L101.76890625,69.95656963149399L102.04734375,69.8158557421029L102.395390625,69.79383944116809L102.465,69.86612194543738L102.7434375,69.68088417281922L102.81304687500001,69.58477506309733L102.88265625,69.43769380000091L102.95226562500001,69.47763211414316L103.16109374999999,69.33473284150814L103.230703125,69.17862426884501L103.3003125,68.97258177723272L103.509140625,68.86833032720553L103.57875,68.72253546582144L104.135625,68.53701521834918L104.4140625,68.53487375703102L104.55328125,68.3875061508966L104.6925,68.22444594415974L104.762109375,68.17218507037406L104.9709375,68.15212055892624L105.249375,68.0604207761593L105.318984375,67.91429589135126L105.38859375,67.88305861577383L105.597421875,67.83698133677832L106.154296875,67.87034769234943L106.293515625,67.80689703217516L106.571953125,67.81034388159681L106.6415625,67.79482940712636L106.85039062499999,67.690389788702L106.989609375,67.62430573601877L107.128828125,67.53183161111609L107.476875,67.3730867911695L108.242578125,67.32209375148923L108.38179687499999,67.21290703293906L108.799453125,67.08453507167042L108.8690625,67.01652583415742L109.00828125000001,66.896188899927L109.14750000000001,66.81478222048844L109.4259375,66.76145253519249L109.704375,66.75164492644345L109.84359375000001,66.73798527014202L110.19164062499999,66.73872841369842L110.26125,66.67716602546311L110.330859375,66.61858303961158L110.81812500000001,66.62621225729488L110.887734375,66.57198901985333L111.305390625,66.44233927075196L111.583828125,66.4595137226597L111.65343750000001,66.38077243032103L111.723046875,66.36113032689315L112.34953125000001,66.32763149910211L112.48875000000001,66.25124529683147L112.69757812499999,66.1487819673267L113.115234375,66.13395479144351L113.18484375,66.11670306682845L113.672109375,66.13091924869606L113.811328125,66.09875078471181L114.785859375,66.09174029491489L114.9946875,66.0399536596557L115.20351562500001,65.89037638161705L115.273125,65.82345437548365L115.342734375,65.80759366872458L115.55156249999999,65.70185479410665L115.621171875,65.65453138352795L115.69078125,65.53758533501582L116.94375,65.38952619520623L117.152578125,65.35339593309972L117.291796875,65.17261323113226L117.36140625,65.11069007535585L117.7790625,65.01884487171482L117.84867187500001,64.94928999881489L117.987890625,64.86326333823126L118.127109375,64.77533207969876L118.266328125,64.73350212103095L118.405546875,64.64284191700906L118.614375,64.5300185144586L118.75359375,64.41546208640897L118.89281249999999,64.24808694860089L119.03203125,64.16584425654368L119.31046875,64.13256433903307L120.0065625,64.06997409008619L120.285,64.02186593412172L120.56343749999999,63.918829447322544L120.633046875,63.86324480485451L120.70265625,63.74601415711225L120.841875,63.62594272463619L121.05070312500001,63.66596434009487L121.25953125,63.63958628857239L121.39874999999999,63.6353634059998L121.607578125,63.53524144313897L122.025234375,63.50139910361187L122.164453125,63.519514374243855L122.30367187499999,63.45947510866336L122.37328125,63.42496193927684L122.58210937499999,63.318646968101554L122.65171875,63.27106140646976L122.721328125,63.18846901052864L122.93015625,63.15513481324446L123.48703125,63.08234096823151L123.835078125,62.97264811489959L123.974296875,62.92218234703496L124.391953125,62.88436455496696L124.670390625,62.8501177733038L124.74000000000001,62.792529572891155L124.809609375,62.74083779357914L124.87921875,62.64815248905242L125.296875,62.52368335071241L125.505703125,62.43430161342481L125.99296875,62.2999563430769L126.1321875,62.2404097222235L126.341015625,62.08186373660049L126.41062500000001,62.0441723090271L126.61945312499999,62.003381669320625L127.037109375,61.88495397567032L127.176328125,61.778084503657105L127.38515625000001,61.700158705185174L127.59398437499999,61.70544568673471L127.66359375,61.69548283697529L127.733203125,61.624807807182044L127.8028125,61.523094526094205L127.872421875,61.40569411893392L128.290078125,61.27811087990979L129.125390625,61.22220390913691L129.543046875,61.18806034766591L129.89109375,61.214108015950465L130.16953125,61.14376265725273L130.656796875,61.017200723867525L130.796015625,60.9253645197746L131.1440625,60.89990198197383L131.213671875,60.827885174571485L131.42249999999999,60.722346140756585L131.492109375,60.62156103942268L131.631328125,60.5223325497399L131.70093749999998,60.503588485461194L131.909765625,60.54586241217913L133.093125,60.43277003226706L133.162734375,60.3317449042005L133.23234374999998,60.27507529718684L133.580390625,60.217641815631026L133.78921875,60.07311562401115L134.06765625,59.984317507034554L134.137265625,59.896988504842554L134.206875,59.78009467196666L134.4853125,59.65963968644165L134.554921875,59.645873476844024L134.62453125,59.55608874250274L134.76375,59.4616057713557L135.04218749999998,59.382940981456464L135.18140625,59.349635203402634L136.086328125,59.33281488000699L136.1559375,59.21321184611857L136.782421875,59.13077370490474L136.85203125,59.10148767679462L137.617734375,59.01967920270225L138.17460937500002,58.871543415019566L138.24421875,58.75639337596075L138.453046875,58.606538363628445L138.592265625,58.61721571181344L138.661875,58.51245755026787L139.21875,58.483302540763454L139.288359375,58.40430030133058L139.35796875,58.348616420114546L139.63640625,58.22347038064673L139.775625,58.14861489150152L139.91484375,58.05921993015938L140.47171874999998,58.00589940962876L140.819765625,57.91426089682696L140.889375,57.860551008214735L141.098203125,57.763735969492046L141.58546875,57.63785924449494L141.72468750000002,57.58127951525619L142.42078124999998,57.51221770230002L142.768828125,57.40629624134128L142.8384375,57.27839547529799L142.97765625,57.2807224279727L143.04726562500002,57.29568889639116L143.464921875,57.197908182849794L143.9521875,57.17717190239481L144.021796875,57.02488295445025L144.64828125,56.94478235626386L144.92671875,56.811985711202475L145.06593750000002,56.7683730057514L145.344375,56.689386777942865L145.970859375,56.64337896099099L146.110078125,56.56979359669395L146.31890625,56.51948590724345L146.458125,56.36915579541124L146.527734375,56.28429765263853L146.87578125,56.20932721164457L147.43265624999998,56.08719299513534L147.571875,55.97128297721479L148.059140625,55.844519605114264L148.12875,55.71547370620709L148.40718750000002,55.63793679435051L148.75523437500001,55.51740931651148L148.9640625,55.482033443011055L149.10328124999998,55.382974641879656L149.312109375,55.291841018500534L149.5209375,55.16086661032296L149.799375,55.03325743946961L150.286640625,54.96494779503616L150.35625000000002,54.92858607732971L150.913125,54.87564832564609L151.05234375,54.792312080608106L151.1915625,54.74268419101408L151.400390625,54.691416999846965L151.47,54.56002339693158L151.88765625,54.4089015185515L151.957265625,54.34218413968679L152.51414062499998,54.2297961224408L152.72296875,54.15733565288952L152.79257812499998,54.104417166983914L152.8621875,54.13952503554367L152.931796875,54.05759933599901L153.071015625,53.919488006245466L153.27984375,53.8593260342956L153.76710937500002,53.86303361754575L153.83671875,53.80774350471949L154.18476562499998,53.75087015934645L154.323984375,53.69423171029228L154.39359375,53.586346346438766L154.46320312499998,53.51858224164013L155.08968750000003,53.43398955466381L155.36812500000002,53.32277476602514L155.50734375,53.203039162537436L155.576953125,53.18147681792913L155.71617187500001,53.176108884456184L156.06421875,53.084992945192695L156.13382812499998,52.981757899354875L156.273046875,52.899427319720274L156.34265625,52.82721251462137L156.412265625,52.746409162380175L156.62109375,52.72267730479654L156.7603125,52.707008651003434L156.89953125,52.625988344313335L157.52601562499999,52.570006821586254L157.73484375,52.50719853675602L158.361328125,52.43232078477408L158.77898437500002,52.334016494479755L158.84859375,52.24663175574388L159.26624999999999,52.13506344495502L159.335859375,52.08692165575904L159.40546875,51.98656058873811L159.96234375,51.90752856755423L160.38,51.842742604256024L160.44960937500002,51.754730990987845L161.006484375,51.64969729711344L161.07609375,51.63005153961362L161.284921875,51.59316569507367L161.7721875,51.505413200372374L161.91140625,51.42663596152172L162.18984375,51.31368168641153L162.6075,51.21493935023434L162.88593749999998,51.13892943530112L162.955546875,51.043470938041956L163.16437499999998,50.9792382417681L163.512421875,50.88786360427992L163.79085937500003,50.78231067761973L164.06929687500002,50.709595501013254L164.69578125,50.62948864303221L164.83499999999998,50.509687933219695L164.904609375,50.52377453058934L165.322265625,50.38080260581604L165.391875,50.295156324227236L165.461484375,50.21745207613602L165.600703125,50.13159139746597L165.739921875,50.08909657634429L166.57523437499998,49.97934135013774L167.20171875,49.93227812444969L167.48015625000002,49.848413332990546L167.82820312500002,49.77493503325669L167.8978125,49.73441889216629L168.24585937499998,49.72585908679012L168.31546875,49.62372013688704L168.385078125,49.54533332176822L168.663515625,49.461403941370484L168.733125,49.399429143068815L169.15078125000002,49.370104047504825L169.42921875000002,49.30768197923877L169.49882812500002,49.199894870637294L169.5684375,49.12645005770028L169.70765625,49.04996903587601L170.1253125,48.95890746160856L170.334140625,48.916830490044966L170.473359375,48.89055387084694L170.6821875,48.73690551767729L170.891015625,48.661019591563615L171.09984375000002,48.649385690291304L171.2390625,48.567351016940634L171.726328125,48.45534801287874L171.86554687499998,48.3698942293441L172.700859375,48.29698846834524L172.77046875000002,48.142051468744235L172.84007812500002,48.087764426736726L173.814609375,48.019045052054L174.093046875,47.92947123039288L174.371484375,47.85643089367027L174.44109375,47.834652166608635L174.649921875,47.75393346117865L174.71953125,47.65089580136633L174.92835937499999,47.532098608872346L175.067578125,47.448355152987574L175.20679687499998,47.35927972960477L175.55484374999997,47.28498028237787L175.763671875,47.182063036578356L175.902890625,47.06669069876778L176.11171875,46.98773671666071L176.320546875,46.93863240790648L176.52937500000002,46.8226523842892L176.66859374999999,46.7437516638352L176.87742187499998,46.62213401052921L177.08625,46.54785952182991L177.155859375,46.48019883411969L177.3646875,46.39691076492632L177.573515625,46.302822608236916L178.20000000000002,46.21618364568811L178.33921875,46.108509661806636L178.687265625,46.02173095413148L179.0353125,45.96363189217085L179.104921875,45.85377103736499L179.17453125,45.771812531809836L179.31375,45.71998177894404L179.383359375,45.66048552201421L179.52257812500002,45.57690669845693L179.661796875,45.49283271149861L179.87062500000002,45.45281450195378L179.940234375,45.31847978166744L180.21867187499998,45.16667250386658L180.56671874999998,45.0667793928689L180.7059375,45.07844964647027L181.19320312500003,44.98675974512831L181.332421875,44.89538161852999L181.40203125,44.82213836344834L181.610859375,44.80177917818024L181.75007812500002,44.699536834060076L182.028515625,44.61462865618673L182.23734374999998,44.52923569738902L182.3765625,44.44181926632087L182.51578125,44.30929810937243L182.585390625,44.27175531979017L182.9334375,44.162178583827156L183.21187500000002,44.005429857782126L183.281484375,43.91506893846496L183.35109375,43.80818045346806L183.62953124999999,43.71081711115049L183.69914062499998,43.63209410245492L183.838359375,43.51475577861621L183.90796874999998,43.3932383178978L184.0471875,43.3040655757354L184.116796875,43.17796503638215L184.18640625,43.083390755567656L184.325625,43.010349627454424L184.395234375,42.98827015287652L184.534453125,42.905013919018224L184.88250000000002,42.81900985490153L184.952109375,42.72423442516712L185.36976562499999,42.60414751428443L185.439375,42.527358563604956L185.508984375,42.40194836768009L185.787421875,42.35129841919054L185.92664062499998,42.33082038429646L186.065859375,42.274440853781186L186.344296875,42.220489750419034L187.040390625,42.07998565648456L187.179609375,42.03104787429581L187.31882812499998,41.909161742401245L187.3884375,41.8219458453831L187.666875,41.743198452833134L187.80609375,41.64537337582214L187.875703125,41.61915950855807L187.9453125,41.548518268670726L188.154140625,41.524047773526355L188.432578125,41.42637323594186L188.711015625,41.29943402410993L188.91984374999998,41.20244377463279L189.6159375,41.11535365342889L189.685546875,41.024855511578L189.963984375,40.93685328340648L190.103203125,40.84030532544327L190.31203125,40.749939842782304L190.45125000000002,40.659126188940995L190.52085937500001,40.57446335023951L190.66007812499998,40.4578497433746L190.7296875,40.351843286171224L190.799296875,40.26589757846912L190.86890625,40.17219315085526L191.008125,40.08169879338832L191.14734375,40.030088103631805L191.216953125,39.95390253200153L191.495390625,39.899030875831635L191.565,39.76810098332085L191.70421875,39.68399315705933L191.91304687500002,39.626227346272564L192.26109375000001,39.5592327482178L193.09640625,39.46858889685838L193.37484375,39.36594856018025L193.58367187500002,39.32278230715868L193.93171875000002,39.18317933520038L194.07093749999999,39.08216250693048L194.27976562499998,39.02604535389823L194.697421875,38.912626629247185L194.76703125,38.85697067396882L194.90625,38.8222765973473L195.115078125,38.75760829986179L195.32390625,38.68812947410837L195.393515625,38.62100698285677L195.463125,38.53052730953098L196.089609375,38.426057803423696L196.15921875,38.34613227474492L196.228828125,38.258619538607306L196.29843749999998,38.19341585518428L196.43765625,38.09289134550954L196.576875,38.02105678679766L196.785703125,37.90690334595721L197.13375,37.82921320683794L197.27296875000002,37.761662115199776L197.342578125,37.692193849059656L197.4121875,37.59680927654176L197.48179687500001,37.50453236965679L198.038671875,37.48299904519858L198.66515625,37.374941956753545L199.013203125,37.31854641639144L199.570078125,37.29955542301816L199.63968749999998,37.22587481071485L199.848515625,37.14540168192276L200.126953125,37.08548191919277L200.61421875000002,37.03133847963913L200.823046875,36.952886656872025L201.03187499999999,36.89352455318215L201.10148437499998,36.76735477881665L201.17109375,36.65480170150488L201.31031249999998,36.523081906440865L201.8671875,36.47940863726876L202.00640625,36.41640307082528L202.145625,36.31400446532448L202.28484375000002,36.24450929605682L202.98093749999998,36.20155221993825L203.5378125,36.153182115676415L203.607421875,36.080052973016464L203.67703125,36.02855873413654L203.95546875000002,35.92612845247557L204.373125,35.832272721368724L204.93,35.72697628239897L205.34765625,35.656404485942396L205.417265625,35.58122328623127L205.486875,35.51519178813287L205.556484375,35.41091173043672L205.695703125,35.32819188678232L205.834921875,35.251876804451456L206.04375,35.18331098566916L206.600625,35.10468488724054L207.087890625,35.026968039261796L207.366328125,34.9713161074934L207.505546875,34.83194766989122L207.783984375,34.728405005766135L207.85359375000002,34.6523844989444L207.99281249999999,34.596981622151354L208.34085937499998,34.488065236631364L208.5496875,34.360453928801334L208.68890625,34.275928088503655L208.897734375,34.21535523579527L208.96734375,34.16849202788971L209.036953125,34.086596005401105L209.73304687499999,33.989392051594386L209.80265624999998,33.884362721836524L209.941875,33.79783904882727L210.01148437499998,33.72503538111717L210.08109374999998,33.636953695349554L210.150703125,33.54710215807309L210.429140625,33.44339196061492L210.568359375,33.34400097639151L210.7771875,33.23751043687215L210.91640625,33.13734944130482L211.055625,33.101075093184114L211.19484375,33.012724660079094L211.821328125,32.919942339091975L212.099765625,32.8427766752818L212.238984375,32.70711665591209L212.378203125,32.632490305597074L212.517421875,32.52410709723057L212.72625,32.42999728148814L212.93507812500002,32.31686938612194L213.35273437499998,32.287078932120515L213.42234374999998,32.191009802643L213.70078124999998,32.092553729856284L213.909609375,32.024841423545126L214.1184375,31.954668117670295L214.25765625,31.858897796749584L214.60570312500002,31.762729854134875L214.88414062500001,31.71237461249556L215.09296874999998,31.639072988074766L215.162578125,31.561359129955754L215.2321875,31.4713479180869L215.301796875,31.387503065535995L215.510625,31.27562421062116L215.7890625,31.149602670278142L216.20671875,31.081008047792093L216.27632812500002,30.974576506024686L216.48515625,30.8684338744656L216.833203125,30.76585132752229L217.04203124999998,30.669431579298596L217.111640625,30.602672700470617L217.250859375,30.532830333186112L217.390078125,30.485352064286605L217.529296875,30.39629483573824L217.59890625,30.309430752840726L217.807734375,30.231257680650966L217.87734375,30.129243848340256L218.01656250000002,30.016462692468433L218.225390625,29.905930578429043L218.29500000000002,29.850806862344694L218.43421874999999,29.810082976288214L218.851875,29.73063001019441L219.06070312499997,29.609349730473745L219.26953125,29.511010282599862L219.339140625,29.41551529161402L219.617578125,29.31704847813944L220.03523437500002,29.22013232974612L220.94015625,29.115744333692607L221.21859375,29.057968359094676L221.35781250000002,28.964979310276682L221.70585937500002,28.8664536479133L221.9146875,28.77589171847731L222.05390624999998,28.668891281381438L222.33234375,28.562172740182923L222.680390625,28.467262010298818L222.958828125,28.39179678134971L223.237265625,28.30374275953574L223.44609375,28.20825378362317L224.490234375,28.157696618549434L225.186328125,28.05305936585881L225.25593750000002,27.94869562679879L225.32554687500001,27.882173430041323L225.534375,27.79800966675198L225.603984375,27.729958759199025L225.95203125,27.665261071243634L226.3696875,27.582959302362344L226.439296875,27.466623569122774L226.50890625,27.40382129347391L226.578515625,27.317753053487163L226.648125,27.248357820925975L226.71773437500002,27.15322175389579L226.78734375,27.07917747612322L227.34421875,26.997749792875503L228.945234375,26.89824143930034L229.01484375,26.804661102726037L229.08445312499998,26.73965844315203L229.57171875,26.651541603224246L230.33742187500002,26.58565622765884L230.40703125000002,26.46716799511565L230.476640625,26.36216570322753L230.75507812499998,26.26495901122964L231.311953125,26.172387987532847L231.3815625,26.100094148677638L231.590390625,26.007333269457472L231.72960937500002,25.917309868338723L231.79921875,25.807520835336337L231.9384375,25.698635124766156L232.77374999999998,25.595016668844863L232.91296875,25.505998855692788L233.121796875,25.402879508282634L233.261015625,25.290684538692652L233.6090625,25.192456147926713L233.817890625,25.131143275047584L234.02671875000001,25.016578056058407L234.653203125,24.913471114073385L234.7228125,24.807523307475932L235.14046875,24.742735337845872L235.2796875,24.644057861356757L235.349296875,24.50541483095305L235.76695312500001,24.4320299026453L235.97578125,24.341532153922856L236.045390625,24.28829680117518L236.3934375,24.19880284347113L236.53265625,24.14158213166449L236.671875,24.030922071052625L236.880703125,23.956232198169282L236.9503125,23.89279758141361L237.5071875,23.835665638549163L237.85523437499998,23.70560292864414L237.994453125,23.602247604412284L238.0640625,23.543294870796547L238.13367187499998,23.452627858001026L238.412109375,23.350552358797078L238.899375,23.28727194076686L239.1778125,23.172794640598074L239.386640625,23.059210322927292L239.45624999999998,22.99901482502942L239.59546875,22.92066725101449L240.15234375,22.798623777404586L240.500390625,22.742664461283695L241.335703125,22.662495317048826L241.68375,22.60016133441105L241.82296875,22.48631739530981L241.892578125,22.435916554676293L242.10140625000003,22.334050931256947L242.79749999999999,22.24092448750255L243.21515625,22.113480525111793L243.49359375,22.046907596333266L243.841640625,21.962341359987818L243.980859375,21.860443005415675L244.12007812500002,21.739454032396754L244.259296875,21.654387297256186L244.39851562500002,21.529698888568657L244.60734374999998,21.47767473062278L244.676953125,21.3799792315779L244.7465625,21.28191743022748L244.955390625,21.224408957460984L245.025,21.142986336416165L245.094609375,21.043732954395374L245.373046875,20.941715895038676L245.44265625,20.869346428666883L245.512265625,20.73778731562341L245.72109375,20.643095507077255L245.79070312500002,20.517493330020528L245.929921875,20.441856897485533L245.99953125,20.362215592023794L246.27796874999999,20.279179233755624L246.4171875,20.20708939174907L246.48679687499998,20.131591087962466L246.55640624999998,20.044942784954753L246.83484374999998,19.949562272808485L246.9740625,19.878227757028057L247.11328125,19.77849915356107L247.322109375,19.692089703990117L247.94859375,19.598753990198688L248.15742187499998,19.515734704910827L248.296640625,19.456649509111966L248.435859375,19.398890035976287L248.575078125,19.327043653285827L248.714296875,19.228124013333012L249.34078125,19.1116824823639L249.61921875,19.032183728668986L249.7584375,18.953462935287536L249.967265625,18.90209611689403L250.524140625,18.791236279944997L250.80257812500003,18.672378680208368L251.08101562500002,18.59859698174152L251.49867187499999,18.51968652483593L251.7075,18.421535123060064L251.9859375,18.3453785346128L252.12515625,18.23647923760648L252.40359375,18.168956958588062L252.473203125,18.106288595158073L252.96046875,18.02381848224732L253.16929687500001,17.948575779014767L253.23890624999999,17.872921871678322L253.58695312499998,17.78104869253359L253.6565625,17.69699537080255L253.726171875,17.607289129301385L253.86539062499997,17.503181122617175L254.07421875,17.4454490220901L254.422265625,17.367423988332455L254.63109375,17.28724602591111L254.700703125,17.21249851854974L254.83992187500002,17.128603685111017L255.25757812499998,17.046648148311263L255.953671875,17.003273737995293L256.4409375,16.962324253588882L256.649765625,16.89706864683261L256.719375,16.8128035559173L257.206640625,16.72002840493983L257.27625,16.663414950490086L257.34585937500003,16.614463870816053L257.41546875,16.547093877015648L257.76351562499997,16.46193747029153L257.97234375,16.364251654642437L258.738046875,16.273146021271025L259.573359375,16.21574873748043L259.64296875,16.09440868472284L259.712578125,16.023531909378896L259.851796875,15.935520833309162L259.991015625,15.834458084697339L260.3390625,15.789474296764649L260.547890625,15.674967761780346L260.6175,15.579696634630695L260.75671875,15.494985027153179L260.826328125,15.443201011116898L261.31359375,15.377184693864859L261.4528125,15.286078589904465L261.59203125,15.177980183549929L262.14890625,15.093613205620159L262.218515625,15.011153365119469L262.5665625,14.925445562919814L262.636171875,14.837642710305355L263.053828125,14.789467477427348L263.193046875,14.69285587793066L263.332265625,14.60502171913103L263.471484375,14.54590391799464L263.749921875,14.470386658872975L263.95875,14.408710581790451L264.2371875,14.370515294436512L264.65484375,14.315335090168809L264.863671875,14.244355404306937L264.93328125,14.152506225804395L265.002890625,14.078467676895237L265.420546875,13.982456609497813L265.9078125,13.906512642730593L265.977421875,13.85964976349422L266.255859375,13.751133807387736L266.395078125,13.681927853133125L266.46468749999997,13.599859269163222L266.534296875,13.524758432429591L266.812734375,13.442475483459804L267.16078125,13.36602250232709L267.64804687500003,13.275060048805361L267.92648437500003,13.196145628934094L268.204921875,13.113457656645018L268.27453125,13.049547229635419L268.483359375,12.961560369888382L268.761796875,12.86982645574037L268.901015625,12.752418044978167L269.318671875,12.675180819476312L269.5275,12.62901354867002L269.66671875000003,12.566101954246705L269.80593749999997,12.490981829089282L269.94515625,12.415464606207543L270.153984375,12.330022681957978L270.293203125,12.248688007705415L270.50203125,12.167530214739045L270.571640625,12.087667842275291L270.78046875,11.98784771806377L270.9196875,11.923452924283371L271.33734375,11.877071139085349L271.685390625,11.792272737557806L271.755,11.7076578071003" style="fill: none;" fill="none"></path></g><g><path stroke="rgb(255, 112, 67)" stroke-width="2px" d="M37.241015625,177.2591425128512L37.310625,175.9804335683033L37.380234375,175.13781515378236L37.44984375,174.76244488013648L37.519453125000005,173.99220885703593L37.589062500000004,172.96990395481032L37.658671875,171.83341128944005L37.72828125,171.2189107978197L37.797890625,170.52586443323423L37.8675,169.4870211466151L37.937109375000006,168.17180740261756L38.006718750000005,167.60372542262226L38.076328125,167.06684081090015L38.1459375,166.5371269052784L38.215546875,166.05752432385464L38.28515625,164.873425453257L38.354765625000006,164.02712836334325L38.424375000000005,163.08982650958836L38.493984375000004,162.2341983494631L38.56359375,162.50998382129822L38.633203125,161.56525514725666L38.7028125,160.8764129531762L38.772421875000006,159.91099009373204L38.842031250000005,159.2060029831372L38.911640625000004,158.34288726748125L38.98125,157.30549966671813L39.050859375,156.97606230159278L39.12046875,156.21242929441829L39.190078125,155.29067237642772L39.2596875,155.3105146709054L39.329296875,154.79427031821547L39.398906249999996,154.04316661962469L39.468515624999995,153.61451312599L39.538124999999994,153.36222562077L39.607734375,153.17973333084333L39.67734375,152.4107766066361L39.746953125,151.9017353701422L39.816562499999996,151.40163815350166L39.886171874999995,150.78654066894782L39.955781249999994,150.4074386935077L40.025390625,149.79742486266613L40.095,149.44590238018333L40.164609375,148.8120624318647L40.23421875,148.69094608398754L40.303828124999995,148.3022848171035L40.373437499999994,147.95041506531604L40.443046875,147.63400321727804L40.51265625,147.2720986437929L40.582265625,146.8225383101785L40.651875,145.96817926327478L40.721484374999996,145.33052088468006L40.791093749999995,144.96142636702226L40.860703125,144.61328239766323L40.9303125,144.06179701701416L40.999921875,143.60860352014845L41.06953125,143.27076990435202L41.139140624999996,143.06464196268794L41.208749999999995,142.53738416052573L41.278359375,142.33968372792157L41.34796875,142.02943143547054L41.417578125,141.55616285587325L41.4871875,141.11554410083284L41.556796874999996,140.76701961369267L41.626406249999995,140.25720899131176L41.696015625,139.89098770840317L41.765625,139.53202431984866L41.835234375,138.98012174409547L41.90484375,138.5542259331118L41.974453125,137.96518478211604L42.044062499999995,137.9745799722265L42.113671875,137.76994773386824L42.18328125,137.4544791858267L42.252890625,136.9278734481231L42.3225,136.5748250817063L42.392109375,136.3500585036977L42.461718749999996,135.98503549760323L42.531328125,135.8628057729167L42.6009375,135.55464770323943L42.670546875,135.3991666389332L42.74015625,135.03217690188788L42.809765625,134.629670635998L42.879374999999996,134.4352328833418L42.948984375,134.1047100488905L43.01859375,133.65718136648772L43.088203125,133.35119800484745L43.1578125,133.198782507551L43.227421875,132.98439903162222L43.297031249999996,132.97457548041268L43.366640625,132.71698965695646L43.43625,132.23247580577174L43.505859375,131.91649351122527L43.57546875,131.58184315260877L43.645078125,131.29351432556288L43.714687500000004,130.93100082823713L43.784296875,130.53647155381788L43.85390625,130.3432492244025L43.923515625,129.97047330014686L43.993125,129.7731879459588L44.062734375,129.6491395959498L44.132343750000004,129.52413974963278L44.201953125,129.2706548312093L44.2715625,129.131036160451L44.341171875,128.81017382289508L44.41078125,128.28744140692618L44.480390625,128.13654521279238L44.550000000000004,127.90735957635493L44.619609375,127.64678131204616L44.68921875,127.34486829488527L44.758828125,127.070817618402L44.8284375,126.85018591020763L44.898046875,126.74678904180097L44.967656250000005,126.31466149146843L45.037265625,126.06523382135035L45.106875,125.75803026082954L45.176484375,125.51821361739938L45.24609375,125.18597918289487L45.315703125,124.96064340822322L45.385312500000005,124.69103760325125L45.454921875000004,124.54845985799881L45.52453125,124.28494262088103L45.594140625,124.10780820260555L45.66375,123.7266617989107L45.733359375,123.56024221531624L45.802968750000005,123.40071749869344L45.872578125000004,123.31473246334367L45.9421875,123.14445967524014L46.011796875,122.80654816772766L46.08140625,122.43293979347646L46.151015625,122.26204022493607L46.220625000000005,121.9541314374986L46.290234375000004,121.60153058981982L46.35984375,121.31276853500998L46.429453125,121.0798926242647L46.4990625,120.88152591659458L46.568671875,120.79150157881088L46.638281250000006,120.67112664225267L46.707890625000005,120.58785618963225L46.7775,120.32355078080374L46.847109375,120.1726824091759L46.91671875,119.95985037141992L46.986328125,119.69919139591389L47.055937500000006,119.4653945222992L47.125546875000005,119.37262549146725L47.195156250000004,119.10878590555477L47.264765625,118.87143066917366L47.334375,118.61966792571873" style="fill: none;" fill="none"></path></g></g></g></g><g opacity="0.2"><g><g><g><path stroke="rgb(0, 119, 187)" stroke-width="2px" d="M35.152734375,158.30381596939904L35.570390625,181.58584970661573L35.848828125000004,166.77002033165525L36.05765625,170.65035614797046L36.4753125,164.65345982142856L37.310625,129.73039979594094L37.589062500000004,114.20901885202953L37.72828125,138.19660415819715L37.8675,121.61694295917239L37.937109375000006,107.50662747451238L38.076328125,114.56176637751716L38.493984375000004,130.08314732142858L38.56359375,140.31312698977334L38.633203125,104.68453423466002L38.7028125,122.3224756887981L39.329296875,140.31312698977334L39.746953125,138.9020992091724L39.816562499999996,114.20901885202953L39.886171874999995,108.21212252548763L39.955781249999994,109.62315030608859L40.303828124999995,83.87182737248285L40.860703125,118.44213987248284L41.34796875,110.32868303571429L41.90484375,111.38696329082762L42.113671875,93.39627431120192L42.18328125,109.27040278060096L42.670546875,124.08625099488668L43.01859375,99.39317063774382L43.57546875,103.27350645405906L43.784296875,121.61694295917239L43.85390625,102.5680114030838L44.480390625,73.28906250000001L44.619609375,99.39317063774382L44.68921875,100.45145089285714L44.758828125,85.2828551530838L45.24609375,92.33799405608859L45.594140625,94.45455456631524L45.733359375,109.62315030608859L45.802968750000005,47.53770188774382L46.08140625,88.10491071428572L46.429453125,93.74905951534L46.4990625,94.10180704082762L46.707890625000005,61.29526984691622L47.125546875000005,64.47011061225619L47.195156250000004,99.74591816323144L47.334375,90.57421875L47.543203125000005,83.87182737248285L47.682421875,81.75526686225619L47.75203125,88.10491071428572L47.89125,89.8686860203743L48.03046875,61.29526984691622L48.100078124999996,85.98835020405906L48.587343749999995,75.75837053571429L49.14421875,116.67832688774382L49.213828125,78.93321130105429L49.2834375,78.22767857142858L49.561875,75.75837053571429L50.327578124999995,45.06839385202953L50.466796875,93.74905951534L50.745234374999995,89.16319096939904L50.9540625,111.73971081631524L51.09328125,101.15698362248284L51.302109375,68.70319395405906L52.137421875,87.7521631887981L52.555078125,68.70319395405906L52.76390625,82.46076191323145L52.903125,88.45765823977335L52.972734375,83.87182737248285L53.111953125,87.7521631887981L53.390390625,89.16319096939904L53.668828125000005,93.74905951534L53.808046875,80.34423908165523L54.156093750000004,87.04663045917239L55.130625,98.68767558676856L55.478671875,95.8655823469162L55.54828125,61.29526984691622L55.826718750000005,66.23388591834478L55.896328125000004,73.9945952296257L56.174765625000006,69.40872668368476L56.244375000000005,105.74281448977334L56.38359375,81.04973413263049L56.592421875,85.63560267857143L56.940468749999994,51.77082290819713L57.010078125,73.9945952296257L57.427734375,79.63870635202953L57.49734375,83.16629464285715L57.566953125,52.82906548466002L57.775781249999994,62.35355010202953L58.402265625,41.893590765339994L58.959140624999996,72.93631497451238L59.864062499999996,77.87493104594095L60.072890625,83.16629464285715L60.351328125,89.51593849488668L60.768984375,70.4670069387981L61.047421875,95.8655823469162L61.117031250000004,28.13598512751716L61.186640625,105.0373194387981L61.67390625,79.2859588265419L62.021953125,60.23698959180289L62.0915625,57.76768155608859L63.205312500000005,68.70319395405906L63.692578125000004,98.33489038263049L64.110234375,42.95183334180289L64.17984375,46.12667410714286L64.3190625,59.88424206631526L64.73671875000001,103.62629165819713L65.363203125,76.81665079082762L65.502421875,69.05597915819713L65.57203125,75.75837053571429L65.78085937499999,53.53459821428572L66.198515625,57.41493403060096L66.825,75.05283780608859L67.033828125,79.99145387751716L67.1034375,57.41493403060096L67.729921875,33.07460119894575L67.79953125,76.81665079082762L68.565234375,72.93631497451238L68.7740625,72.93631497451238L68.843671875,71.52528719391142L68.982890625,76.11111806120192L69.122109375,81.75526686225619L70.09664062499999,68.35044642857143L70.4446875,63.76457788263049L70.58390625,64.47011061225619L70.792734375,62.70629762751716L71.349609375,50.35975744894573L71.767265625,59.178747015339994L71.90648437499999,22.491874005113353L72.1153125,53.88734573977336L72.184921875,95.51283482142858L72.39375,65.88113839285715L72.53296875000001,65.17560566323145L72.88101562499999,64.82285813774382L72.950625,75.05283780608859L73.57710937499999,78.93321130105429L73.71632812499999,61.64805505105429L73.994765625,96.5711150765419L74.064375,65.52839086736952L74.41242187499999,71.17250198977335L74.690859375,69.40872668368476L74.76046875,72.58352977037431L75.108515625,53.88734573977336L75.247734375,74.34734275511333L75.31734375,91.63249900511335L75.38695312499999,82.46076191323145L75.4565625,58.82596181120192L75.59578125,40.48252530608859L75.665390625,86.34113540819713L76.01343750000001,51.06529017857143L76.083046875,44.01011359691622L76.5703125,50.71254265308382L76.70953125000001,55.29837352037432L77.1271875,63.05908283165523L77.26640625,46.83220683676856L77.614453125,63.76457788263049L77.9625,55.65115872451239L78.10171875,42.95183334180289L78.93703124999999,31.663573418344786L79.424296875,60.23698959180289L79.49390625,48.243234617369524L79.63312499999999,74.34734275511333L79.702734375,73.9945952296257L79.77234374999999,67.64491369894573L79.841953125,62.70629762751716L79.981171875,44.71564632654192L80.19,58.47321428571429L80.4684375,42.24633829082762L80.816484375,48.243234617369524L81.0253125,78.22767857142858L81.30375,68.35044642857143L81.512578125,40.12977778060096L81.58218749999999,72.23078224488668L81.72140625,44.36289880105429L81.791015625,53.53459821428572L81.99984375,64.47011061225619L82.06945312500001,76.81665079082762L82.27828124999999,72.23078224488668L82.347890625,26.372209821428587L82.6959375,59.178747015339994L82.765546875,56.70943897962572L83.25281249999999,33.42738640308382L83.461640625,62.70629762751716L83.74007812500001,56.70943897962572L83.94890625,46.12667410714286L84.08812499999999,30.958078367369527L84.22734375,58.47321428571429L84.50578125,61.64805505105429L84.78421875,71.87803471939905L84.993046875,65.17560566323145L85.06265625,42.24633829082762L85.132265625,59.178747015339994L85.201875,69.40872668368476L85.61953125,51.77082290819713L86.0371875,61.29526984691622L86.17640625,52.82906548466002L86.24601562500001,57.76768155608859L86.52445312500001,61.64805505105429L86.73328125,51.41803770405906L86.802890625,72.93631497451238L87.01171875,64.82285813774382L87.081328125,59.53149454082762L87.1509375,82.81354711736952L87.29015625,61.64805505105429L87.42937500000001,61.29526984691622L87.84703125,55.65115872451239L88.055859375,32.72185367345812L88.12546875,80.34423908165523L88.33429687499999,44.01011359691622L88.40390625,66.23388591834478L88.47351562499999,59.178747015339994L88.61273437499999,66.58667112248285L88.68234375,47.53770188774382L89.10000000000001,53.53459821428572L89.3784375,67.99769890308382L89.44804687499999,60.94252232142859L89.587265625,63.41183035714286L89.726484375,66.93941864797048L89.865703125,36.60218948977336L89.93531250000001,64.82285813774382L90.004921875,42.59908581631526L90.07453125,28.13598512751716L90.14414062499999,72.23078224488668L90.35296875,68.35044642857143L90.63140625,35.54390923466002L90.840234375,44.71564632654192L90.97945312499999,24.961182040827627L91.0490625,48.59598214285716L91.11867187499999,65.17560566323145L91.536328125,56.35665377548763L91.60593750000001,68.70319395405906L91.74515625000001,61.29526984691622L91.95398437499999,36.954974693911424L92.232421875,46.83220683676856L92.44125000000001,52.47631795917239L92.650078125,63.76457788263049L92.7196875,36.60218948977336L92.85890625,59.88424206631526L92.998125,60.94252232142859L93.13734375,36.954974693911424L93.485390625,41.893590765339994L93.69421875,46.12667410714286L95.156015625,49.65426239797049L95.29523437499999,45.06839385202953L95.36484375,62.35355010202953L95.64328125,77.87493104594095L95.7825,47.53770188774382L96.0609375,55.29837352037432L96.20015624999999,55.65115872451239L96.33937499999999,45.77392658165523L96.548203125,58.12046676022666L96.687421875,55.65115872451239L96.75703125,77.16939831631525L97.17468749999999,38.71875000000002L97.453125,40.12977778060096L97.940390625,73.28906250000001L98.00999999999999,54.240130943911424L98.079609375,23.197369056088593L98.14921874999999,68.70319395405906L98.497265625,49.65426239797049L98.63648437500001,32.36910614797049L98.84531249999999,38.36600247451239L98.914921875,40.83531051022666L98.98453124999999,5.912212806088593L99.054140625,55.29837352037432L99.61101562500001,61.64805505105429L99.68062499999999,83.87182737248285L99.889453125,38.36600247451239L100.37671875,30.958078367369527L100.585546875,62.70629762751716L101.14242187500001,58.82596181120192L101.21203125,59.53149454082762L101.35125,77.16939831631525L101.420859375,44.36289880105429L101.49046874999999,49.65426239797049L101.699296875,88.81044344391142L101.76890625,58.47321428571429L102.04734375,35.89669443879809L102.395390625,64.47011061225619L102.465,87.39937798466002L102.7434375,24.608434515339997L102.81304687500001,46.12667410714286L102.88265625,33.42738640308382L102.95226562500001,79.2859588265419L103.16109374999999,34.13288145405906L103.230703125,30.605293163231455L103.3003125,17.906005459172395L103.509140625,42.95183334180289L103.57875,32.36910614797049L104.135625,22.139126479625723L104.4140625,67.99769890308382L104.55328125,31.310825892857157L104.6925,27.07774255105429L104.762109375,54.94562599488669L104.9709375,63.05908283165523L105.249375,44.71564632654192L105.318984375,30.605293163231455L105.38859375,59.88424206631526L105.597421875,56.00390625000002L106.154296875,76.46390326534L106.293515625,51.41803770405906L106.571953125,68.70319395405906L106.6415625,63.76457788263049L106.85039062499999,40.48252530608859L106.989609375,50.35975744894573L107.128828125,43.30461854594096L107.476875,25.666677091802885L108.242578125,53.88734573977336L108.38179687499999,38.36600247451239L108.799453125,33.07460119894575L108.8690625,48.94872966834479L109.00828125000001,34.83841418368476L109.14750000000001,45.06839385202953L109.4259375,52.47631795917239L109.704375,64.11736308676856L109.84359375000001,63.05908283165523L110.19164062499999,66.93941864797048L110.26125,50.00700992345812L110.330859375,50.71254265308382L110.81812500000001,68.70319395405906L110.887734375,51.77082290819713L111.305390625,30.958078367369527L111.583828125,71.17250198977335L111.65343750000001,44.71564632654192L111.723046875,60.94252232142859L112.34953125000001,57.06218650511333L112.48875000000001,45.06839385202953L112.69757812499999,37.66046974488669L113.115234375,62.00080257654192L113.18484375,61.29526984691622L113.672109375,70.11422173466002L113.811328125,57.06218650511333L114.785859375,64.11736308676856L114.9946875,51.41803770405906L115.20351562500001,23.550154260226662L115.273125,46.83220683676856L115.342734375,61.29526984691622L115.55156249999999,35.54390923466002L115.621171875,52.12357043368476L115.69078125,32.01635862248286L116.94375,22.84462153060096L117.152578125,54.94562599488669L117.291796875,12.967389387743825L117.36140625,47.18495436225619L117.7790625,38.36600247451239L117.84867187500001,44.71564632654192L117.987890625,39.77703025511335L118.127109375,39.07149752548765L118.266328125,52.47631795917239L118.405546875,38.01321727037432L118.614375,31.310825892857157L118.75359375,30.605293163231455L118.89281249999999,14.731202372482858L119.03203125,39.77703025511335L119.31046875,54.240130943911424L120.0065625,45.42114137751716L120.285,49.65426239797049L120.56343749999999,33.07460119894575L120.633046875,47.18495436225619L120.70265625,28.488770331655253L120.841875,27.430490076541922L121.05070312500001,75.75837053571429L121.25953125,55.65115872451239L121.39874999999999,62.35355010202953L121.607578125,33.07460119894575L122.025234375,53.18185068879809L122.164453125,69.05597915819713L122.30367187499999,45.06839385202953L122.37328125,52.82906548466002L122.58210937499999,30.605293163231455L122.65171875,48.59598214285716L122.721328125,37.66046974488669L122.93015625,52.82906548466002L123.48703125,40.48252530608859L123.835078125,28.84151785714286L123.974296875,47.18495436225619L124.391953125,51.06529017857143L124.670390625,52.12357043368476L124.74000000000001,44.71564632654192L124.809609375,46.47942163263049L124.87921875,33.42738640308382L125.296875,23.197369056088593L125.505703125,34.13288145405906L125.99296875,19.669818443911428L126.1321875,43.30461854594096L126.341015625,11.556361607142883L126.41062500000001,50.00700992345812L126.61945312499999,48.94872966834479L127.037109375,23.902901785714295L127.176328125,27.430490076541922L127.38515625000001,36.60218948977336L127.59398437499999,63.41183035714286L127.66359375,58.47321428571429L127.733203125,38.71875000000002L127.8028125,28.488770331655253L127.872421875,23.197369056088593L128.290078125,19.669818443911428L129.125390625,42.95183334180289L129.543046875,50.00700992345812L129.89109375,69.76147420917239L130.16953125,38.01321727037432L130.656796875,19.317033239773355L130.796015625,30.605293163231455L131.1440625,52.47631795917239L131.213671875,36.954974693911424L131.42249999999999,25.666677091802885L131.492109375,27.07774255105429L131.631328125,27.430490076541922L131.70093749999998,54.240130943911424L131.909765625,74.70009028060096L133.093125,22.491874005113353L133.162734375,26.372209821428587L133.23234374999998,41.18805803571429L133.580390625,40.83531051022666L133.78921875,11.203614081655253L134.06765625,29.899798112256196L134.137265625,30.252545637743825L134.206875,20.022565969399057L134.4853125,18.611538188798097L134.554921875,54.94562599488669L134.62453125,28.84151785714286L134.76375,27.07774255105429L135.04218749999998,32.36910614797049L135.18140625,47.89044941323146L136.086328125,53.53459821428572L136.1559375,17.906005459172395L136.782421875,30.605293163231455L136.85203125,48.94872966834479L137.617734375,30.605293163231455L138.17460937500002,7.323278265339996L138.24421875,18.611538188798097L138.453046875,6.264998010226684L138.592265625,62.35355010202953L138.661875,21.78634127548765L139.21875,48.243234617369524L139.288359375,30.605293163231455L139.35796875,38.71875000000002L139.63640625,14.025669642857157L139.775625,31.663573418344786L139.91484375,26.372209821428587L140.47171874999998,39.07149752548765L140.819765625,25.313929566315256L140.889375,38.71875000000002L141.098203125,23.197369056088593L141.58546875,12.614641862256194L141.72468750000002,37.30772221939906L142.42078124999998,32.72185367345812L142.768828125,19.317033239773355L142.8384375,11.203614081655253L142.97765625,58.12046676022666L143.04726562500002,62.70629762751716L143.464921875,21.78634127548765L143.9521875,49.65426239797049L144.021796875,1.6791294642857255L144.64828125,27.78323760202955L144.92671875,8.381520841802887L145.06593750000002,40.83531051022666L145.344375,27.78323760202955L145.970859375,39.77703025511335L146.110078125,29.547050586768563L146.31890625,38.01321727037432L146.458125,0.9735967346600236L146.527734375,24.961182040827627L146.87578125,28.488770331655253L147.43265624999998,10.85082887751718L147.571875,12.967389387743825L148.059140625,8.734306045940958L148.12875,7.676025790827627L148.40718750000002,26.72495734691622L148.75523437500001,10.498081352029551L148.9640625,42.24633829082762L149.10328124999998,18.258752984660024L149.312109375,21.08084622451239L149.5209375,5.912212806088593L149.799375,6.970493061201925L150.286640625,29.194265382630494L150.35625000000002,41.18805803571429L150.913125,34.83841418368476L151.05234375,23.197369056088593L151.1915625,35.89669443879809L151.400390625,35.19116170917239L151.47,4.50118502548765L151.88765625,-3.2594866071428235L151.957265625,28.84151785714286L152.51414062499998,11.203614081655253L152.72296875,26.372209821428587L152.79257812499998,33.78013392857145L152.8621875,67.64491369894573L152.931796875,22.491874005113353L153.071015625,0.6208492091723935L153.27984375,30.605293163231455L153.76710937500002,55.29837352037432L153.83671875,32.36910614797049L154.18476562499998,31.663573418344786L154.323984375,31.663573418344786L154.39359375,11.556361607142883L154.46320312499998,27.07774255105429L155.08968750000003,20.375313494886687L155.36812500000002,9.79258630105429L155.50734375,6.264998010226684L155.576953125,44.71564632654192L155.71617187500001,51.06529017857143L156.06421875,17.200510408197154L156.13382812499998,12.261894336768584L156.273046875,20.375313494886687L156.34265625,24.255649311201925L156.412265625,20.72806102037432L156.62109375,43.30461854594096L156.7603125,46.47942163263049L156.89953125,20.375313494886687L157.52601562499999,30.252545637743825L157.73484375,27.430490076541922L158.361328125,22.491874005113353L158.77898437500002,12.967389387743825L158.84859375,17.200510408197154L159.26624999999999,7.323278265339996L159.335859375,32.72185367345812L159.40546875,11.556361607142883L159.96234375,20.022565969399057L160.38,25.666677091802885L160.44960937500002,16.142230153083823L161.006484375,9.087053571428589L161.07609375,43.65736607142859L161.284921875,36.60218948977336L161.7721875,15.78944494894575L161.91140625,19.317033239773355L162.18984375,5.206717755113352L162.6075,10.85082887751718L162.88593749999998,20.022565969399057L162.955546875,11.909109132630492L163.16437499999998,24.608434515339997L163.512421875,13.320136913231455L163.79085937500003,7.323278265339996L164.06929687500002,20.72806102037432L164.69578125,17.553257933684762L164.83499999999998,0.9735967346600236L164.904609375,56.35665377548763L165.322265625,-8.903635408197113L165.391875,14.731202372482858L165.461484375,17.906005459172395L165.600703125,14.378417168344788L165.739921875,32.36910614797049L166.57523437499998,4.1484375000000195L167.20171875,30.252545637743825L167.48015625000002,14.731202372482858L167.82820312500002,18.964285714285726L167.8978125,32.72185367345812L168.24585937499998,46.12667410714286L168.31546875,6.6177455357142945L168.385078125,16.494977678571452L168.663515625,14.025669642857157L168.733125,23.197369056088593L169.15078125000002,36.954974693911424L169.42921875000002,22.84462153060096L169.49882812500002,3.4429047703743176L169.5684375,17.906005459172395L169.70765625,16.494977678571452L170.1253125,10.14533382654192L170.334140625,30.958078367369527L170.473359375,37.66046974488669L170.6821875,-17.017054566315238L170.891015625,16.142230153083823L171.09984375000002,43.65736607142859L171.2390625,13.320136913231455L171.726328125,0.26810168368478304L171.86554687499998,11.556361607142883L172.700859375,16.84772520405906L172.77046875000002,-18.78086755105425L172.84007812500002,24.608434515339997L173.814609375,18.258752984660024L174.093046875,9.087053571428589L174.371484375,16.142230153083823L174.44109375,38.36600247451239L174.649921875,12.614641862256194L174.71953125,2.7374097193990576L174.92835937499999,-4.317766862256175L175.067578125,10.85082887751718L175.20679687499998,8.381520841802887L175.55484374999997,14.731202372482858L175.763671875,2.0318769897733557L175.902890625,-3.612234132630473L176.11171875,12.261894336768584L176.320546875,25.313929566315256L176.52937500000002,-4.317766862256175L176.66859374999999,11.909109132630492L176.87742187499998,-7.139822423458099L177.08625,13.672922117369527L177.155859375,16.494977678571452L177.3646875,9.439801096916218L177.573515625,4.50118502548765L178.20000000000002,7.676025790827627L178.33921875,-1.8484588265419006L178.687265625,7.323278265339996L179.0353125,20.022565969399057L179.104921875,-3.2594866071428235L179.17453125,9.087053571428589L179.31375,22.491874005113353L179.383359375,18.964285714285726L179.52257812500002,8.028773316315256L179.661796875,7.676025790827627L179.87062500000002,27.430490076541922L179.940234375,-15.253279260226625L180.56671874999998,-0.08464584180284707L180.7059375,50.35975744894573L181.19320312500003,3.4429047703743176L181.332421875,3.4429047703743176L181.40203125,11.556361607142883L181.610859375,35.54390923466002L181.75007812500002,-1.8484588265419006L182.028515625,5.912212806088593L182.23734374999998,5.559465280600982L182.3765625,4.50118502548765L182.51578125,-16.311559515339976L182.585390625,27.07774255105429L182.9334375,-6.081542168344748L183.21187500000002,-27.952566964285687L183.281484375,2.3846621939114274L183.35109375,-5.376047117369487L183.62953124999999,-1.1429260969161987L183.69914062499998,7.323278265339996L183.838359375,-10.667410714285687L183.90796874999998,-12.78397122451235L184.0471875,2.0318769897733557L184.116796875,-15.253279260226625L184.18640625,-0.790178571428549L184.325625,9.087053571428589L184.395234375,32.72185367345812L184.534453125,4.1484375000000195L184.88250000000002,2.7374097193990576L184.952109375,-1.4957113010542509L185.36976562499999,-13.48946627548761L185.439375,6.6177455357142945L185.508984375,-16.311559515339976L185.787421875,18.611538188798097L185.92664062499998,32.72185367345812L186.065859375,15.78944494894575L186.344296875,16.84772520405906L187.040390625,-24.07223114797045L187.179609375,18.964285714285726L187.31882812499998,-15.606026785714274L187.3884375,0.6208492091723935L187.666875,4.50118502548765L187.80609375,-4.670514387743785L187.875703125,29.194265382630494L187.9453125,8.028773316315256L188.154140625,29.899798112256196L188.432578125,-5.023261913231435L191.008125,-3.612234132630473L191.14734375,15.08394989797049L191.216953125,3.0901572448866874L191.495390625,13.320136913231455L191.565,-23.71948362248284L191.70421875,-1.1429260969161987L191.91304687500002,11.556361607142883L192.26109375000001,6.970493061201925L193.09640625,-4.670514387743785L193.37484375,-10.667410714285687L193.58367187500002,18.258752984660024L193.93171875000002,-29.01084721939904L194.07093749999999,-10.314663188798075L194.27976562499998,11.556361607142883L194.697421875,-16.664307040827588L194.76703125,11.556361607142883L194.90625,21.78634127548765L195.115078125,6.970493061201925L195.32390625,4.50118502548765L195.393515625,5.559465280600982L195.463125,-6.081542168344748L196.228828125,-5.023261913231435L196.29843749999998,5.912212806088593L196.43765625,-11.725690969399038L196.576875,2.3846621939114274L196.785703125,-18.78086755105425L197.13375,-0.790178571428549L197.27296875000002,4.1484375000000195L197.342578125,3.0901572448866874L197.4121875,-9.961877984659985L197.48179687500001,-8.550850204059023L198.038671875,26.72495734691622L198.66515625,-16.664307040827588L199.013203125,9.087053571428589L199.570078125,27.78323760202955L199.63968749999998,0.26810168368478304L199.848515625,-3.2594866071428235L200.126953125,6.970493061201925L200.61421875000002,9.79258630105429L200.823046875,-2.5539538775171216L201.03187499999999,6.970493061201925L201.10148437499998,-26.894286709172373L201.31031249999998,-30.06912747451235L201.8671875,14.378417168344788L202.00640625,4.50118502548765L202.145625,-15.606026785714274L202.28484375000002,0.9735967346600236L202.98093749999998,14.378417168344788L203.5378125,11.556361607142883L203.607421875,-1.1429260969161987L203.67703125,9.79258630105429L203.95546875000002,-16.311559515339976L205.417265625,-2.906739081655213L205.486875,1.6791294642857255L205.556484375,-18.075334821428548L207.087890625,-5.023261913231435L207.366328125,6.264998010226684L207.505546875,-37.124266377517124L207.85359375000002,-4.670514387743785L207.99281249999999,5.912212806088593L208.34085937499998,-21.955670637743786L208.68890625,-9.609130459172373L208.897734375,2.7374097193990576L208.96734375,9.79258630105429L209.036953125,-8.550850204059023L210.91640625,-19.486362602029512L211.055625,14.025669642857157L211.19484375,-13.48946627548761L212.93507812500002,-27.599819438798075L213.35273437499998,16.494977678571452L213.42234374999998,-18.78086755105425L214.60570312500002,-19.486362602029512L214.88414062500001,4.8539702296257214L215.09296874999998,-7.49256994894571L217.250859375,-7.139822423458099L217.390078125,4.8539702296257214L217.529296875,-17.72258729594094L218.29500000000002,-0.08464584180284707L218.43421874999999,7.676025790827627L218.851875,-13.48946627548761L223.44609375,-24.4249786734581L224.490234375,0.26810168368478304L225.186328125,-29.71634227037426" style="fill: none;" fill="none"></path></g><g><path stroke="rgb(255, 112, 67)" stroke-width="2px" d="M35.22234375,184.7606904719557L35.291953125,152.30691964285714L35.3615625,183.70241021684237L35.50078125,182.9968963265419L35.570390625,150.1903591326305L35.64,182.64412996172905L35.709609375,174.88343948977334L35.77921875,157.59828323977334L35.848828125000004,168.88654316323144L35.9184375,180.88033581631524L35.988046875,177.35276636481285L36.05765625,167.82830058676856L36.127265625,173.82515923466L36.196875,173.4724117091724L36.266484375000005,180.17482192601477L36.33609375,161.4786190560886L36.405703125,156.54000298466002L36.4753125,149.48486408165525L36.544921875,143.1352202296257L36.61453125,168.88654316323144L36.684140625000005,168.88654316323144L36.753750000000004,156.8927881887981L36.823359375,144.8989955357143L36.89296875,139.96037946428572L36.962578125,165.0062073469162L37.0321875,165.7117400765419L37.101796875000005,119.1476349234581L37.171406250000004,123.02797073977334L37.241015625,149.48486408165525L37.310625,130.78868005105429L37.380234375,144.54624801022666L37.44984375,160.77312400511335L37.519453125000005,144.54624801022666L37.589062500000004,132.9052028826305L37.658671875,126.20281150511333L37.72828125,145.95727579082762L37.797890625,141.37140724488665L37.8675,124.79178372451238L37.937109375000006,110.32868303571429L38.006718750000005,142.07693997451236L38.076328125,142.4296875L38.1459375,141.7241547703743L38.215546875,143.1352202296257L38.28515625,107.1538422703743L38.354765625000006,121.96969048466002L38.424375000000005,115.62004663263049L38.493984375000004,118.08935466834478L38.56359375,177L38.633203125,111.03421576534L38.7028125,123.38075594391142L38.772421875000006,106.44834721939904L38.842031250000005,119.50038244894573L38.911640625000004,108.91765525511333L38.98125,96.92386260202953L39.050859375,137.49107142857144L39.12046875,110.32868303571429L39.190078125,99.04042311225619L39.2596875,156.54000298466002L39.329296875,122.3224756887981L39.398906249999996,106.09559969391142L39.468515624999995,125.8500639796257L39.538124999999994,136.78553869894574L39.607734375,141.01865971939904L39.67734375,100.45145089285714L39.746953125,117.03107441323144L39.816562499999996,116.67832688774382L39.886171874999995,107.50662747451238L39.955781249999994,123.38075594391142L40.025390625,105.74281448977334L40.095,123.73350346939904L40.164609375,101.8624786734581L40.23421875,139.6076319387981L40.303828124999995,118.79488739797048L40.373437499999994,120.91144790819713L40.443046875,123.02797073977334L40.51265625,118.79488739797048L40.582265625,111.03421576534L40.651875,77.16939831631525L40.721484374999996,93.39627431120192L40.791093749999995,114.56176637751716L40.860703125,115.62004663263049L40.9303125,97.62939533165523L40.999921875,105.0373194387981L41.06953125,114.20901885202953L41.139140624999996,125.14453125L41.208749999999995,96.21836755105429L41.278359375,124.79178372451238L41.34796875,114.20901885202953L41.417578125,98.68767558676856L41.4871875,100.80419841834478L41.556796874999996,108.5649077296257L41.626406249999995,92.69077926022666L41.696015625,105.39006696428572L41.765625,105.39006696428572L41.835234375,85.98835020405906L41.90484375,97.27661012751716L41.974453125,80.34423908165523L42.044062499999995,138.9020992091724L42.113671875,117.38385961736952L42.18328125,105.74281448977334L42.252890625,83.51904216834478L42.3225,100.45145089285714L42.392109375,113.1507385969162L42.461718749999996,97.98214285714286L42.531328125,123.02797073977334L42.6009375,102.92075892857143L42.670546875,118.79488739797048L42.74015625,95.51283482142858L42.809765625,90.92696627548764L42.879374999999996,113.1507385969162L42.948984375,97.62939533165523L43.01859375,83.87182737248285L43.088203125,99.04042311225619L43.1578125,115.97283183676856L43.227421875,108.5649077296257L43.297031249999996,131.84692262751716L43.366640625,102.92075892857143L43.43625,75.75837053571429L43.505859375,94.80730209180288L43.57546875,91.98524653060096L43.645078125,96.92386260202953L43.714687500000004,87.39937798466002L43.784296875,82.81354711736952L43.85390625,106.80109474488668L43.923515625,84.22457489797048L43.993125,105.39006696428572L44.062734375,114.20901885202953L44.132343750000004,113.8562713265419L44.201953125,97.27661012751716L44.2715625,111.38696329082762L44.341171875,87.7521631887981L44.41078125,60.94252232142859L44.480390625,108.5649077296257L44.550000000000004,97.98214285714286L44.619609375,93.39627431120192L44.68921875,87.39937798466002L44.758828125,90.57421875L44.8284375,97.27661012751716L44.898046875,112.79799107142858L44.967656250000005,67.64491369894573L45.037265625,91.98524653060096L45.106875,83.51904216834478L45.176484375,92.33799405608859L45.24609375,78.93321130105429L45.315703125,93.39627431120192L45.385312500000005,86.69388293368476L45.454921875000004,104.33178670917239L45.52453125,86.69388293368476L45.594140625,98.68767558676856L45.66375,68.70319395405906L45.733359375,99.39317063774382L45.802968750000005,100.09870336736952L45.872578125000004,110.68143056120192L45.9421875,97.98214285714286L46.011796875,72.58352977037431L46.08140625,66.58667112248285L46.151015625,96.5711150765419L46.220625000000005,75.40562301022666L46.290234375000004,67.99769890308382L46.35984375,77.16939831631525L46.429453125,85.2828551530838L46.4990625,90.22147122451238L46.568671875,106.80109474488668L46.638281250000006,101.8624786734581L46.707890625000005,107.50662747451238L46.7775,78.5804260969162L46.847109375,96.21836755105429L46.91671875,85.98835020405906L46.986328125,77.87493104594095L47.055937500000006,81.75526686225619L47.125546875000005,104.33178670917239L47.195156250000004,76.11111806120192L47.264765625,79.99145387751716L47.334375,77.16939831631525" style="fill: none;" fill="none"></path></g></g></g></g></g></g><g transform="translate(51, 177)" clip-path="url(#clip_1)"><clipPath id="clip_1"><rect width="278" height="23"></rect></clipPath><g><g><line x1="0" y1="0" x2="0" y2="5" style="visibility: inherit;" fill="rgb(0, 0, 0)" stroke="rgb(204, 204, 204)" stroke-width="1px"></line><line x1="34.8046875" y1="0" x2="34.8046875" y2="5" style="visibility: inherit;" fill="rgb(0, 0, 0)" stroke="rgb(204, 204, 204)" stroke-width="1px"></line><line x1="69.609375" y1="0" x2="69.609375" y2="5" style="visibility: inherit;" fill="rgb(0, 0, 0)" stroke="rgb(204, 204, 204)" stroke-width="1px"></line><line x1="104.4140625" y1="0" x2="104.4140625" y2="5" style="visibility: inherit;" fill="rgb(0, 0, 0)" stroke="rgb(204, 204, 204)" stroke-width="1px"></line><line x1="139.21875" y1="0" x2="139.21875" y2="5" style="visibility: inherit;" fill="rgb(0, 0, 0)" stroke="rgb(204, 204, 204)" stroke-width="1px"></line><line x1="174.0234375" y1="0" x2="174.0234375" y2="5" style="visibility: inherit;" fill="rgb(0, 0, 0)" stroke="rgb(204, 204, 204)" stroke-width="1px"></line><line x1="208.828125" y1="0" x2="208.828125" y2="5" style="visibility: inherit;" fill="rgb(0, 0, 0)" stroke="rgb(204, 204, 204)" stroke-width="1px"></line><line x1="243.6328125" y1="0" x2="243.6328125" y2="5" style="visibility: inherit;" fill="rgb(0, 0, 0)" stroke="rgb(204, 204, 204)" stroke-width="1px"></line><line x1="278.4375" y1="0" x2="278.4375" y2="5" style="visibility: inherit;" fill="rgb(0, 0, 0)" stroke="rgb(204, 204, 204)" stroke-width="1px"></line></g><g transform="translate(0, 8)"><text x="0" y="0" dx="0em" dy="0.95em" style="text-anchor: middle; visibility: hidden; font-family: Roboto, sans-serif; font-size: 12px; font-weight: 200;" fill="rgb(33, 33, 33)" stroke="none" stroke-width="1px">-10k</text><text x="34.8046875" y="0" dx="0em" dy="0.95em" style="text-anchor: middle; visibility: inherit; font-family: Roboto, sans-serif; font-size: 12px; font-weight: 200;" fill="rgb(33, 33, 33)" stroke="none" stroke-width="1px">0</text><text x="69.609375" y="0" dx="0em" dy="0.95em" style="text-anchor: middle; visibility: inherit; font-family: Roboto, sans-serif; font-size: 12px; font-weight: 200;" fill="rgb(33, 33, 33)" stroke="none" stroke-width="1px">10k</text><text x="104.4140625" y="0" dx="0em" dy="0.95em" style="text-anchor: middle; visibility: inherit; font-family: Roboto, sans-serif; font-size: 12px; font-weight: 200;" fill="rgb(33, 33, 33)" stroke="none" stroke-width="1px">20k</text><text x="139.21875" y="0" dx="0em" dy="0.95em" style="text-anchor: middle; visibility: inherit; font-family: Roboto, sans-serif; font-size: 12px; font-weight: 200;" fill="rgb(33, 33, 33)" stroke="none" stroke-width="1px">30k</text><text x="174.0234375" y="0" dx="0em" dy="0.95em" style="text-anchor: middle; visibility: inherit; font-family: Roboto, sans-serif; font-size: 12px; font-weight: 200;" fill="rgb(33, 33, 33)" stroke="none" stroke-width="1px">40k</text><text x="208.828125" y="0" dx="0em" dy="0.95em" style="text-anchor: middle; visibility: inherit; font-family: Roboto, sans-serif; font-size: 12px; font-weight: 200;" fill="rgb(33, 33, 33)" stroke="none" stroke-width="1px">50k</text><text x="243.6328125" y="0" dx="0em" dy="0.95em" style="text-anchor: middle; visibility: inherit; font-family: Roboto, sans-serif; font-size: 12px; font-weight: 200;" fill="rgb(33, 33, 33)" stroke="none" stroke-width="1px">60k</text><text x="278.4375" y="0" dx="0em" dy="0.95em" style="text-anchor: middle; visibility: hidden; font-family: Roboto, sans-serif; font-size: 12px; font-weight: 200;" fill="rgb(33, 33, 33)" stroke="none" stroke-width="1px">70k</text></g><line x1="0" y1="0" x2="278.4375" y2="0" fill="rgb(0, 0, 0)" stroke="rgb(204, 204, 204)" stroke-width="1px"></line></g></g></g></g></svg>