<svg viewBox="0 0 330 200" xmlns="http://www.w3.org/2000/svg"><g><g><g><g><g><line x1="51.5625" y1="177" x2="46.5625" y2="177" style="visibility: inherit;" fill="rgb(0, 0, 0)" stroke="rgb(204, 204, 204)" stroke-width="1px"></line><line x1="51.5625" y1="164.35714285714283" x2="46.5625" y2="164.35714285714283" style="visibility: inherit;" fill="rgb(0, 0, 0)" stroke="rgb(204, 204, 204)" stroke-width="1px"></line><line x1="51.5625" y1="151.7142857142857" x2="46.5625" y2="151.7142857142857" style="visibility: inherit;" fill="rgb(0, 0, 0)" stroke="rgb(204, 204, 204)" stroke-width="1px"></line><line x1="51.5625" y1="139.0714285714286" x2="46.5625" y2="139.0714285714286" style="visibility: inherit;" fill="rgb(0, 0, 0)" stroke="rgb(204, 204, 204)" stroke-width="1px"></line><line x1="51.5625" y1="126.42857142857144" x2="46.5625" y2="126.42857142857144" style="visibility: inherit;" fill="rgb(0, 0, 0)" stroke="rgb(204, 204, 204)" stroke-width="1px"></line><line x1="51.5625" y1="113.78571428571432" x2="46.5625" y2="113.78571428571432" style="visibility: inherit;" fill="rgb(0, 0, 0)" stroke="rgb(204, 204, 204)" stroke-width="1px"></line><line x1="51.5625" y1="101.14285714285715" x2="46.5625" y2="101.14285714285715" style="visibility: inherit;" fill="rgb(0, 0, 0)" stroke="rgb(204, 204, 204)" stroke-width="1px"></line><line x1="51.5625" y1="88.5" x2="46.5625" y2="88.5" style="visibility: inherit;" fill="rgb(0, 0, 0)" stroke="rgb(204, 204, 204)" stroke-width="1px"></line><line x1="51.5625" y1="75.85714285714285" x2="46.5625" y2="75.85714285714285" style="visibility: inherit;" fill="rgb(0, 0, 0)" stroke="rgb(204, 204, 204)" stroke-width="1px"></line><line x1="51.5625" y1="63.214285714285765" x2="46.5625" y2="63.214285714285765" style="visibility: inherit;" fill="rgb(0, 0, 0)" stroke="rgb(204, 204, 204)" stroke-width="1px"></line><line x1="51.5625" y1="50.571428571428605" x2="46.5625" y2="50.571428571428605" style="visibility: inherit;" fill="rgb(0, 0, 0)" stroke="rgb(204, 204, 204)" stroke-width="1px"></line><line x1="51.5625" y1="37.92857142857145" x2="46.5625" y2="37.92857142857145" style="visibility: inherit;" fill="rgb(0, 0, 0)" stroke="rgb(204, 204, 204)" stroke-width="1px"></line><line x1="51.5625" y1="25.285714285714313" x2="46.5625" y2="25.285714285714313" style="visibility: inherit;" fill="rgb(0, 0, 0)" stroke="rgb(204, 204, 204)" stroke-width="1px"></line><line x1="51.5625" y1="12.642857142857157" x2="46.5625" y2="12.642857142857157" style="visibility: inherit;" fill="rgb(0, 0, 0)" stroke="rgb(204, 204, 204)" stroke-width="1px"></line><line x1="51.5625" y1="0" x2="46.5625" y2="0" style="visibility: inherit;" fill="rgb(0, 0, 0)" stroke="rgb(204, 204, 204)" stroke-width="1px"></line></g><g transform="translate(41.5625, 0)"><text x="0" y="177" dx="0em" dy="0.3em" style="text-anchor: end; visibility: hidden; font-family: Roboto, sans-serif; font-size: 12px; font-weight: 200;" fill="rgb(33, 33, 33)" stroke="none" stroke-width="1px">0.52</text><text x="0" y="164.35714285714283" dx="0em" dy="0.3em" style="text-anchor: end; visibility: inherit; font-family: Roboto, sans-serif; font-size: 12px; font-weight: 200;" fill="rgb(33, 33, 33)" stroke="none" stroke-width="1px">0.54</text><text x="0" y="151.7142857142857" dx="0em" dy="0.3em" style="text-anchor: end; visibility: hidden; font-family: Roboto, sans-serif; font-size: 12px; font-weight: 200;" fill="rgb(33, 33, 33)" stroke="none" stroke-width="1px">0.56</text><text x="0" y="139.0714285714286" dx="0em" dy="0.3em" style="text-anchor: end; visibility: inherit; font-family: Roboto, sans-serif; font-size: 12px; font-weight: 200;" fill="rgb(33, 33, 33)" stroke="none" stroke-width="1px">0.58</text><text x="0" y="126.42857142857144" dx="0em" dy="0.3em" style="text-anchor: end; visibility: hidden; font-family: Roboto, sans-serif; font-size: 12px; font-weight: 200;" fill="rgb(33, 33, 33)" stroke="none" stroke-width="1px">0.6</text><text x="0" y="113.78571428571432" dx="0em" dy="0.3em" style="text-anchor: end; visibility: inherit; font-family: Roboto, sans-serif; font-size: 12px; font-weight: 200;" fill="rgb(33, 33, 33)" stroke="none" stroke-width="1px">0.62</text><text x="0" y="101.14285714285715" dx="0em" dy="0.3em" style="text-anchor: end; visibility: hidden; font-family: Roboto, sans-serif; font-size: 12px; font-weight: 200;" fill="rgb(33, 33, 33)" stroke="none" stroke-width="1px">0.64</text><text x="0" y="88.5" dx="0em" dy="0.3em" style="text-anchor: end; visibility: inherit; font-family: Roboto, sans-serif; font-size: 12px; font-weight: 200;" fill="rgb(33, 33, 33)" stroke="none" stroke-width="1px">0.66</text><text x="0" y="75.85714285714285" dx="0em" dy="0.3em" style="text-anchor: end; visibility: hidden; font-family: Roboto, sans-serif; font-size: 12px; font-weight: 200;" fill="rgb(33, 33, 33)" stroke="none" stroke-width="1px">0.68</text><text x="0" y="63.214285714285765" dx="0em" dy="0.3em" style="text-anchor: end; visibility: inherit; font-family: Roboto, sans-serif; font-size: 12px; font-weight: 200;" fill="rgb(33, 33, 33)" stroke="none" stroke-width="1px">0.7</text><text x="0" y="50.571428571428605" dx="0em" dy="0.3em" style="text-anchor: end; visibility: hidden; font-family: Roboto, sans-serif; font-size: 12px; font-weight: 200;" fill="rgb(33, 33, 33)" stroke="none" stroke-width="1px">0.72</text><text x="0" y="37.92857142857145" dx="0em" dy="0.3em" style="text-anchor: end; visibility: inherit; font-family: Roboto, sans-serif; font-size: 12px; font-weight: 200;" fill="rgb(33, 33, 33)" stroke="none" stroke-width="1px">0.74</text><text x="0" y="25.285714285714313" dx="0em" dy="0.3em" style="text-anchor: end; visibility: hidden; font-family: Roboto, sans-serif; font-size: 12px; font-weight: 200;" fill="rgb(33, 33, 33)" stroke="none" stroke-width="1px">0.76</text><text x="0" y="12.642857142857157" dx="0em" dy="0.3em" style="text-anchor: end; visibility: inherit; font-family: Roboto, sans-serif; font-size: 12px; font-weight: 200;" fill="rgb(33, 33, 33)" stroke="none" stroke-width="1px">0.78</text><text x="0" y="0" dx="0em" dy="0.3em" style="text-anchor: end; visibility: hidden; font-family: Roboto, sans-serif; font-size: 12px; font-weight: 200;" fill="rgb(33, 33, 33)" stroke="none" stroke-width="1px">0.8</text></g><line x1="51.5625" y1="0" x2="51.5625" y2="177" fill="rgb(0, 0, 0)" stroke="rgb(204, 204, 204)" stroke-width="1px"></line></g></g><g transform="translate(51, 0)" clip-path="url(#clip_0)"><clipPath id="clip_0"><rect width="278" height="177"></rect></clipPath><g><g><g><line x1="0" y1="0" x2="0" y2="177" fill="rgb(0, 0, 0)" stroke="rgb(66, 66, 66)" stroke-width="1px" opacity="0.25"></line><line x1="34.8046875" y1="0" x2="34.8046875" y2="177" fill="rgb(0, 0, 0)" stroke="rgb(66, 66, 66)" stroke-width="1px" opacity="0.25"></line><line x1="69.609375" y1="0" x2="69.609375" y2="177" fill="rgb(0, 0, 0)" stroke="rgb(66, 66, 66)" stroke-width="1px" opacity="0.25"></line><line x1="104.4140625" y1="0" x2="104.4140625" y2="177" fill="rgb(0, 0, 0)" stroke="rgb(66, 66, 66)" stroke-width="1px" opacity="0.25"></line><line x1="139.21875" y1="0" x2="139.21875" y2="177" fill="rgb(0, 0, 0)" stroke="rgb(66, 66, 66)" stroke-width="1px" opacity="0.25"></line><line x1="174.0234375" y1="0" x2="174.0234375" y2="177" fill="rgb(0, 0, 0)" stroke="rgb(66, 66, 66)" stroke-width="1px" opacity="0.25"></line><line x1="208.828125" y1="0" x2="208.828125" y2="177" fill="rgb(0, 0, 0)" stroke="rgb(66, 66, 66)" stroke-width="1px" opacity="0.25"></line><line x1="243.6328125" y1="0" x2="243.6328125" y2="177" fill="rgb(0, 0, 0)" stroke="rgb(66, 66, 66)" stroke-width="1px" opacity="0.25"></line><line x1="278.4375" y1="0" x2="278.4375" y2="177" fill="rgb(0, 0, 0)" stroke="rgb(66, 66, 66)" stroke-width="1px" opacity="0.25"></line></g><g><line x1="0" y1="177" x2="278.4375" y2="177" fill="rgb(0, 0, 0)" stroke="rgb(66, 66, 66)" stroke-width="1px" opacity="0.25"></line><line x1="0" y1="164.35714285714283" x2="278.4375" y2="164.35714285714283" fill="rgb(0, 0, 0)" stroke="rgb(66, 66, 66)" stroke-width="1px" opacity="0.25"></line><line x1="0" y1="151.7142857142857" x2="278.4375" y2="151.7142857142857" fill="rgb(0, 0, 0)" stroke="rgb(66, 66, 66)" stroke-width="1px" opacity="0.25"></line><line x1="0" y1="139.0714285714286" x2="278.4375" y2="139.0714285714286" fill="rgb(0, 0, 0)" stroke="rgb(66, 66, 66)" stroke-width="1px" opacity="0.25"></line><line x1="0" y1="126.42857142857144" x2="278.4375" y2="126.42857142857144" fill="rgb(0, 0, 0)" stroke="rgb(66, 66, 66)" stroke-width="1px" opacity="0.25"></line><line x1="0" y1="113.78571428571432" x2="278.4375" y2="113.78571428571432" fill="rgb(0, 0, 0)" stroke="rgb(66, 66, 66)" stroke-width="1px" opacity="0.25"></line><line x1="0" y1="101.14285714285715" x2="278.4375" y2="101.14285714285715" fill="rgb(0, 0, 0)" stroke="rgb(66, 66, 66)" stroke-width="1px" opacity="0.25"></line><line x1="0" y1="88.5" x2="278.4375" y2="88.5" fill="rgb(0, 0, 0)" stroke="rgb(66, 66, 66)" stroke-width="1px" opacity="0.25"></line><line x1="0" y1="75.85714285714285" x2="278.4375" y2="75.85714285714285" fill="rgb(0, 0, 0)" stroke="rgb(66, 66, 66)" stroke-width="1px" opacity="0.25"></line><line x1="0" y1="63.214285714285765" x2="278.4375" y2="63.214285714285765" fill="rgb(0, 0, 0)" stroke="rgb(66, 66, 66)" stroke-width="1px" opacity="0.25"></line><line x1="0" y1="50.571428571428605" x2="278.4375" y2="50.571428571428605" fill="rgb(0, 0, 0)" stroke="rgb(66, 66, 66)" stroke-width="1px" opacity="0.25"></line><line x1="0" y1="37.92857142857145" x2="278.4375" y2="37.92857142857145" fill="rgb(0, 0, 0)" stroke="rgb(66, 66, 66)" stroke-width="1px" opacity="0.25"></line><line x1="0" y1="25.285714285714313" x2="278.4375" y2="25.285714285714313" fill="rgb(0, 0, 0)" stroke="rgb(66, 66, 66)" stroke-width="1px" opacity="0.25"></line><line x1="0" y1="12.642857142857157" x2="278.4375" y2="12.642857142857157" fill="rgb(0, 0, 0)" stroke="rgb(66, 66, 66)" stroke-width="1px" opacity="0.25"></line><line x1="0" y1="0" x2="278.4375" y2="0" fill="rgb(0, 0, 0)" stroke="rgb(66, 66, 66)" stroke-width="1px" opacity="0.25"></line></g></g></g><g><g><line x1="0" y1="505.71428571428567" x2="278.4375" y2="505.71428571428567" fill="rgb(0, 0, 0)" stroke="rgb(153, 153, 153)" stroke-width="1.5px"></line></g></g><g><g><line x1="34.8046875" y1="0" x2="34.8046875" y2="177" fill="rgb(0, 0, 0)" stroke="rgb(153, 153, 153)" stroke-width="1.5px"></line></g></g><g><g><g><g><g><path stroke="rgb(0, 119, 187)" stroke-width="2px" d="M37.310625,187.50010301219598L37.589062500000004,173.82029036740488L37.72828125,158.79290290143334L37.8675,147.1875115079415L37.937109375000006,137.99617207214578L38.076328125,133.90364656682522L38.493984375000004,129.74068184409919L38.56359375,126.34311890476798L38.633203125,121.06498275383575L38.7028125,117.67972543838475L39.329296875,116.04436096678803L39.746953125,115.61967529523328L39.816562499999996,113.41046296665267L39.886171874999995,112.3785946471694L39.955781249999994,109.93784876128468L40.303828124999995,106.47052848377714L40.860703125,104.74128105311311L41.34796875,104.4643904226324L41.90484375,103.04988867361399L42.113671875,102.94219595894421L42.18328125,102.38654702844097L42.670546875,101.56028215685308L43.01859375,100.00837351113762L43.57546875,98.65296765620903L43.784296875,97.29745836501601L43.85390625,96.64277847011878L44.480390625,95.69836852949395L44.619609375,95.34501746551096L44.68921875,94.31778844366237L44.758828125,93.43638510913202L45.24609375,93.26688085309412L45.594140625,92.31858921102938L45.733359375,92.58188807949224L45.802968750000005,90.92424785121626L46.08140625,90.47666137059412L46.429453125,89.59501901907278L46.4990625,89.30432603425393L46.707890625000005,88.09473172458215L47.125546875000005,87.07745140318437L47.195156250000004,87.27579418719782L47.334375,88.1981687373753L47.543203125000005,86.84749111704998L47.682421875,86.42138276966163L47.75203125,85.97406364410955L47.89125,85.93390614775258L48.03046875,85.34600277334077L48.100078124999996,85.11113575649284L48.587343749999995,84.7857846528601L49.14421875,84.62343525511922L49.213828125,84.75367528456547L49.2834375,84.03763477379242L49.561875,83.99219078263476L50.327578124999995,83.17907409247783L50.466796875,83.1931219158276L50.745234374999995,82.8322166587898L50.9540625,83.48560830982669L51.09328125,83.37956822258634L51.302109375,83.087178995753L52.137421875,82.37015519245402L52.555078125,82.00033923676345L52.76390625,82.40890996558191L52.903125,82.30799589739225L52.972734375,81.91935141529987L53.111953125,81.07982585204724L53.390390625,80.85568954753566L53.668828125000005,80.34991005161926L53.808046875,79.94446069760616L54.156093750000004,79.86097407848983L55.130625,79.89198296916082L55.478671875,79.91223092433829L55.54828125,79.82070431168188L55.826718750000005,79.80406229185196L55.896328125000004,80.03443635770978L56.174765625000006,79.41348104433082L56.244375000000005,79.05497768891996L56.38359375,78.82449371147334L56.592421875,78.61244919508623L56.940468749999994,78.35997424649565L57.010078125,77.652505145389L57.427734375,77.65843772429899L57.49734375,77.80268470637519L57.566953125,77.45854220506696L57.775781249999994,77.39925041288242L58.402265625,77.44487600795331L58.959140624999996,76.98568334613354L59.864062499999996,76.80962168380344L60.072890625,77.00213372949982L60.351328125,77.40783310926811L60.768984375,77.27137283376605L61.047421875,77.39563090652298L61.117031250000004,76.60067721112001L61.186640625,76.51911104477246L61.67390625,76.71218947712337L62.021953125,76.574614302101L62.0915625,76.53370310459891L63.205312500000005,76.7714753924928L63.692578125000004,76.65508967408783L64.110234375,76.12550738580902L64.17984375,75.907506789996L64.3190625,75.91788521232245L64.73671875000001,76.15342384237272L65.363203125,75.90301471491127L65.502421875,75.38773979254069L65.57203125,75.46867894476533L65.78085937499999,75.34428402831269L66.198515625,75.12103180890263L66.825,74.97815101978665L67.033828125,74.95756925412591L67.1034375,74.94473382350672L67.729921875,75.16722648277229L67.79953125,75.06032074485229L68.565234375,74.90619059621835L68.7740625,74.6413062864652L68.843671875,74.47155538769678L68.982890625,74.27507298389241L69.122109375,74.23278942759785L70.09664062499999,73.93747602062264L70.4446875,73.89857061126818L70.58390625,73.69754040328978L70.792734375,73.52605620946261L71.349609375,73.19032523277927L71.767265625,73.1684090160932L71.90648437499999,72.93701844066639L72.1153125,72.84857230187316L72.184921875,72.8623435507976L72.39375,72.68056804459495L72.53296875000001,72.49434271020729L72.88101562499999,72.21332329194544L72.950625,72.35599438597978L73.57710937499999,72.20319625639917L73.71632812499999,72.18578238195164L73.994765625,72.3463626128925L74.064375,72.01734071380308L74.41242187499999,71.85613563133748L74.690859375,71.9289489429741L74.76046875,72.05069326076887L75.108515625,71.66400397934389L75.247734375,71.41648631728715L75.31734375,71.39078414813837L75.38695312499999,71.55001888921569L75.4565625,71.34463710689259L75.59578125,70.87869151933631L75.665390625,70.67369098453423L76.01343750000001,70.3565865766487L76.083046875,70.01865579198085L76.5703125,69.81847475661522L76.70953125000001,69.6666906885497L77.1271875,69.52734179263804L77.26640625,69.32964653815546L77.614453125,69.15077511096885L77.9625,68.73165078583023L78.10171875,68.57800650275873L78.93703124999999,68.27593373189228L79.424296875,68.1197629653303L79.49390625,67.88564517518827L79.63312499999999,67.67765561495365L79.702734375,67.48771922535937L79.77234374999999,67.3576907557277L79.841953125,67.13630504089981L79.981171875,67.13843139620077L80.19,67.18367299430965L80.4684375,66.93442480795524L80.816484375,66.80237202689473L81.0253125,66.80875340503637L81.30375,66.7656496900673L81.512578125,66.51101887708057L81.58218749999999,66.28245231802258L81.72140625,65.96143831603922L81.791015625,65.8072760432L81.99984375,65.84496599283266L82.06945312500001,65.91533379508068L82.27828124999999,65.93583530141734L82.347890625,65.77525991224614L82.6959375,65.70262823907684L82.765546875,65.57046182014544L83.25281249999999,65.47220781959737L83.461640625,65.5176754560061L83.74007812500001,65.34913948213244L83.94890625,65.07024452265792L84.08812499999999,65.08577278721243L84.22734375,64.99445939784549L84.50578125,64.88459382621187L84.78421875,64.78945995810136L84.993046875,64.59072864958347L85.06265625,64.41640213660226L85.132265625,64.13842356057934L85.201875,64.09678862667168L85.61953125,63.97399370570613L86.0371875,63.856256946666754L86.17640625,63.71201783526359L86.24601562500001,63.6441282035536L86.52445312500001,63.55087366676093L86.73328125,63.3943935143253L86.802890625,63.32678256500206L87.01171875,63.17683715328859L87.081328125,63.10300870327653L87.1509375,62.95985774974631L87.29015625,62.918293548740586L87.42937500000001,62.964609154481174L87.84703125,62.849274600749844L88.055859375,62.71513891404669L88.12546875,62.68965692834146L88.33429687499999,62.54705892892879L88.40390625,62.521656199399246L88.47351562499999,62.412240064960166L88.61273437499999,62.30100298311217L88.68234375,62.17021117859436L89.10000000000001,62.13706860402178L89.3784375,61.995887537065684L89.44804687499999,61.98915091924307L89.587265625,61.97867399584437L89.726484375,61.917398582869744L89.865703125,61.8503878266767L89.93531250000001,62.040195584814356L90.004921875,61.883900393656496L90.07453125,61.640913383643614L90.14414062499999,61.60593661528082L90.35296875,61.606425587123326L90.63140625,61.48060288164962L90.840234375,61.46295731320206L90.97945312499999,61.249893306130005L91.0490625,61.189478237546545L91.11867187499999,61.19974459238131L91.536328125,61.10259238434201L91.60593750000001,61.06680517386213L91.74515625000001,60.96859960738772L91.95398437499999,60.88827733050834L92.232421875,60.86635784321157L92.44125000000001,60.800504268942944L92.650078125,60.69828550097253L92.7196875,60.578137283437385L92.85890625,60.43127729285645L92.998125,60.4133630732728L93.13734375,60.4120799480973L93.485390625,60.33838669180152L93.69421875,60.32743713105461L95.156015625,60.25622733591201L95.29523437499999,60.137135576077014L95.36484375,60.18006024696731L95.64328125,60.23866295981433L95.7825,60.15029926443177L96.0609375,60.03313118064996L96.20015624999999,60.05058181319012L96.33937499999999,59.98970444723311L96.548203125,59.935357200674765L96.687421875,59.913199101282515L96.75703125,59.802614814210834L97.17468749999999,59.666193968379055L97.453125,59.626622230507934L97.940390625,59.516085730557826L98.00999999999999,59.41806136639718L98.079609375,59.24430941097787L98.14921874999999,59.16710303817529L98.497265625,59.05061563838308L98.63648437500001,58.95541041535849L98.84531249999999,58.90708778251672L98.914921875,58.942986892128566L98.98453124999999,58.859955074453886L99.054140625,58.68632365052094L99.61101562500001,58.60895277508018L99.68062499999999,58.493599049174705L99.889453125,58.50557263343431L100.37671875,58.323904242426984L100.585546875,58.32422074024782L101.14242187500001,58.425255921387524L101.21203125,58.36071972397925L101.35125,58.34731731219648L101.420859375,58.3139557111165L101.49046874999999,58.20061325702875L101.699296875,58.36179918552167L101.76890625,58.28416484896384L102.04734375,58.20978820997258L102.395390625,58.22324430985322L102.465,58.19737334217801L102.7434375,58.15279106043665L102.81304687500001,58.09662486697823L102.88265625,57.939923102550615L102.95226562500001,57.88865281294405L103.16109374999999,57.88581019362431L103.230703125,57.681994837395735L103.3003125,57.58146389801891L103.509140625,57.51210654153396L103.57875,57.361141962768485L104.135625,57.25338099168706L104.4140625,57.26328819382972L104.55328125,57.08804714394628L104.6925,56.935928289091905L104.762109375,56.83528285965005L104.9709375,56.915270148784L105.249375,56.80640933493892L105.318984375,56.776281537453485L105.38859375,56.711146451554676L105.597421875,56.68600175892252L106.154296875,56.69353356091363L106.293515625,56.788129802820556L106.571953125,56.77904257737091L106.6415625,56.77457472434351L106.85039062499999,56.67656111043184L106.989609375,56.688763888051085L107.128828125,56.57262488555919L107.476875,56.40571119053083L108.242578125,56.31103618341062L108.38179687499999,56.07525507235024L108.799453125,56.03892815724999L108.8690625,55.92678168761446L109.00828125000001,55.878633809602L109.14750000000001,55.82499993945278L109.4259375,55.75845501573316L109.704375,55.776926183752515L109.84359375000001,55.74485398116098L110.19164062499999,55.80610888572711L110.26125,55.74512994524774L110.330859375,55.65771926311539L110.81812500000001,55.62422914357483L110.887734375,55.636999201237856L111.305390625,55.53599106733521L111.583828125,55.49378341037089L111.65343750000001,55.39947366181391L111.723046875,55.385392509752144L112.34953125000001,55.36351107894566L112.48875000000001,55.31585190645255L112.69757812499999,55.24698775635734L113.115234375,55.20391328638215L113.18484375,55.202051531521576L113.672109375,55.25612708961512L113.811328125,55.16052268975228L114.785859375,55.17269073752022L114.9946875,55.07470775417547L115.20351562500001,54.96792329294612L115.273125,54.93781185992103L115.342734375,54.85515046660972L115.55156249999999,54.67917318320131L115.621171875,54.57804481169876L115.69078125,54.466712448142765L116.94375,54.34336249654482L117.152578125,54.334442343744215L117.291796875,54.16533041880601L117.36140625,54.197815215151394L117.7790625,54.09654838006658L117.84867187500001,54.02467220838046L117.987890625,54.00056972303274L118.127109375,54.07859091016795L118.266328125,53.98830649065987L118.405546875,53.96870559152539L118.614375,53.85604241751716L118.75359375,53.76314086479468L118.89281249999999,53.72392729861746L119.03203125,53.62709683582304L119.31046875,53.592254067171815L120.0065625,53.54077158328075L120.285,53.484358938752074L120.56343749999999,53.43181207403306L120.633046875,53.35129075701829L120.70265625,53.244767798332L120.841875,53.18149237655008L121.05070312500001,53.12490394585015L121.25953125,53.12347733582484L121.39874999999999,53.14358551896245L121.607578125,53.15569694880585L122.025234375,53.03654085591814L122.164453125,52.93195495041891L122.30367187499999,52.874961261215795L122.37328125,52.80087455933768L122.58210937499999,52.71446969131735L122.65171875,52.747598456997224L122.721328125,52.73071321680104L122.93015625,52.69264679577072L123.48703125,52.538412606512935L123.835078125,52.39312647129458L123.974296875,52.33890201719403L124.391953125,52.24388715842778L124.670390625,52.1641224906328L124.74000000000001,52.06305128726494L124.809609375,51.97579511188694L124.87921875,51.900594653183326L125.296875,51.9766563640595L125.505703125,51.95324250391547L125.99296875,51.92250064787593L126.1321875,51.919138236618885L126.341015625,51.8470975963894L126.41062500000001,51.810899898022086L126.61945312499999,51.68649638044555L127.037109375,51.652423010926114L127.176328125,51.50187683978859L127.38515625000001,51.437788041062326L127.59398437499999,51.41660459183715L127.66359375,51.46649822740346L127.733203125,51.449808581676L127.8028125,51.330335699488096L127.872421875,51.18440833633556L128.290078125,51.11159931083672L129.125390625,51.03215083363491L129.543046875,51.019461710007796L129.89109375,51.06331460962757L130.16953125,51.038564147377016L130.656796875,51.00957878149461L130.796015625,50.92700595717929L131.1440625,50.850347786709015L131.213671875,50.776574004977135L131.42249999999999,50.73635831436337L131.492109375,50.697394354118636L131.631328125,50.61656714864475L131.70093749999998,50.53104679626726L131.909765625,50.534836438106666L133.093125,50.50615060432573L133.162734375,50.42605010877379L133.23234374999998,50.33963069636725L133.580390625,50.23340054338477L133.78921875,50.14916684103035L134.06765625,50.06497549676288L134.137265625,49.90286279666981L134.206875,49.8497772946395L134.4853125,49.75997564285061L134.554921875,49.808023595302515L134.62453125,49.72869010553246L134.76375,49.685976369637466L135.04218749999998,49.58870615226452L135.18140625,49.49985068538462L136.086328125,49.56158405051832L136.1559375,49.51859165552877L136.782421875,49.4272887304137L136.85203125,49.38147442387037L137.617734375,49.2818739014785L138.17460937500002,49.16696967895798L138.24421875,49.06104879377888L138.453046875,48.92479378050176L138.592265625,48.85988072146926L138.661875,48.8497266682629L139.21875,48.8243075996048L139.288359375,48.76838936218749L139.35796875,48.668866368779995L139.63640625,48.597002623525164L139.775625,48.58124776188284L139.91484375,48.45741585057568L140.47171874999998,48.362031139081154L140.819765625,48.22797633408796L140.889375,48.19961757551558L141.098203125,48.110421160522904L141.58546875,48.09566968418461L141.72468750000002,48.011448601441934L142.42078124999998,47.96263538084051L142.768828125,47.80457550595941L142.8384375,47.69108614095261L142.97765625,47.651609623753494L143.04726562500002,47.64050972384106L143.464921875,47.539407109118066L143.9521875,47.620218710375696L144.021796875,47.49650725810938L144.64828125,47.38668451320804L144.92671875,47.28682042290688L145.06593750000002,47.25234552844696L145.344375,47.186563391875126L145.970859375,47.11467647965539L146.110078125,47.08101397098537L146.31890625,47.00922585825805L146.458125,46.90398760264836L146.527734375,46.85032849984893L146.87578125,46.7744751225882L147.43265624999998,46.683224705884115L147.571875,46.584921216485014L148.059140625,46.48226020324714L148.12875,46.42295948307645L148.40718750000002,46.367311235060434L148.75523437500001,46.34808823701896L148.9640625,46.30750790536374L149.10328124999998,46.227262414676346L149.312109375,46.13307060534263L149.5209375,46.084451951912285L149.799375,45.96239943288434L150.286640625,45.856810741213906L150.35625000000002,45.75337204554703L150.913125,45.67582097515158L151.05234375,45.58485325422412L151.1915625,45.53476701942428L151.400390625,45.4721134497847L151.47,45.378851638015604L151.88765625,45.276447912762826L151.957265625,45.19882410815841L152.51414062499998,45.091950340175686L152.72296875,45.005648652622355L152.79257812499998,44.89030177313807L152.8621875,44.854101184310636L152.931796875,44.75025221032975L153.071015625,44.703512290951124L153.27984375,44.634246006702234L153.76710937500002,44.60491927168734L153.83671875,44.590129013336565L154.18476562499998,44.592914909478765L154.323984375,44.56682523385155L154.39359375,44.4907367168614L154.46320312499998,44.46524895379515L155.08968750000003,44.376818937669476L155.36812500000002,44.28529098617435L155.50734375,44.21623894695928L155.576953125,44.169812804307824L155.71617187500001,44.096200025357284L156.06421875,44.01435658491932L156.13382812499998,43.96157278527803L156.273046875,43.87343700182194L156.34265625,43.87274447943292L156.412265625,43.88171167285414L156.62109375,43.82298107014975L156.7603125,43.78471972985384L156.89953125,43.71503709445147L157.52601562499999,43.67132067438591L157.73484375,43.61315757197834L158.361328125,43.568689125177514L158.77898437500002,43.49473706894836L158.84859375,43.40204054287262L159.26624999999999,43.355250318993114L159.335859375,43.271660718822716L159.40546875,43.18548741771566L159.96234375,43.08697340573071L160.38,43.03782907074447L160.44960937500002,42.97056969433356L161.006484375,42.89276011426182L161.07609375,42.895877707314824L161.284921875,42.84920478225309L161.7721875,42.771878268042386L161.91140625,42.68161709432745L162.18984375,42.584152653789545L162.6075,42.515662586970606L162.88593749999998,42.417304821945876L162.955546875,42.28508041498771L163.16437499999998,42.20988070236917L163.512421875,42.1395593861104L163.79085937500003,42.07256661595779L164.06929687500002,42.055698361881L164.69578125,42.04304341539631L164.83499999999998,41.908796986642415L164.904609375,41.882523584448435L165.322265625,41.79819581184468L165.391875,41.734135763696806L165.461484375,41.65606747681418L165.600703125,41.6045872627185L165.739921875,41.58027544928744L166.57523437499998,41.50778206053462L167.20171875,41.42781997314833L167.48015625000002,41.31644482031751L167.82820312500002,41.231342773137136L167.8978125,41.22171538190761L168.24585937499998,41.1620985174235L168.31546875,41.09098823326646L168.385078125,41.03423364018054L168.663515625,40.959484484463786L168.733125,40.9231662800675L169.15078125000002,40.85413905301661L169.42921875000002,40.80915615978357L169.49882812500002,40.753262845118115L169.5684375,40.708813329575335L169.70765625,40.6323637748918L170.1253125,40.557616174548045L170.334140625,40.47510178312018L170.473359375,40.42679015854931L170.6821875,40.31076332403675L170.891015625,40.30499531405176L171.09984375000002,40.33719347098838L171.2390625,40.292333803968276L171.726328125,40.18261976408679L171.86554687499998,40.140283065854184L172.700859375,40.05080996733491L172.77046875000002,39.95171717860591L172.84007812500002,39.84139565688563L173.814609375,39.808281373107285L174.093046875,39.77244226442098L174.371484375,39.671522376592534L174.44109375,39.643323656036955L174.649921875,39.56134738877917L174.71953125,39.47454277317005L174.92835937499999,39.380341572687676L175.067578125,39.31652121815656L175.20679687499998,39.264446573388526L175.55484374999997,39.18420064562599L175.763671875,39.12553395501882L175.902890625,39.04303632761217L176.11171875,38.98888454447507L176.320546875,38.98394113431424L176.52937500000002,38.92623795852828L176.66859374999999,38.86158922696689L176.87742187499998,38.842100256175996L177.08625,38.72280046543081L177.155859375,38.680182489857735L177.3646875,38.603654786710344L177.573515625,38.540982268897686L178.20000000000002,38.4273945618529L178.33921875,38.34018240866953L178.687265625,38.30741285425409L179.0353125,38.24780731758074L179.104921875,38.15310632386642L179.17453125,38.09452023329084L179.31375,37.9857700932468L179.383359375,37.94955371956787L179.52257812500002,37.90406167406894L179.661796875,37.849057867165044L179.87062500000002,37.81001359856481L179.940234375,37.70508162006008L180.21867187499998,37.580488892863926L180.56671874999998,37.470989281557145L180.7059375,37.394858705646456L181.19320312500003,37.30894365148198L181.332421875,37.21820552243319L181.40203125,37.204323234677226L181.610859375,37.17875630914192L181.75007812500002,37.071621797468566L182.028515625,36.96993982180352L182.23734374999998,36.93767863361754L182.3765625,36.860062665700674L182.51578125,36.83147479760796L182.585390625,36.77235490934822L182.9334375,36.713771589384L183.21187500000002,36.616446665221254L183.281484375,36.5205481036L183.35109375,36.53538482087998L183.62953124999999,36.468587203007445L183.69914062499998,36.40954008463966L183.838359375,36.33500299636638L183.90796874999998,36.26478088296587L184.0471875,36.20595811652574L184.116796875,36.069022707512325L184.18640625,35.99248696414522L184.325625,35.90355545442547L184.395234375,35.85343927107471L184.534453125,35.7691053904996L184.88250000000002,35.63294735760358L184.952109375,35.545921835469805L185.36976562499999,35.45770547742317L185.439375,35.36070370621845L185.508984375,35.255604745770036L185.787421875,35.18524953291608L185.92664062499998,35.10566845823975L186.065859375,35.019388728975706L186.344296875,34.99153572353078L187.040390625,34.890650977278106L187.179609375,34.850883877269595L187.31882812499998,34.7781061399403L187.3884375,34.72875415314805L187.666875,34.61949227252212L187.80609375,34.5582303061021L187.875703125,34.48871277987506L187.9453125,34.43644625825516L188.154140625,34.40049706159324L188.432578125,34.34170776170977L188.711015625,34.24685022177203L188.91984374999998,34.162522079822345L189.6159375,34.07018285934317L189.685546875,33.96214722702292L189.963984375,33.869934185412696L190.103203125,33.820593480884845L190.31203125,33.72768823124645L190.45125000000002,33.64238813625698L190.52085937500001,33.553905672051684L190.66007812499998,33.47157262299732L190.7296875,33.37554650399364L190.799296875,33.300293731328864L190.86890625,33.247886903341524L191.008125,33.15301426595929L191.14734375,33.09548145315917L191.216953125,33.05597197256985L191.495390625,32.943007480774554L191.565,32.866052373350335L191.70421875,32.78398957721879L191.91304687500002,32.719029675690734L192.26109375000001,32.64759569467972L193.09640625,32.55008041488611L193.37484375,32.47388787898604L193.58367187500002,32.434360247257985L193.93171875000002,32.36877139304432L194.07093749999999,32.29475909398794L194.27976562499998,32.22928458076053L194.697421875,32.1411638464695L194.76703125,32.13611063311879L194.90625,32.09820171718192L195.115078125,32.00172333282833L195.32390625,31.933990168130208L195.393515625,31.920163722500416L195.463125,31.847969120510434L196.089609375,31.7943238536228L196.15921875,31.707416403426446L196.228828125,31.639302138836253L196.29843749999998,31.53409801831814L196.43765625,31.435985215970938L196.576875,31.339795101992426L196.785703125,31.25095090165273L197.13375,31.192389450079638L197.27296875000002,31.12218520511217L197.342578125,31.038865825484745L197.4121875,30.999907001824983L197.48179687500001,30.916846308848243L198.038671875,30.872743187837315L198.66515625,30.782416604701485L199.013203125,30.686142787365686L199.570078125,30.625030257326074L199.63968749999998,30.52644927176132L199.848515625,30.453797315112688L200.126953125,30.40895384562705L200.61421875000002,30.340489095600226L200.823046875,30.272465528218056L201.03187499999999,30.232559396999733L201.10148437499998,30.13450189809794L201.17109375,30.05244258397549L201.31031249999998,29.97366227287954L201.8671875,29.969172885478915L202.00640625,29.896652704978294L202.145625,29.82606901076625L202.28484375000002,29.749746938540937L202.98093749999998,29.706457342152454L203.5378125,29.68391983897755L203.607421875,29.633986999968098L203.67703125,29.56135829728466L203.95546875000002,29.46964019395428L204.373125,29.364504408628747L204.93,29.256718364161866L205.34765625,29.18716398956514L205.417265625,29.095717424177803L205.486875,29.006002730977524L205.556484375,28.911652427137646L205.695703125,28.864449046012737L205.834921875,28.775247568758836L206.04375,28.723958144036366L206.600625,28.637487585585962L207.087890625,28.570656535127643L207.366328125,28.506073843334462L207.505546875,28.412896152046777L207.783984375,28.3293435831597L207.85359375000002,28.24971723128945L207.99281249999999,28.202965290296977L208.34085937499998,28.13658043323256L208.5496875,28.048314782994055L208.68890625,27.986747525047086L208.897734375,27.9102109407482L208.96734375,27.841458862018087L209.036953125,27.76257264630331L209.73304687499999,27.677003973984938L209.80265624999998,27.621485795152232L209.941875,27.53194887620151L210.01148437499998,27.463830859874736L210.08109374999998,27.413117346235552L210.150703125,27.33809549906632L210.429140625,27.25463145370881L210.568359375,27.16474143388705L210.7771875,27.06840533373459L210.91640625,27.004275845696963L211.055625,26.9548303612075L211.19484375,26.875094524575307L211.821328125,26.818349442855116L212.099765625,26.754639194712283L212.238984375,26.66470700649375L212.378203125,26.578457676763406L212.517421875,26.481572664434964L212.72625,26.390147535987683L212.93507812500002,26.303892352073806L213.35273437499998,26.271616533676514L213.42234374999998,26.202642723723688L213.70078124999998,26.086741510329812L213.909609375,26.021764364432293L214.1184375,25.958141773535733L214.25765625,25.858569337038784L214.60570312500002,25.797438435304112L214.88414062500001,25.711666554652776L215.09296874999998,25.637950801099755L215.162578125,25.575048799824817L215.2321875,25.51874546797068L215.301796875,25.49194483379915L215.510625,25.38750464402651L215.7890625,25.293692250746645L216.20671875,25.18695591296611L216.27632812500002,25.141593630732203L216.48515625,25.05515750133493L216.833203125,24.994838969380687L217.04203124999998,24.914818007943303L217.111640625,24.857478529510107L217.250859375,24.78998468930786L217.390078125,24.719259480609253L217.529296875,24.63022757021783L217.59890625,24.556594451633984L217.807734375,24.47360952531053L217.87734375,24.3883620732546L218.01656250000002,24.310383682898582L218.225390625,24.253657781004915L218.29500000000002,24.19631174741595L218.43421874999999,24.14238471504895L218.851875,24.07817066299793L219.06070312499997,23.989746410358674L219.26953125,23.906632324802167L219.339140625,23.836583800002913L219.617578125,23.787594670713098L220.03523437500002,23.718840443513017L220.94015625,23.642268891847035L221.21859375,23.581097906530953L221.35781250000002,23.51663357148339L221.70585937500002,23.433746334265468L221.9146875,23.32218927159763L222.05390624999998,23.228733718238754L222.33234375,23.15210479316692L222.680390625,23.05145111398204L222.958828125,22.97473484037185L223.237265625,22.898786185346058L223.44609375,22.8306742983897L224.490234375,22.78380645870673L225.186328125,22.710362790926798L225.25593750000002,22.632951832742666L225.32554687500001,22.569979845220047L225.534375,22.50749163869814L225.603984375,22.4324080573526L225.95203125,22.344534855941774L226.3696875,22.288386708233773L226.439296875,22.20305310391625L226.50890625,22.16116689404581L226.578515625,22.115076672375977L226.648125,22.028784845143797L226.71773437500002,21.948514792060568L226.78734375,21.85433902962262L227.34421875,21.772472021308538L228.945234375,21.695154357705796L229.01484375,21.6279971474856L229.08445312499998,21.523197695891568L229.57171875,21.437369038599755L230.33742187500002,21.364363982104877L230.40703125000002,21.26620843995535L230.476640625,21.1874700253748L230.75507812499998,21.08962456864219L231.311953125,21.016572111866846L231.3815625,20.92239963103381L231.590390625,20.83287755884367L231.72960937500002,20.764004613712L231.79921875,20.670511778690695L231.9384375,20.594858372274942L232.77374999999998,20.50616587638334L232.91296875,20.443252899949222L233.121796875,20.345469230053183L233.261015625,20.24934409510611L233.6090625,20.15944987813552L233.817890625,20.078658207071836L234.02671875000001,20.017174883310325L234.653203125,19.93558906238523L234.7228125,19.850363263385823L235.14046875,19.77049482532212L235.2796875,19.703508271583686L235.349296875,19.589873262473784L235.76695312500001,19.522563208544543L235.97578125,19.427156325667962L236.045390625,19.3620552952777L236.3934375,19.29387738963644L236.53265625,19.251952792665904L236.671875,19.176199288707508L236.880703125,19.1066448466749L236.9503125,19.03428397729958L237.5071875,18.96190494779128L237.85523437499998,18.88161789834162L237.994453125,18.801818697406308L238.0640625,18.74651413847562L238.13367187499998,18.669517295422043L238.412109375,18.576769251369026L238.899375,18.516668118526805L239.1778125,18.429473999913093L239.386640625,18.3592864090829L239.45624999999998,18.30128991189324L239.59546875,18.23625062109979L240.15234375,18.160047646090746L240.500390625,18.090123126005157L241.335703125,17.99462899720379L241.68375,17.928342694179985L241.82296875,17.826192830883247L241.892578125,17.75008176064365L242.10140625000003,17.683688296391757L242.79749999999999,17.60800540091303L243.21515625,17.507423962755794L243.49359375,17.42788428946935L243.841640625,17.348679602868206L243.980859375,17.251108422053118L244.12007812500002,17.1591507629689L244.259296875,17.087931915418192L244.39851562500002,16.994669199850357L244.60734374999998,16.939495349074583L244.676953125,16.875391836267198L244.7465625,16.790717213618088L244.955390625,16.751081051488995L245.025,16.682178034530782L245.094609375,16.604102233125168L245.373046875,16.531739900650827L245.44265625,16.496001689994117L245.512265625,16.411269611400414L245.72109375,16.334579823108438L245.79070312500002,16.241659975151613L245.929921875,16.16832313955355L245.99953125,16.10005323372836L246.27796874999999,16.013620331515394L246.4171875,15.943603872735162L246.48679687499998,15.877548595657498L246.55640624999998,15.811872404615158L246.83484374999998,15.718491141885853L246.9740625,15.64925409896471L247.11328125,15.568050040715493L247.322109375,15.512085428673572L247.94859375,15.43328172989744L248.15742187499998,15.361418500209012L248.296640625,15.289539967659453L248.435859375,15.264431580311633L248.575078125,15.197820562738325L248.714296875,15.110987230078056L249.34078125,15.02180026519238L249.61921875,14.954138076268572L249.7584375,14.891057365984874L249.967265625,14.830484971798027L250.524140625,14.767710779150882L250.80257812500003,14.680263782607984L251.08101562500002,14.610777018892959L251.49867187499999,14.532788857522629L251.7075,14.45122439126774L251.9859375,14.359322836334318L252.12515625,14.285038574855818L252.40359375,14.213190853626823L252.473203125,14.163110975147015L252.96046875,14.095412399157407L253.16929687500001,14.028597082340278L253.23890624999999,13.954433607923121L253.58695312499998,13.912288483629752L253.6565625,13.85404811584522L253.726171875,13.760737935763729L253.86539062499997,13.688130501063743L254.07421875,13.625109754677874L254.422265625,13.55539180471265L254.63109375,13.51200744015937L254.700703125,13.46394641443893L254.83992187500002,13.389712776433448L255.25757812499998,13.307144292152161L255.953671875,13.261886727015781L256.4409375,13.21022403317869L256.649765625,13.146601025427818L256.719375,13.060357462445301L257.206640625,13.01386323306767L257.27625,12.969945687983003L257.34585937500003,12.916101547460906L257.41546875,12.850259797824803L257.76351562499997,12.785346633463224L257.97234375,12.72895827147777L258.738046875,12.662888764283311L259.573359375,12.590329129821846L259.64296875,12.524988151809765L259.712578125,12.483115456105445L259.851796875,12.40242946992236L259.991015625,12.3247831951167L260.3390625,12.2899162113521L260.547890625,12.220326122497084L260.6175,12.13625082452004L260.75671875,12.08785675255462L260.826328125,12.060599943169827L261.31359375,11.99916950705547L261.4528125,11.938540615731847L261.59203125,11.85504747239395L262.14890625,11.800410356159293L262.218515625,11.745079723583203L262.5665625,11.67070676670402L262.636171875,11.576665720804696L263.053828125,11.524527451164065L263.193046875,11.43048048654246L263.332265625,11.360457417805076L263.471484375,11.306408850842288L263.749921875,11.249182346907089L263.95875,11.183266928651387L264.2371875,11.118909211798174L264.65484375,11.06479517760899L264.863671875,11.012312580531846L264.93328125,10.951302396022134L265.002890625,10.897445888885448L265.420546875,10.804215576032965L265.9078125,10.746762079545295L265.977421875,10.697460393780547L266.255859375,10.623999702666397L266.395078125,10.547676450237384L266.46468749999997,10.477268168461354L266.534296875,10.387984683713531L266.812734375,10.318415381862977L267.16078125,10.242714323111695L267.64804687500003,10.182795301648637L267.92648437500003,10.122786358293878L268.204921875,10.058292186550924L268.27453125,10.0399963147723L268.483359375,9.975681898532631L268.761796875,9.916058351023468L268.901015625,9.839208510911671L269.318671875,9.776582561288055L269.5275,9.74021061695255L269.66671875000003,9.6905435487983L269.80593749999997,9.637223637705876L269.94515625,9.5697827813543L270.153984375,9.505210555734163L270.293203125,9.442899871558286L270.50203125,9.374539410123727L270.571640625,9.320458014149938L270.78046875,9.25879446495232L270.9196875,9.220961240918871L271.33734375,9.17201532065655L271.685390625,9.095377022002879L271.755,9.058920311139584" style="fill: none;" fill="none"></path></g><g><path stroke="rgb(255, 112, 67)" stroke-width="2px" d="M37.589062500000004,178.23636664259033L37.658671875,175.72432548880374L37.72828125,173.58408922578528L37.797890625,171.34607421003068L37.8675,169.71890548613973L37.937109375000006,167.8407220486866L38.006718750000005,167.25934891303527L38.076328125,165.0948385352455L38.1459375,163.0095288755909L38.215546875,162.16797306536645L38.28515625,160.60240275670571L38.354765625000006,159.0896561868672L38.424375000000005,157.55834860688745L38.493984375000004,156.2658540723086L38.56359375,155.85749323934039L38.633203125,154.68575364521695L38.7028125,153.62189462638602L38.772421875000006,152.14688988807652L38.842031250000005,151.0471324140973L38.911640625000004,149.89786914130846L38.98125,148.862150851101L39.050859375,147.9662737854284L39.12046875,147.47063457306817L39.190078125,146.97434245046082L39.2596875,146.1171278044747L39.329296875,144.66932398659318L39.398906249999996,143.56783027601068L39.468515624999995,142.56161540541504L39.538124999999994,141.45179958066296L39.607734375,140.85785299085697L39.67734375,139.86929892332773L39.746953125,138.85083663869494L39.816562499999996,138.6985045052683L39.886171874999995,137.7724380789209L39.955781249999994,137.18446791765115L40.025390625,136.40573877928279L40.095,135.7330829494318L40.164609375,134.61570054841908L40.23421875,133.45880628582572L40.303828124999995,132.27641744253776L40.373437499999994,131.5822349017747L40.443046875,130.8693260596076L40.51265625,129.73500662830193L40.582265625,129.36493243408822L40.651875,128.60401355829575L40.721484374999996,127.76141915730123L40.791093749999995,126.97745683889505L40.860703125,126.32742520934248L40.9303125,125.84573250185953L40.999921875,125.14047562674894L41.06953125,124.52432882671339L41.139140624999996,123.62598186187599L41.208749999999995,123.05881506933729L41.278359375,122.78802875595589L41.34796875,121.85981229048127L41.417578125,121.36860148278116L41.4871875,120.88588465730241L41.556796874999996,120.40762369669585L41.626406249999995,119.73145997800778L41.696015625,119.28147725449726L41.765625,118.4858806381255L41.835234375,117.8591011217699L41.90484375,117.2201409694029L41.974453125,116.62651753028348L42.044062499999995,116.05112264468148L42.113671875,115.70171429919898L42.18328125,115.24676247291143L42.252890625,114.62526057213915L42.3225,114.09667779986403L42.392109375,113.64538937147569L42.461718749999996,113.38993221848666L42.531328125,113.23782906805056L42.6009375,112.72839880113611L42.670546875,112.73434679554127L42.74015625,112.26000045786954L42.809765625,111.84233424831552L42.879374999999996,111.67779347106757L42.948984375,111.29225653532293L43.01859375,110.79739804523481L43.088203125,110.58645097898152L43.1578125,110.23885572774928L43.227421875,110.14553150702122L43.297031249999996,109.72081860050845L43.366640625,109.53241436798723L43.43625,109.07882407851623L43.505859375,108.79250209605559L43.57546875,108.19094200039012L43.645078125,107.73773276902543L43.714687500000004,107.8136350112851L43.784296875,107.64735083811719L43.85390625,107.36610639750997L43.923515625,107.09739796857096L43.993125,106.72750255883429L44.062734375,106.68305628182753L44.132343750000004,106.71099669446963L44.201953125,106.71700302426812L44.2715625,106.22934356860983L44.341171875,105.59417203897739L44.41078125,105.22500331642094L44.480390625,105.11336842928061L44.550000000000004,105.00094183058971L44.619609375,104.59229887201096L44.68921875,104.1425950125309L44.758828125,103.85405552077428L44.8284375,103.74593998615809L44.898046875,103.90969136502062L44.967656250000005,103.54222716362426L45.037265625,103.14829790301252L45.106875,102.88818317430265L45.176484375,102.6495165179093L45.24609375,102.4108562605023L45.315703125,102.0247529049465L45.385312500000005,101.64715917967195L45.454921875000004,101.44870945010753L45.52453125,101.29854088776474L45.594140625,101.41516579700604L45.66375,101.28870758724666L45.733359375,101.2639958443599L45.802968750000005,101.04547168016286L45.872578125000004,100.68789661808405L45.9421875,100.60839071817755L46.011796875,100.4904227683161L46.08140625,100.25878327316066L46.151015625,99.91584035028869L46.220625000000005,99.78215452427047L46.290234375000004,99.38941220890254L46.35984375,99.07087622922577L46.429453125,98.83107504425385L46.4990625,98.6681977862455L46.568671875,98.27734785860892L46.638281250000006,98.10754711251792L46.707890625000005,97.89884381708431L46.7775,97.68018441386077L46.847109375,97.52104282633739L46.91671875,97.33548935390702L46.986328125,97.01988246309199L47.055937500000006,96.72537104104443L47.125546875000005,96.63354638805153L47.195156250000004,96.50187328282117L47.264765625,96.25558105910682L47.334375,96.15934131197741" style="fill: none;" fill="none"></path></g></g></g></g><g opacity="0.2"><g><g><g><path stroke="rgb(0, 119, 187)" stroke-width="2px" d="M35.848828125000004,182.5784116131919L36.05765625,162.0550014291491L36.4753125,142.94438992227828L37.310625,76.02657922676633L37.589062500000004,92.02821224927904L37.72828125,54.02111700602942L37.8675,54.7612010581153L37.937109375000006,55.68662639175145L38.076328125,93.20280649832318L38.493984375000004,84.22191177095686L38.56359375,85.83640426397325L38.633203125,52.927607212747866L38.7028125,70.64003935882025L39.329296875,91.70922479459219L39.746953125,108.88217402356013L39.816562499999996,76.19006689105719L39.886171874999995,93.98041848625456L39.955781249999994,64.02464798518591L40.303828124999995,37.84766933747702L40.860703125,68.82389072860994L41.34796875,98.44236195087434L41.90484375,70.9039029479027L42.113671875,100.38963228464128L42.18328125,88.67447325161527L42.670546875,80.36501207521985L43.01859375,58.688409115586985L43.57546875,61.24697787421092L43.784296875,58.57186904975348L43.85390625,77.30388547692984L44.480390625,66.88543719904764L44.619609375,84.22243927206313L44.68921875,60.989406619753176L44.758828125,63.98738379989354L45.24609375,87.43981923375814L45.594140625,58.80434632301333L45.733359375,102.14104899338315L45.802968750000005,29.147216805389984L46.08140625,73.36552453892573L46.429453125,55.04296200616022L46.4990625,77.63289545263564L46.707890625000005,38.369254895619015L47.125546875000005,44.283408905778636L47.195156250000004,95.80930250031608L47.334375,128.76421821968898L47.543203125000005,26.154740708214923L47.682421875,66.86765287603654L47.75203125,65.02064543110986L47.89125,84.01460383619582L48.03046875,56.68831331389293L48.100078124999996,73.43922397920065L48.587343749999995,68.3083337545395L49.14421875,76.24726308243616L49.213828125,91.59660330840521L49.2834375,45.738520707402934L49.561875,81.51854395866395L50.327578124999995,38.15075640167512L50.466796875,83.9843102012362L50.745234374999995,62.16543265751432L50.9540625,121.51657909154893L51.09328125,77.10769274405072L51.302109375,65.51864415407182L52.137421875,38.61375165837155L52.555078125,59.0854290553502L52.76390625,108.1080284714699L52.903125,75.86603049721037L52.972734375,56.74633843558177L53.111953125,25.918344855308554L53.390390625,65.91950731618066L53.668828125000005,46.173784477370155L53.808046875,52.170115624155336L54.156093750000004,74.06423743282049L55.130625,82.07385190895627L55.478671875,81.35573451008116L55.54828125,73.21074064288824L55.826718750000005,78.58676816735952L55.896328125000004,97.09862823997229L56.174765625000006,32.84394455807553L56.244375000000005,51.837187068803L56.38359375,61.11325634377345L56.592421875,62.12262971060618L56.940468749999994,58.49345977817266L57.010078125,21.332740059920745L57.427734375,78.13616918666024L57.49734375,89.55091633966993L57.566953125,49.1140002863748L57.775781249999994,72.4614630000932L58.402265625,81.28633043595724L58.959140624999996,37.903810526643504L59.864062499999996,61.664118213312996L60.072890625,93.7385215503829L60.351328125,113.04807633161546L60.768984375,65.15915215015413L61.047421875,88.5378881437438L61.117031250000004,4.5940749560083916L61.186640625,69.0567824670247L61.67390625,94.55177754163743L62.021953125,63.73855399233957L62.0915625,72.6795470288822L63.205312500000005,99.38662660973414L63.692578125000004,65.48013657331468L64.110234375,24.798648399966133L64.17984375,54.582340504441966L64.3190625,76.94247186183931L64.73671875000001,99.61850102458685L65.363203125,50.73128099952428L65.502421875,23.128090075084167L65.57203125,83.75025042465757L65.78085937499999,62.50484194074361L66.198515625,51.87803072588786L66.825,59.97483359915872L67.033828125,72.77796366385053L67.1034375,73.57400051185064L67.729921875,99.12638017109464L67.79953125,63.45287446464814L68.565234375,58.03404399326872L68.7740625,45.40962376764845L68.843671875,55.587606898375945L68.982890625,52.24294845546998L69.122109375,69.45391544273923L70.09664062499999,40.299607515335104L70.4446875,69.43258932658605L70.58390625,50.44337843145646L70.792734375,53.53815206459593L71.349609375,33.76183416162221L71.767265625,70.5752320800509L71.90648437499999,45.35457525934495L72.1153125,62.22771546670371L72.184921875,74.52813697712763L72.39375,50.53309129817148L72.53296875000001,49.64135067803522L72.88101562499999,37.48124446187703L72.950625,90.11406144925527L73.57710937499999,53.05100479296278L73.71632812499999,69.98785959822793L73.994765625,92.75443055800031L74.064375,29.915220737457297L74.41242187499999,51.08768335410529L74.690859375,81.3730290106365L74.76046875,87.94708690473013L75.108515625,20.837416521140533L75.247734375,38.667933557714754L75.31734375,67.96790714774816L75.38695312499999,92.89391692195623L75.4565625,43.63752147981101L75.59578125,7.617485225200673L75.665390625,42.663905152252774L76.01343750000001,26.75628036260607L76.083046875,23.263695538043997L76.5703125,41.94981936897553L76.70953125000001,48.40522719281062L77.1271875,49.88807048116414L77.26640625,41.2976396083832L77.614453125,43.63454486642568L77.9625,8.584131002426167L78.10171875,46.39744494642533L78.93703124999999,24.409616334097755L79.424296875,45.307665339538055L79.49390625,33.48802340882168L79.63312499999999,36.94168618747168L79.702734375,39.25790586641859L79.77234374999999,47.9212826064655L79.841953125,33.855917751789114L79.981171875,67.45988590376719L80.19,74.06148689133782L80.4684375,28.831582750592936L80.816484375,46.503585704735364L81.0253125,67.79507517814638L81.30375,60.06703325680326L81.512578125,26.724818689482582L81.58218749999999,30.37618134702958L81.72140625,15.262031257152577L81.791015625,41.32996789046698L81.99984375,71.86090299061368L82.06945312500001,77.20626009362086L82.27828124999999,69.24261357103079L82.347890625,39.74083312920164L82.6959375,53.86591864483699L82.765546875,43.92094028847561L83.25281249999999,49.295649060181226L83.461640625,73.04141278777807L83.74007812500001,37.320243588515716L83.94890625,18.45552295446398L84.08812499999999,67.69409639494761L84.22734375,49.58042430026193L84.50578125,46.24767231089731L84.78421875,48.572633436747985L84.993046875,30.549691532339384L85.06265625,34.411414095333676L85.132265625,16.06304168701174L85.201875,56.861785820552306L85.61953125,42.53429059471406L86.0371875,43.202634496348274L86.17640625,38.290506516184145L86.24601562500001,51.62302161966054L86.52445312500001,46.96179577282499L86.73328125,35.429604266371065L86.802890625,51.18847374405183L87.01171875,36.134006636483356L87.081328125,49.72752175160819L87.1509375,36.90815218857359L87.29015625,55.320163837501006L87.42937500000001,71.46912038326265L87.84703125,41.577403587954414L88.055859375,37.86639562674933L88.12546875,57.94836274215155L88.33429687499999,35.89870346443997L88.40390625,57.75382786989214L88.47351562499999,41.787198313644986L88.61273437499999,41.24255342142926L88.68234375,37.30392873287203L89.10000000000001,55.80915736300607L89.3784375,34.92610446044379L89.44804687499999,60.69204671042308L89.587265625,59.95294230324884L89.726484375,50.02032254423417L89.865703125,48.7858192409788L89.93531250000001,99.19815800019674L90.004921875,31.161027635846843L90.07453125,13.682090086596384L90.14414062499999,54.67446480478562L90.35296875,61.703718474933105L90.63140625,36.34444189923153L90.840234375,57.923720904759016L90.97945312499999,18.344747722148917L91.0490625,48.97538053137918L91.11867187499999,63.28347125223707L91.536328125,41.30660712718966L91.60593750000001,53.74625125101637L91.74515625000001,40.801863925797626L91.95398437499999,44.33016811098374L92.232421875,56.330366134643576L92.44125000000001,47.12068664176126L92.650078125,39.38341345105855L92.7196875,35.429604266371065L92.85890625,29.57566073962622L92.998125,56.63541248866492L93.13734375,60.140468946525054L93.485390625,44.681031703948996L93.69421875,57.992409084524446L95.156015625,45.0145631177085L95.29523437499999,34.553387250219096L95.36484375,69.43496308156423L95.64328125,72.91978610413416L95.7825,40.960001221724944L96.0609375,34.49566355773383L96.20015624999999,63.867678727422465L96.33937499999999,46.62607899733954L96.548203125,47.962842157908874L96.687421875,55.0145899823734L96.75703125,35.269130894116024L97.17468749999999,29.294766400541594L97.453125,50.786028078624206L97.940390625,34.73575191838403L98.00999999999999,37.366776721818134L98.079609375,20.02306784902303L98.14921874999999,41.679512730666595L98.497265625,32.575710245541195L98.63648437500001,37.243982000010384L98.84531249999999,47.84991924251832L98.914921875,67.18505782740458L98.98453124999999,39.73280757665636L99.054140625,18.555258342197998L99.61101562500001,40.66697435719629L99.68062499999999,31.65507010051184L99.889453125,61.30055691514699L100.37671875,15.778115732329264L100.585546875,58.398584936346346L101.14242187500001,82.2416349393981L101.21203125,43.09875445706506L101.35125,55.167602981839885L101.420859375,50.37352221352716L101.49046874999999,31.137591515268614L101.699296875,96.9710483295577L101.76890625,39.62926664522718L102.04734375,40.28125801256727L102.395390625,61.47704371384214L102.465,51.921964032309425L102.7434375,47.30493524244856L102.81304687500001,44.387703410216766L102.88265625,19.574202086244334L102.95226562500001,45.2973413893155L103.16109374999999,57.18555846384596L103.230703125,7.320652816976856L103.3003125,32.66538543360577L103.509140625,40.27014281068532L103.57875,19.718662032059296L104.135625,30.30278333595823L104.4140625,59.748460267271334L104.55328125,12.998599367482349L104.6925,18.550171724387603L104.762109375,31.363211274147055L104.9709375,77.21869404826849L105.249375,29.092808834144073L105.318984375,49.083970401968294L105.38859375,40.032239811761066L105.597421875,50.22861012390684L106.154296875,58.633360607283485L106.293515625,81.22167387178968L106.571953125,54.42514517477583L106.6415625,55.61394427503861L106.85039062499999,31.142753490379913L106.989609375,59.876756072044394L107.128828125,26.145471760204895L107.476875,12.553124683243915L108.242578125,31.367732712200745L108.38179687499999,-6.217625396592265L108.799453125,46.41473944698064L108.8690625,26.133188520159056L109.00828125000001,43.052032930510414L109.14750000000001,41.49763788495748L109.4259375,37.93342594589509L109.704375,60.73820305722102L109.84359375000001,47.10697161299844L110.19164062499999,72.3483516914504L110.26125,39.23296259982248L110.330859375,31.924585487161387L110.81812500000001,46.50686374732428L110.887734375,59.12280627659391L111.305390625,27.890746848923847L111.583828125,43.911219196660205L111.65343750000001,29.450793692043884L111.723046875,51.50086743491038L112.34953125000001,49.311323378767305L112.48875000000001,42.09936593260087L112.69757812499999,36.10039728028436L113.115234375,43.1966812695776L113.18484375,54.68173678432195L113.672109375,70.40782583611353L113.811328125,28.303930929728942L114.785859375,58.599600536482704L114.9946875,27.40928905350824L115.20351562500001,24.74088702883042L115.273125,46.392735115119415L115.342734375,31.3382303289005L115.55156249999999,4.488424020154164L115.621171875,25.66288360527586L115.69078125,22.554583336625804L116.94375,18.898661562374695L117.152578125,51.76488173859462L117.291796875,5.330315785748646L117.36140625,63.60162977661408L117.7790625,24.709613748959168L117.84867187500001,33.11575834240235L117.987890625,46.97204436574666L118.127109375,76.88553942101343L118.266328125,27.5327996696745L118.405546875,48.21133285760882L118.614375,20.684026735169574L118.75359375,26.34418896266394L118.89281249999999,42.122839731829536L119.03203125,24.91232488836564L119.31046875,43.23526420763563L120.0065625,38.20150954382763L120.285,36.636602154799895L120.56343749999999,37.70177760294508L120.633046875,29.190697968006155L120.70265625,21.20787301233839L120.841875,34.10715899297171L121.05070312500001,36.026886233261685L121.25953125,52.691437431744184L121.39874999999999,59.24722118037089L121.607578125,56.84042202574869L122.025234375,16.702259991850188L122.164453125,20.96797304494043L122.30367187499999,35.416793525218985L122.37328125,30.0554983530726L122.58210937499999,26.12749904394152L122.65171875,62.96429540429799L122.721328125,47.511753354753786L122.93015625,40.900657347270446L123.48703125,4.654360796724069L123.835078125,7.187082001141173L123.974296875,35.42956658772062L124.391953125,22.549195289611838L124.670390625,27.18076803854536L124.74000000000001,20.336893328598602L124.809609375,24.526382471833934L124.87921875,28.19225140980314L125.296875,76.00853115320207L125.505703125,44.53958605016984L125.99296875,42.16756428991048L126.1321875,50.849893391132376L126.341015625,28.889155728476418L126.41062500000001,40.25077598435541L126.61945312499999,11.872346826962096L127.037109375,40.724434299128426L127.176328125,3.116695071969736L127.38515625000001,30.79637365681787L127.59398437499999,44.579600776944865L127.66359375,67.60351691927232L127.733203125,46.04062812668939L127.8028125,12.52806838069646L127.872421875,3.6918973496982312L128.290078125,27.366636821201904L129.125390625,25.06842753716879L129.543046875,46.86413271086558L129.89109375,65.45334705284665L130.16953125,42.900263326508686L130.656796875,41.459356376103024L130.796015625,23.66527459451132L131.1440625,25.490089314324543L131.213671875,26.321242664541533L131.42249999999999,37.3783817461559L131.492109375,37.72920766047071L131.631328125,23.661393693515258L131.70093749999998,21.95383493389405L131.909765625,51.80369074855535L133.093125,40.8824585591044L133.162734375,23.500317462853058L133.23234374999998,21.232514849730926L133.580390625,14.38344048602243L133.78921875,21.666723617485626L134.06765625,21.54121603284566L134.137265625,-5.1274313245500505L134.206875,31.79451878581731L134.4853125,19.15777764150076L134.554921875,66.21321239641736L134.62453125,22.58939840963911L134.76375,35.04592256886621L135.04218749999998,16.185685694217703L135.18140625,18.92823930297582L136.086328125,70.8419969252178L136.1559375,34.67034178120752L136.782421875,17.83439040184023L136.85203125,33.49876182419916L137.617734375,14.687808624335723L138.17460937500002,9.182618686131102L138.24421875,12.13376130376546L138.453046875,1.333477582250345L138.592265625,26.144793544496824L138.661875,45.28991869517737L139.21875,39.89640827689855L139.288359375,29.092092939785584L139.35796875,13.584690775190104L139.63640625,23.216898654188444L139.775625,43.006931585924995L139.91484375,4.5638566783496595L140.47171874999998,14.490410174642314L140.819765625,0.5380812713078399L140.889375,38.09276895863672L141.098203125,16.264170323099425L141.58546875,42.81940494264878L141.72468750000002,17.83348611422949L142.42078124999998,30.440687196595356L142.768828125,-9.033614695072135L142.8384375,6.807846384389088L142.97765625,33.40543180704119L143.04726562500002,43.62772503069471L143.464921875,10.924804125513386L143.9521875,76.93783738783429L144.021796875,2.536556891032653L144.64828125,7.404450135571644L144.92671875,10.866741325174083L145.06593750000002,34.657606397356325L145.344375,23.112641828400776L145.970859375,20.76111725398474L146.110078125,34.71913563353677L146.31890625,20.601133704185507L146.458125,8.124451466969115L146.527734375,27.04350471496584L146.87578125,18.727449774742148L147.43265624999998,12.885676452091795L147.571875,10.11324367352898L148.059140625,8.329423325402423L148.12875,24.347295846257914L148.40718750000002,25.616463507924784L148.75523437500001,39.16792924915044L148.9640625,31.124592380864307L149.10328124999998,16.153696519987953L149.312109375,10.77405184507372L149.5209375,27.802993272032072L149.799375,-0.007505587169068573L150.286640625,6.022133486611531L150.35625000000002,6.665496442999195L150.913125,16.322308480739615L151.05234375,11.096618771553059L151.1915625,26.51472253458844L151.400390625,21.640876063278778L151.47,9.847609187875499L151.88765625,6.1989970718111564L151.957265625,15.529511996677977L152.51414062499998,4.176821580954986L152.72296875,11.913077448095631L152.79257812499998,0.5892865572657157L152.8621875,30.928361969334766L152.931796875,4.737555256911712L153.071015625,26.666077673435232L153.27984375,17.861179922308256L153.76710937500002,33.251476841313526L153.83671875,38.855234129088295L154.18476562499998,45.674843788146994L154.323984375,34.418723753520446L154.39359375,14.848168960639434L154.46320312499998,34.52019235917502L155.08968750000003,9.818521269730192L155.36812500000002,8.460658064910369L155.50734375,17.146868067128345L155.576953125,25.941931690488566L155.71617187500001,15.149635842868285L156.06421875,11.78169199398588L156.13382812499998,23.141616710594757L156.273046875,9.056018420628172L156.34265625,43.598750148500734L156.412265625,47.43496426514219L156.62109375,20.515565489019682L156.7603125,28.57755328927724L156.89953125,15.977398114545032L157.52601562499999,26.243436251367857L157.73484375,20.3910752279418L158.361328125,25.78763761690687L158.77898437500002,13.880129073347401L158.84859375,6.225598199026956L159.26624999999999,24.561800403254402L159.335859375,9.647686268602122L159.40546875,8.470793621880695L159.96234375,3.342126437595946L160.38,23.181593758719337L160.44960937500002,15.755131755556397L161.006484375,11.362102542604756L161.07609375,44.16106632777625L161.284921875,23.88060808181765L161.7721875,11.299367589609995L161.91140625,5.891162497656717L162.18984375,2.8000060149601835L162.6075,14.51814166137154L162.88593749999998,2.152347692421538L162.955546875,-11.921909323760408L163.16437499999998,11.33655641760148L163.512421875,13.227685562201934L163.79085937500003,14.489807316235167L164.06929687500002,35.100669647966136L164.69578125,36.817798784800964L164.83499999999998,-13.600417843886751L164.904609375,31.003417841025787L165.322265625,6.831018754414183L165.391875,15.133697773729075L165.461484375,9.19324406555723L165.600703125,20.16775386674066L165.739921875,31.44244947603773L166.57523437499998,11.236444243363005L167.20171875,7.991257437637907L167.48015625000002,-5.320346014840251L167.82820312500002,5.546666596617054L167.8978125,37.179212399891476L168.24585937499998,16.094691753387472L168.31546875,11.149745668683757L168.385078125,17.104705657277812L168.663515625,9.399723070008442L168.733125,25.56834787130358L169.15078125000002,11.63063828434266L169.42921875000002,21.73921734094622L169.49882812500002,17.025844241891612L169.5684375,21.813896426132782L169.70765625,8.090766753469218L170.1253125,8.697619097573444L170.334140625,5.257369918482675L170.473359375,19.779400016580333L170.6821875,-9.34303177254536L170.891015625,37.833276093006155L171.09984375000002,54.15318067584722L171.2390625,21.017821899482207L171.726328125,-7.019841543265718L171.86554687499998,21.901612324374092L172.700859375,1.4549158726419975L172.77046875000002,-2.8500583342143355L172.84007812500002,-7.873036903994396L173.814609375,25.46748212405615L174.093046875,24.23132096018113L174.371484375,-4.148012484822938L174.44109375,27.383479177951834L174.649921875,3.8746011257171826L174.71953125,1.6369414329529004L174.92835937499999,-1.7344311731202093L175.067578125,11.425779461860676L175.20679687499998,16.477544520582487L175.55484374999997,4.025014298302815L175.763671875,13.388234291757893L175.902890625,2.8047912035669853L176.11171875,15.17164017472951L176.320546875,36.806947333472145L176.52937500000002,13.482506275177021L176.66859374999999,10.319195176873912L176.87742187499998,30.226860855306914L177.08625,-14.080971351691622L177.155859375,19.79315272399359L177.3646875,4.64629756552835L177.573515625,10.696735254355865L178.20000000000002,-12.100543805531048L178.33921875,-0.5032812697546598L178.687265625,23.69402340480261L179.0353125,11.634104720183807L179.104921875,-4.182940593787569L179.17453125,11.871291824749571L179.31375,-10.750932225159191L179.383359375,21.69912725687029L179.52257812500002,17.466571416173686L179.661796875,13.108131204332661L179.87062500000002,20.226306489535766L179.940234375,-9.608930008751994L180.56671874999998,-12.022548999105164L180.7059375,2.942393635000538L181.19320312500003,-1.6183809297425238L181.332421875,-3.9439449140003466L181.40203125,30.899236372539L181.610859375,25.552786588668845L181.75007812500002,-11.703636901719218L182.028515625,-9.378223632063161L182.23734374999998,22.21502333879473L182.3765625,1.3972675374576304L182.51578125,23.754158530916502L182.585390625,9.69636708498003L182.9334375,9.851829196725596L183.21187500000002,-8.062108371938955L183.281484375,-7.554991415568727L183.35109375,43.362429652895266L183.62953124999999,5.695987088339701L183.69914062499998,9.17568581444879L183.838359375,1.9167430911745598L183.90796874999998,3.801278471946736L184.0471875,8.980774155684905L184.116796875,-27.382778355053446L184.18640625,0.4871020572526339L184.325625,-5.39988564593448L184.395234375,12.550637892314391L184.534453125,-3.4891259244509993L185.508984375,-13.948756967272054L185.787421875,2.2095815624509876L185.92664062499998,-2.236386154379141L186.065859375,-5.511602844510743L186.344296875,21.89249409096585L187.040390625,-12.60796219110485L187.179609375,16.106711242880156L187.31882812499998,0.43600980724610283L187.3884375,11.41470193862917L187.666875,-17.05374151468273L187.80609375,5.5533733963966565L187.875703125,1.5386755125863436L187.9453125,9.635629100458994L188.154140625,17.323505580425284L188.432578125,6.384149960109191L188.711015625,-10.912799707480806L189.963984375,-10.22331808294566L190.103203125,10.201788502080127L190.31203125,-10.793283028261975L190.799296875,-2.9566512363297432L190.86890625,7.971061680998157L191.008125,-12.654909789562186L191.14734375,5.286872301782917L191.216953125,13.938606338841602L191.495390625,-21.775064808981732L191.70421875,-7.050248214176678L191.91304687500002,1.1533736331122628L192.26109375000001,-2.100629976817506L193.37484375,-4.6671489306858325L193.58367187500002,13.14588521208085L193.93171875000002,0.3295676197324817L194.07093749999999,-3.8969596368925687L194.27976562499998,0.179116768496408L194.697421875,-11.039362294333294L194.76703125,29.65738573244642L194.90625,13.483674313340892L195.115078125,-15.42135166270389L195.32390625,-1.394004566328838L195.393515625,25.109874052660835L195.463125,-3.748430396829316L196.089609375,5.316751471587615L196.15921875,-11.231221982410931L196.785703125,-12.868434701647054L197.13375,2.081775580133747L197.27296875000002,-3.81124070712496L197.342578125,-10.462389120033764L197.4121875,11.57506227493288L197.48179687500001,-10.538726065840017L198.038671875,8.83883867944993L198.66515625,-14.389823249408144L199.013203125,-17.508334432329427L199.570078125,0.0017633608409617363L199.63968749999998,-18.92120846680231L199.848515625,-6.02414552654536L200.126953125,7.871137900011911L200.61421875000002,-4.103099533489727L200.823046875,-3.982904638562867L201.03187499999999,10.11682314532147L201.10148437499998,-19.342493457453564L201.31031249999998,-9.854481773717051L201.8671875,27.697304657527404L202.00640625,-6.838155090808829L202.28484375000002,-8.98602655955721L202.98093749999998,7.714394714151132L203.5378125,18.22330943175726L203.607421875,4.218004345893879L203.67703125,-7.4424829653331095L205.556484375,-19.481527677604095L205.695703125,4.630434853690042L205.834921875,-17.06372635705127L206.04375,2.342398805277719L206.600625,-15.88197316442216L207.85359375000002,-12.93836627687724L207.99281249999999,3.9972074542727043L208.34085937499998,-6.266042462417024L210.01148437499998,-8.130532801151237L210.08109374999998,0.8891332575253387L210.150703125,-11.935247566018768L210.91640625,-6.688796920435741L211.055625,0.9531869632857551L211.19484375,-15.092906866754781L212.93507812500002,-19.380021393299064L213.35273437499998,9.162008464336415L213.42234374999998,-10.393135760511647L215.2321875,-4.590811984879618L215.301796875,11.14722119910379L215.510625,-30.5613116281373L216.20671875,-32.09076340709409L216.27632812500002,0.7779435600553577L216.48515625,-21.408790647983512L248.296640625,-27.36503171069278L248.435859375,0.35428481442590243L248.575078125,-24.384876532214" style="fill: none;" fill="none"></path></g><g><path stroke="rgb(255, 112, 67)" stroke-width="2px" d="M35.3615625,255.02309631024087L35.431171875000004,167.55680028881346L35.50078125,176.60928445202964L35.570390625,167.2480614270483L35.64,164.37657147645953L35.709609375,190.96405902079175L35.77921875,128.47333903823582L35.848828125000004,131.34889828307288L35.9184375,119.62322690657209L35.988046875,124.26297592265266L36.05765625,139.66834430183684L36.127265625,146.53753906488421L36.196875,130.0187665649823L36.266484375000005,122.62753409998759L36.33609375,111.37442835739682L36.405703125,117.22253169332235L36.4753125,113.19995897156852L36.544921875,118.23043559278761L36.61453125,155.7552441103118L36.684140625000005,89.53384791101729L36.753750000000004,98.45931734357565L36.823359375,91.27056994608472L36.89296875,91.69415333441327L36.962578125,57.22696730068754L37.0321875,142.58143148251943L37.101796875000005,112.72709190845491L37.171406250000004,82.62833092893874L37.241015625,97.63193185840338L37.310625,87.97636321612768L37.380234375,101.95759164435523L37.44984375,99.35358243329185L37.519453125000005,70.77636071613858L37.589062500000004,123.93573684351786L37.658671875,74.86494643347605L37.72828125,85.60064894812449L37.797890625,77.19925186463766L37.8675,99.71152961254121L37.937109375000006,85.23818033082146L38.006718750000005,141.13532487835204L38.076328125,65.7673986043249L38.1459375,65.32900750637056L38.215546875,121.94634177855085L38.28515625,84.28777405193875L38.354765625000006,83.9124570148332L38.424375000000005,80.00506792749678L38.493984375000004,89.58154908248358L38.56359375,134.40184861421588L38.633203125,92.01250025204251L38.7028125,95.71299586977278L38.772421875000006,70.4649089915412L38.842031250000005,89.10762701715743L38.911640625000004,84.08675845180242L38.98125,88.57767679861615L39.050859375,94.9784882579531L39.12046875,117.68959624426707L39.190078125,116.68809771537782L39.2596875,93.00152714763372L39.329296875,53.60239416360857L39.398906249999996,73.25271465948651L39.468515624999995,77.38775815282553L39.538124999999994,68.53075082812994L39.607734375,101.27794414758684L39.67734375,73.07151802948545L39.746953125,69.08349663019182L39.816562499999996,128.12160883631026L39.886171874999995,72.61191385132928L39.955781249999994,95.26729511363166L40.025390625,80.16667165926526L40.095,86.53112322092058L40.164609375,51.84931959424703L40.23421875,46.69567146471571L40.303828124999995,42.508744469710784L40.373437499999994,78.23869279452734L40.443046875,75.42937261717661L40.51265625,40.47873181956158L40.582265625,99.90429358822959L40.651875,67.32966848782132L40.721484374999996,59.13610684020181L40.791093749999995,62.40812084504538L40.860703125,72.19315333025797L40.9303125,85.28953633138113L40.999921875,65.11608545269289L41.06953125,71.5210038849286L41.139140624999996,45.52654061998643L41.208749999999995,73.23383765561242L41.278359375,98.75302242381233L41.34796875,38.626374006271384L41.417578125,76.8749140415873L41.4871875,76.72306908028467L41.556796874999996,76.21843891484399L41.626406249999995,56.643927863666015L41.696015625,76.8895710366113L41.765625,42.81458207539152L41.835234375,57.67790538924083L41.90484375,55.2924323507718L41.974453125,58.55732509068083L42.044062499999995,59.246542964662844L42.113671875,80.89258853878295L42.18328125,69.51389985425133L42.252890625,51.59197441169196L42.3225,60.01288903611049L42.392109375,67.06557882683619L42.461718749999996,86.79404484374184L42.531328125,97.26610984121054L42.6009375,58.779817521572134L42.670546875,113.36955057723182L42.74015625,61.179947555065176L42.809765625,66.49361691304617L42.879374999999996,93.66602782692229L42.948984375,68.74578288623266L43.01859375,55.74683687516623L43.088203125,86.9323631695339L43.1578125,70.95375180244447L43.227421875,99.51537455831259L43.297031249999996,60.96770371709554L43.366640625,87.738761646407L43.43625,56.20911623750417L43.505859375,75.16663938760759L43.57546875,37.01297419411798L43.645078125,53.713847611631685L43.714687500000004,116.92818607602804L43.784296875,87.53333764416833L43.85390625,73.099362552166L43.923515625,74.1223379118102L43.993125,61.01095880780904L44.062734375,101.15089173827856L44.132343750000004,110.21313467196057L44.201953125,107.47510250125616L44.2715625,44.25292687756677L44.341171875,24.316700782094706L44.41078125,57.66407732452668L44.480390625,90.63402682542802L44.550000000000004,90.32118099076408L44.619609375,50.88011166879111L44.68921875,44.643202338899904L44.758828125,65.42791396379472L44.8284375,89.25408393144609L44.898046875,126.00063992398127L44.967656250000005,53.65179087434499L45.037265625,49.32466162102565L45.106875,67.12367930582593L45.176484375,69.62840527296068L45.24609375,69.18522898639955L45.315703125,47.940536396844074L45.385312500000005,48.43062260321211L45.454921875000004,73.30972245761328L45.52453125,79.87680980137418L45.594140625,118.15172489200323L45.66375,83.03281124149053L45.733359375,97.67541302101954L45.802968750000005,69.12531993218832L45.872578125000004,48.15138612474717L45.9421875,88.8592870320593L46.011796875,82.95711483274191L46.08140625,65.63375243118833L46.151015625,48.36204745939802L46.220625000000005,79.57202719790597L46.290234375000004,39.68310943671637L46.35984375,50.37593364715578L46.429453125,61.969503675188356L46.4990625,73.49348123584478L46.568671875,37.536556720733664L46.638281250000006,71.57609007188253L46.707890625000005,65.11295812470574L46.7775,63.14617025000711L46.847109375,72.25313774177008L46.91671875,67.71809769528254L46.986328125,46.37890705040525L47.055937500000006,49.22232640641078L47.125546875000005,81.74582157816207L47.195156250000004,75.04324180739268L47.264765625,55.91168097087317L47.334375,80.31440964766912" style="fill: none;" fill="none"></path></g></g></g></g></g></g><g transform="translate(51, 177)" clip-path="url(#clip_1)"><clipPath id="clip_1"><rect width="278" height="23"></rect></clipPath><g><g><line x1="0" y1="0" x2="0" y2="5" style="visibility: inherit;" fill="rgb(0, 0, 0)" stroke="rgb(204, 204, 204)" stroke-width="1px"></line><line x1="34.8046875" y1="0" x2="34.8046875" y2="5" style="visibility: inherit;" fill="rgb(0, 0, 0)" stroke="rgb(204, 204, 204)" stroke-width="1px"></line><line x1="69.609375" y1="0" x2="69.609375" y2="5" style="visibility: inherit;" fill="rgb(0, 0, 0)" stroke="rgb(204, 204, 204)" stroke-width="1px"></line><line x1="104.4140625" y1="0" x2="104.4140625" y2="5" style="visibility: inherit;" fill="rgb(0, 0, 0)" stroke="rgb(204, 204, 204)" stroke-width="1px"></line><line x1="139.21875" y1="0" x2="139.21875" y2="5" style="visibility: inherit;" fill="rgb(0, 0, 0)" stroke="rgb(204, 204, 204)" stroke-width="1px"></line><line x1="174.0234375" y1="0" x2="174.0234375" y2="5" style="visibility: inherit;" fill="rgb(0, 0, 0)" stroke="rgb(204, 204, 204)" stroke-width="1px"></line><line x1="208.828125" y1="0" x2="208.828125" y2="5" style="visibility: inherit;" fill="rgb(0, 0, 0)" stroke="rgb(204, 204, 204)" stroke-width="1px"></line><line x1="243.6328125" y1="0" x2="243.6328125" y2="5" style="visibility: inherit;" fill="rgb(0, 0, 0)" stroke="rgb(204, 204, 204)" stroke-width="1px"></line><line x1="278.4375" y1="0" x2="278.4375" y2="5" style="visibility: inherit;" fill="rgb(0, 0, 0)" stroke="rgb(204, 204, 204)" stroke-width="1px"></line></g><g transform="translate(0, 8)"><text x="0" y="0" dx="0em" dy="0.95em" style="text-anchor: middle; visibility: hidden; font-family: Roboto, sans-serif; font-size: 12px; font-weight: 200;" fill="rgb(33, 33, 33)" stroke="none" stroke-width="1px">-10k</text><text x="34.8046875" y="0" dx="0em" dy="0.95em" style="text-anchor: middle; visibility: inherit; font-family: Roboto, sans-serif; font-size: 12px; font-weight: 200;" fill="rgb(33, 33, 33)" stroke="none" stroke-width="1px">0</text><text x="69.609375" y="0" dx="0em" dy="0.95em" style="text-anchor: middle; visibility: inherit; font-family: Roboto, sans-serif; font-size: 12px; font-weight: 200;" fill="rgb(33, 33, 33)" stroke="none" stroke-width="1px">10k</text><text x="104.4140625" y="0" dx="0em" dy="0.95em" style="text-anchor: middle; visibility: inherit; font-family: Roboto, sans-serif; font-size: 12px; font-weight: 200;" fill="rgb(33, 33, 33)" stroke="none" stroke-width="1px">20k</text><text x="139.21875" y="0" dx="0em" dy="0.95em" style="text-anchor: middle; visibility: inherit; font-family: Roboto, sans-serif; font-size: 12px; font-weight: 200;" fill="rgb(33, 33, 33)" stroke="none" stroke-width="1px">30k</text><text x="174.0234375" y="0" dx="0em" dy="0.95em" style="text-anchor: middle; visibility: inherit; font-family: Roboto, sans-serif; font-size: 12px; font-weight: 200;" fill="rgb(33, 33, 33)" stroke="none" stroke-width="1px">40k</text><text x="208.828125" y="0" dx="0em" dy="0.95em" style="text-anchor: middle; visibility: inherit; font-family: Roboto, sans-serif; font-size: 12px; font-weight: 200;" fill="rgb(33, 33, 33)" stroke="none" stroke-width="1px">50k</text><text x="243.6328125" y="0" dx="0em" dy="0.95em" style="text-anchor: middle; visibility: inherit; font-family: Roboto, sans-serif; font-size: 12px; font-weight: 200;" fill="rgb(33, 33, 33)" stroke="none" stroke-width="1px">60k</text><text x="278.4375" y="0" dx="0em" dy="0.95em" style="text-anchor: middle; visibility: hidden; font-family: Roboto, sans-serif; font-size: 12px; font-weight: 200;" fill="rgb(33, 33, 33)" stroke="none" stroke-width="1px">70k</text></g><line x1="0" y1="0" x2="278.4375" y2="0" fill="rgb(0, 0, 0)" stroke="rgb(204, 204, 204)" stroke-width="1px"></line></g></g></g></g></svg>